<svg id="Camada_1" data-name="Camada 1" xmlns="http://www.w3.org/2000/svg" viewBox="0 0 390.17 566"><defs><style>.cls-1{fill:#fdfdfd;}.cls-1,.cls-10,.cls-11,.cls-12,.cls-13,.cls-14,.cls-15,.cls-16,.cls-17,.cls-18,.cls-19,.cls-2,.cls-20,.cls-21,.cls-22,.cls-23,.cls-24,.cls-25,.cls-26,.cls-27,.cls-28,.cls-29,.cls-3,.cls-30,.cls-31,.cls-32,.cls-33,.cls-34,.cls-35,.cls-36,.cls-37,.cls-38,.cls-39,.cls-4,.cls-40,.cls-41,.cls-42,.cls-43,.cls-44,.cls-45,.cls-46,.cls-47,.cls-48,.cls-49,.cls-5,.cls-50,.cls-51,.cls-52,.cls-53,.cls-54,.cls-55,.cls-6,.cls-7,.cls-8,.cls-9{fill-rule:evenodd;}.cls-2{fill:#101241;}.cls-3{fill:#0b1041;}.cls-4{fill:#f2f4f4;}.cls-5{fill:#f41b1b;}.cls-6{fill:#fafaf9;}.cls-7{fill:#eb1a18;}.cls-8{fill:#fafdfa;}.cls-9{fill:#0b1241;}.cls-10{fill:#f41b22;}.cls-11{fill:#f2f2f2;}.cls-12{fill:#101443;}.cls-13{fill:#e91b24;}.cls-14{fill:#0b103c;}.cls-15{fill:#121842;}.cls-16{fill:#f9f9f6;}.cls-17{fill:#f6f6f6;}.cls-18{fill:#d81a25;}.cls-19{fill:#989ab2;}.cls-20{fill:#971a34;}.cls-21{fill:#8b91a6;}.cls-22{fill:#f2f2f5;}.cls-23{fill:#181b42;}.cls-24{fill:#0b1243;}.cls-25{fill:#10123a;}.cls-26{fill:#757894;}.cls-27{fill:#6d6f91;}.cls-28{fill:#091034;}.cls-29{fill:#edf2f4;}.cls-30{fill:#9294aa;}.cls-31{fill:#1c224a;}.cls-32{fill:#bdc1d3;}.cls-33{fill:#8a8ba2;}.cls-34{fill:#761634;}.cls-35{fill:#b71a27;}.cls-36{fill:#20244a;}.cls-37{fill:#2c3153;}.cls-38{fill:#656985;}.cls-39{fill:#12183a;}.cls-40{fill:#090b39;}.cls-41{fill:#090934;}.cls-42{fill:#861832;}.cls-43{fill:#9697a9;}.cls-44{fill:#661434;}.cls-45{fill:#9ca2b5;}.cls-46{fill:#6b7189;}.cls-47{fill:#83869a;}.cls-48{fill:#797a93;}.cls-49{fill:#7a85a0;}.cls-50{fill:#73758b;}.cls-51{fill:#8688a3;}.cls-52{fill:#262747;}.cls-53{fill:#000331;}.cls-54{fill:#961628;}.cls-55{fill:#a4a7b8;}</style></defs><path class="cls-1" d="M382.15,329.43c.39-1.15-.94-2.33,1.85-2.23,4.05.18,1.29.14,2.2,2.23-1.64,1.29,2,1.57-2.16,1.15-3.63-.34-.67,0-1.89-1.15Zm24-3.17c4-2.69,4.78-1.5,4.92,2.89-4,1-4.57,1.54-4.92-2.89ZM390,323.12c5.83-3.07,11.86,3,12.18,9.8-7.71-.84-.07-1.08-9.42-7Zm5.65-11.65c5.62-2.86,13.05,6.87,10.54,11.65-5-.77-2.44-1.15-5.23-5.34-1.92-2.93-3.53-2.65-4.47-3.94Zm-95.52,0c.73-3.35.94-4.78,5.13-2.09l.13,2.65c-1.88.7-.27,1.15-2.82.7-2.16-.35-1.12-.28-2.44-1.26Zm57.23-.45.24-5.72c5-.52,5.13-.14,5.55,4.39ZM300.16,271l2.72-.46c1,2.3,1.57-2.06.8,2.79-.49,3.18-.31,1.05-1.15,2.13-6.7-1.5-2.37-4.46-2.37-4.46Zm-13.36-5.76,4.36-.45c.87,3.24,1,1.88,0,4.67-2.93,1.15-1.16,1-4.43,0Zm-8.86,1.88c-.17-5.75,0-1.95,1.33-3.59,1.11.32,4.22-.28,2.82,3.32-1.53,3.87-4.08.31-4.15.27Zm44.64-15.17c1.4-1.81-1.15-1.67,3.21-1.71.46.74,1.15,0,.94,2.17-.24,2.44,0,.83-1,2.26l-3.35,0ZM198.49,277.64c-1.88,3.25,2.17,1.54-3.69,2.62-9.21,1.67-28.64,3.14-37.08-2.69A145.31,145.31,0,0,1,144,267c-17.48-15.24-11.23-19.56-6.11-12.93a36.45,36.45,0,0,0,6.07,6.62c16.92,14.89,20.09,19.29,44,15.38,4.39-.73,7.84-1.67,10.56,1.57Zm25.32-34.87c6.14-6.63,13.36,7.63,15.35,11.54,2.09,4.08,2.48,3.73,0,6.07-6.13-2.2-2.26-8.41-12.9-15.24-5.16-3.32,1.22.9-2.41-2.37Zm-86-3.11c4.88-1.67,12.52,7.43,16.11,10.08,6.38,4.67,9.45,8.65,17.89,11.61,10.15,3.6,40.28,6.95,39.58,19.22-7,.66-2.58-4.15-19.11-9-27.48-7.95-26.19-3.66-52-27.31-4.08-3.73-1.33-.52-2.51-4.64Zm82.3-2.09,1.08,3.77-3.52.14c0-.6-2.13,0-.38-2.66,1.46-2.3.17-1,2.82-1.25Zm-71.53-3.17c10.39,4.08,11.3,13,26,14.89,14,1.78,17.37,5.51,28.78,11.47,2.3,1.43,2.05-1.32,2,3.14-.91.56.84,1.19-2.3,1-2-.14-1.43-.38-2.37-1-3.7-1.09-10.12-5-13.12-6.67-7.25-3.94-8.86-2.72-16.88-4.29-12.69-2.47-16.56-12.06-24.48-16-1.22-1.5-2.79,2.58-.77-3.21,5.48-1.15,1.61-.17,3.07.67Zm81-3.11c5.79,1.15,1,3.21,12.94,5.86A56.93,56.93,0,0,1,256.81,242c7.22,3.67,18.31,10,16.49,20.2-5.79,1.08-4.08-5-8.33-9.38-10.12-10.4-40.18-12.7-35.37-21.56Zm-79.86-3.94c10.15-.1-1.19,6.59,20.64,6,4.47-.1,8.44-.21,12.49,1.12a25.91,25.91,0,0,1,4.46,1.92c3.56,1.92,2.58,0,3.18,4.22-5.37,2.51-1.12-3.21-23.3-3.24-4.5,0-8.44-.25-11.33-2.31A20.39,20.39,0,0,1,152,231.5c-4.08-4.15-1.47-.24-2.3-4.15Zm78.33-3,.35,4.15c-5.27,0-5.58-4.19-.35-4.15Zm207.69-4.15c1.64.38,2.93-1.12,2.86,2.4-.07,4.05-3.42.32-3.42.67,0,0-.87-1,.56-3.07Zm-247.38-.7c1.78.77,1.22-1.75,2.13,1.43,1.22,4.39-.63,2.44-1.08,3-2.93-1.25-4.47-.66-1.05-4.46Zm83.25-1.29,3.28-.66.07,4.63c-3.63,0-5-.87-3.35-4Zm55.14-18.77c.63-4.67,4.85-3.34,9.38-6.55,3.91-2.76,4.26-6.63,9.35-5.83,0,4.78-3.6,7.12-6.87,9.39s-7.47,5-11.86,3Zm-32.12-3.69c0-5,6.24-4.08,11.51-6.38,4.36-1.92,8.54-6.32,11.58-6.18,1.74,8-16.47,13.88-23.09,12.56ZM423,186.55c-8.16.07-37,19.91-44.4,20.43l-2,3.11-.6.69a8.1,8.1,0,0,1-.59.67l-2.58.31-.31-2.82c2.44-3.53-.84-.25,1.88-2.17a20.27,20.27,0,0,1,2.34-1.11c3.62-4.47,44.32-26.93,51.37-24.62,1.53,1.43,1.39-2.17,1.15,2.51Zm-98.11,0,3.1-2.27c2.93-2.37,1.64-3.41,5.83-3.34,1.78,7-12.17,14.92-18.87,14.57,1.33-6.1,5.72-4.36,9.94-9Zm-51.37,8.68c2.4-5.09,13.53-3.83,21-10.11,2.93-2.48,2-3.49,7-3.73-.69,6-5.82,8.09-10.95,10.32-5.75,2.51-12.59,5.79-17.05,3.52Zm71.28-16.25c3,2.13,3.25,2.69,0,5-3.34-2.4-3.41-3,0-5Zm-31.14,1.92-.45-4.11c5.65-.14,5.68,4.42.45,4.11Zm-12.21-7.15c2,1,1.22-2.09,2.2,1.64,1.08,4.08-.7,2.48-1.15,3-1.92-.8-1.22,2.06-2.16-1.46-1.19-4.57.59-2.55,1.11-3.21Zm30.66-1.18c3.63,1.15,3.38.55,2.41,4a1.76,1.76,0,0,1-2.9,0c-2.61-2.86.42-3.81.49-3.94Zm-70.62,17.36c1.11-6.45,3.94-.45,16.39-7.74,13-7.6,8.79-9.66,15.1-9.21-1.15,9.53-23.47,20.48-31.49,16.95ZM358.78,171c5.24-1,7.15,2.61,9.32,10.56,1,4,2.44,15.1-3.18,12.59-1.67-3.24-.17-7.6-1.92-13-1.43-4.39-3.8-5.89-4.22-10.18ZM294,167.71l-.1,2.76c-2.48.21-3.6.7-3.53-1.68s1.82-1.91,3.63-1.08ZM353.17,166c1.39-1.95-2.51-2.16,3.28-1.71,1.43,2.72,2.13.56,0,4.5-4.29.14-1.54.17-3.07-1.85Zm-75.68,3.14.21.73c-1.71,5.13-5.86,7.11-10.36,9.21-4.29,2-10.95,4.85-15.24,1.36,2.79-4,6.66.9,21.73-10.47,2.05-3,.24-.45,1.53-3.2,1.05-2.27-.52-.32,1.57-2.72l3.21,1.25c-1,3.87-.14,2.3-2.65,3.84Zm66.68-7.29,4.95.17c-.62,4.54-.55,5.23-4.67,4-1.12-2.76-1.29-.11-.28-4.15Zm-24-8.2,3.87-.31c.84,4.64.31,4.64-3.8,5-.91-2.65-1.43-2-.07-4.68Zm74.28-8.54c-3.21.14-2.47-2-1.85-4.57l3.18-.38c.63,1.77,1.6,4.81-1.33,5ZM300.05,136c-2.61,5-26.89,6.38-28.84-.8,4.29-1.26,9.38.63,14.4.52l11.62-1.08c2.75.35,1.29.31,2.82,1.36Zm8.06-3.45c2.34,6-5.79,5.51-3.52.31,1.08-.7.14-.56,2.06-.84.13,0,.62.46.73.21s.49.21.73.32Zm28.6-7.85c-5.13.7-4.68-3.52-3.52-6.56,4.18.53,4.7,1.78,3.52,6.56Zm85.62-13c-.87,2-.07,4.77-4.19,1.08.91-1.19-1.64-1.47,1.82-2.23,4.25-1,1,.14,2.37,1.15Zm-41.57,2.51c-7.29,1.11-10.78,6.9-17.86,7.6-6.56.63-6.77-1.29-11.06-2.2-4.74-1-4.7,1.82-8.78,2.31-1.64-11.83,15.48-4.64,15.52-4.64,7.15,1.08,12-4.29,17.68-6.56,2.65-2.06,2.19-.8,4.29-1.5l3.38-2.62c5.93.11,1.19-.27,2.62,1.5,2.37,4.43.69,2.93.59,3.6-3.77,2.75-1.12.66-3.1,1.29ZM395,105.32c2.3-1.08,3.73-.11,3,2.93-1.43,1.32,2.51,2.2-3.49,1.25-2.27-4.63-.49-3.06.45-4.18Zm-98.91-1c.07-3.73,1.43-4,5.13-3.87.45,4-1.64,5.55-5.13,3.87ZM418.91,101c1.75,10.71,1.57,4.29-.07,6.91-3.14-1.37-1.46,2-3.45-3.49a15.5,15.5,0,0,1-.7-4.33c-.24-5.54.7-5.54,1.78-10,1.5-6.17-5.89-11.51-2.93-17.3,3.8,1.26,1.81,1,5.75,8.82,1.92,3.77,2.73,6.07,4.89,9.84,8.68,15.31,12.13,8.61,12.34,15.94-8.44,1.39-14-10.88-16.63-13.6-1.29,2.4-1.5,3.94-1,7.18ZM407.19,64.72c3.6,1.08,4.43,1.54,2.13,5.79-2.48-.42-2.75.53-3.38-2.19-.94-4.12,1.22-3.53,1.25-3.6Zm-155.4,96.75c0-.28,0-.63.73.31.1.11.38.49.49.63s.34.59.52.87l-.32,3.6c-8.47,3-12.69,23.08,8,30.58,6.69,2.44,7.18,1.82,12.83,5.13,27.55-11.93,37,2.44,63.44,3.7,5.93-7.47,13.39-2.62,20.89-16.4-2.47-4.67-1.95,1.57-1.57-5,7.71-1.43,10.33,11.85-11.58,21.69,3.94.59,6.7.73,10.4-.84,2.68-1.11,4.88-3.69,7.08-4.57l-1.82-3.24c-.14-2.58,1.15-2.16,3.28-2.65l1.85,4.43c.14.28.7,1.25.87,1.53-.35,4.08-.21,1.12-2.82,4.75-5.83,8-4.4,17.43-13.95,29.36-2.83,3.52-6.91,5.93-8.41,8.79l-5.79,1.75c-3.38,2.68-3.21.83-3.66-2.31,1.64-1.08.31-.42,3.1-1.22l2.2-.17c6-5.13,12.59-10.88,15.35-20.3-14.2,6.59-33.38,38.22-58.11,26-1.95,0-1.5-.49-1.5,1.47,7.68,8.33,22.53,3.73,25.71,4.32-.63,8.16-18.1,3.66-23.51,3,6.94,10.22,22.32,5,44,14.75,12.45,5.61,29.72,22.88,24.38,32.47-7.57-.38.18-1-7.22-12.66-8.44-13.39-25.84-19.6-41.4-21.9s-20.4-3.77-27.37-15c-5.58-9-20.3-19.26-21.21-21,3.42-3,11.27-3.73,17.54-13,5.72-8.54,6.39-11.12,12.91-17.33-13.64-.91-13.57,12.17-21.52,10.88-.28-5.48,3-3.7,5.06-8.72-11.06,3.63-11.65,14-17.2,16.46-2.44-2.34-1.39,0-1.64-4.29-8.09-.14-13.28-1.29-17.22-6.28-7.71,5.24-18.59-7-29,2.24,5,5.54,8.72,2,9,9.69-5.23-.21-14-6.14-15.91-8-16.6-4.4-12.66-3.25-22.11.69-4.43,1.85-13.08-4.22-23.33-1.92,1.95,3.88,5.68,3.35,5.72,8.83-7.67,1.32-1.88-2.27-14.79-6.84a41.09,41.09,0,0,0-20.54-2.4l.14,3.17c11.58,6.77,4.78,25.25-4.74,27.34-7.19,1.57-7.82-1.36-12.56-2.93a59.32,59.32,0,0,0-7.22,7.22l1.68,9.42c6.34-4.6-2.59-8.65,4.46-12.35,6.14,7.85-8.65,7.33,23.44,29.23,12.38,8.47,7.7,15.59,36.83,16.11,12.93.25,22.6-1,34.87-1.57,31.11-1.32,33.62,16.08,49,22.46,9.76,4.05,50.64,6.38,64.24,6.49-4.12-3.07-10.88-2.79-12.63-5.3,7.15-5.3,20.16,2.54,24.45,6.07C353.13,333,354.22,354.26,358.78,361c3.11,4.6,12.94,12.84,20.37,12.52l.28-18.27c-23.09-4-9.62-25.46.39-25.92-.49,5.1-2.06,3.35-5.24,7.71-8.09,11.09,1.57,13.25,2.62,13.15l.14-4.85c9.83-8.65,13.46,1.36,17.16,5a14.53,14.53,0,0,0,3.69-3.48c2-2.76.21-3.07,4.22-3.07,1.54,5.89-3.55,9.13-7.49,10.36L396,373.66c6-.7,7.19-3.7,17.51-4,2.69-1.19,25.25-38.57,27.34-43.53,6.66-15.65,12.49-37.63,16.64-55l-.45-1.29c-.42.31-.91.21-1,.59-.63,2.58,0-.1-1.43,1.05-2.48,10.88-12.07,44.64-19.08,49.14-.42,1.43,0,.94-.66,2.58-1.54,3.45-.45,1.05-1.47,2.55l-2.79.45-.31-3.87,3.35-5.16c7.08-7.75,13.29-36.48,18.27-49-7.84-12.83-2.82-10.25-6.73-15.48-7.95,2.19-.45-.53-3.17,4.74-14,1.6-11.79-4.71-16.36-3.28-4.15,11.54,6.52,10.32,7.64,17.09-4.15,1.71-8-1.88-10.5-6-4.43-7.33-1.11-9,.21-15.24.07-.21-4.08-26.75,7.95-26.72.39,6.84-7.39,6.56-4,23.16l1.08-1.68c1.22-3.59.95-10.49,6.46-12.66,4.22-1.67,12.27,2.93,17,4a79.22,79.22,0,0,0,9.1-4.29c5.23-6.17-5.16-69.86-5.54-77l-3.56.07c-7.92,1.64-16.78-5.44-25.74-9.94-5.68-2.86-4.74-5.72-12.27-5.72-5.06,0-12.66,2.48-15.94,0,.9-3.42.73-3.24,5.68-4a72.19,72.19,0,0,1,9.07-.38c-2.23-4.71-3.1-3.14-8.65-2.27-8.51,1.36-19.84,1.68-28.42,6.14l-5.58,2.41-3.46-.07c-.1-4.12-.59-3.94,3.46-3.8.9-2.69.34-.81,2.4-2.27,4.92-1.26,10.71-3.38,16.43-4.64,6-1.29,13-1.46,18.38-3-2.41-5.65-8.16-8.83-6.7-15.18,4.85.49,9.77,13.64,19.15,22.19,4.15,3.8,22.15,14.5,26.37,15.34.21,0,3.52.59,3.73.56,4.22-1,.9,1.53,3.35-2.62-9.53-43.35-6.81-27.06-22.78-61L417.2,57.26c-4.57-9.24-7.43-11.86-11.89-19.84-2.41-4.29-.84-3.77-5.51-5.83C396.38,35.25,391,54.71,389.23,61c-13,46.31-14.09,23.22-66.68,34.7-6.66,1.46-10.32,4.74-16.11,5.68,1-4.5,3-5.12,5.47-7.63-9-7.36-9.35-17.55-14.16-31.22-1.57-4.43-3-7.88-6.83-8.75-4.08,4.25-6.28,48.61-6.87,57.16,3.24-1.33,3.76-2.27,7.46-2-.14,5.75-8.58,5.51-18.59,18.59-3.7,4.81-3.56,7-8.37,10.63-4.6,3.49-5.79,5-6.91,12.84,4.26-1.19,11.09-4,15.31-4.19,5.45-.21,10.68,3.7,15.87,3.66,6.56-.07,7.33-5.44,24.42-.83,3.66,1,4.81.59,4.6,4.77-6.31,1-10.85-2.68-18.52-2-9.42.8-4.64,5.2-18.41.91-8.23-2.55-7.43-3-16.08-.18-5.62,1.82-11.37,4.82-13,8.34Z" transform="translate(-99.1 -22)"/><path class="cls-2" d="M230.65,563.87l-3.8-.17a11.45,11.45,0,0,1,8.26-16.88c-.1,6.41-.48,13.21-4.46,17Zm-20-7.11-9.52-1.82c1.46-2.54,1.6-1.88,3.8-3.73,3.73-3.07,1.43-2.51,7-1.85Zm9.38,4.18-4.15-1.05c-1.29-6.62,2.34-11.47,8.3-11.64-3.66,9-2.37,9.8-4.15,12.69Zm-32.92-15.59,6.45-2.09c2.2,1.32,2.37,1.81,5.13,2.4l4.18,2.24-4.5,2.58c-7.25,1.22-5.44-.6-10.91-1.54l-3.7-2.4Zm97.55-6.59L288,534l18.55.94.11,6.84a31,31,0,0,1-12.14-.38Zm40.91,9.07c-6.8-.25-8-2-7.4-9.07.46-5.65,2.27-7.57,7.5-8.23-.83,4-1.67,2.47-2,7.15-.31,4.36,1.12,6.73,1.89,10.15ZM271,532.66l14.23.14a13.72,13.72,0,0,0-3.35,4.15c-5.13-.74-7.08-1.92-10.88-4.29ZM313.1,544c-4-2.79-4.26-16.43,6-16.4-2.24,4.75-3.67,3.46-4.57,11.27Zm-130.68-24c21.79,12.73,27.41,6,44.25.59,7.89,12.83,18.91,1.25,27.28,5.51,2.23,1.12,20.26,12.35,20.89,13.32A73.14,73.14,0,0,1,255,540c-6.59-.6-13.57-1.85-16.32,3.55l-18.66.56c-18.21,6.49-37.95-14.51-37.56-24.13Zm-14.55-9c4.71-.42,7.29,1.81,10.57,2.93-.84,21.76,7.19,15.66,10.85,26.78l-10.47,1.5c-5.75-8.19-12.8-20-10.95-31.21ZM244,519c.87-6.49,4.78-11.51,12.42-10a128.77,128.77,0,0,0,23.16,2.44c-2.65,10.08-17.3,8.51-27.42,6.87-5.47-.87-2.3,1.81-8.16.73ZM308.53,515c-7,2.72-20,4.36-27.69,3l4.43-6,24.41-4.81Zm-112.79-3.76c.07-6.32,5.2-7.22,11.68-7.08a36.62,36.62,0,0,1,8,1.08c4.5,1.18,4.26.8,4.29,5-7,3.21-18.24,6.73-23.92,1Zm66.79-5.34c4.71-5.65,24.93-12.8,25.11,1.05-9.14,1-6-2.37-12.42-1.82-6,.49-5.89,2.86-12.69.77Zm-20.34,6.42-1.6,4L237.76,513c-1.77-4.32-2.09-7.32-.24-11.68,5.89-7.15,14.86-3.46,18.94,2.86-7,1.46-13.15,2.16-14.27,8.16Zm71.53.49.35-7.12c9.46-4,23.41-16.18,27-16.11l.6,11c-5.38,3.73-20.3,11.3-28,12.21Zm-95.9,3.55c2.75-3,.73-2.51,5.44-2,1.71,3.62,1,3.13-2.17,4.77-6.66,2.31-12.66,4.71-21.48,3.39-8.54-1.29-15.8-4-15.45-12.31.52-12.11,19.25-19.5,29.68-12.84l4.57,3.8c-12.35-.52-27.14-5.65-27.27,11.76,4.18,3.69,4.39,5.23,12,5.54,5.62.25,11.23-2.37,14.69-2.06Zm23.33,6.39c-16.15,1.67-17.61-21.94-17.58-22.08,2.62-4.12,6-7.71,11.61-5.69.91,3-1.15,2.79-2.16,5.86-4.43,13.19,7.08,19.53,8.13,21.91Zm-62.29-13.54-9.17-3.34c.73-5.1,7.81-11.62,11.58-14.37,7-5.13,12.17-4.61,21.9-4.19l3.07,3.11c-14.48.17-21.52,5.26-26.2,16.6-1.22,3-.2.76-1.18,2.19Zm26.75-25.46c.91-3,4-5.54,7.08-6.45,2,3.39,8.33,15.87,8.93,19.46-8-.87-11-8.44-16-13ZM346.3,497.15l-1.19-11.93,12.94-10.35c3.63-3.35,8.51-10.57,13.22-12.84,1.5,2.72,2.13,9.21,2.48,12.56-3.21,2.16-3.87,4.78-13.81,11.65A67.14,67.14,0,0,0,353,492c-3.32,2.86-3.14,4.67-6.7,5.12ZM202.89,477.66c.35-6.56,3.14-8.16,5.2-13.4,7,6.39-2.69,12.59-5.2,13.4Zm179.33-14.2-3.9,5.27c-.18.1-.49.35-.74.52-2.19-3.21-1.85-2.3-1.64-6.38s.11-1.92-1.6-5.51c2.23-4.29,7-9.14,10.46-13.88,3.59-5,5.69-12.17,10.5-13.6.87,5.68-.38,5.23,1.88,9.17l.95,1.39c-3,6.49-10.82,17.09-15.91,23Zm19.71-28.32c-2.17-2.06-4-10.32-3.94-10.57,2.12-5.16,6-10.39,8.92-15l9.8-13.81c2.83,2.75,3,7.18,2.65,12-.41,6-13.81,23.23-17.43,27.38Zm-7.05-49.07.91-8.75c6.21-1.05,8.93-4.75,15.62-3.14,2.69,7.6-9.66,12.41-16.53,11.89Zm32,9.94c-1.26,4.05-.63,3.35-4,4.54l-.77-5.55-3.07-4.22c2.69-8.82,10.81-22,12-30.62,1-4.33,0-3.45,3.63-4.47l1.36,3.6c.55,11.16,3.45,9.69-1.54,19.53-1.67,3.31-6.94,14.4-7.6,17.19ZM291.51,506.39c-1.47-20.08-24.48-8.19-31.25-4.88-6.91-3.59-7.46-10.29-19-6.8-8.79-6.94-5.44-4.74-16.71-2.68-6.21-13.26-16.56-30.66-12.27-49.91,20.33-2.83,20,10.11,38.71,20.23,29.61,16,52.94,6.34,81.33-7.05,18-8.51,23.37-16.39,33.65-27.59l19.43-21.79c3.28-3.42,6.59-7.4,10-11.13,7.57-8.3,20.26-5.51,20.37-21.2,4.6-3.21,7.46-9.84,11.33-14.41-4.92,21.83-41.15,80.57-58.45,98.7-3.66,3.8-5.41,5.76-8.61,9.38-9.21,10.36-29.93,23.75-39.45,31.39-6.28,5-19,6.66-29.05,7.74ZM442.84,358c-.81,3.73.48,1.71-1.82,3.59-1.88-1.81-.56-.07-1.29-2.83-1.92-10.95-6.17-4-1.57-17.29,1.4-4.09,5.79-14,9.38-16.5,4.47,12.8-.87,21.48-4.7,33Zm11-34.46L453,326.4c-3.7-1.47-2.75-.73-3.7-4.5-2-1.95,4.82-22.57,6.56-24.73,1.19,3,1.5,10.71,1.19,14.34s-2.55,8.09-3.21,12Zm-2.3-70.14,6,2,1.08,9.83c-6.24-1.25-7.29-5.72-7.11-11.86Zm19.74,10.54,3.59.14c.73-4.4,0-4,2.16-6.28,4.57,4.67-1.81,8.75-5.2,10.22l-6-.25c-6.9-9.07-2.89-24.38,10.08-19.7,0,5.82-3.76,7.08-4.63,15.87ZM444.72,248.1l-6.91,1.54c-3-.14-2.93-.25-5.26-1.61-.7-3.1-1.19-8.65,2.13-10.15l1.08-1.57c6.73-1.18,9.24,2.45,15.45,3.63,4.22.8,6-3.56,14.12-3.84,10-.27,21.14,7.12,18.66,17.93-4.64,1.71-4.36.87-4-2.82.28-2.69.38-1.22.14-4.22-.66-1.5-9.94-12.28-21.14,3.94-10.25.1,2-4.57-14.26-2.83ZM288.61,234.92c1.33,1.53.67-2.41,1.89,3,.59,2.58-.63,2.68-.8,3l-3-2.34c-1.29-3.94-4.82-3.91-7.75-7.46,2.13-3.11,4-3.39,6.8-7.19,1.78-2.44,3.56-5.72,5.38-8.47,15.65-23.23,13.67-1.57,65.53-4.61-1.36,4.43-19.08,18.52-23,20.9.31-6,4.15-7.82,2.27-14.93-6.53.35-1,5.26-7.85,16.49-6.21,10.15-22.29,19.71-31.91,9.53-3.66-3.88-4.19-10.26-5.62-13.19s-.45-1.88-3.76-3.1ZM300.09,57c-4.33-8.9-5.16-4.19-6.94-8.76,7.53-3.14,14.19,11.69,18.27,17.58,3.39,4.88,12,20,13.4,24.8L316,91.72c-3.28-4.29-4.85-3.14-7.29-9.59-2.82-7.54-4.88-17.41-8.61-25.11ZM466.45,232c-.94-22.56-1.54-41.18-4.22-63.26C461,159,453,124,449.08,114.11,445.94,106,441.86,99.22,438,91.44c-5-10.19-5.86-15-10.35-23.54-4-7.61-6.77-15.52-11.48-22.36-2.72-3.9-4.53-6.56-6.7-10.15-6.06-10-5.68-3.52-7.67-9.24,10.12-1.32,17.44,6.28,21.24,13.64,2.48,4.78,3.11,7.81,5.83,12.1,3,4.81,3.13,6.24,5.44,11.54,1.95,4.57,4.67,7.19,6.83,11.23l14,36.66c6.1,14.92,11.12,38.61,11.82,56.36.42,9.62,5.82,59.53,2.58,64.34ZM223.5,203a27.24,27.24,0,0,0,2.65,2.3l-2.68.84c-8.2,0-8.37,3.56-14.65,4.95l1.78,3.14-1.89.67c1.92,1.84,10.68,7.77,15.91,8-.32-7.67-4.05-4.15-9-9.69,10.4-9.28,21.28,3,29-2.24,3.94,5,9.13,6.14,17.22,6.28.25,4.29-.8,2,1.64,4.29,5.55-2.44,6.14-12.83,17.2-16.46-2.1,5-5.34,3.24-5.06,8.72,7.95,1.29,7.88-11.79,21.52-10.88-6.52,6.21-7.19,8.79-12.91,17.33-6.27,9.31-14.12,10.08-17.54,13,.91,1.78,15.63,12,21.21,21,7,11.26,11.79,12.76,27.37,15s33,8.51,41.4,21.9c7.4,11.68-.35,12.28,7.22,12.66,5.34-9.59-11.93-26.86-24.38-32.47-21.69-9.73-37.07-4.53-44-14.75,5.41.69,22.88,5.19,23.51-3-3.18-.59-18,4-25.71-4.32-5.37-3.32-3.38-2-4.88-4.61l6.38,3.14c24.73,12.17,43.91-19.46,58.11-26-2.76,9.42-9.32,15.17-15.35,20.3.73,2.61-.07,3.07,4.15,2,1.5-2.86,5.58-5.27,8.41-8.79,9.55-11.93,8.12-21.38,13.95-29.36,2.61-3.63,2.47-.67,2.82-4.75l-4.18-.07c-2.2.88-4.4,3.46-7.08,4.57-3.7,1.57-6.46,1.43-10.4.84,21.91-9.84,19.29-23.12,11.58-21.69-.38,6.62-.9.38,1.57,5-7.5,13.78-15,8.93-20.89,16.4C311,205,301.55,190.66,274,202.59c-5.65-3.31-6.14-2.69-12.83-5.13-20.65-7.5-16.43-27.62-8-30.58l.32-3.6c-7.64,0-9.28,3.87-10.57,11.16-3,16.67,6.66,24.63,21.17,28.36,7.64,1.95,5.3,2,5.76,4-3.95,2.27-8,1.18-11.93-.87-5.06-2.62-2.62-4.75-9.42-5.65,1.29,7.77,9.21,8.23,13.53,12.55-6.8,0-11-1.18-14.75-4.71-7.57-7.18-2.23-8-9.42-8.89,0,5.93,1.57,5.27,3.53,9.63l-11.06-4.15c1.33-9.07,4.78-8.83,6-15.42-6.38,1.95-6.52,5.2-9.73,9.87-6-10.92,6.49-13.29,10.64-19.53,5.76-8.68,3.11-14.19,14.48-18.17,1.67-3.52,7.42-6.52,13-8.34,8.65-2.79,7.85-2.37,16.08.18,13.77,4.29,9-.11,18.41-.91,7.67-.66,12.21,3,18.52,2,.21-4.18-.94-3.8-4.6-4.77-17.09-4.61-17.86.76-24.42.83-5.19,0-10.42-3.87-15.87-3.66-4.22.18-11.05,3-15.31,4.19,1.12-7.82,2.31-9.35,6.91-12.84,4.81-3.66,4.67-5.82,8.37-10.63,10-13.08,18.45-12.84,18.59-18.59-3.7-.25-4.22.69-7.46,2,.59-8.55,2.79-52.91,6.87-57.16,3.83.87,5.26,4.32,6.83,8.75,4.81,13.67,5.2,23.86,14.16,31.22-2.51,2.51-4.5,3.13-5.47,7.63,5.79-.94,9.45-4.22,16.11-5.68,52.59-11.48,53.71,11.61,66.68-34.7,1.78-6.32,7.15-25.78,10.57-29.44,4.67,2.06,3.1,1.54,5.51,5.83,4.46,8,7.32,10.6,11.89,19.84l12.87,29.37c16,33.93,13.25,17.64,22.78,61l2.3,7.12c.38,7.11,10.77,70.8,5.54,77a79.22,79.22,0,0,1-9.1,4.29c-4.78-1.05-12.83-5.65-17-4-5.51,2.17-5.24,9.07-6.46,12.66L427,246.36c-3.38-16.6,4.4-16.32,4-23.16-12,0-7.88,26.51-7.95,26.72-1.32,6.2-4.64,7.91-.21,15.24,2.51,4.15,6.35,7.74,10.5,6-1.12-6.77-11.79-5.55-7.64-17.09,4.57-1.43,2.34,4.88,16.36,3.28,2.72-5.27-4.78-2.55,3.17-4.74,3.91,5.23-1.11,2.65,6.73,15.48-5,12.56-11.19,41.29-18.27,49l-.11,2.79,2,.66c7-4.5,16.6-38.26,19.08-49.14,1-3.52-.84-1.08,2.23-3,1.4,1.29.94-.17,1.12,1.15.28,2.27.69-.07-.49,1.5-4.15,17.4-10,39.38-16.64,55-2.09,5-24.65,42.34-27.34,43.53-10.32.28-11.51,3.28-17.51,4l-1.11-19.53c3.94-1.23,9-4.47,7.49-10.36-4,0-2.23.31-4.22,3.07a14.53,14.53,0,0,1-3.69,3.48c-3.7-3.66-7.33-13.67-17.16-5l-.14,4.85,1.05-3.87c.41,10.11-.14,2.13,3.06,5.37l-.17-4.74c15.62-5.44,10.53,37,8.41,40a7.36,7.36,0,0,1-2.59,1.78c-6.2,1.33-2.12,0-3.59-.59-1.43-3.59-.9-3.38-.52-7.88-1.19,1-3.14-1.26-2.13,6.45.94,7.18,7.5,1.33,7.47,5.55L390,392l3.88-2.37c-1.5,3.24-.07,1.64-2.93,3.28L371.72,414.5C346.58,441.87,341.28,452,295,464.65c-17.58,4.81-34.7-.11-46.42-8.34l4.67-1.92c2-.38,3.11-.55,5-1,4.57-1,6.91-.46,6.8-5.16-7.88-1.43-22.56,8.92-29.57-3.84a82.24,82.24,0,0,0,12.62-1.05,47.7,47.7,0,0,0,6.28-1.46c3.84-1.26,2.9-.59,4.15-3.59-1.53-1.09,3.07-3.11-7.81.14-12.49,3.73-19,.41-26.33-.49-9.8-1.19-29.68.21-40.32.66-48.9,2.06-49.56,3.31-56.95-22.5,11.79-6.06,40.87-10.95,54.72-7.07,6.83,1.91,8.75,6.59,16,6-.49-4.81-1.33-3.11-5.83-5.69-2.89-1.67-4.32-2.82-7.64-4-10.88-3.91-32.05-1.4-43.14,1.64-6,1.67-13.25,5.12-18.45,5.61L121,411l-1.43-.73-1.67,2.89c8.58,9.21,5.51,4.46,9.77,17.05,2.33,7,7.42,10.57,15.48,11.9,19.32,3.17,32.78-.14,51.37.59-1.46,18-.07,25,6.18,40.84-16.92-2.75-25.57,6.24-32.33,15.1-8.93,11.65-4.47,25.91,1.22,37.77,9.06,19,33.83,22.64,41.88,25.67,2.2.87,2.34,1.57,4.08,2.23,5.93,2.17.42-1.91,9.77,3,4.64,2.44,6.73.8,9.52-.94,11.2,10.28,16.11,7.74,36,7.63,7.32,0,11.68-.17,17.51,3.28,13.84,8.2,4.18,9,12.27,10.19.8-11.9-15.55-17.86-27.66-17.86-12.48,0-35.71,4.46-34.49-10.32,8.27-1.12,14.51,5.05,21.17,1.71-1.32-2.48,1.68-1.54-3.73-2.9l-13.67-2.93c-3.21-.91-1.57-.17-3.49-2,17.27-5.86,21.38,1.78,23.44-4.88-5.62-3.28-16.5-.8-22.67.42,3.83-8.48,10.88-4.6,20.75-4.26,7,.28,18.94-3.1,23.05-2.23-3.94,3.39-8.33,3.45-10.95,8.79,7.74-.84,11.55-3.8,17.51-7.29l18.31,1.68c2,2.44.07,1.46,4.12,2.37,7.42,1.71,1.39-.07,6,2.72,11.65,7,7.57-11.86,37.57,6.83,20.57,12.84,25.63,32,35,30.62.38-4.49.07-2.75-3.11-5.37-8.47-7-18.83-27.13-37.84-33.2,1.43-3.49,3.56-4.85-6.83-10-2.76-1.36-7.54-3.53-11-3-5,.74-2.65,1.15-3.45,2.41,3.94,2.65,4.15.42,9.9,3a35.14,35.14,0,0,1,8.3,5.27c-5.51-.7-14.89-1.78-18.48-4.46l0-7.43c15.1-12.8,34.43,3.69,36.48-7.26-3-1.22-21.45-1.74-26.54-1.53,3.73-3.77,12-4,18.1-4.33,17.3-.94,28.08-2.93,40.35-14.89,2.8-2.68,4-3.31,4.57-8-8.23.84-12.1,15.21-33.41,17.93-9,1.11-25.46.28-32.71,5.61-5.44,4-1.78,2.69-10.46,3.87-.25-.17-.6-.76-.74-.56-.24.46-.66-1.29-3.66-2.16a12.36,12.36,0,0,0-6.1-.1c-4.05,1-4.08,3.28-6.42,6.55-9.83,1.71-28-1.18-33.17-7.67,36.48-1.5,41.82-4.64,70.91-19.18,5.05-2.51,4.88-3.56,8-6.7,8-7.95,12.1-9.06,17.09-13.56,11-9.91,23.85-30.76,32.5-42.55,4.12-5.62,9-13.22,12.84-17.79,11.16-13.46,31.77-64.31,37.1-83.46,4.47-16,9.56-30.55,13.89-46.28l4.6-17.68c1.6-4.6-.07-1.53,3.45-3.94,8.13-5.55,3.8-8.89,9.24-13,12.25-9.35-.94-21-9.59-25,2.55-14.47-1.95-51.61-3-68-2.09-33.9-12.52-55.38-22.78-84.16L424.91,33.75a26.55,26.55,0,0,0-24-11.68c-11.76,13.64-15.59,44.92-25,63.33l-45.62,3.74C325.2,79.13,305.84,45,297,43.38,285.34,41.25,284.22,59,283.24,68.94c-1.22,12.59-1.64,24.94-2.93,37.43-1.5,14.82-2.82,5.75-15,25.18-2.83,4.53-6.73,3.9-9.59,10.42-2,4.5-2.69,11.09-5.86,14.27-3.94,3.9-7.33,2.93-11.13,9-2.41,3.94-3.49,10-6.76,13.25-3.6,3.56-8,4.75-10.5,9.7-2.79,5.51-1.22,10.81,2,14.75Z" transform="translate(-99.1 -22)"/><path class="cls-3" d="M353.31,407.56c.91-5.34,7.6-8.44,12.66-15.8,2.41-3.56,2.41-4.05,7-2.65.42,6.48-10.74,19-19.7,18.45Zm-237.4-27.8c5.65.66,7.53,3,5.44,9.52l-4.81,0Zm183.69,8.89c.35-3,1.67-5.68,2.65-8.65,3.14-9.48,13.32-2.4,12.63,11.51-8.37,2-10.68.39-15.28-2.86Zm-173.47-8.44c3.73,1.08,5.93,2.9,7.32,6.66l-7.85,3.39Zm242.8,3.18a19.68,19.68,0,0,1,2.38-7.12l7.42,2.86L378,386c-3.7-.07-6.07-1.5-9.07-2.61ZM206,382.31c1.12-1.92-.21-.56,1.5-2.1.11-.07,1.71-1,2-1.08a22.82,22.82,0,0,1,4-1.15c8.44-1.88,9.56-.8,12.59,2.2-1.57,9-14.68,7.5-20,2.13Zm23.4-3.18c3.28-6.56,19.85-11.05,22.29,0-4.88,1.95-14.05,3-20,1.22-1.78-.53-1.22-.49-2.31-1.26ZM111.2,390.81c5.58,1.26,1.29,2.34,9.49,2.66,6,.24,5.3,1.08,10.7-1.54,3.49-1.67,6.28-2.51,5.41-7.36-.73-4.22-2.9-2.4-4.5-7.39l5.37,0,6.42,12.28c2.82-.14,9.38-.45,12.41-1.19,3.49-.8,5.65-2.93,9.49-2.4,5.51.76,9.9,7.32,20.23,3.66,4.85-1.71,6.94-1,12.34-1.67,10.54-1.23,22.5,8.33,29.37-2.86,5.27-.32,10.15.38,15.45.2,5.58-.2,6.56-1.42,12.66-1.18,10,.38,16.15-4.4,23.26-.66,4.08,2.12,5.65,3,10.78,4.08,6.87,1.43,3.63,2.12,7.88,5.75,5.62,4.81,16.22,4.74,21.35-.31l-1.12-10.74c25.32-2.72,13.88,19-4.05,21.06-9.17,1.08-20.36-5.2-27.27-8.44-13.36-6.31-48.34,3.63-61.73,6.31-23,4.61-35.71-11.75-61.84-8.65-22.21,2.62-58.38,24.8-57.72,6.84a9.55,9.55,0,0,1,.91-3.63c.87-1.92,2.93-3.35,4.71-4.78ZM278.5,371c3.63-1.5,5.65-2,9.94-.7l-.24,11.41c-3.14.28-7.82-2.27-10.57-4.68ZM170.28,382.31c-1.08-8.62,3.21-16.43,9.56-18.31a45.84,45.84,0,0,0,2,12c.46,1.39,1.68,4.25,2,5.72a8.56,8.56,0,0,1,.38,2.68c-.2,2.72-.1.84-1.18,2.23-3.66-4.11-1.57-3.83-3.17-8.54-4.61.94-3.49,2.9-2.9,7.78-4.5-1.05-4.29-.94-6.73-3.52Zm-51-9.81c4.29,1.3,3.77.95,3.94,5.86-3.24-1.64-3.59-1.77-3.94-5.86Zm173.16,11.44c-2-11.3.73-13.49,7.25-13.53-.27,5.51-.87,4.54-2.51,8.58-2,4.85.07,5-4.74,4.95ZM265.6,367c9.87,1,14.57,12.59-8.51,12.8-2.83-3.17-5.37-6.52-4.89-10.95,3-1.82,9.39-2.27,13.4-1.85ZM156.54,381.85l2.23,1.78L157.1,385l-10.71-.07c-3.21-3.32-6.87-10.47-6.94-16.57,7.25,1.05,11.58,10.5,17.09,13.53Zm8.86-.38c-3.7,1.18-5.76-1.47-8.41-3.7L150.85,371c-.07-.39-.35-.46-.45-1l16.5,4.08Zm185.15-22.81c2.69,1.92.32-1.12,2.76,2.51a17.13,17.13,0,0,1,1.25,3.35l-6.69-.32Zm-12.06,24.73c6-1.08,17-12,28-9.07.14,10.22-6.32,3.63-21.49,12.45-5.16,3-3.14,3.07-7.53,4.5-.28-13.32-9.31-14.48-21.83-12.8-2.34-5.51-2.93-6.77-11-6.73-1.33-1.85-2.41-3.59-4.08-5.72L292,367.94c-5.75-3.53-10.39-2.69-14.79.31-2.44-1.53-5.82-3.73-9-6,.14-10.08.69-16,.1-26.65l12,1.26c.6,11.4,12.11,17.61,23.37,10.91,3.8,3.84,2.41,6.87,9.45,8.34,1.82,8.79,9.42,13.88,18.31,15.2,9.42,1.4,7.81-2,13.43-2.86,3.87-.52,12.24-.59,14.4,1.19-7.39,3.73-20.75,4.6-20.71,13.78Zm-92.67-39.06,5.62-.46c4.39,6.35,3.27,10.22-6,8.44Zm-5.65,17.08,3.42,2c3.31,1.92,4.15,1.36,3.77,5.86-8.72,0-15.38.28-19.47,5.93-13-3.07-22.8-1.64-27.9,9-4.36.77-7.39,1.08-11.61-.07-3.59-12.41,7.64-4.63,12.56-7.15-.32-.94,1.63-2.89-6.18-3.52a21,21,0,0,0-8.51,1.47c-2.65-3.94-2.82-9.42-2.44-15.11,7.15-.69,18.24-1.49,25,1,7.57,2.79,5.48.77,6.38.35-.69-3.84,1.54-2-2.85-4-20.55-9.31-52.84,11.2-66.86-10.11,9.52,1.43,16.18,3.56,27,2.83,21.56-1.43,33.87-4.78,50.89,1.63,5.19,2,13.84,6.42,16.77,9.87Zm91-2.23,3.66,1.12-.59-3.77,0-9.24c3.77.59,10.46,3.8,13.19,6.49,0,5.68-5.9,10.42-10,13.08-9,1-15.94-3.11-19.29-8.86-.87-7.26,2.69-10.36,4.89-15.7l7,2c.07,5.62-2.68,10.67,1.19,14.89ZM311,337.56l7.85,3.49-5.75,10.67c-3.87-1-4.43-2.86-5.37-7.5Zm-4.15-.7c-2.82,11.72-24.41,14.13-21.13-3.38,5.09-.91,17.72,1.08,21.13,3.38ZM175.27,360.65l-8.06,9.76c-7.22-2.58-13.53-2.61-27.59-8.16-14.68-5.79-14.89-13.25-21.86-13.43,1.53,6.39,16.32,14.37,19,16.57l-.91,4.57c-5.79-1.15-7.88-3.49-11.93-7.74-9.52-9.94-19.81-18.84-16.91-38.09,10.32-5.54,9.28,1.19,18.59,12.1,4.57,5.37,9.59,6.46,13.57,10.71,11.78,12.66,13.88,14.93,36.13,13.71Zm39.55-30.28c-.21-4.77,1.74-6.59,5.89-7,.28,5.17-2,5.93-5.89,7Zm58,1c-10,.73-18.91-1.71-26.93-4.36l1.57-5.19c4.15,1.29,7.18,3.66,12.66,5.44,4.26,1.39,9,2.75,12.7,4.11Zm-43.6-17.44c.8,4.92.24,6.59,4.15,7.64,2.2-3.28.52-3.84.49-9.17A18.76,18.76,0,0,1,244,318.87c-3.42,11.09-15.52,13.77-20.19.87Zm-45.06-2.68c-.49-4.22.87-8,2.09-11.37l5.41,0-2.23,11.55Zm-12.94-5.13c-1.74-4.08-1.22-3.94-.63-7.53l10.95.7c.67,3.55,1,2.23-1.11,4.49.14,6.53-2.83,17.34-6.87,21.24-7.19-1.32-14.37-17.82-9.49-26.15l2.09.17c2,5-.24,12,6,12.94,1.78-3.31.91-2.16-.94-5.86Zm22.67,27.55c-.73-10.32-.17-23.57,2.51-33.55l11.55.46c-1,4-8.44,7-6.67,14.82,4.64-.53,4.05-3.18,6.39-6.84a21.67,21.67,0,0,1,7.11-7c5.58.87,10,3.56,12.35,6.77-4.54,5.68-25.15,25.53-33.24,25.35Zm-48.62-29.82c-3.76-10.42,3.74-9.41,11.27-6.1-1.43,3.24-5.41,7.29-11.27,6.1Zm196.11,28.46c1.05,1,.94.11,2.37,2.48s.42.24.77,3.14l-4.39-3.39c-4.78-3.06-11-11.82-17.62-5.89,3.77,1.26,4.26.14,7.75,2.83l16.53,14.19c4.08,1.64.17-.49,2.47,1.33,4.71,3.69-1.57-3.6.81,1.5-3.25,1.5-2.52.76-4.29-1.23-9.11-2.54-26.27-14.5-53.92-18.24-4.36-.59-9-.62-13.33-1.18-29-3.59-40.9-22.36-57.54-28.81-9.42-3.63-41.26-3.38-53.47-4,42.8,1.63,52-12,80.74,14.78,15.56,14.51,62.22,10.54,86,14,2.44,2.58,4.81,6,7.11,8.54ZM135.51,302.54c-3-4.22-2.37-6.38-1.61-11.85,3.07.14,5.76,2.3,8,3.87-1.33,3.94-1.82,7-6.35,8ZM125,282.87c2,1.68,2.89,2.34,5.58,4.33l-.95,6.8c-6.76-1.33-11-5.06-11.68-12.45,4.74-.63,3.84-1.29,7,1.32ZM117.55,278c-2.48-1.19-2.37,2.23-3-7.74a39,39,0,0,1,.14-9.28c3.55.45,2.23.25,4.81,3.17,7.39,8.31,27.8,21.56,32.12,27.45-16.6-.9-27.13-17.19-31.95-18.73-2,3.07-.14.49-.9,2.65s-.25,1.09-1.22,2.48Zm-14.23-47.26c2.16-15,19.32-17.33,31.28-8.37,0,5-.66,6.49-2.54,9.39-5.13.38-8.48-1.64-13.71-2.27-6.66-.84-8.82.94-15,1.25ZM218.23,333.55l1.57,1.32-3.94,9c-24.45-1.75-71.25,11-89-12.18-3.55-4.63-7.22-12.69-13.6-12.9-13.88-.49-12.9,20.19-2.93,34.77,4.43,6.52,6.7,7.43,12.1,13.64,3.56,1.5,3.21,1.81,5.62,4.67l2,.7c1.15,1.43,2.79-1.92.7,1.74-5.89,1.92-4.78-1.64-9-5.44l-4,.6c-2,2.72-.91,1.67-2.06,4.42-3.42,8-2.34-3.45-4.08,11.55-5.09,3.94-11.51,7.29-10.15,16.91,1.15,8.16,10,6,16.46,10.78l1.67-2.89c.74-2.55-.9-.84,2.17-1.78,18.62-1.71,38.47-19.08,62.63-10.54,11.13,3.91,17.16,6.88,30.38,7.85,12,.91,22.36-4.57,33.83-5.26l4.47-1.36c-2.62,3-1.78.06-1.57,4.18,3.69-.45,4.77-2,8.54-3.1,24.2-7.19,41.5,10.63,57.58,6.69,7.74-1.88,14.09-6.1,16.43-11.16,3.52,1.29,1,.66,4.43,1.19,6.45-6.24,14.09-11.41,25.91-10.81-3.45,11.19-17.72,13.67-14,24.37,13.71,6,23.13-12.41,27.17-18.9,3.73.84,5.34,1.71,10.29,1.61l.32-1.08c0-4.22-6.53,1.63-7.47-5.55-1-7.71.94-5.44,2.13-6.45l-.45-28.25-1.09-.28c-3.2-3.24-2.65,4.74-3.06-5.37l-1.05,3.87c-1.05.1-10.71-2.06-2.62-13.15,3.18-4.36,4.75-2.61,5.24-7.71-10,.46-23.48,21.94-.39,25.92l-.28,18.27c-7.43.32-17.26-7.92-20.37-12.52-4.56-6.7-5.65-28-23.19-42.37-4.29-3.53-17.3-11.37-24.45-6.07,1.75,2.51,8.51,2.23,12.63,5.3-13.6-.11-54.48-2.44-64.24-6.49-15.35-6.38-17.86-23.78-49-22.46-12.27.56-21.94,1.82-34.87,1.57-29.13-.52-24.45-7.64-36.83-16.11-32.09-21.9-17.3-21.38-23.44-29.23-7,3.7,1.88,7.75-4.46,12.35L109.28,248a59.32,59.32,0,0,1,7.22-7.22c4.74,1.57,5.37,4.5,12.56,2.93,9.52-2.09,16.32-20.57,4.74-27.34l-2.9-1.12c1.43-2.58-.69-1.08,2.76-2.05a41.09,41.09,0,0,1,20.54,2.4c12.91,4.57,7.12,8.16,14.79,6.84,0-5.48-3.77-4.95-5.72-8.83,10.25-2.3,18.9,3.77,23.33,1.92,9.45-3.94,5.51-5.09,22.11-.69l1.89-.67-1.78-3.14c-2.41-2.54-6.35-2.93-10.92-3-9-.11-6.83,1-12.48,3.14-3.67,1.36-8.1-1.43-12-2-7.88-1.23-8.3.41-13.88,1.67-7,1.6-15-5.76-26.43-2-4.82,1.6-5.48,3.94-10.4,3.59-19.18-1.22-30.16,15.27-19.42,35,2.72,5,2.26,6.7,3.1,13.08l7.08,23.16c3,9.87,6.42,11.05,16.08,15.58,2.2,7.29,5.65,9.21,11.23,5,9.52,7.32,9.9,2.47,17.89-2.13.66,7.36.59,12.52,3.73,18.24,2.65,4.81,5.83,9.1,13.29,8.68,5.13-5.4,3.87-9.06,7.36-13.95l6.14.67c.07,5.72-2,20.08,3,22.42,5.16,2.41,14.92-5.13,16.91-8Z" transform="translate(-99.1 -22)"/><path class="cls-1" d="M267.65,447.7c1.5-1.05-2.68-2.58,4.22-.8,1.85,3.66,1.68,2.26-1,4.46l-2.62-.7Zm-.83-7.19-5.69-.8c1-6.45,5.86-6,5.69.8Zm-62.61-22.35c-1.39-3-1.36-2.16,0-5.3l4.15.1c.14,1.29,1.36,4.15-2.09,5.3-2.3.73.35.25-2.06-.1Zm126.29-6.73c.56,4.08-.45,3.69-3.59,2.75.14-3.24.59-3.17,3.59-2.75Zm15.38-8.72c2.83,2.79,1.5,3.45,1.61,8.12,5.61,6.53,12.38,2.76,12.52,7.78-7.43,2.44-12.56-2.09-16.26-5.4-.69-4.78-1.71-8.34,2.13-10.5Zm-53.85,11c-4.95-1.88-2.06.35-3-2.83,6.59-2.72,10.53,3.32,15.66,5.13,9.17,3.28,12.45-1.43,19.25-2.23-.8,4.11-2.55,5-7.08,6.17a28,28,0,0,1-11.93.21c-6.21-1.29-4.85-3.42-12.87-6.45Zm-6.69-4.05c-1.4,3.63-3.42.88-3.63.84-.94-2.72.14-2.58.21-3.42,0-.49.35-.56.52-.83,1.19.34,4.15.07,2.9,3.41Zm51.61-4c-1.88,2.93-1.29,2.72-4.85,1.25.7-4.64,2.83-4.91,4.85-1.25Zm-91.48,1c-5.09-.62-5.3-4.22,1.33-4.11Zm103.9-9.45c-1.57,2.76-.7,3.94-4.08,1.08.83-1.18-1.75-1.5,1.74-2.26,4.47-1,.91.07,2.34,1.18Zm-97.86,6.28a7.57,7.57,0,0,0-.63-.59l-1.71-1.71c-.11-.32-.38-.35-.56-.52-11.47.69-21.8,6.17-33.83,5.26-13.22-1-19.25-3.94-30.38-7.85-24.16-8.54-44,8.83-62.63,10.54L121,411l1.78,1.6c5.2-.49,12.49-3.94,18.45-5.61,11.09-3,32.26-5.55,43.14-1.64,3.32,1.22,4.75,2.37,7.64,4,4.5,2.58,5.34.88,5.83,5.69-7.26.56-9.18-4.12-16-6-13.85-3.88-42.93,1-54.72,7.07,7.39,25.81,8,24.56,57,22.5,10.64-.45,30.52-1.85,40.32-.66,7.36.9,13.84,4.22,26.33.49,10.88-3.25,6.28-1.23,7.81-.14-1.25,3-.31,2.33-4.15,3.59a47.7,47.7,0,0,1-6.28,1.46,82.24,82.24,0,0,1-12.62,1.05c7,12.76,21.69,2.41,29.57,3.84.11,4.7-2.23,4.15-6.8,5.16-1.88.42-3,.59-5,1l-4.67,1.92c11.72,8.23,28.84,13.15,46.42,8.34,46.25-12.66,51.55-22.78,76.69-50.15L391,392.91l-1-.91-1.84.18-.32,1.08c-4.95.1-6.56-.77-10.29-1.61-4,6.49-13.46,24.9-27.17,18.9-3.73-10.7,10.54-13.18,14-24.37-11.82-.6-19.46,4.57-25.91,10.81-3.39-.53-.91.1-4.43-1.19-2.34,5.06-8.69,9.28-16.43,11.16-16.08,3.94-33.38-13.88-57.58-6.69-3.77,1.11-4.85,2.65-8.54,3.1Z" transform="translate(-99.1 -22)"/><path class="cls-4" d="M291.51,506.39c10.08-1.08,22.77-2.72,29.05-7.74,9.52-7.64,30.24-21,39.45-31.39,3.2-3.62,4.95-5.58,8.61-9.38,17.3-18.13,53.53-76.87,58.45-98.7-3.87,4.57-6.73,11.2-11.33,14.41-.11,15.69-12.8,12.9-20.37,21.2-3.42,3.73-6.73,7.71-10,11.13l-19.43,21.79c-10.28,11.2-15.69,19.08-33.65,27.59-28.39,13.39-51.72,23-81.33,7.05-18.73-10.12-18.38-23.06-38.71-20.23C208,461.37,218.3,478.77,224.51,492c11.27-2.06,7.92-4.26,16.71,2.68,11.58-3.49,12.13,3.21,19,6.8,6.77-3.31,29.78-15.2,31.25,4.88Z" transform="translate(-99.1 -22)"/><path class="cls-5" d="M111.2,390.81c-1.78,1.43-3.84,2.86-4.71,4.78a9.55,9.55,0,0,0-.91,3.63c-.66,18,35.51-4.22,57.72-6.84,26.13-3.1,38.79,13.26,61.84,8.65,13.39-2.68,48.37-12.62,61.73-6.31,6.91,3.24,18.1,9.52,27.27,8.44,17.93-2.06,29.37-23.78,4.05-21.06l1.12,10.74c-5.13,5.05-15.73,5.12-21.35.31-4.25-3.63-1-4.32-7.88-5.75-5.13-1-6.7-2-10.78-4.08-7.11-3.74-13.22,1-23.26.66-6.1-.24-7.08,1-12.66,1.18-5.3.18-10.18-.52-15.45-.2-6.87,11.19-18.83,1.63-29.37,2.86-5.4.66-7.49,0-12.34,1.67-10.33,3.66-14.72-2.9-20.23-3.66-3.84-.53-6,1.6-9.49,2.4-3,.74-9.59,1-12.41,1.19l-6.42-12.28-5.37,0c1.6,5,3.77,3.17,4.5,7.39.87,4.85-1.92,5.69-5.41,7.36-5.4,2.62-4.67,1.78-10.7,1.54-8.2-.32-3.91-1.4-9.49-2.66Z" transform="translate(-99.1 -22)"/><path class="cls-1" d="M268.18,362.22c3.17,2.3,6.55,4.5,9,6,4.4-3,9-3.84,14.79-.31l8.62-1.92c1.67,2.13,2.75,3.87,4.08,5.72,8.09,0,8.68,1.22,11,6.73,12.52-1.68,21.55-.52,21.83,12.8,4.39-1.43,2.37-1.5,7.53-4.5,15.17-8.82,21.63-2.23,21.49-12.45-11.06-3-22,8-28,9.07,0-9.18,13.32-10.05,20.71-13.78-2.16-1.78-10.53-1.71-14.4-1.19-5.62.81-4,4.26-13.43,2.86-8.89-1.32-16.49-6.41-18.31-15.2-7-1.47-5.65-4.5-9.45-8.34-11.26,6.7-22.77.49-23.37-10.91l-12-1.26c.59,10.67,0,16.57-.1,26.65Z" transform="translate(-99.1 -22)"/><path class="cls-1" d="M225.59,360c.67,3.45-.66,1.46-1.29,2.2-2.51-1.15-1.43,1.32-2.12-2.06-.74-3.56.34-1.22,1.08-2.27,2.68,1.12,1.67-1.32,2.33,2.13Zm18,3.42-3.42-2c-2.93-3.45-11.58-7.91-16.77-9.87-17-6.41-29.33-3.06-50.89-1.63-10.81.73-17.47-1.4-27-2.83,14,21.31,46.31.8,66.86,10.11,4.39,2,2.16.14,2.85,4-.9.42,1.19,2.44-6.38-.35-6.8-2.47-17.89-1.67-25-1-.38,5.69-.21,11.17,2.44,15.11a21,21,0,0,1,8.51-1.47c7.81.63,5.86,2.58,6.18,3.52-4.92,2.52-16.15-5.26-12.56,7.15,4.22,1.15,7.25.84,11.61.07,5.1-10.63,14.9-12.06,27.9-9,4.09-5.65,10.75-5.93,19.47-5.93.38-4.5-.46-3.94-3.77-5.86Z" transform="translate(-99.1 -22)"/><path class="cls-6" d="M466.45,232h3.1c3.24-4.81-2.16-54.72-2.58-64.34-.7-17.75-5.72-41.44-11.82-56.36l-14-36.66c-2.16-4-4.88-6.66-6.83-11.23-2.31-5.3-2.41-6.73-5.44-11.54-2.72-4.29-3.35-7.32-5.83-12.1-3.8-7.36-11.12-15-21.24-13.64,2,5.72,1.61-.8,7.67,9.24,2.17,3.59,4,6.25,6.7,10.15,4.71,6.84,7.5,14.75,11.48,22.36C432.16,76.48,433,81.25,438,91.44c3.84,7.78,7.92,14.54,11.06,22.67C453,124,461,159,462.23,168.76c2.68,22.08,3.28,40.7,4.22,63.26Z" transform="translate(-99.1 -22)"/><path class="cls-4" d="M226.67,520.52c-16.84,5.4-22.46,12.14-44.25-.59-.39,9.62,19.35,30.62,37.56,24.13l18.66-.56c2.75-5.4,9.73-4.15,16.32-3.55a73.14,73.14,0,0,0,19.88-.6c-.63-1-18.66-12.2-20.89-13.32-8.37-4.26-19.39,7.32-27.28-5.51Z" transform="translate(-99.1 -22)"/><path class="cls-5" d="M345.78,347.25l1-1.6-16.53-14.19c-3.49-2.69-4-1.57-7.75-2.83,6.6-5.93,12.84,2.83,17.62,5.89,1.95-.73,1.81,1.26,1.25-2.23-2.3-2.58-4.67-6-7.11-8.54-23.79-3.45-70.45.52-86-14C219.52,283,210.32,296.61,167.52,295c12.21.66,44,.41,53.47,4,16.64,6.45,28.49,25.22,57.54,28.81,4.36.56,9,.59,13.33,1.18,27.65,3.74,44.81,15.7,53.92,18.24Z" transform="translate(-99.1 -22)"/><path class="cls-1" d="M107,324.13c-2.9,19.25,7.39,28.15,16.91,38.09,4,4.25,6.14,6.59,11.93,7.74l.91-4.57c-2.65-2.2-17.44-10.18-19-16.57,7,.18,7.18,7.64,21.86,13.43,14.06,5.55,20.37,5.58,27.59,8.16l8.06-9.76c-22.25,1.22-24.35-1-36.13-13.71-4-4.25-9-5.34-13.57-10.71-9.31-10.91-8.27-17.64-18.59-12.1Z" transform="translate(-99.1 -22)"/><path class="cls-7" d="M324.68,230.07c-12.49,24.69-36.07,10.85-30.8-9.62,5.34-20.65,41.64-11.83,30.8,9.62Zm-38,8.51c4,.28,2.86.8,1.91-3.66l-1.84-8.37c3.31,1.22,2.33.14,3.76,3.1s2,9.31,5.62,13.19c9.62,10.18,25.7.62,31.91-9.53,6.9-11.23,1.32-16.14,7.85-16.49,1.88,7.11-2,9-2.27,14.93,3.94-2.38,21.66-16.47,23-20.9-51.86,3-49.88-18.62-65.53,4.61-1.82,2.75-3.6,6-5.38,8.47-2.79,3.8-4.67,4.08-6.8,7.19,2.93,3.55,6.46,3.52,7.75,7.46Z" transform="translate(-99.1 -22)"/><path class="cls-3" d="M308.63,234.33c-5.82-7-5.47-20.34,6.39-19.74,1.63,2.3,5.23,8,4.53,12.24-.7,4.64-5.89,7.57-10.92,7.5Zm16.05-4.26c10.84-21.45-25.46-30.27-30.8-9.62-5.27,20.47,18.31,34.31,30.8,9.62Z" transform="translate(-99.1 -22)"/><path class="cls-6" d="M199.78,318.87c1.4-1.64-1.53-1.16,1.26-1.26,2,1.33,1.47-1.71,1.6,1.26-.07.14-3,3.45-2.86,0Zm-5.89,14.78c8.09.18,28.7-19.67,33.24-25.35-2.37-3.21-6.77-5.9-12.35-6.77a21.67,21.67,0,0,0-7.11,7c-2.34,3.66-1.75,6.31-6.39,6.84-1.77-7.85,5.62-10.85,6.67-14.82l-11.55-.46c-2.68,10-3.24,23.23-2.51,33.55Z" transform="translate(-99.1 -22)"/><path class="cls-6" d="M253.53,163.28c-.18-.28-.42-.69-.52-.87s-.39-.52-.49-.63c-.77-.94-.73-.59-.73-.31-11.37,4-8.72,9.49-14.48,18.17-4.15,6.24-16.67,8.61-10.64,19.53,3.21-4.67,3.35-7.92,9.73-9.87-1.25,6.59-4.7,6.35-6,15.42l11.06,4.15c-2-4.36-3.53-3.7-3.53-9.63,7.19.91,1.85,1.71,9.42,8.89,3.77,3.53,8,4.71,14.75,4.71-4.32-4.32-12.24-4.78-13.53-12.55,6.8.9,4.36,3,9.42,5.65,3.9,2.05,8,3.14,11.93.87-.46-2,1.88-2.06-5.76-4C249.62,199.07,240,191.11,243,174.44c1.29-7.29,2.93-11.16,10.57-11.16Z" transform="translate(-99.1 -22)"/><path class="cls-3" d="M372.14,134.93l-.07,3.94,3.25-.21c8.58-4.46,19.91-4.78,28.42-6.14,5.55-.87,6.42-2.44,8.65,2.27a72.19,72.19,0,0,0-9.07.38c-4.95.74-4.78.56-5.68,4,3.28,2.48,10.88,0,15.94,0,7.53,0,6.59,2.86,12.27,5.72,9,4.5,17.82,11.58,25.74,9.94l1.5-3.25c-1.74.07-1.81.42-3.7-.06l-3.62-1.82c-4.22-.84-22.22-11.54-26.37-15.34-9.38-8.55-14.3-21.7-19.15-22.19-1.46,6.35,4.29,9.53,6.7,15.18-5.37,1.5-12.35,1.67-18.38,3-5.72,1.26-11.51,3.38-16.43,4.64Z" transform="translate(-99.1 -22)"/><path class="cls-5" d="M434.68,237.88l-1.23,9.59c5.17,1.75,6.49.91,11.27.63,16.29-1.74,4,2.93,14.26,2.83,11.2-16.22,20.48-5.44,21.14-3.94.24,3,.14,1.53-.14,4.22-.35,3.69-.63,4.53,4,2.82,2.48-10.81-8.68-18.2-18.66-17.93-8.16.28-9.9,4.64-14.12,3.84-6.21-1.18-8.72-4.81-15.45-3.63Z" transform="translate(-99.1 -22)"/><path class="cls-8" d="M334.27,356.53c.73,1.08.87.28,1,2.37s-.48,1.33-1,2.13c-3.39,0-1.4.8-3.07-1.85-3.87-4.22-1.12-9.27-1.19-14.89l-7-2c-2.2,5.34-5.76,8.44-4.89,15.7,3.35,5.75,10.29,9.87,19.29,8.86,4.08-2.66,10-7.4,10-13.08-2.73-2.69-9.42-5.9-13.19-6.49Z" transform="translate(-99.1 -22)"/><path class="cls-3" d="M153.89,249.74c-3.59-2.65-11.23-11.75-16.11-10.08,1.18,4.12-1.57.91,2.51,4.64,25.77,23.65,24.48,19.36,52,27.31,16.53,4.81,12.1,9.62,19.11,9,.7-12.27-29.43-15.62-39.58-19.22-8.44-3-11.51-6.94-17.89-11.61Z" transform="translate(-99.1 -22)"/><path class="cls-6" d="M293.15,48.26c1.78,4.57,2.61-.14,6.94,8.76,3.73,7.7,5.79,17.57,8.61,25.11,2.44,6.45,4,5.3,7.29,9.59l8.83-1.08c-1.43-4.78-10-19.92-13.4-24.8-4.08-5.89-10.74-20.72-18.27-17.58Z" transform="translate(-99.1 -22)"/><path class="cls-5" d="M221.09,519.12c1.12-1.64.88-1.7,1.85-4.11l-5.12,1.39c-3.46-.31-9.07,2.31-14.69,2.06-7.6-.31-7.81-1.85-12-5.54.13-17.41,14.92-12.28,27.27-11.76l-4.57-3.8c-10.43-6.66-29.16.73-29.68,12.84-.35,8.33,6.91,11,15.45,12.31,8.82,1.32,14.82-1.08,21.48-3.39Z" transform="translate(-99.1 -22)"/><path class="cls-5" d="M346.3,497.15c3.56-.45,3.38-2.26,6.7-5.12a67.14,67.14,0,0,1,6.94-5.79c9.94-6.87,10.6-9.49,13.81-11.65-.35-3.35-1-9.84-2.48-12.56-4.71,2.27-9.59,9.49-13.22,12.84l-12.94,10.35Z" transform="translate(-99.1 -22)"/><path class="cls-5" d="M401.93,435.14c3.62-4.15,17-21.38,17.43-27.38.35-4.81.18-9.24-2.65-12l-9.8,13.81c-3,4.6-6.8,9.83-8.92,15,0,.25,1.77,8.51,3.94,10.57Z" transform="translate(-99.1 -22)"/><path class="cls-5" d="M381.31,351.65l1.09.28.45,28.25c-.38,4.5-.91,4.29.52,7.88,1.47.63-2.61,1.92,3.59.59a7.36,7.36,0,0,0,2.59-1.78c2.12-3,7.21-45.4-8.41-40Z" transform="translate(-99.1 -22)"/><path class="cls-5" d="M375.94,462.87l2.86,4.57c1.33-3.21.56-2.27,3.42-4,5.09-5.93,12.91-16.53,15.91-23l-.95-1.39c-2.26-3.94-1-3.49-1.88-9.17-4.81,1.43-6.91,8.58-10.5,13.6-3.42,4.74-8.23,9.59-10.46,13.88,1.71,3.59,1.67,1.32,1.6,5.51Z" transform="translate(-99.1 -22)"/><path class="cls-2" d="M194.8,280.26c5.86-1.08,1.81.63,3.69-2.62-2.72-3.24-6.17-2.3-10.56-1.57-23.86,3.91-27-.49-44-15.38a36.45,36.45,0,0,1-6.07-6.62c-5.12-6.63-11.37-2.31,6.11,12.93a145.31,145.31,0,0,0,13.7,10.57c8.44,5.83,27.87,4.36,37.08,2.69Z" transform="translate(-99.1 -22)"/><path class="cls-5" d="M103.32,230.73c6.21-.31,8.37-2.09,15-1.25,5.23.63,8.58,2.65,13.71,2.27,1.88-2.9,2.51-4.43,2.54-9.39-12-9-29.12-6.62-31.28,8.37Z" transform="translate(-99.1 -22)"/><path class="cls-5" d="M431.05,360.16c-1.19,8.61-9.31,21.8-12,30.62l3.07,4.22,1.57,2.65L426.9,396c.66-2.79,5.93-13.88,7.6-17.19,5-9.84,2.09-8.37,1.54-19.53-1.61-1.19-.91,1.39-1.61-1.05-.1-.38-.59-.28-1-.66Z" transform="translate(-99.1 -22)"/><path class="cls-5" d="M167.87,510.93c-1.85,11.16,5.2,23,10.95,31.21l10.47-1.5c-3.66-11.12-11.69-5-10.85-26.78-3.28-1.12-5.86-3.35-10.57-2.93Z" transform="translate(-99.1 -22)"/><path class="cls-6" d="M180.43,303.76l.56-3.59-9.8-.63,0,6.56c1.85,3.7,2.72,2.55.94,5.86-6.24-.94-4-7.95-6-12.94l-2.09-.17c-4.88,8.33,2.3,24.83,9.49,26.15,4-3.9,7-14.71,6.87-21.24Z" transform="translate(-99.1 -22)"/><path class="cls-5" d="M117.55,278c1-1.39.45-.45,1.22-2.48s-1.08.42.9-2.65c4.82,1.54,15.35,17.83,32,18.73-4.32-5.89-24.73-19.14-32.12-27.45-2.58-2.92-1.26-2.72-4.81-3.17a39,39,0,0,0-.14,9.28c.63,10,.52,6.55,3,7.74Z" transform="translate(-99.1 -22)"/><path class="cls-5" d="M313.72,512.85c7.68-.91,22.6-8.48,28-12.21l-.6-11c-3.62-.07-17.57,12.14-27,16.11Z" transform="translate(-99.1 -22)"/><path class="cls-5" d="M244,519c5.86,1.08,2.69-1.6,8.16-.73,10.12,1.64,24.77,3.21,27.42-6.87a128.77,128.77,0,0,1-23.16-2.44c-7.64-1.47-11.55,3.55-12.42,10Z" transform="translate(-99.1 -22)"/><path class="cls-9" d="M146.25,236.94c7.92,4,11.79,13.57,24.48,16,8,1.57,9.63.35,16.88,4.29,3,1.64,9.42,5.58,13.12,6.67l3.9.34-1.25-3.52c-11.41-6-14.76-9.69-28.78-11.47-14.75-1.92-15.66-10.81-26-14.89l-2.79-.18Z" transform="translate(-99.1 -22)"/><path class="cls-10" d="M178.86,509.25c1-1.43,0,.77,1.18-2.19,4.68-11.34,11.72-16.43,26.2-16.6l-3.07-3.11c-9.73-.42-14.86-.94-21.9,4.19-3.77,2.75-10.85,9.27-11.58,14.37Z" transform="translate(-99.1 -22)"/><path class="cls-3" d="M418.84,107.87c1.64-2.62,1.82,3.8.07-6.91-.52-3.24-.31-4.78,1-7.18,2.65,2.72,8.19,15,16.63,13.6-.21-7.33-3.66-.63-12.34-15.94-2.16-3.77-3-6.07-4.89-9.84-3.94-7.81-2-7.56-5.75-8.82-3,5.79,4.43,11.13,2.93,17.3-1.08,4.43-2,4.43-1.78,10a15.5,15.5,0,0,0,.7,4.33c2,5.47.31,2.12,3.45,3.49Z" transform="translate(-99.1 -22)"/><path class="cls-5" d="M439.73,358.76l3.11-.76c3.83-11.55,9.17-20.23,4.7-33-3.59,2.54-8,12.41-9.38,16.5-4.6,13.28-.35,6.34,1.57,17.29Z" transform="translate(-99.1 -22)"/><path class="cls-3" d="M376.75,205.66l-.14,1.64,2-.32c7.36-.52,36.24-20.36,44.4-20.43,2.58-2.48.52-1.29,5-2.62l.07-2.89c-7.05-2.31-47.75,20.15-51.37,24.62Z" transform="translate(-99.1 -22)"/><path class="cls-3" d="M242.54,237.15c-11.92-2.65-7.15-4.71-12.94-5.86-4.81,8.86,25.25,11.16,35.37,21.56,4.25,4.39,2.54,10.46,8.33,9.38C275.12,252,264,245.7,256.81,242a56.93,56.93,0,0,0-14.27-4.88Z" transform="translate(-99.1 -22)"/><path class="cls-6" d="M308.63,234.33c5,.07,10.22-2.86,10.92-7.5.7-4.26-2.9-9.94-4.53-12.24-11.86-.6-12.21,12.76-6.39,19.74Z" transform="translate(-99.1 -22)"/><path class="cls-8" d="M252.2,368.81c-.48,4.43,2.06,7.78,4.89,10.95,23.08-.21,18.38-11.79,8.51-12.8-4-.42-10.43,0-13.4,1.85Z" transform="translate(-99.1 -22)"/><path class="cls-5" d="M241.15,522.79c-1.05-2.38-12.56-8.72-8.13-21.91,1-3.07,3.07-2.86,2.16-5.86-5.65-2-9,1.57-11.61,5.69,0,.14,1.43,23.75,17.58,22.08Z" transform="translate(-99.1 -22)"/><path class="cls-6" d="M306.85,336.86c-3.41-2.3-16-4.29-21.13-3.38-3.28,17.51,18.31,15.1,21.13,3.38Z" transform="translate(-99.1 -22)"/><path class="cls-5" d="M309.68,507.23,285.27,512l-4.43,6c7.67,1.32,20.71-.32,27.69-3Z" transform="translate(-99.1 -22)"/><path class="cls-5" d="M471.78,268l1.33-2c-2.58-1-.87-.94-1.88-2.09.87-8.79,4.63-10.05,4.63-15.87-13-4.68-17,10.63-10.08,19.7Z" transform="translate(-99.1 -22)"/><path class="cls-11" d="M195.74,511.28c5.68,5.68,16.88,2.16,23.92-1,0-4.15.21-3.77-4.29-5a36.62,36.62,0,0,0-8-1.08c-6.48-.14-11.61.76-11.68,7.08Z" transform="translate(-99.1 -22)"/><path class="cls-8" d="M299.6,388.65c4.6,3.25,6.91,4.85,15.28,2.86.69-13.91-9.49-21-12.63-11.51-1,3-2.3,5.69-2.65,8.65Z" transform="translate(-99.1 -22)"/><path class="cls-6" d="M233.37,321.55c-3.91-1.05-3.35-2.72-4.15-7.64l-5.44,5.83c4.67,12.9,16.77,10.22,20.19-.87a18.76,18.76,0,0,0-10.11-6.49c0,5.33,1.71,5.89-.49,9.17Z" transform="translate(-99.1 -22)"/><path class="cls-6" d="M170.28,382.31c2.44,2.58,2.23,2.47,6.73,3.52-.59-4.88-1.71-6.84,2.9-7.78,1.6,4.71-.49,4.43,3.17,8.54,1.08-1.39,1,.49,1.18-2.23a8.56,8.56,0,0,0-.38-2.68c-.31-1.47-1.53-4.33-2-5.72a45.84,45.84,0,0,1-2-12c-6.35,1.88-10.64,9.69-9.56,18.31Z" transform="translate(-99.1 -22)"/><path class="cls-3" d="M380.76,114.18l.59-3.94-5.09.45c-5.69,2.27-10.53,7.64-17.68,6.56,0,0-17.16-7.19-15.52,4.64,4.08-.49,4-3.28,8.78-2.31,4.29.91,4.5,2.83,11.06,2.2,7.08-.7,10.57-6.49,17.86-7.6Z" transform="translate(-99.1 -22)"/><path class="cls-5" d="M237.76,513c1.54.87,1.54,0,2.34,1.15l2.09-1.81c1.12-6,7.26-6.7,14.27-8.16-4.08-6.32-13-10-18.94-2.86-1.85,4.36-1.53,7.36.24,11.68Z" transform="translate(-99.1 -22)"/><path class="cls-3" d="M149.74,227.35c.83,3.91-1.78,0,2.3,4.15a20.39,20.39,0,0,0,3.84,3.59c2.89,2.06,6.83,2.27,11.33,2.31,22.18,0,17.93,5.75,23.3,3.24-.6-4.22.38-2.3-3.18-4.22a25.91,25.91,0,0,0-4.46-1.92c-4.05-1.33-8-1.22-12.49-1.12-21.83.56-10.49-6.13-20.64-6Z" transform="translate(-99.1 -22)"/><path class="cls-12" d="M369.91,535.59c1,.55-1,1.43,5.51.9l17.4-3.76c6-2,16.12-4.68,18-11.51-5.19.66-13.32,5.72-19.63,7.77-5.23,1.75-18.28,3-21.31,6.6Z" transform="translate(-99.1 -22)"/><path class="cls-12" d="M261.52,189.89c8,3.53,30.34-7.42,31.49-16.95-6.31-.45-2.13,1.61-15.1,9.21-12.45,7.29-15.28,1.29-16.39,7.74Z" transform="translate(-99.1 -22)"/><path class="cls-3" d="M370,526.06c6.8,3.18,34.56-8.51,33.65-17.47-6-.14-11.26,9.8-24.06,13-9.28,2.37-7.89.21-9.59,4.46Z" transform="translate(-99.1 -22)"/><path class="cls-6" d="M157.1,385l-.56-3.11c-5.51-3-9.84-12.48-17.09-13.53.07,6.1,3.73,13.25,6.94,16.57Z" transform="translate(-99.1 -22)"/><path class="cls-6" d="M229.39,379.13c1.09.77.53.73,2.31,1.26,5.93,1.78,15.1.73,20-1.22-2.44-11.09-19-6.6-22.29,0Z" transform="translate(-99.1 -22)"/><path class="cls-10" d="M394.88,386.07c6.87.52,19.22-4.29,16.53-11.89-6.69-1.61-9.41,2.09-15.62,3.14Z" transform="translate(-99.1 -22)"/><path class="cls-5" d="M353.31,407.56c9,.55,20.12-12,19.7-18.45-4.63-1.4-4.63-.91-7,2.65-5.06,7.36-11.75,10.46-12.66,15.8Z" transform="translate(-99.1 -22)"/><path class="cls-5" d="M294.51,541.38a31,31,0,0,0,12.14.38l-.11-6.84L288,534l-3.28,4.78Z" transform="translate(-99.1 -22)"/><path class="cls-6" d="M206,382.31c5.34,5.37,18.45,6.83,20-2.13-3-3-4.15-4.08-12.59-2.2a22.82,22.82,0,0,0-4,1.15c-.25.07-1.85,1-2,1.08-1.71,1.54-.38.18-1.5,2.1Z" transform="translate(-99.1 -22)"/><path class="cls-5" d="M205.61,483.79c5.06,4.57,8.06,12.14,16,13-.6-3.59-6.94-16.07-8.93-19.46-3.07.91-6.17,3.49-7.08,6.45Z" transform="translate(-99.1 -22)"/><path class="cls-2" d="M289,410.83c1,3.18-1.92.95,3,2.83,8,3,6.66,5.16,12.87,6.45a28,28,0,0,0,11.93-.21c4.53-1.18,6.28-2.06,7.08-6.17-6.8.8-10.08,5.51-19.25,2.23-5.13-1.81-9.07-7.85-15.66-5.13Z" transform="translate(-99.1 -22)"/><path class="cls-5" d="M262.53,505.94c6.8,2.09,6.69-.28,12.69-.77,6.42-.55,3.28,2.83,12.42,1.82-.18-13.85-20.4-6.7-25.11-1.05Z" transform="translate(-99.1 -22)"/><path class="cls-3" d="M371.58,538.65c2,5.86,28.74,11.34,32.58,4.33-1.88-1.67,3.52-1.57-8.58-1.26-11.61.32-21.73-5.09-24-3.07Z" transform="translate(-99.1 -22)"/><path class="cls-13" d="M449.25,321.9c1.36,2.16.42-2.72,1.47,2.06l3.07-.42c.66-3.94,2.89-8.41,3.21-12s0-11.37-1.19-14.34c-1.74,2.16-8.58,22.78-6.56,24.73Z" transform="translate(-99.1 -22)"/><path class="cls-12" d="M368.69,546.15c1.74,6.49,30.1,19.57,32.82,10.81-3.8-1.88-12-1.11-18.83-4.22-4.89-2.23-9.91-8.75-14-6.59Z" transform="translate(-99.1 -22)"/><path class="cls-2" d="M368.1,181.52c-2.17-8-4.08-11.51-9.32-10.56.42,4.29,2.79,5.79,4.22,10.18,1.75,5.37.25,9.73,1.92,13,5.62,2.51,4.22-8.61,3.18-12.59Z" transform="translate(-99.1 -22)"/><path class="cls-10" d="M230.65,563.87c4-3.84,4.36-10.64,4.46-17a11.45,11.45,0,0,0-8.26,16.88Z" transform="translate(-99.1 -22)"/><path class="cls-3" d="M273.55,195.19c4.46,2.27,11.3-1,17.05-3.52,5.13-2.23,10.26-4.32,10.95-10.32-5,.24-4.08,1.25-7,3.73-7.46,6.28-18.59,5-21,10.11Z" transform="translate(-99.1 -22)"/><path class="cls-3" d="M300.05,136c-1.53-1-.07-1-2.82-1.36l-11.62,1.08c-5,.11-10.11-1.78-14.4-.52,2,7.18,26.23,5.82,28.84.8Z" transform="translate(-99.1 -22)"/><path class="cls-2" d="M271.73,560.35c6.74.21,16-4.19,21.84-7.4,4-2.16,4.15-1.46,4.77-5.82-5.44-.38-9.66,4.43-20.29,8.37a17.9,17.9,0,0,0-3.7,1.36c-4.53,2.89-1-.35-2.62,3.49Z" transform="translate(-99.1 -22)"/><path class="cls-2" d="M294.65,195.72c6.62,1.32,24.83-4.61,23.09-12.56-3-.14-7.22,4.26-11.58,6.18-5.27,2.3-11.51,1.36-11.51,6.38Z" transform="translate(-99.1 -22)"/><path class="cls-6" d="M278.5,371l-.87,6c2.75,2.41,7.43,5,10.57,4.68l.24-11.41c-4.29-1.29-6.31-.8-9.94.7Z" transform="translate(-99.1 -22)"/><path class="cls-3" d="M277.7,169.84l-3.87.1c-15.07,11.37-18.94,6.42-21.73,10.47,4.29,3.49,11,.66,15.24-1.36,4.5-2.1,8.65-4.08,10.36-9.21Z" transform="translate(-99.1 -22)"/><path class="cls-12" d="M239.16,254.31c-2-3.91-9.21-18.17-15.35-11.54,3.63,3.27-2.75-1,2.41,2.37,10.64,6.83,6.77,13,12.9,15.24,2.52-2.34,2.13-2,0-6.07Z" transform="translate(-99.1 -22)"/><path class="cls-14" d="M390,573.22c1.4-6.56-4.77-9.32-8.16-12.21-3.59-3.14-8.37-8.72-14.3-7.11,1.26,3.48,1.82,1.63,5.55,4l11.47,9.84c2.38,3.24,1.08,5.05,5.44,5.44Z" transform="translate(-99.1 -22)"/><path class="cls-6" d="M117.93,281.55c.7,7.39,4.92,11.12,11.68,12.45l.95-6.8c-2.69-2-3.53-2.65-5.58-4.33-3.21-2.61-2.31-1.95-7-1.32Z" transform="translate(-99.1 -22)"/><path class="cls-3" d="M328,184.24l-3.1,2.27c-4.22,4.6-8.61,2.86-9.94,9,6.7.35,20.65-7.56,18.87-14.57-4.19-.07-2.9,1-5.83,3.34Z" transform="translate(-99.1 -22)"/><path class="cls-9" d="M343.75,413.21c3.7,3.31,8.83,7.84,16.26,5.4-.14-5-6.91-1.25-12.52-7.78-.11-4.67,1.22-5.33-1.61-8.12-3.84,2.16-2.82,5.72-2.13,10.5Z" transform="translate(-99.1 -22)"/><path class="cls-6" d="M165.4,381.47l1.5-7.4L150.4,370c.1.56.38.63.45,1l6.14,6.76c2.65,2.23,4.71,4.88,8.41,3.7Z" transform="translate(-99.1 -22)"/><path class="cls-3" d="M326.77,199.41c4.39,2,8.68-.76,11.86-3s6.83-4.61,6.87-9.39c-5.09-.8-5.44,3.07-9.35,5.83-4.53,3.21-8.75,1.88-9.38,6.55Z" transform="translate(-99.1 -22)"/><path class="cls-6" d="M307.73,344.22c.94,4.64,1.5,6.49,5.37,7.5l5.75-10.67L311,337.56Z" transform="translate(-99.1 -22)"/><path class="cls-4" d="M245.89,327c8,2.65,16.95,5.09,26.93,4.36-3.67-1.36-8.44-2.72-12.7-4.11-5.48-1.78-8.51-4.15-12.66-5.44Z" transform="translate(-99.1 -22)"/><path class="cls-10" d="M325.62,547.83c-.77-3.42-2.2-5.79-1.89-10.15.32-4.68,1.16-3.18,2-7.15-5.23.66-7,2.58-7.5,8.23-.62,7.08.6,8.82,7.4,9.07Z" transform="translate(-99.1 -22)"/><path class="cls-15" d="M276.72,564.6c4.95.46,8.58,0,13.46,1.26,4.15,1,6.91,2.93,10.61,2.93,1.22-7.22-25.05-10.67-24.07-4.19Z" transform="translate(-99.1 -22)"/><path class="cls-16" d="M145.27,303.83c5.86,1.19,9.84-2.86,11.27-6.1-7.53-3.31-15-4.32-11.27,6.1Z" transform="translate(-99.1 -22)"/><path class="cls-16" d="M292.45,383.94c4.81,0,2.76-.1,4.74-4.95,1.64-4,2.24-3.07,2.51-8.58-6.52,0-9.24,2.23-7.25,13.53Z" transform="translate(-99.1 -22)"/><path class="cls-5" d="M187.16,545.35c-.94,2.65-.94,1.15.35,3.59,5.47.94,3.66,2.76,10.91,1.54,2.06-1.75-2.37-.32,2.76-1.78l-2.44-3c-2.76-.59-2.93-1.08-5.13-2.4Z" transform="translate(-99.1 -22)"/><path class="cls-17" d="M135.51,302.54c4.53-1,5-4,6.35-8-2.2-1.57-4.89-3.73-8-3.87-.76,5.47-1.43,7.63,1.61,11.85Z" transform="translate(-99.1 -22)"/><path class="cls-17" d="M184.16,311.23l5.27.21,2.23-11.55-5.41,0c-1.22,3.38-2.58,7.15-2.09,11.37Z" transform="translate(-99.1 -22)"/><path class="cls-13" d="M368.93,383.39c3,1.11,5.37,2.54,9.07,2.61l.73-6.87-7.42-2.86a19.68,19.68,0,0,0-2.38,7.12Z" transform="translate(-99.1 -22)"/><path class="cls-7" d="M245.4,352.31c9.31,1.78,10.43-2.09,6-8.44l-5.62.46Z" transform="translate(-99.1 -22)"/><path class="cls-17" d="M220.08,560.94c1.78-2.89.49-3.7,4.15-12.69-6,.17-9.59,5-8.3,11.64Z" transform="translate(-99.1 -22)"/><path class="cls-3" d="M406.15,323.12c2.51-4.78-4.92-14.51-10.54-11.65l.84,2.37c.94,1.29,2.55,1,4.47,3.94,2.79,4.19.2,4.57,5.23,5.34Z" transform="translate(-99.1 -22)"/><path class="cls-17" d="M314.53,538.83c.9-7.81,2.33-6.52,4.57-11.27-10.26,0-10,13.61-6,16.4Z" transform="translate(-99.1 -22)"/><path class="cls-13" d="M451.49,253.4c-.18,6.14.87,10.61,7.11,11.86l-1.08-9.83Z" transform="translate(-99.1 -22)"/><path class="cls-3" d="M402.14,332.92c-.32-6.84-6.35-12.87-12.18-9.8l2.76,2.76c9.35,6,1.71,6.2,9.42,7Z" transform="translate(-99.1 -22)"/><path class="cls-13" d="M212,549.36c-5.55-.66-3.25-1.22-7,1.85-2.2,1.85-2.34,1.19-3.8,3.73l9.52,1.82Z" transform="translate(-99.1 -22)"/><path class="cls-13" d="M202.89,477.66c2.51-.81,12.17-7,5.2-13.4-2.06,5.24-4.85,6.84-5.2,13.4Z" transform="translate(-99.1 -22)"/><path class="cls-16" d="M116.54,389.32l4.81,0c2.09-6.49.21-8.86-5.44-9.52Z" transform="translate(-99.1 -22)"/><path class="cls-17" d="M125.6,390.26l7.85-3.39c-1.39-3.76-3.59-5.58-7.32-6.66Z" transform="translate(-99.1 -22)"/><path class="cls-18" d="M271,532.66c3.8,2.37,5.75,3.55,10.88,4.29a13.72,13.72,0,0,1,3.35-4.15Z" transform="translate(-99.1 -22)"/><path class="cls-19" d="M386.55,108.07c-.39,5.65-.35,2.41-1.54,4-2.54-1.26-1.22.24-1.92-2.48,1.85-2.16-1.18-.83,3.46-1.5Zm-10.29,2.62,5.09-.45-.59,3.94L384,113c2-.63-.67,1.46,3.1-1.29.1-.67,1.78.83-.59-3.6-1.43-1.77,3.31-1.39-2.62-1.5l-3.38,2.62c-2.1.7-1.64-.56-4.29,1.5Z" transform="translate(-99.1 -22)"/><path class="cls-20" d="M471.23,263.94c1,1.15-.7,1.08,1.88,2.09l-1.33,2c3.39-1.47,9.77-5.55,5.2-10.22-2.16,2.3-1.43,1.88-2.16,6.28Z" transform="translate(-99.1 -22)"/><path class="cls-21" d="M117.76,369.51l4-.6c4.25,3.8,3.14,7.36,9,5.44,2.09-3.66.45-.31-.7-1.74l-3.21,1.78c-1.15-4.4-.8-1.57,1.19-2.48-2.41-2.86-2.06-3.17-5.62-4.67-.34.14-1.7.49-2,.63-4,2-.81.24-2.72,1.64Z" transform="translate(-99.1 -22)"/><path class="cls-14" d="M363.11,309.69c-.42-4.53-.56-4.91-5.55-4.39l-.24,5.72Z" transform="translate(-99.1 -22)"/><path class="cls-22" d="M214.82,330.37c3.94-1.08,6.17-1.84,5.89-7-4.15.42-6.1,2.24-5.89,7Z" transform="translate(-99.1 -22)"/><path class="cls-23" d="M336.71,124.71c1.18-4.78.66-6-3.52-6.56-1.16,3-1.61,7.26,3.52,6.56Z" transform="translate(-99.1 -22)"/><path class="cls-3" d="M204.21,418.16c2.41.35-.24.83,2.06.1,3.45-1.15,2.23-4,2.09-5.3l-4.15-.1c-1.36,3.14-1.39,2.26,0,5.3Z" transform="translate(-99.1 -22)"/><path class="cls-20" d="M444.72,248.1c-4.78.28-6.1,1.12-11.27-.63l1.23-9.59c-3.32,1.5-2.83,7.05-2.13,10.15,2.33,1.36,2.23,1.47,5.26,1.61Z" transform="translate(-99.1 -22)"/><path class="cls-24" d="M291.13,269.41c1-2.79.9-1.43,0-4.67l-4.36.45-.1,4.22c3.27,1,1.5,1.15,4.43,0Z" transform="translate(-99.1 -22)"/><path class="cls-4" d="M347.87,364.2l6.69.32a17.13,17.13,0,0,0-1.25-3.35c-2.44-3.63-.07-.59-2.76-2.51Z" transform="translate(-99.1 -22)"/><path class="cls-25" d="M409.32,70.51c2.3-4.25,1.47-4.71-2.13-5.79,0,.07-2.19-.52-1.25,3.6.63,2.72.9,1.77,3.38,2.19Z" transform="translate(-99.1 -22)"/><path class="cls-2" d="M266.82,440.51c.17-6.8-4.71-7.25-5.69-.8Z" transform="translate(-99.1 -22)"/><path class="cls-2" d="M344.45,166c4.12,1.25,4.05.56,4.67-4l-4.95-.17c-1,4-.84,1.39.28,4.15Z" transform="translate(-99.1 -22)"/><path class="cls-2" d="M320.25,158.3c4.11-.35,4.64-.35,3.8-5l-3.87.31c-1.36,2.69-.84,2,.07,4.68Z" transform="translate(-99.1 -22)"/><path class="cls-2" d="M305.22,309.38c-4.19-2.69-4.4-1.26-5.13,2.09,1.32,1,.28.91,2.44,1.26,2.55.45.94,0,2.82-.7Z" transform="translate(-99.1 -22)"/><path class="cls-2" d="M411.1,329.15c-.14-4.39-.91-5.58-4.92-2.89.35,4.43.94,3.91,4.92,2.89Z" transform="translate(-99.1 -22)"/><path class="cls-15" d="M296,104.27c3.49,1.68,5.58.14,5.13-3.87-3.7-.1-5.06.14-5.13,3.87Z" transform="translate(-99.1 -22)"/><path class="cls-26" d="M171.22,306.1l0-6.56,9.8.63-.56,3.59c2.09-2.26,1.78-.94,1.11-4.49l-10.95-.7c-.59,3.59-1.11,3.45.63,7.53Z" transform="translate(-99.1 -22)"/><path class="cls-27" d="M445.77,149.68l3.62,1.82c1.89.48,2,.13,3.7.06l-1.5,3.25,3.56-.07-2.3-7.12c-2.45,4.15.87,1.64-3.35,2.62-.21,0-3.52-.52-3.73-.56Z" transform="translate(-99.1 -22)"/><path class="cls-25" d="M303.68,273.28c.77-4.85.21-.49-.8-2.79l-2.72.46s-4.33,3,2.37,4.46c.84-1.08.66,1,1.15-2.13Z" transform="translate(-99.1 -22)"/><path class="cls-2" d="M279.27,263.48c-1.33,1.64-1.5-2.16-1.33,3.59.07,0,2.62,3.6,4.15-.27,1.4-3.6-1.71-3-2.82-3.32Z" transform="translate(-99.1 -22)"/><path class="cls-15" d="M395.79,140.13l-3.18.38c-.62,2.61-1.36,4.71,1.85,4.57,2.93-.14,2-3.18,1.33-5Z" transform="translate(-99.1 -22)"/><path class="cls-25" d="M281.71,410.45c.21,0,2.23,2.79,3.63-.84,1.25-3.34-1.71-3.07-2.9-3.41-.17.27-.49.34-.52.83-.07.84-1.15.7-.21,3.42Z" transform="translate(-99.1 -22)"/><path class="cls-12" d="M304.59,132.87c-2.27,5.2,5.86,5.65,3.52-.31-.24-.11-.63-.6-.73-.32s-.6-.24-.73-.21c-1.92.28-1,.14-2.06.84Z" transform="translate(-99.1 -22)"/><path class="cls-28" d="M303.68,175.35c-1-3.73-.21-.63-2.2-1.64-.52.66-2.3-1.36-1.11,3.21.94,3.52.24.66,2.16,1.46.45-.55,2.23,1.05,1.15-3Z" transform="translate(-99.1 -22)"/><path class="cls-2" d="M331.65,176.47a1.76,1.76,0,0,0,2.9,0c1-3.42,1.22-2.82-2.41-4-.07.13-3.1,1.08-.49,3.94Z" transform="translate(-99.1 -22)"/><path class="cls-23" d="M332.1,406.82c3.56,1.47,3,1.68,4.85-1.25-2-3.66-4.15-3.39-4.85,1.25Z" transform="translate(-99.1 -22)"/><path class="cls-15" d="M271.63,218.18c-1.67,3.1-.28,4,3.35,4l-.07-4.63Z" transform="translate(-99.1 -22)"/><path class="cls-2" d="M344.83,184c3.25-2.33,3-2.89,0-5-3.41,2-3.34,2.62,0,5Z" transform="translate(-99.1 -22)"/><path class="cls-25" d="M261.31,562.13c5.12.1,3.8.94,4.32-3.28-3.28-1.43-4.22-.39-4.32,3.28Z" transform="translate(-99.1 -22)"/><path class="cls-29" d="M123.23,378.36c-.17-4.91.35-4.56-3.94-5.86.35,4.09.7,4.22,3.94,5.86Z" transform="translate(-99.1 -22)"/><path class="cls-25" d="M190.51,220.9c-.91-3.18-.35-.66-2.13-1.43-3.42,3.8-1.88,3.21,1.05,4.46.45-.59,2.3,1.36,1.08-3Z" transform="translate(-99.1 -22)"/><path class="cls-30" d="M430.35,322.32l3.35-.46-.25,3.88c1-1.5-.07.9,1.47-2.55.7-1.64.24-1.15.66-2.58l-2-.66.11-2.79Z" transform="translate(-99.1 -22)"/><path class="cls-2" d="M245.47,406.54l1.33-4.11c-6.63-.11-6.42,3.49-1.33,4.11Z" transform="translate(-99.1 -22)"/><path class="cls-31" d="M313.69,180.86c5.23.31,5.2-4.25-.45-4.11Z" transform="translate(-99.1 -22)"/><path class="cls-32" d="M369.74,137.2v3.87l5.58-2.41-3.25.21.07-3.94c-2.06,1.46-1.5-.42-2.4,2.27Z" transform="translate(-99.1 -22)"/><path class="cls-15" d="M221.16,241.34l-1.08-3.77c-2.65.28-1.36-1-2.82,1.25-1.75,2.69.35,2.06.38,2.66Z" transform="translate(-99.1 -22)"/><path class="cls-25" d="M224.3,362.22c.63-.74,2,1.25,1.29-2.2s.35-1-2.33-2.13c-.74,1.05-1.82-1.29-1.08,2.27.69,3.38-.39.91,2.12,2.06Z" transform="translate(-99.1 -22)"/><path class="cls-25" d="M369.74,141.07V137.2c-4.05-.14-3.56-.32-3.46,3.8Z" transform="translate(-99.1 -22)"/><path class="cls-25" d="M418.14,112.75c4.12,3.69,3.32.94,4.19-1.08-1.4-1,1.88-2.1-2.37-1.15-3.46.76-.91,1-1.82,2.23Z" transform="translate(-99.1 -22)"/><path class="cls-33" d="M360.84,197.88l1.82,3.24,4.18.07c-.17-.28-.73-1.25-.87-1.53l-1.85-4.43v3.91Z" transform="translate(-99.1 -22)"/><path class="cls-31" d="M228.07,224.32c-5.23,0-4.92,4.11.35,4.15Z" transform="translate(-99.1 -22)"/><path class="cls-25" d="M335.87,245.84l-.56-3.53c-2.79.8-1.46.14-3.1,1.22.45,3.14.28,5,3.66,2.31Z" transform="translate(-99.1 -22)"/><path class="cls-15" d="M438.62,222.57c.07-3.52-1.22-2-2.86-2.4-1.43,2.09-.56,3.1-.56,3.07,0-.35,3.35,3.38,3.42-.67Z" transform="translate(-99.1 -22)"/><path class="cls-34" d="M382.22,463.46c-2.86,1.71-2.09.77-3.42,4l-2.86-4.57c-.21,4.08-.55,3.17,1.64,6.38.25-.17.56-.42.74-.52Z" transform="translate(-99.1 -22)"/><path class="cls-23" d="M265.07,551.87c4.15.21,5.83-2.68.46-3.9-.88,1.64-1.78.14-.46,3.9Z" transform="translate(-99.1 -22)"/><path class="cls-25" d="M384,327.2c-2.79-.1-1.46,1.08-1.85,2.23,1.22,1.15-1.74.81,1.89,1.15,4.18.42.52.14,2.16-1.15-.91-2.09,1.85-2.05-2.2-2.23Z" transform="translate(-99.1 -22)"/><path class="cls-15" d="M345.29,398.17c3.38,2.86,2.51,1.68,4.08-1.08-1.43-1.11,2.13-2.19-2.34-1.18-3.49.76-.91,1.08-1.74,2.26Z" transform="translate(-99.1 -22)"/><path class="cls-15" d="M398,108.25c.69-3-.74-4-3-2.93l-.45,3.84Z" transform="translate(-99.1 -22)"/><polygon class="cls-28" points="334.35 303.74 334.6 299.87 331.25 300.32 331.56 304.19 334.35 303.74"/><path class="cls-35" d="M426.9,396l-3.21,1.64L422.12,395l.77,5.55c3.38-1.19,2.75-.49,4-4.54Z" transform="translate(-99.1 -22)"/><path class="cls-20" d="M221.09,519.12c3.21-1.64,3.88-1.15,2.17-4.77-4.71-.46-2.69-.91-5.44,2l5.12-1.39c-1,2.41-.73,2.47-1.85,4.11Z" transform="translate(-99.1 -22)"/><path class="cls-27" d="M372.53,208.94l3-1.15-.11,3.66a8.1,8.1,0,0,0,.59-.67l.6-.69,2-3.11-2,.32.14-1.64a20.27,20.27,0,0,0-2.34,1.11c-2.72,1.92.56-1.36-1.88,2.17Z" transform="translate(-99.1 -22)"/><path class="cls-36" d="M290.32,168.79c-.07,2.38,1.05,1.89,3.53,1.68l.1-2.76c-1.81-.83-3.56-1.25-3.63,1.08Z" transform="translate(-99.1 -22)"/><path class="cls-26" d="M273.83,169.94l3.87-.1-.21-.73-.56-5.09c-2.09,2.4-.52.45-1.57,2.72-1.29,2.75.52.17-1.53,3.2Z" transform="translate(-99.1 -22)"/><path class="cls-37" d="M326.91,414.18c3.14.94,4.15,1.33,3.59-2.75-3-.42-3.45-.49-3.59,2.75Z" transform="translate(-99.1 -22)"/><path class="cls-38" d="M353.38,166.91c1.53,2-1.22,2,3.07,1.85,2.13-3.94,1.43-1.78,0-4.5-5.79-.45-1.89-.24-3.28,1.71,5.89-1.81,1.85-.77,3.24.7-1.88,1.5,1.75,1.81-3,.24Z" transform="translate(-99.1 -22)"/><polygon class="cls-39" points="171.72 429.36 172.56 425.63 168.55 425.7 169.11 428.66 171.72 429.36"/><path class="cls-40" d="M386.55,108.07c-4.64.67-1.61-.66-3.46,1.5.7,2.72-.62,1.22,1.92,2.48,1.19-1.57,1.15,1.67,1.54-4Z" transform="translate(-99.1 -22)"/><polygon class="cls-41" points="226.59 232.62 226.79 229.1 223.48 229.9 223.24 232.66 226.59 232.62"/><path class="cls-2" d="M277.49,169.11c2.51-1.54,1.67,0,2.65-3.84L276.93,164Z" transform="translate(-99.1 -22)"/><path class="cls-42" d="M431.05,360.16l2.37-2.58c.42.38.91.28,1,.66.7,2.44,0-.14,1.61,1.05l-1.36-3.6c-3.6,1-2.66.14-3.63,4.47Z" transform="translate(-99.1 -22)"/><path class="cls-43" d="M270.83,451.36c2.72-2.2,2.89-.8,1-4.46-6.9-1.78-2.72-.25-4.22.8l4-.07Z" transform="translate(-99.1 -22)"/><path class="cls-15" d="M360.84,197.88l3.28,1.26v-3.91c-2.13.49-3.42.07-3.28,2.65Z" transform="translate(-99.1 -22)"/><path class="cls-42" d="M340.13,334.52l4.39,3.39c-.35-2.9.59-.84-.77-3.14s-1.32-1.5-2.37-2.48c.56,3.49.7,1.5-1.25,2.23Z" transform="translate(-99.1 -22)"/><polygon class="cls-25" points="276.32 189.45 276.42 185.78 273.42 186.94 273.74 189.76 276.32 189.45"/><path class="cls-44" d="M286.7,238.58l3,2.34c.17-.32,1.39-.42.8-3-1.22-5.41-.56-1.47-1.89-3,.95,4.46,2.1,3.94-1.91,3.66Z" transform="translate(-99.1 -22)"/><path class="cls-45" d="M293.25,249.36c0-2-.45-1.43,1.5-1.47l-6.38-3.14c1.5,2.62-.49,1.29,4.88,4.61Z" transform="translate(-99.1 -22)"/><path class="cls-34" d="M453.79,323.54l-3.07.42c-1.05-4.78-.11.1-1.47-2.06.95,3.77,0,3,3.7,4.5Z" transform="translate(-99.1 -22)"/><path class="cls-42" d="M345.78,347.25c1.77,2,1,2.73,4.29,1.23-2.38-5.1,3.9,2.19-.81-1.5-2.3-1.82,1.61.31-2.47-1.33Z" transform="translate(-99.1 -22)"/><path class="cls-19" d="M335.87,245.84l5.79-1.75c-4.22,1.12-3.42.66-4.15-2l-2.2.17Z" transform="translate(-99.1 -22)"/><path class="cls-42" d="M442.84,358l-3.11.76c.73,2.76-.59,1,1.29,2.83,2.3-1.88,1,.14,1.82-3.59Z" transform="translate(-99.1 -22)"/><path class="cls-46" d="M200.73,263.94c.94.59.35.83,2.37,1,3.14.18,1.39-.45,2.3-1,0-4.46.28-1.71-2-3.14l1.25,3.52Z" transform="translate(-99.1 -22)"/><path class="cls-47" d="M398,108.25l-3.49.91.45-3.84c-.94,1.12-2.72-.45-.45,4.18,6,1,2.06.07,3.49-1.25Z" transform="translate(-99.1 -22)"/><path class="cls-48" d="M325.69,254.62c1-1.43.8.18,1-2.26.21-2.17-.48-1.43-.94-2.17-4.36,0-1.81-.1-3.21,1.71l3.32-.8Z" transform="translate(-99.1 -22)"/><path class="cls-46" d="M133.8,216.4l-.14-3.17c-3.45,1-1.33-.53-2.76,2.05Z" transform="translate(-99.1 -22)"/><path class="cls-49" d="M251.51,403.37c-.21-4.12-1-1.15,1.57-4.18l-4.47,1.36c.18.17.45.2.56.52l1.71,1.71a7.57,7.57,0,0,1,.63.59Z" transform="translate(-99.1 -22)"/><path class="cls-50" d="M331.2,359.18c1.67,2.65-.32,1.89,3.07,1.85.56-.8,1.18-.07,1-2.13s-.31-1.29-1-2.37l.59,3.77Z" transform="translate(-99.1 -22)"/><path class="cls-51" d="M423,186.55l6.24-3c.24-4.68.38-1.08-1.15-2.51l-.07,2.89c-4.5,1.33-2.44.14-5,2.62Z" transform="translate(-99.1 -22)"/><path class="cls-52" d="M199.78,318.87c-.13,3.45,2.79.14,2.86,0-.13-3,.39.07-1.6-1.26-2.79.1.14-.38-1.26,1.26Z" transform="translate(-99.1 -22)"/><path class="cls-47" d="M454.66,271.47c1.39-1.15.8,1.53,1.43-1.05.07-.38.56-.28,1-.59l.45,1.29c1.18-1.57.77.77.49-1.5-.18-1.32.28.14-1.12-1.15-3.07,1.92-1.18-.52-2.23,3Z" transform="translate(-99.1 -22)"/><path class="cls-53" d="M353.38,166.91c4.78,1.57,1.15,1.26,3-.24-1.39-1.47,2.65-2.51-3.24-.7Z" transform="translate(-99.1 -22)"/><path class="cls-20" d="M237.76,513l2.83,3.35,1.6-4-2.09,1.81c-.8-1.15-.8-.28-2.34-1.15Z" transform="translate(-99.1 -22)"/><path class="cls-45" d="M146.25,236.94l-.49-2.72,2.79.18c-1.46-.84,2.41-1.82-3.07-.67-2,5.79-.45,1.71.77,3.21Z" transform="translate(-99.1 -22)"/><path class="cls-54" d="M198.42,550.48l4.5-2.58-4.18-2.24,2.44,3c-5.13,1.46-.7,0-2.76,1.78Z" transform="translate(-99.1 -22)"/><path class="cls-29" d="M130.1,372.61l-2-.7c-2,.91-2.34-1.92-1.19,2.48Z" transform="translate(-99.1 -22)"/><path class="cls-42" d="M187.51,548.94c-1.29-2.44-1.29-.94-.35-3.59l-3.35,1.19Z" transform="translate(-99.1 -22)"/><path class="cls-55" d="M390,392l1,.91c2.86-1.64,1.43,0,2.93-3.28Z" transform="translate(-99.1 -22)"/><path class="cls-19" d="M223.47,206.11l2.68-.84a27.24,27.24,0,0,1-2.65-2.3Z" transform="translate(-99.1 -22)"/><path class="cls-51" d="M119.6,410.28,121,411l.74-2.51c-3.07.94-1.43-.77-2.17,1.78Z" transform="translate(-99.1 -22)"/><polygon class="cls-21" points="57.99 362.96 59.67 361.63 57.44 359.85 57.99 362.96"/><path class="cls-51" d="M218.23,333.55c1.92.14,1.5-.42,1.57,1.32Z" transform="translate(-99.1 -22)"/><path class="cls-51" d="M324.92,186.51l3.1-2.27Z" transform="translate(-99.1 -22)"/><path class="cls-47" d="M243.59,363.44l-3.42-2Z" transform="translate(-99.1 -22)"/></svg>