<svg id="Camada_1" data-name="Camada 1" xmlns="http://www.w3.org/2000/svg" viewBox="0 0 490.6 545.75"><defs><style>.cls-1{fill:#fdfdf9;}.cls-1,.cls-10,.cls-11,.cls-12,.cls-13,.cls-14,.cls-15,.cls-16,.cls-17,.cls-18,.cls-19,.cls-2,.cls-20,.cls-21,.cls-22,.cls-23,.cls-24,.cls-25,.cls-26,.cls-27,.cls-28,.cls-29,.cls-3,.cls-30,.cls-31,.cls-32,.cls-33,.cls-34,.cls-35,.cls-36,.cls-37,.cls-4,.cls-5,.cls-6,.cls-7,.cls-8,.cls-9{fill-rule:evenodd;}.cls-2{fill:#f91c25;}.cls-3{fill:#141048;}.cls-4{fill:#241644;}.cls-5{fill:#fdfffd;}.cls-6{fill:#fa1b22;}.cls-7{fill:#fdfdfd;}.cls-8{fill:#120e4a;}.cls-9{fill:#fafafa;}.cls-10{fill:#fafdfa;}.cls-11{fill:#1a124b;}.cls-12{fill:#181242;}.cls-13{fill:#2d1039;}.cls-14{fill:#f9faf6;}.cls-15{fill:#250943;}.cls-16{fill:#f5f6f6;}.cls-17{fill:#121042;}.cls-18{fill:#f61c25;}.cls-19{fill:#1c184b;}.cls-20{fill:#26234a;}.cls-21{fill:#1a1844;}.cls-22{fill:#201b4b;}.cls-23{fill:#221a52;}.cls-24{fill:#2f2d50;}.cls-25{fill:#14103a;}.cls-26{fill:#10093a;}.cls-27{fill:#322b58;}.cls-28{fill:#514c76;}.cls-29{fill:#393664;}.cls-30{fill:#36335a;}.cls-31{fill:#282555;}.cls-32{fill:#474469;}.cls-33{fill:#423b67;}.cls-34{fill:#4a4c64;}.cls-35{fill:#575578;}.cls-36{fill:#160335;}.cls-37{fill:#090935;}</style></defs><path class="cls-1" d="M301.11,328.48c-3-4.06-.17-1.62,1.09-9.3.92-5.37-.43-9.3,1.31-13.84,3.67,4.85,1.79,19.6-2.4,23.14ZM312,304.6c1.4,1.49,1.4-1.57,1.75,4.76,1.05,18.29.09,5.11,3.88,17.72-3.44-1.39-3-.22-5-3.93-2.18-4.19-2.05-13.75-.66-18.55Zm-30,24.18c1.09-4,3.84-6.5,5.33-11.17,1.35-4.19,2-11.61,2.83-13.66,4.33,3.93-.08,23.48-8.16,24.83Zm-19.16-1.61c3.1-5.67,12.09-11.92,14.4-22.26,1.53,1.92,4.89.43-3.66,13.31-2.1,3.1-6.81,8.95-10.74,8.95Zm62.51-23.44c3,3.67,2,9.73,6.46,18.86.13.35,1.61,3.23,1.66,3.31.52,3,0,2.06-.83,3.5l-3.54-5.59c-2-4.85-6-16.06-3.75-20.08Zm11,1.31c2.62,3.36,4,8.12,7.6,12.61s8.25,6.81,9.6,12.53c-7.2-3.27-21-20.25-17.2-25.14Zm-60-6.5c1.4-4-.17-2.62,3.41-1.18-1.31,2.09.61,3.53-3.41,1.18Zm59.89-1.18c2.53-2.14-3.36-1.62,1.44-1.09,2.8.34.22-.7,1.88,1.09-4.72,4-2.84.3-3.32,0Zm-51-2c.83-1.7-.92-3.36,8.73-5.28,7.94-1.57,31.3-3.4,35.53,4.28-31.78-3.71-13.66-4.45-44.26,1Zm-59.89-3.84c1.92-4.1,3.89-4.8,10.08-7.77l8.91-3.45c7.25-.3,1.13-.52,3.53,1.23-4,1.7-7.63,2.05-11.69,4.23-4.46,2.4-6.2,4.06-10.83,5.76ZM367.11,280.2c7.07-.3,9,.18,14.67,3.19,2.27,1.18,3.62,2.05,5.32,3.1,5.11,3.18,2.93,1,4.15,4.89-5.94-1.49-6.07-3.58-11.35-6.11-9.56-4.59-5.5-1.49-11.79-4.46-.26-.13-.65-.39-1-.61ZM384,278.5c5.11,1,15.85,8.64,20.87,12.09,4,2.75,5.36,4.67,9.42,7.55,2.84,2.05,8.25,4.67,11.57,6.64,12.44,7.42,31.52,10.3,46.62,12.57,5.06.78,5.11-.18,7.33,3-5.41,2.93-17.68-.26-23.92-.65-14.36-1-34.26-2.05-47.4-6.11-6.85-2.18-13-5.85-18.81-7.64L386,311.63c12.57,11.79,19.21,8.86,29.42,16-4.28,2.57-17.5-3.75-21-5.89-6.55-4-9.25-11.35-18-6.2,2,3.58,3.27,5.45,6.63,7.81a38,38,0,0,0,4.67,2.53l4.37,3c-7.42,3.89-16.59-9.51-20-13.79l-9.87-.92c1.48,14.41,11.17,15.89,13.84,21.78-9.47,0-15.06-12.18-17.24-22.3-7.29-2.58-12-3.89-14.19-9.39,1.05.27,34.53,18.25,42.38.35-2.09-4-10.43-10.52-7.07-15.23,6.94,5.37-.83,9.69,24.75,19.73,10.91,4.32,26.37,6.46,39.55,6.24-6.42-2.62-10.78-2.71-17.42-6.59-20.78-12.22-18.9-13-36.27-24.44-9.69-6.38-5-2.41-6.55-5.81Zm-145.57,26c-5.76-26.19,79.92-34.39,114.54-21.56l24.18,12.4c5.85,8.38-4.54,17.19-19,10.47-20.6-9.56-13.22-26.36-49.8-25.93-26.19.31-30.56,10.22-50.24,24.32-7.42,5.28-12.62,4.23-19.69.3Zm14.84-26.54c1.4-.83-.7-2.4,3,0-1.14,1,3.49,4-3,0Zm-14.67-1.22,2.67-.57c-1.53,2.1.61,4-2.67.57ZM375.36,276c1.7-3.45,1.4-3.58,3-.48Zm110.3-5.33c4.06-3.05,2.66-.65,3.8,0-3,5.11-2.14,1.49-3.8,0Zm-358.58-.17c6-.87.13-.66,2.66,1.4.18,4.27.53,0-2.14,1.61Zm255.31-3.41c2.14,1.18,2.92-.48,1.17,3.1-2.18-.78-3.88.09-1.17-3.1ZM150.83,265.8c8.68-3.58,16.54,6.07,21,9.16,3.1,2.1,4.06,1.71,6.2,4.19-7,4.41-10.87-8-23-11.47-6.46-1.88-1.75.56-4.23-1.88Zm286.38,15.93c2.36-4.15,3.67-3.54,6.77-6.46,4.06-3.8,9.86-18.46,20.86-15.89,4.58,1.09,3.19,1.88,4.32,4.72-9.51-2.62-12.48-1.49-17.5,5.5-3.41,4.71-6.16,11.3-14.45,12.13Zm-92.58-27.24c6.55.57,10.08,3.63,11.17,9.08-5-1.31-2.35-.87-6-4ZM153,257.33c3.05-2.75,6.07-2.71,10.65-.79,7.46,3.15,12,11.92,20.25,16l5.85,2.93c-.87.57,1.09,2.84-5.5.52a19.71,19.71,0,0,1-4.71-2.66c-6.07-4-11.31-11.22-15.45-13.66s-10.79-1.14-11.09-2.36Zm105.41,11c1.14-5.85,7.6-13.75,12.92-15.36-2.31,5-7.9,13.62-12.92,15.36ZM423.55,280.2c1.83-5.37,3.14-2.22,8.73-8.16,7.46-8,8.07-9,18.16-15.84l8.42-4.2c7.64,0,1.44-.43,3.8,1.66-30.21,14.63-25.23,23.49-39.11,26.54Zm-85.86-28.94c2.88-1.18,1.92-1.26,3.14,1.18-4.45,2.49-2.14-.35-3.14-1.18Zm-62.07-1.7c.92,1.31,3.54-.26,0,3.62-4.54-4.19-1.18-2.62,0-3.62Zm-62-2.18c4.28.91,3.28-1.09,3.15,3.18-3.84,0-2.36.75-3.15-3.18Zm183.86,3.4c3.05-3.27-4.63-1.48,3.49-3.49-1.57,3.58.43,2-3.49,3.49ZM202.94,274.31c-.43.31-1,2.62-6.59.48-4.54-1.79-11.3-9-14.36-12.4-7.11-8-9.25-10.95-23.66-12.52,7.69-7.47,19.69,4.19,23.27,8,16.89,18.16,14.27,11,21.34,16.41Zm208,3.23c2.71-3.8,5.63-5.72,8.78-9.6,6.11-7.69,21.38-22.7,31.21-24.75,5.85-1.22,3.36.22,4.19.78-3.32,2.88-8.56,3.84-12.88,6.51-8.21,5.06-14.1,12-20,18.85-2.7,3.1-6.55,8.56-11.35,8.21ZM171,240.26c20.82-.48,26,24,37.88,30.34,8,4.28,4.5.83,6.16,5.15C203,274,199,266.19,193.69,257.94c-8.38-12.92-14-11.52-20.43-15.8a9.09,9.09,0,0,1-2.22-1.88ZM398.8,275.49c5.54-4.37,7.07-2.53,10.78-9.17,10.91-19.73,4.45-11.3,18.29-24.14,1.83-1.7,6.81-6.15,9.43-6.72,8.16-1.74,3.66.39,4.71,1.22-25.14,13.06-22.39,19.78-31,32.3-1.61,2.32-8.73,8.52-12.22,6.51Zm-9.12-4.85C407.35,255.45,417,236,436.56,227.78c12.26-5.15,27.71-2.58,36.79,4.06,4.67,3.36,6.37,7.77,8.86,13.09,1.62,3.5,5.28,10.65,4.59,14.71-.48,2.8-.31,1.53-1.31,3-2.71-3.84-1.49-3.84-2.84-8.6-1.79-6.5-7.2-17.24-12.27-20.38-23.7-14.62-43.82.44-58.27,18.24L393.6,271c-5.06,2.09-3.75-.27-3.92-.4Zm-260.85-4.27c-.31-.4-3.8.87-1.05-10.09,4-15.71,29.85-36.1,50.2-30,16.23,4.88,25.44,30.59,32,37.14,5.85,5.81,11.53,2,18.29,4.8-.39.83,1.62,3.23-8.51,2.53-11.39-.78-13.92-6.5-18.9-15.14-4.8-8.38-12.35-21.08-21-25-11.79-5.28-26.11.61-33.66,6.42-17.72,13.62-14.93,22.83-17.41,29.29Zm56.26-39.77c1.7-3.32-3.4-1.83,3.14-2.44-1.52,3.05.79,2.09-3.14,2.44Zm245.31-2c-3.62,2-2,1-3.14-1.22,3-1.27,2-1.57,3.14,1.22Zm-144.35,6.07c.18.3.48.39.57.87s.44.61.57.83.39.57.52.78.39.53.52.75c4.06,6.24,9.48,19.6,5.59,25.58L292.77,258a7.59,7.59,0,0,1-.78-3.05c-1.57-10.74-5.63-32.26-22-20.25-17.94,13.13-15.58,24-22.26,31.55-1.4-2.13,2.57-8.55,3.31-13.22-4.45.78-22.82,4.06-27.63,3.36-4.58-.7,1.93.79-2-.52l-1.57-1c4.45-2.36,13.48-1.88,19.2-2.62,21-2.8,9.69-1.71,26.71-17,6.68-6,6.51-6,17.64-5.42l6.76-12.3c2.32,4.1-1.87,9.6-4.1,13.05ZM473.4,215c7.15,2.23,38.23,51.55,15.88,82.5-9.38,13.05-24.35,12-41.38,5.85-9.64-3.45-10.91-5.72-17.41-10.48-13.4-9.86-16.15-4.62-20.34-6.46,1.22-2.88,1.44-3.44,6.11-4.14,9.69-1.49,20,3.1,27.85,4.23,5,.74,14.14,2.1,18.2-.3,6.76-4,2.49-11.66,5-15.89,6.51,7.2.44,20.38-12.09,20.12-11.91-.26-21.56-5.15-31.38-5,11,6.5,50.9,37.41,66.13,5.37,16.54-34.66-16.89-68.62-16.54-75.78Zm-148.54,2.88c5.85,1.27,4.58,7.82,13.44,10.74,16.24,5.37,15.89,17,30.25,23.09,9.78,4.19,15.06,1.88,25,1.49-1.75,3.45-1.66,4.19-13.49,3.66-7-.3-9.34-1.61-15.23-3.58,2.13,5.16,3.18,4,4.71,9.26-8.86-3.84-7.07-12.79-23.66-26.93-9.82-8.34-17.5-3.54-21.56,8.64-2.36,7.11.44,11.3.7,13.7.91,9.3,1.13,1.45-1.44,4.76-6.33-24.62,2.48-24.66,7.94-34.52-3-3.63-5.85-5.68-6.63-10.31Zm-33.48-7.11c.39,1,2.79-.83,0,3.36-2-1.09-.88.83-1.23-1.83-.91-6.72-2.18,2.18,1.23-1.53ZM124,268.24c0,20.52,3.63,41.16,24.32,42.21,21.47,1.09,28.68-10.13,39.33-18.51a19.69,19.69,0,0,0,2.09-1.61l2-2.1c.13-.17.39-.52.56-.78-7.59,1.4-32.52,10.08-41.68-2.14-2.93-3.89-4.06-9.52-1.14-13.31,2.93,4.89-1.35,19.9,25.14,16.5,8.78-1.14,26.46-10,34-5.72-1.53,3.93,1.7.7-4.32,2.62-10.78,3.4-18,13.05-30.69,21.6-26.84,18.21-62.89,2.19-50.41-55.17,2.53-11.57,12.35-35.05,21.13-39.42C142.53,220.53,124,238,124,268.24Zm202.89-57.05c-1.53,2.88,2,2.53-3.45,2,.61-4.54.61-3.15,3.45-2Zm8.16-3c2.27,1.23,2.31-.34,1.22,2.8-2.4-.74-3,.57-1.22-2.8Zm-57-.48c3.1,1.23,3,.31,1.18,3.41-2.75-1.44-2.27-.66-1.18-3.41ZM375.14,161c10.3-1.74,25.36.35,32.52,5.55,11.83,8.64,24.27,43,8.69,59.27-6.64,7-12.49,13.31-24.49,15.8-19.25,4-43.17-12.26-47.89-32-5.23-21.91,14.19-45.7,31.17-48.58ZM218.31,162c10.47-2.75,26.67.52,34,5.85,3,2.27,7.5,7.11,10.6,10,15.54,14.88,14.71,53.12-20.73,64-28.63,8.78-48.49-13.53-51.24-27.54-2.23-11.31-.83-24.88,5-33.13,4.84-6.77,12.44-16.63,22.39-19.25Zm-85.47,46.79c.35-.17.74-.65,1-.7h1.75c.13-.39.52.48.78.7l-1.65.87c-.18.05-.79.05-.92-.26s-.57-.43-.92-.61Zm347.1.66c-.17-4.28-2.83-3.15,2.8-2.93-.79,3,.39,2.32-2.8,2.93Zm-12.13-3.58c.26,4.14,1.4,1.35-2.23,2.92.7-4.23-1.13-2.18,2.23-2.92ZM149.12,207c-.43,2.71-.35.7-2.09,1.18-3.06-4.15.09-2.92,1.22-3.8,1.09,2,1.4-.21.87,2.62Zm174.34-7.9c3.54-2.7,2.05-.7,3.05,0-1.22,1.05.27,3.41-3.05,0Zm-35.4,0c3.8-3.36,1.92-1.18,3.36,0-1.4,1.14.35,3.45-3.36,0Zm135.88-19.42c1.83-2-3.67-1,3.36-1.92,2.58-.35,16.06,3.58,16.33,11-4.72-.43-.48.4-4.24-2.92-4.49-3.93-11.91-4.76-15.45-6.11Zm-253.52,9.51c1.31-4.41,3.32-5.32,8-7.29a53.81,53.81,0,0,1,6.42-2.31c6.63-1.27,4.06-.31,5.85,1.62-3.36,1.3-6.81,1.35-10.91,3.23-3.76,1.74-5.5,3.92-9.35,4.75ZM441.49,177c-1.05,0-18.34-4-20.39-4.63.66-.35-1.35-2.71,5.94-2.14a31.63,31.63,0,0,1,5.81,1.4c4.45,1.35,7.24,1.44,8.64,5.37Zm-268.58.21c3.54-3.23,15-9.69,19.73-6.06-2.7,2.57-6.2,2.13-10.34,3.84-4.46,1.79-6.33,4.41-9.39,2.22ZM431,165.71c-4.37-.52-8.56.48-12.92.09.87-5.33,21.21-4.54,23,2.35-4.8.44-4.32-1.79-10.12-2.44ZM174,171c2-5.85,16.15-9.87,20.82-7A8,8,0,0,1,192,165.4c-4.72,1.62-3.45-.13-18,5.55Zm237.41-9.69c1.09-2.62.61-2.58,4.36-3.89,5.5-1.87,18.56-3.18,22.48,1.66-4.75,2.27-6.85-3-26.84,2.23ZM178.72,159c6.28-3.18,18.33-4.8,22.48,0-2.88,1.57-7.69-.13-11.7.09-2.75.13-4.58.87-6.46,1.09-7.95.79-2.84.17-4.32-1.18Zm226.71-4.45c3,3.53,1.71,1,0,3-2.62-2.09-1.57-1.18,0-3Zm-191,2c-4.32,2.14-2.23.7-3.71-1.22,1.66-.79.13-1.14,2.48-.7,2.89.57.57,0,1.23,1.92Zm12.79-.3c-5.37.43,1,.78-1.71-.92,1.31-.7.79-5,4,0-1.7,1.18.22.7-2.31.92Zm159.8-.44c2.31-2.18-3.19-2.1,3.88-2.88-1.53,3.8,1.66,2-3.88,2.88Zm-67.79,14.49c-4.23-3.67-3.58-12.22-2.58-14.93,2-5.28-.17-1,2.58-2.79l.22,4.06c-.92,9.21.17,5.37.56,10.08.62,6.5.53,1-.78,3.58ZM294.91,152c5.85,2.31,7.12,13.31,2.53,17.11a5.05,5.05,0,0,1-.39-.83c-1.48-6.24.39-1.31-.3-8-.48-4.4-1.53-3.36-1.84-8.29Zm-19.46.17c.26,5.11,1.87,3.37-3.15,3.1.18-3.18.61-2.48,3.15-3.1Zm64,.83c.21-.13-1.75-5.67,3.66,0-4.84,4-3,.4-3.66,0Zm74.16-2.66c1.44-.43,4.62-1.13,6.32-1.4,5.2-.74,9-1,12.49,1.66-1.14.66-.39.75-2.75,1.09l-10.74.31c-3.88.61-6.37,2.36-9.73,1ZM198,151.83c-4.54-.7-8.82,0-13.32.13.92-6.15,21.22-3.4,24.32,1-3.32,1.75-6-.39-11-1.13Zm93.41-6.72c.39.52,5-1.36,0,3.84-4.72-3.89-.31-3.41,0-3.84Zm32.43,1.79c-4.32,3.45-2.53,1-4.15,0,1.88-1,.92-4.46,4.15,0Zm-133.18-3.63c8-4.8,31.26,3,32.22,10.35-2.71-.18-8.82-4.76-14-6.64a42.68,42.68,0,0,0-8.73-2.22c-7.64-1-5.5.83-9.52-1.49Zm203.41,9c6.2-5.55,12.44-8.47,20.82-10.74,9.43-2.58,6.55-.05,7.16.52Zm-94.85-15.63c.66,5,.74,2.71-1.75,4.54-4.14-3.14-2.61-4.63,1.75-4.54Zm16.5,3.1c2-3-3.58-1.88,4.06-3.19-1.83,4.37,2.14,2.93-4.06,3.19Zm20.3-4.93c1-5.68,5.23-4,4.41.35a4.17,4.17,0,0,1-2.67.61Zm47-.83c.27-.31.88-2.14,1.05-2.36,1.4-1.88,0-.31,2.4-.92-2.09,4.5,1.66,1.66-3.45,3.28Zm-106.46-2.84c-1.7,4.06-1,3.67-4.32,1.22,2-2.09.13-4.58,4.32-1.22Zm-23.26,24.75c-2.58-3.62-25.19-20.34-10.65-26.1,11.17-4.5,30.9,7.55,24.09,16.36-2.79-11.39-12.39-17.63-25.27-12.83-1.35,17.42,27.28,23.57,31,25.23,8.82,3.93,26.15,20.69,17.72,34.57-4-4.89,2.89-8.77-4.8-19.55-3.05-4.28-5.71-9.26-12.79-9.3,3.85,5.54,15.19,30.55,10.35,39.07-4.45-3.1-2.05-38.15-22.61-42.26-30-5.93-70.93-46.61-90.84-14.75-5.36,8.6-16.67,37.45-11.52,50.24,6.72,7.33,26.19-8.9,29.46-10-1.31,5.2-3.66,6.68-7.77,8.43-.08,14.8,2.32,16.15,5.81,27.67-5.46-2.22-5.85-4.89-7.16-11.48-1-4.8-1.18-8.77-1.83-13.62-5.46,1.18-12,6.86-19.73,1.66-8.95-6.94,3-37.1,4.54-44.74-15.85,21.3-24,46.58-25.14,47.84-3.06-6.76,10.95-32,14.18-37.54,19.12-32.3,34.57-41.07,66.13-26.62,13.49,6.15,27.54,16.58,36.8,17.72Zm185.38,42.25c.3,7.68,1.48,15.8-2.88,21.61-2.1-2.53-.53,1.39-1-2.49-.57-4.63,3-4.54.79-21.65-4.37-2.1-7.2-2.88-9-6.24,4-2.1,22,10.6,28.77,10.78,14.93.3-.83-40.94-8.21-51.2C421,112.81,374.88,154.58,359,161.13c-6.73,2.75-12.18,5.1-16.72,14.71-5.33,11.13-2.23,19.6-4.76,27-2.88-1.44-1.83,1.44-2.53-4.84-1.79-16.15,8.77-28.64,11-33.18-19.6-1-16.41,25.15-20.6,28.11-3.28-5.85,1.48-17.24,4.41-22.17,3.75-6.37,9.64-8.56,17.28-11.83,41.64-17.76,33.61-35.62,11.57-24.88-6.07,3-7.25,6.72-11.7,9.6,6.42-22.69,53.51-19.07,24,5.15A63.25,63.25,0,0,1,362.7,154c-1.57.87-2.79,1.44-3.88,2.14l-3.58,3c19.9-5.15,44.87-38.15,80.09-24,7.12,2.84,10.78,8.47,15.41,12.57,8.25,7.42,33.87,45,28.68,52.08-1.22-1.09-8.64-18.55-10.3-21.87-3-6.07-10.65-14-12.22-19.47,2.88,12.44,12.61,33.31,2.75,45-8.95,1-11.88-3.75-21-5.28ZM210.32,116.6c2.14,1.92,25.14,10.83,19.21,19-3.23-1.22-.31.57-2-2.36-3.41-5.72,1.57.66-2.18-3.93-1.75-2-4.11-3.18-6.51-4.36-3.1-1.57-12.66-6.64-15-7.12-6.68-1.22-28.25,7.73-33.74,10.92-4.81,2.79-8.21,5.93-12.93,9-33.39,21.91-30.9,53.21-36.92,75.73-11.31,42.6-12.57,70.85,9.82,108.34,18.11.52,44.26-7.07,57.48-15.5,7.73-4.93,14.1-9.47,21.52-14.88,3.76-2.75,6-5.46,10.52-7.73,3.41-1.7,9.87-4.05,13.32-5.28-1.71,4.41-8.78,4.8-21.09,14.58L175.27,316.3c45.48.48,46.4-21,59.54-26.67-1.09,5.72-.53,2.45-3.8,6.85-8.86,12,5.46,22.83,27.46,15.24,9-3.1,8.42-6.55,13.44-8.25-1.4,10.69-11,8.25-16.15,12.7-5.63,4.8-1.88,14.19-13.36,18.38,2.58-6.11,7.51-9.13,8.64-17.38-8.64-.21-8.11-1.7-13.35,2.88-3.32,2.89-5.28,6.9-10.7,7.56,1.18-3.1,1.53-2.93,4.28-5.46l3.76-3.49a9.49,9.49,0,0,0,1.7-1.92l-6-2.53c-4.63,3.66-7.6,8-14,11.65-4.15,2.44-14.88,7.81-19.55,4.23,2.22-1.83,11.87-3.49,17.32-6.46,6.55-3.62,8.86-7.2,13.4-10.86l-3.27-10.09c-16.63,13.58-15.19,12.92-40.59,15.89-16.63,1.92-36.84,5.15-52.38,6.2,3.1,12.92,10.08,22.17,23.87,23.53a384.91,384.91,0,0,0,46,1.48l186.82-1.88c29.07.22,61.68,2.19,85-9.16A61.61,61.61,0,0,0,498,317.09c6.81-10.48,7.16-24.62,8.95-38.55,4.45-34.87-5.11-51.9-16.06-77.56l-12.44-33.74c-2-5.9-12.92-27.33-16.16-31-6.54-7.46-22.82-9.95-34.39-13-26-7-17.55-.13-37.36,4.63,1.26-3.67-.35-2.27,4.23-4.89,3.75-2.14,3.36-.31,6.59-4.28-11.44-.48-22.3-2.18-33.61-2.35-12.27-.14-13.57,9.86-23.7,13,2.22-8.12,9-7.72,11-13.09l-21.21-.66c-2.4,4.41-3.14,5.85-5.2,9.21-3,5-2.53,6.68-8.9,8.3,2.14-6.25,9.43-12.71,9.78-18.07-12-.62-33.48-2.84-44.61-1.18,1.7,2.88,12.83,16,10.12,20.6-1.74-.83-13-19-14.71-20.91L255,112.33c5.19,6.24,14.23,7.81,15.41,15.06-6.12-1-16.55-14-23.88-14.67-5.63-.52-32.17,2.14-36.23,3.88Z" transform="translate(-63.45 -25.25)"/><path class="cls-2" d="M239,456.24c-8.2-42.56,34.66-92.19,89.31-74.55l21.26,12.7c6.24,3.88,11.17,12,16.1,17.94,15.72,19.16,14.45,55.39-3.71,78.09-15.27,19.07-49.23,30.07-74.94,21.17-30.29-10.56-41.91-23.48-48-55.35ZM388,374.57C417.83,393,409.1,428.65,401.11,432c-11.48.69-12.53-2.27-15.41-11.79-7.33-24.44-2.05-19.25-17.67-37-5.5-6.2-7.34-7.51-16.5-11.79-15-4.89-10.61-3.31-27.33-2.66l-51-.65c-8.6-.22-7.73-1-13.58,4.19-6.81,6-11.74,9.42-14.62,18.55-9.13,21.12-12.22,50.63-30.64,45.22-16.46-4.85-6.2-42.39,10.34-51.42,1.88-5.85,21.87-13.14,25.75-18.12C216.69,363,197.79,366,165,355.8c-5.37-1.7-10.17-2.18-15.37-3.92-11.26-3.8-15.58-7.95-20.56-18.47-4.27-9.12-9-14-13-24.66-2.62-7.07-7.2-23.4-7.38-32-.69-35.79,7.21-48.18,10-68.26,5-36.41,1.17-18.82,11.87-45.31,8.77-21.65,16.37-42.3,43.3-53.69,14.62-6.2,43.74-14,61.89-15.67,22.79-2.18,52.73-1.53,76.3-2,26.85-.61,46.27,2.18,71.54,5.63,21,2.88,46.36,5.89,64.08,13.44,22.05,9.39,21,23.44,31.39,45,2.18,4.58,4.4,8.51,5.76,13.75,5.89,22.83,3.1,17.42,14.84,43.43,9,20,13.53,39.24,10.69,64.43-2.88,25.75-5.67,40.77-19.81,57.75-10.26,12.31-39.42,18.59-54.74,22.91-19.69,5.5-55.83,2-70.28,6.9,8.78,3.1,15.89,4.23,22.53,9.6Zm79.26-256.79c-7.72-6.85-30.72-21-18.07-28.94,12.36-7.72,34.62,6.77,42.87,24.8,3.93,8.64,5.8,16.54,8.9,26.19,2.1,6.63,8,21.86,5.11,28.06-6.16-1.53-1.48,0-6.94-11.65-7.51-16.07-10.61-17.37-23.14-29-4.1-3.8-5.58-6.63-8.73-9.43Zm-353,45.31c-1.53-1.83-2.27-1.35-1.09-7.07,4-19.16,7.42-47.32,26.89-62.24,12.7-9.69,45.74-8.21,17.2,16.06-7,6-10.17,9.21-16.24,15.28S130.27,135.94,125.12,142c-2.45,2.84-4.76,4.72-6.16,9.43-1.31,4.37-1,9-4.67,11.7Zm37.5,322.31.08-.92c-3.27-2.49-.61,0-3.18-3.14-.13-.18-1.79-2.75-2-3.06-1.22-2.09-2.66-4.71-3.88-7.07a138.26,138.26,0,0,1-6.46-14.14C126.12,429,124.11,413.86,131.27,385c3.49-14.06,18.42-37,23-12.62,2.14,11.35.26,83.07,1,102.05.44,4.85.53,10.52,1.53,14.71,1.4,6,2,6.38,7.73,9,4.84,2.27,20,8.73,25.7,8.64-6.06-22.44-15.1-30.2-20.9-70.36-3.06-21-1.18-39.46,8.07-57.79,3.1-6.12,5.07-11.05,13.18-10.7,10.92,13,2.45,51.46.35,69-2.22,18.68.57,58.18,7.29,72.19l28.2,4.19c-.13-.26-34.74-33.39-25.75-53.12,2.66-5.8,8.6-11.56,17.19-9.34C230,454,233.1,474.53,238.6,486.05c4,8.43,17.12,29.47,23.62,31.87,7.86,2.92,64.73,6.63,77.78,5.41,10.78-1,35.36-25.62,42.26-41.64,6.54-15.15,4.88-31.95,26.1-30.77,12.05,17.15,11.13,19.9.09,37.4S395.79,505,384.13,515.21a8.92,8.92,0,0,0-2.14,2.1c4.37-.53,36.76-9,38.68-10.74,4.62-4.06,6.63-34.35,6.5-43-.3-20-12.35-77.78-7.73-90.18,2.1-5.54,8.25-10.34,14.32-6.11C445,375,451.83,406.09,451.7,424.73c-.17,28.32-18.2,56.87-21.39,79.26a63.84,63.84,0,0,0,16.76-6.06c7.43-3.76,7.08-4.11,9.87-11.92,4.8-13.44,4.8-23.83,4.41-39.46-.39-16.06-8-73.33,1.74-82,7.56-2.79,10.61-.52,13.75,5.81,2.19,4.36,5.07,9.86,6,14.67,5.41,27.45,5.06,48.71-6,73.46-1.92,4.32-12.53,21.12-14.49,28.28,14.05-3,23.65-18.64,29-25.66,11.61-49.33-.22-71,.35-95.9.31-13.93,14.06-7.9,17.72,5.41,11.57,41.69-4.75,54.52-6.5,78.74.26-.26.65-1,.79-.78l6.15-7.86c5.72-7.55,14.71-16.15,17.63-29.55,5.77-26.1-21.78-61.2-22.74-71.5-1-9.91,8.82-15.36,17.46-10,18.42,11.48,14.67,31.6,16.59,41.6a6.59,6.59,0,0,0,.22,1l1,2.8c2.18-4.06,4.76-23.92,5.28-29.34,2-20.95,3.36-12.44-6.06-25.92-9.87-14.06-20.78-28-17.73-52.86,2-16,9.39-8.78-.21-24.93-10.61-17.85-15.8-35.83-12.88-57.48,1.61-12.14,8.9-15.24,13.88-23.09-3.36-11.92-10.43-20.87-15.89-30.73-3.23-5.85-4.23-10.3-7.11-15.89-16.81-32.08-13-21.65-31.82-39.72C463,70.77,442.93,59.69,436.21,60c-1.14,24.27,7.55,26.81,4.84,36.45-11.52.44-22.13-13.7-27.15-19.55-27.85,5-43.17,4.27-69.18-10-7-3.84-6.59-3.71-14.89-1.48-21.08,5.63-36.18,5.72-56.65-.26-28,22-39.29,18.55-77.61,14.88C190.68,85.66,182.12,99,173,101.63c2.27-9.34,14.93-21,6.59-41.9-8.07.48-24.88,14-33,18.94C139.17,83.21,125,99.14,120.84,105c-7.81,10.87-22.39,43.22-23.66,54.17-.57,4.93,5.85,12,8.25,18.47,5.94,15.93,5.54,27.45,0,44a76.55,76.55,0,0,1-7.94,17.73c-3.23,5.67-9.34,10.56-8,17.33A102.09,102.09,0,0,1,88.32,304c-4.23,15.76-11.87,21.22-21.17,30.95l6.77,39.55c1.78-3.23.34-20.91,2.31-29.12,7.07-29.9,29.29-29.64,34.26-16.24,6,16.2-27.1,41.38-26.75,68.93,0,4.1,13.88,25.4,17.46,31.29,1.83,3,5.58,7.38,6.5,9.21-.09-7.94-8.6-27.58-6.85-48.93,3.18-39.2,40.94-51.77,24.66,2.62-4.1,13.71-6.72,22.52-9.65,37.84-3.45,18,3.71,25.58,11.26,35.14,5.37,6.77,16.42,18.55,23.53,23.36,2.53-1.14.61.91,1.14-3.19Z" transform="translate(-63.45 -25.25)"/><path class="cls-3" d="M210.32,116.6c4.06-1.74,30.6-4.4,36.23-3.88,7.33.65,17.76,13.66,23.88,14.67-1.18-7.25-10.22-8.82-15.41-15.06l25.31,1.13c1.71,1.92,13,20.08,14.71,20.91,2.71-4.63-8.42-17.72-10.12-20.6,11.13-1.66,32.56.56,44.61,1.18-.35,5.36-7.64,11.82-9.78,18.07,6.37-1.62,5.94-3.28,8.9-8.3,2.06-3.36,2.8-4.8,5.2-9.21l21.21.66c-2.05,5.37-8.82,5-11,13.09,10.13-3.14,11.43-13.14,23.7-13,11.31.17,22.17,1.87,33.61,2.35-3.23,4-2.84,2.14-6.59,4.28-4.58,2.62-3,1.22-4.23,4.89,19.81-4.76,11.39-11.61,37.36-4.63,11.57,3.1,27.85,5.59,34.39,13,3.24,3.71,14.19,25.14,16.16,31L490.86,201c10.95,25.66,20.51,42.69,16.06,77.56-1.79,13.93-2.14,28.07-8.95,38.55a61.61,61.61,0,0,1-24.49,21.65c-23.35,11.35-56,9.38-85,9.16l-186.82,1.88a384.91,384.91,0,0,1-46-1.48c-13.79-1.36-20.77-10.61-23.87-23.53,15.54-1,35.75-4.28,52.38-6.2,25.4-3,24-2.31,40.59-15.89L228,312.77c-4.54,3.66-6.85,7.24-13.4,10.86-5.45,3-15.1,4.63-17.32,6.46,4.67,3.58,15.4-1.79,19.55-4.23,6.37-3.67,9.34-8,14-11.65l6,2.53a9.49,9.49,0,0,1-1.7,1.92l-3.76,3.49c-2.75,2.53-3.1,2.36-4.28,5.46,5.42-.66,7.38-4.67,10.7-7.56,5.24-4.58,4.71-3.09,13.35-2.88-1.13,8.25-6.06,11.27-8.64,17.38,11.48-4.19,7.73-13.58,13.36-18.38,5.19-4.45,14.75-2,16.15-12.7-5,1.7-4.45,5.15-13.44,8.25-22,7.59-36.32-3.23-27.46-15.24,3.27-4.4,2.71-1.13,3.8-6.85-13.14,5.68-14.06,27.15-59.54,26.67L211.8,293c12.31-9.78,19.38-10.17,21.09-14.58-3.45,1.23-9.91,3.58-13.32,5.28-4.54,2.27-6.76,5-10.52,7.73-7.42,5.41-13.79,9.95-21.52,14.88-13.22,8.43-39.37,16-57.48,15.5-22.39-37.49-21.13-65.74-9.82-108.34,6-22.52,3.53-53.82,36.92-75.73,4.72-3.1,8.12-6.24,12.93-9,5.49-3.19,27.06-12.14,33.74-10.92,2.35.48,11.91,5.55,15,7.12,2.4,1.18,4.76,2.31,6.51,4.36,3.75,4.59-1.23-1.79,2.18,3.93,1.7,2.93-1.22,1.14,2,2.36,5.93-8.12-17.07-17-19.21-19Zm14.36,268.1.35,3c7.73-5.67,15.71-11.7,24.84-15.89-4.06,5.5-27.42,21.65-29.55,36.36,7.59-3.36,11.08-19.77,24.35-25.66l-1.61,4.1c3.53,0,2.27.61,1.92,4.28,2.88-9.13,7.81-12.57,14.62-18.55,5.85-5.15,5-4.41,13.58-4.19l51,.65c16.72-.65,12.31-2.23,27.33,2.66l2.79-1.31L348,366.8c16.15.61,28.11,11.57,35.44,22.88,2.62,4,5,9.07,9.43,11.26-1.44-15.15-22.92-28.77-26.41-31.95,7.68,1,14,4.67,19.64,7.37.83-3-1-3.36,2-1.79-6.64-5.37-13.75-6.5-22.53-9.6,14.45-4.93,50.59-1.4,70.28-6.9,15.32-4.32,44.48-10.6,54.74-22.91,14.14-17,16.93-32,19.81-57.75,2.84-25.19-1.66-44.44-10.69-64.43-11.74-26-8.95-20.6-14.84-43.43-1.36-5.24-3.58-9.17-5.76-13.75-10.35-21.52-9.34-35.57-31.39-45-17.72-7.55-43-10.56-64.08-13.44C358.29,94,338.87,91.16,312,91.77c-23.57.52-53.51-.13-76.3,2-18.15,1.7-47.27,9.47-61.89,15.67-26.93,11.39-34.53,32-43.3,53.69-10.7,26.49-6.9,8.9-11.87,45.31-2.75,20.08-10.65,32.47-10,68.26.18,8.6,4.76,24.93,7.38,32,3.93,10.65,8.69,15.54,13,24.66,5,10.52,9.3,14.67,20.56,18.47,5.2,1.74,10,2.22,15.37,3.92,32.82,10.17,51.72,7.21,85.46,10.78-3.88,5-23.87,12.27-25.75,18.12Z" transform="translate(-63.45 -25.25)"/><path class="cls-3" d="M182,530.23c13,3,11.92,9.82,53.82,12.83,29.64,2.14,102.8,2.31,132-.39,20.69-1.88,38.67-7,59.36-8.82-1.26,7.55-13.66,17.5-18.15,20.73C383.83,572.52,301,566.81,266,564.75c-25.45-1.48-46.45,1.62-67.79-10.56-10.52-6-14.62-10.39-16.24-24Zm168.62-8.3c3-3.49,4.76-3.71,8.9-7.24,7.21-6.11,17.46-15.72,22-24.23,7.38-13.83,7.07-37.8,25.41-36.58,13.88,16.55,1.31,29.82-8.34,42.82-7.81,10.57-25.19,25.8-39.72,24.36,7.29-2.66,31.17-22.3,32.91-34.35-4.89,1-11.3,14.88-18.16,20.25-4.27,3.36-17.37,13.45-23,15Zm-111.13-7.2c-6.64-.48-6.64-.83-10.57-4.49-7.07-6.55-13-10.61-18.72-21.35-5.63-10.47-13.88-30.68.87-35.27,13.23-4.1,19.6,19.16,23.09,29.6,4.24,12.52,15.32,24,19.95,33.74-20.91-2.88-23.13-27.41-34-31.26.53,5.81,17.68,25.32,19.43,29Zm-60.89-86c4.32-9.3.39-44.08,10.91-56.61,1.7,1.88-.13-1.83,2.14,3.27l1.57,11.66a149.23,149.23,0,0,1-1.44,16.67c-1.27,11.35-2.62,20.87-3.8,31.95-4.06,37.45,2.14,40.47,4.15,65.83a8,8,0,0,1-1.7-2.36l-9.87-26.67c-5.8-19.73-13-48.54-8.29-68.75,1.74-7.42,3.66-15.23,7-22a26.6,26.6,0,0,1,1.79-3.19c.18-.26.39-.56.57-.78l2.22-2.31c-1.17,8.77-4.45,17-5.32,26.23l-1.7,20.65a9.25,9.25,0,0,0,.3,3.49c.74,3.31-.17,1,1.49,2.92ZM426,369.82c9.6,17.76,6,55.21,9.69,63.64,3.18-2,2.13-.83,1.87-6.68l-1.7-26.45c-1.61-12.44-4.76-20.78-6.63-31.78,14.53,7.11,22.61,46.09,18.37,66.78-2.31,11.18-6,24.71-9.82,33.83-4.32,10.43-7.16,23.22-11.09,32.83-1-7.51,6.33-23.75.79-68.14-2.27-18.29-13.23-57.18-1.48-64Zm46.4,35.48c.69,12.79-1.27,10,2.13,12.31,6.38-13.18-6.24-38.41-7.59-51.16,6.94.83,5.94,2.75,9.25,9.34,5.46,10.92,7.38,35.36,7.2,47.76s-13.83,46.09-20.12,52.77c.48-19,1.44-33.78,0-53.47-.79-10.65-4-46.44.39-53.82,5.28,9.47,8.16,24.88,8.78,36.27ZM155.32,474.44c-3.58-2.35-.48,2.53-3.71-3.62l.53,2.44c.74,1,3.49-2.53,1.83,6.16-1,5-.05.57-1.62,2l-.48,3.05-.08.92c4.62,2.18,3.23-1.75,3.1,4.36-.09,3.67.52,1.31-2.23,2.8,3.36,7.42,16.54,8.29,19.55,13.79.75,1.44,6.11,23.79,6.94,27.15,2.75,11.26,5.37,15.93,12.92,20.91,24.4,16.06,52.82,12.53,87.17,14.62,35.84,2.18,93.59,5.33,125.32-8,8.25-3.44,13.44-9.56,19-15.06,6.59-6.41,7.47-11.74,12.66-21.25,13.27-24.36,2.49-18.77,31.51-36.49,10.26-6.25,11.27-7.56,18.91-15,5.15-5.11,12.92-12.35,16.32-18.33-4.45-.48-1.48-1.27-5.37.17-2.49,5.72,2.4,1.84-3.62-1.22.74,3.75,2.09-1.35-.18,4.71-1.57,4.15,2.32-.3-2.4,2.54-5.37,7-15,22.65-29,25.66,2-7.16,12.57-24,14.49-28.28,11-24.75,11.39-46,6-73.46-1-4.81-3.84-10.31-6-14.67-3.14-6.33-6.19-8.6-13.75-5.81-9.73,8.69-2.13,66-1.74,82,.39,15.63.39,26-4.41,39.46-2.79,7.81-2.44,8.16-9.87,11.92A63.84,63.84,0,0,1,430.31,504c3.19-22.39,21.22-50.94,21.39-79.26.13-18.64-6.68-49.72-17.94-57.49-6.07-4.23-12.22.57-14.32,6.11-4.62,12.4,7.43,70.15,7.73,90.18.13,8.69-1.88,39-6.5,43-1.92,1.7-34.31,10.21-38.68,10.74a8.92,8.92,0,0,1,2.14-2.1c11.66-10.17,13.27-9.47,24.32-26.89s12-20.25-.09-37.4c-21.22-1.18-19.56,15.62-26.1,30.77-6.9,16-31.48,40.64-42.26,41.64-13.05,1.22-69.92-2.49-77.78-5.41-6.5-2.4-19.64-23.44-23.62-31.87-5.5-11.52-8.59-32-20.69-35.18-8.59-2.22-14.53,3.54-17.19,9.34-9,19.73,25.62,52.86,25.75,53.12l-28.2-4.19c-6.72-14-9.51-53.51-7.29-72.19,2.1-17.51,10.57-56-.35-69-8.11-.35-10.08,4.58-13.18,10.7-9.25,18.33-11.13,36.84-8.07,57.79,5.8,40.16,14.84,47.92,20.9,70.36-5.71.09-20.86-6.37-25.7-8.64-5.72-2.66-6.33-3.06-7.73-9-1-4.19-1.09-9.86-1.53-14.71Z" transform="translate(-63.45 -25.25)"/><path class="cls-4" d="M494.7,363.84c6.59,6.67,7,30.33,7.77,32.43,7.94-2.67-2.54-29.9-4.24-35.14,5.37,1.7,5.59,2.88,7.38,8.16,8.9,26.15,3.53,55.17-7.6,79.53,4.59-45.48-1.57-48.58-3.31-85ZM110.45,436.07c-3.06-14.75-7.9-28.45-6.77-45.35.92-13.48,8.21-31,18.51-32.08-1.31,6-5.93,15.45-8.29,28.07-1.75,9-1.22,7.9.39,10,5-6.72,3.1-28.59,11.09-34.13,4.45,19.38-6.46,35.66-10.65,55.52-1.27,5.93-1.18,10.91-3.32,16.15Zm421.39-36C530,394.7,529,387,527,381.12l-15.54-33.26c-9.34-16.28,3.15-25.19,16.55-8.08,10.43,13.36,9.12,50.16,3.88,60.28ZM80.29,394c-4.85-8.34-8.56-76.74,22.65-69.45-1,3.54-6.63,10.74-9.16,15.32a76.93,76.93,0,0,0-4.37,9c-1.79,4.19-3.19,5.8-.61,8.77,2.44-3,8.12-22,17-29.81,5.46,6.55,1.31,11.7-2.1,17.15L86.22,376.14c-2.83,6.07-3.66,12.49-5.93,17.86Zm468.49-69.49c-5.5-2.4-6.46-6.86-11.74-13.23a48.62,48.62,0,0,1-8.65-15.54c-3.79-11.17-7.72-30.86.75-39.68,8.9,8.73,5.54,8.87,6,21.92.26,6.67.92,20.86,4.93,23.65,2.27-4.49-3.93-25.09-1.22-34.61,15.84,7.46,11.79,42.73,9.91,57.49ZM76.14,264.18c1.62,8.6,3.1,12,2.23,22.26-.44,5.55-3.76,15.33-1.7,19.08,8.55-6.29,3.92-33.31,2.09-43.34a19.23,19.23,0,0,1,8.16-5.72c2.58,23.87,2.36,59.62-20,73.55-1.3-11.26.14-24.58,1.71-35.75,3.49-24.36-3.76-26.32,7.46-30.08Zm468.1,2.05c-3.27-6-4,1.75-16.33-19.72-4.67-8.12-9.12-15.28-12.61-24.93-5.89-16.24-7.29-49,9-56,8.69,13.09-10,41,4.85,66.52,1.35-1.66,2.44,2.31.91-5.67-2.79-14.45-6.68-23.31-1-43.17l11,38.85c.48,2.57,4.28,42.55,4.19,44.12ZM105.78,191.77c2.27,27.72-14.14,62.11-35.71,70.84,2.1-37.1,11.13-47.62,18.64-78.39C94,191,91.77,211,89.93,218.66c-2.83,11.61-.91,8.25.75,9.91,12-35-5.81-46.06,4.19-62.25,5.67,4.24,10.17,15.89,10.91,25.45ZM222.24,69.64c9,.83,29.29-4.76,38.19-8.34,5.76-2.31,5.24-2,9.12,1.92C256.28,81,214.34,82.91,197.79,76.4l4.06-8.47Zm133.83-9.21c14.57,6.85,37.27,7.33,52.94,5.37l2.23,7.9c-18.68,8.2-62.33-2-69.14-13.4,6.68-3.15,5.8-3.71,14,.13ZM204.69,49.69c-.39,7.86-5.24,16.85-8.56,22.61s-7.33,14.19-13.22,16.89c3.45-16.24,3.27-16.63-.66-32.17Zm201.88-3.36c10.21,1.74,19.33,6.81,26,12.05.48,17.72,1.44,17.8,5,33.26-15.06-4.11-29.29-26.5-31-45.31ZM204.25,65c.13-1.4,2.93-11,3.67-13.84,1.57-5.63,5.15-4.58,11.3-6.76,7.82-2.75,18.29-8.08,26.94-8.6L252.53,45c-7.73,5.41-15.1,3.45-24.4,3.45,4.71,8.77,21.56.87,28.41-.31,1.53,4.89,2.84,4.67,4.85,9.47-22.57,9-31.6,8.52-57.14,7.38Zm148.24-10.3a119.44,119.44,0,0,1,9.25-8.12c4.71,2.62,13.4,8.29,19.77,4.5-2.44-2.93-6-1-18.33-7.69l4.63-6.59c7.2.57,28.72,4.8,34.52,7.64l4.5,18.38c-16.41,2.27-42.73.35-54.34-8.12ZM259.86,31.92C264.23,37.6,276.58,54,284,54l1.75-.48c-1-1.27-18.47-13.45-21.65-21.83,12.09-6.55,75.29-2.79,88,3.67-3.66,5.76-16.85,12.7-24,18.16,2.27,1.39,0,1.66,4.54.13,4-1.36,17.85-12,20.6-14.71,3.32-3.23,3.27-3.62,9.38-2.93-2.75,21.39-62.11,42.43-94,22.05-3.71-2.36-18.08-21.13-19.47-23.71ZM152.66,492.56c2.75-1.49,2.14.87,2.23-2.8.13-6.11,1.52-2.18-3.1-4.36-.53,4.1,1.39,2.05-1.14,3.19-7.11-4.81-18.16-16.59-23.53-23.36-7.55-9.56-14.71-17.15-11.26-35.14,2.93-15.32,5.55-24.13,9.65-37.84,16.28-54.39-21.48-41.82-24.66-2.62-1.75,21.35,6.76,41,6.85,48.93-.92-1.83-4.67-6.2-6.5-9.21-3.58-5.89-17.42-27.19-17.46-31.29-.35-27.55,32.73-52.73,26.75-68.93-5-13.4-27.19-13.66-34.26,16.24-2,8.21-.53,25.89-2.31,29.12l-6.77-39.55c9.3-9.73,16.94-15.19,21.17-30.95a102.09,102.09,0,0,0,1.18-47.31c-1.31-6.77,4.8-11.66,8-17.33a76.55,76.55,0,0,0,7.94-17.73c5.5-16.54,5.9-28.06,0-44-2.4-6.46-8.82-13.54-8.25-18.47,1.27-10.95,15.85-43.3,23.66-54.17,4.19-5.85,18.33-21.78,25.8-26.32,8.11-4.93,24.92-18.46,33-18.94,8.34,20.86-4.32,32.56-6.59,41.9,9.08-2.66,17.64-16,22.53-21.56,38.32,3.67,49.58,7.07,77.61-14.88,20.47,6,35.57,5.89,56.65.26,8.3-2.23,7.86-2.36,14.89,1.48,26,14.27,41.33,15,69.18,10,5,5.85,15.63,20,27.15,19.55,2.71-9.64-6-12.18-4.84-36.45,6.72-.34,26.8,10.74,31.34,15.11,18.81,18.07,15,7.64,31.82,39.72,2.88,5.59,3.88,10,7.11,15.89,5.46,9.86,12.53,18.81,15.89,30.73-5,7.85-12.27,11-13.88,23.09-2.92,21.65,2.27,39.63,12.88,57.48,9.6,16.15,2.18,8.91.21,24.93-3.05,24.83,7.86,38.8,17.73,52.86,9.42,13.48,8,5,6.06,25.92-.52,5.42-3.1,25.28-5.28,29.34l-1-2.8a6.59,6.59,0,0,1-.22-1c-1.92-10,1.83-30.12-16.59-41.6-8.64-5.37-18.42.08-17.46,10,1,10.3,28.51,45.4,22.74,71.5-2.92,13.4-11.91,22-17.63,29.55l-6.15,7.86c-.14-.22-.53.52-.79.78,1.75-24.22,18.07-37,6.5-78.74-3.66-13.31-17.41-19.34-17.72-5.41-.57,24.88,11.26,46.57-.35,95.9,4.72-2.84.83,1.61,2.4-2.54,2.27-6.06.92-1,.18-4.71,6,3.06,1.13,6.94,3.62,1.22,3.89-1.44.92-.65,5.37-.17.7-.44.35-.13,1.66-1.44.17-.22.83-1,1.05-1.22,16.06-18.73,22.69-32.79,32-57.84,10-26.93,8.47-37.71,12-60.76,3.85-25.19,7.69-31.91-.43-63.55-4.06-15.94-3.54-26.37-5.11-42.52-1.22-12.88-6.85-24.7-9.25-37.67s-7.16-24.83-11.7-35.88l-33-62.68c-2.88-4.54-8.77-8.77-12.53-11.83L465.41,68.72c-7.38-5.11-22.83-10.56-32.7-14.62-6-2.45-9.51-5.81-16-8.3-18.6-7.11-37.85-11.08-58-13.53-85.46-10.3-79.18-12.48-161,16.07-21.3,7.42-46,19.16-61.63,34.35-4.15,4-7.12,8.47-11.31,12.92a82.67,82.67,0,0,0-10.78,13.49c-14.58,23.52-26.8,73-38.15,103.88-12,32.87-5.58,52.64-10.91,84.86-4.28,25.79.87,59.75,7.55,83.76,4,14.49,8.34,21.74,15.89,32.56,7.29,10.44,11,19.78,18.51,28.77s13.09,18.72,20.12,27.24c3.71,4.49,7.81,7.59,12.13,12.13s6.07,7.25,13.45,10.26Z" transform="translate(-63.45 -25.25)"/><path class="cls-1" d="M265.23,451.4c-5.63-34.09,34.53-64.34,69-41.65,7.73,5.11,14.32,15.37,16.37,27.29,2.18,12.48-1.75,26.4-7.25,34.78-12.44,19.08-43,20.34-62.68,7.25-4.58-3-14.18-19.86-15.45-27.67Zm-13.88-7.21c2.27,3.32,7.38,28.33,18.29,38.63l14.19,13.71c20.12,12.18,50.06,2,63.94-10.56,20.52-18.6,10.43-31,16.41-41.65.75.75,1.93-.17,2,5.77.22,22-12.79,41.94-33.52,48.71-35.4,11.52-44,8-64.34-13.4-6.55-6.85-16.24-23-17.72-34.35-.66-4.76-.7-4.46.74-6.86ZM363,432.76c.66,1.05,2.93-1.7,1,2.62-1.27,2.88.74.43-2.23,1.57-1.22-3.06-1.75-2.32,1.22-4.19Zm-110.39-.31c1.44,2.18,1.18,1.57,0,3.76-.83-1.14-1.87-2.71,0-3.76Zm43.78-50.68c-49.19,6.29-67,62.34-46.22,100,4.54,8.25,8.25,10.47,16.45,16.23,8.38,5.94,10.09,7.07,21.92,10.7,42.47,12.87,95.89-22.13,83.24-73.25-3.06-12.31-3.23-15.19-9.83-23-5.58-6.68-8.2-12.27-16-16.72-15.85-9.12-20.56-17.64-49.59-13.93Z" transform="translate(-63.45 -25.25)"/><path class="cls-5" d="M268.16,451.4c1.44,6.89,10.78,22.74,14.71,25.53,17.32,12.44,48.93,9.17,58.44-7.11,11.26-19.21,8.73-45.27-8.29-57.66-17.59-12.84-42.56-8.78-56.22,7.68-5.55,6.68-11.39,18.64-8.64,31.56Z" transform="translate(-63.45 -25.25)"/><path class="cls-6" d="M235.81,543.06c-41.9-3-40.81-9.86-53.82-12.83,1.62,13.57,5.72,17.94,16.24,24,21.34,12.18,42.34,9.08,67.79,10.56,35,2.06,117.81,7.77,143-10.17,4.49-3.23,16.89-13.18,18.15-20.73-20.69,1.83-38.67,6.94-59.36,8.82-29.24,2.7-102.4,2.53-132,.39Z" transform="translate(-63.45 -25.25)"/><path class="cls-5" d="M218.4,164.53c-14.71,4.45-29.77,25.89-24.4,49.85,2.53,11.39,21.08,33.83,48.45,24.22,5.32-1.87,7.2-3.88,11.74-6.37,14.75-8.12,22.22-36.53,5.67-52.55-2.7-2.62-7.24-7.77-9.78-9.69-6.59-5-22.21-8.34-31.68-5.46Z" transform="translate(-63.45 -25.25)"/><path class="cls-7" d="M264.1,31.66c3.18,8.38,20.64,20.56,21.65,21.83L284,54c-7.42,0-19.77-16.37-24.14-22l-10.69,2.4c1.39,2.58,15.76,21.35,19.47,23.71,31.86,20.38,91.22-.66,94-22.05-6.11-.69-6.06-.3-9.38,2.93-2.75,2.75-16.59,13.35-20.6,14.71-4.54,1.53-2.27,1.26-4.54-.13,7.15-5.46,20.34-12.4,24-18.16-12.7-6.46-75.9-10.22-88-3.67Z" transform="translate(-63.45 -25.25)"/><path class="cls-7" d="M349.61,215.08c.21-14.19,3.75-20.26,12-25.8,25.05-16.94,57.4,35,17.07,44.65L372,237c52.47,9.64,59.37-41.12,37-65.61-5.15-5.59-16.24-8.07-24.14-8.25-11.87-.26-16.5,2.1-23.57,7.6-7.73,6-22.13,30.33-11.65,44.39Z" transform="translate(-63.45 -25.25)"/><path class="cls-8" d="M349.61,215.08c-10.48-14.06,3.92-38.37,11.65-44.39,7.07-5.5,11.7-7.86,23.57-7.6,7.9.18,19,2.66,24.14,8.25,22.35,24.49,15.45,75.25-37,65.61l6.73-3c40.33-9.64,8-61.59-17.07-44.65-8.25,5.54-11.79,11.61-12,25.8ZM375.14,161c-17,2.88-36.4,26.67-31.17,48.58,4.72,19.78,28.64,36,47.89,32,12-2.49,17.85-8.81,24.49-15.8,15.58-16.28,3.14-50.63-8.69-59.27-7.16-5.2-22.22-7.29-32.52-5.55Z" transform="translate(-63.45 -25.25)"/><path class="cls-9" d="M435.73,437.34c3.36,3,2.92,1.35,0,3.8-2.93-3.62-.66-2.84,0-3.8Zm0-3.88c-3.71-8.43-.09-45.88-9.69-63.64-11.75,6.85-.79,45.74,1.48,64,5.54,44.39-1.83,60.63-.79,68.14,3.93-9.61,6.77-22.4,11.09-32.83,3.8-9.12,7.51-22.65,9.82-33.83,4.24-20.69-3.84-59.67-18.37-66.78,1.87,11,5,19.34,6.63,31.78l1.7,26.45c.26,5.85,1.31,4.71-1.87,6.68Z" transform="translate(-63.45 -25.25)"/><path class="cls-9" d="M139.74,422.11c.09.08,5.8-1.92,0,3.4-2.58-2.92-.31-2.75,0-3.4Zm12.4,51.15-.53-2.44c-.57-18.73,3.23-95.55-3.36-105.28-7.64,12.18-5.76,43.21-9.73,52.6-6.51-2.93,4.14-43.26,5-50.51-10.78,9.3-15.75,41.51-12.18,59.58,2.45,12.27,10.83,40.69,18.9,50.29a8.79,8.79,0,0,0,2.23,2.14Z" transform="translate(-63.45 -25.25)"/><path class="cls-10" d="M88.54,235.2c.48,5.54.74-.7-1,1.53-.83-.79-2.32-.92,0-3.93,1.18,1.75.74-.13,1,2.4Zm2.14-6.63c-1.66-1.66-3.58,1.7-.75-9.91,1.84-7.69,4-27.68-1.22-34.44C81.2,215,72.17,225.51,70.07,262.61c21.57-8.73,38-43.12,35.71-70.84-.74-9.56-5.24-21.21-10.91-25.45-10,16.19,7.81,27.28-4.19,62.25Z" transform="translate(-63.45 -25.25)"/><path class="cls-9" d="M534,236.77c2.89,3.71,2.06.61,0,3.71L532.93,239c.31-2.79-1-.52,1.09-2.18Zm10.22,29.46c.09-1.57-3.71-41.55-4.19-44.12l-11-38.85c-5.68,19.86-1.79,28.72,1,43.17,1.53,8,.44,4-.91,5.67-14.84-25.49,3.84-53.43-4.85-66.52-16.28,7-14.88,39.76-9,56,3.49,9.65,7.94,16.81,12.61,24.93C540.27,268,541,260.25,544.24,266.23Z" transform="translate(-63.45 -25.25)"/><path class="cls-9" d="M475.8,424.86c1.61,3.18,2.18,2.7-1.23,4.06-3.4-3.8-.48-3.32,1.23-4.06Zm-1.23-7.25c-3.4-2.27-1.44.48-2.13-12.31-.62-11.39-3.5-26.8-8.78-36.27-4.41,7.38-1.18,43.17-.39,53.82,1.48,19.69.52,34.44,0,53.47,6.29-6.68,19.95-40.42,20.12-52.77s-1.74-36.84-7.2-47.76c-3.31-6.59-2.31-8.51-9.25-9.34,1.35,12.75,14,38,7.59,51.16Z" transform="translate(-63.45 -25.25)"/><path class="cls-9" d="M180.77,436.69c.52,5.45.92-1-1,1.57-2.06-1.79-.79.48-1.05-2.27-.48-4.67-.74.57,1.05-1.49,1.39,1.75.74-.52,1,2.19Zm-2.18-7.95c-1.66-1.92-.75.39-1.49-2.92a9.25,9.25,0,0,1-.3-3.49l1.7-20.65c.87-9.21,4.15-17.46,5.32-26.23l-2.22,2.31c-.18.22-.39.52-.57.78a26.6,26.6,0,0,0-1.79,3.19c-3.32,6.77-5.24,14.58-7,22-4.72,20.21,2.49,49,8.29,68.75l9.87,26.67a8,8,0,0,0,1.7,2.36c-2-25.36-8.21-28.38-4.15-65.83,1.18-11.08,2.53-20.6,3.8-31.95a149.23,149.23,0,0,0,1.44-16.67l-1.57-11.66c-2.27-5.1-.44-1.39-2.14-3.27-10.52,12.53-6.59,47.31-10.91,56.61Z" transform="translate(-63.45 -25.25)"/><path class="cls-11" d="M253.23,155.89c-9.26-1.14-23.31-11.57-36.8-17.72-31.56-14.45-47-5.68-66.13,26.62-3.23,5.5-17.24,30.78-14.18,37.54,1.09-1.26,9.29-26.54,25.14-47.84-1.53,7.64-13.49,37.8-4.54,44.74,7.77,5.2,14.27-.48,19.73-1.66.65,4.85.87,8.82,1.83,13.62,1.31,6.59,1.7,9.26,7.16,11.48-3.49-11.52-5.89-12.87-5.81-27.67,4.11-1.75,6.46-3.23,7.77-8.43-3.27,1.1-22.74,17.33-29.46,10-5.15-12.79,6.16-41.64,11.52-50.24,19.91-31.86,60.85,8.82,90.84,14.75,20.56,4.11,18.16,39.16,22.61,42.26,4.84-8.52-6.5-33.53-10.35-39.07,7.08,0,9.74,5,12.79,9.3,7.69,10.78.79,14.66,4.8,19.55,8.43-13.88-8.9-30.64-17.72-34.57-3.75-1.66-32.38-7.81-31-25.23,12.88-4.8,22.48,1.44,25.27,12.83,6.81-8.81-12.92-20.86-24.09-16.36-14.54,5.76,8.07,22.48,10.65,26.1Z" transform="translate(-63.45 -25.25)"/><path class="cls-9" d="M215,476.45c-4.46-2.09.3,3.54-1-1.79s-.83.66,1-1.7c.22.3.65.65.7.83Zm24.53,38.28c-1.75-3.71-18.9-23.22-19.43-29,10.92,3.85,13.14,28.38,34,31.26-4.63-9.74-15.71-21.22-19.95-33.74-3.49-10.44-9.86-33.7-23.09-29.6-14.75,4.59-6.5,24.8-.87,35.27,5.76,10.74,11.65,14.8,18.72,21.35,3.93,3.66,3.93,4,10.57,4.49Z" transform="translate(-63.45 -25.25)"/><path class="cls-12" d="M346.9,143.62c4.45-2.88,5.63-6.63,11.7-9.6,22-10.74,30.07,7.12-11.57,24.88-7.64,3.27-13.53,5.46-17.28,11.83-2.93,4.93-7.69,16.32-4.41,22.17,4.19-3,1-29.11,20.6-28.11-2.23,4.54-12.79,17-11,33.18.7,6.28-.35,3.4,2.53,4.84,2.53-7.37-.57-15.84,4.76-27,4.54-9.61,10-12,16.72-14.71,15.93-6.55,62-48.32,88.08-12.18,7.38,10.26,23.14,51.5,8.21,51.2-6.81-.18-24.8-12.88-28.77-10.78,1.84,3.36,4.67,4.14,9,6.24,2.22,17.11-1.36,17-.79,21.65.48,3.88-1.09,0,1,2.49,4.36-5.81,3.18-13.93,2.88-21.61,9.16,1.53,12.09,6.29,21,5.28,9.86-11.69.13-32.56-2.75-45,1.57,5.46,9.21,13.4,12.22,19.47,1.66,3.32,9.08,20.78,10.3,21.87,5.19-7-20.43-44.66-28.68-52.08-4.63-4.1-8.29-9.73-15.41-12.57-35.22-14.14-60.19,18.86-80.09,24l3.58-3c1.09-.7,2.31-1.27,3.88-2.14a63.25,63.25,0,0,0,8.16-5.24c29.55-24.22-17.54-27.84-24-5.15Z" transform="translate(-63.45 -25.25)"/><path class="cls-13" d="M296.35,381.77c29-3.71,33.74,4.81,49.59,13.93,7.77,4.45,10.39,10,16,16.72,6.6,7.85,6.77,10.73,9.83,23,12.65,51.12-40.77,86.12-83.24,73.25C276.67,505.08,275,504,266.58,498c-8.2-5.76-11.91-8-16.45-16.23-20.78-37.67-3-93.72,46.22-100ZM239,456.24c6.11,31.87,17.73,44.79,48,55.35,25.71,8.9,59.67-2.1,74.94-21.17,18.16-22.7,19.43-58.93,3.71-78.09-4.93-6-9.86-14.06-16.1-17.94l-21.26-12.7c-54.65-17.64-97.51,32-89.31,74.55Z" transform="translate(-63.45 -25.25)"/><path class="cls-9" d="M397.66,480.07c-4.23,2.1-1.26-.13-2.53-.78,1.7-1.44-3.71-2.8,3.62-1.92-.17,3.14,1.05,1.66-1.09,2.7Zm-47.05,41.86c5.63-1.52,18.73-11.61,23-15,6.86-5.37,13.27-19.29,18.16-20.25-1.74,12.05-25.62,31.69-32.91,34.35,14.53,1.44,31.91-13.79,39.72-24.36,9.65-13,22.22-26.27,8.34-42.82-18.34-1.22-18,22.75-25.41,36.58-4.54,8.51-14.79,18.12-22,24.23-4.14,3.53-5.93,3.75-8.9,7.24Z" transform="translate(-63.45 -25.25)"/><path class="cls-1" d="M204.25,65c25.54,1.14,34.57,1.62,57.14-7.38-2-4.8-3.32-4.58-4.85-9.47-6.85,1.18-23.7,9.08-28.41.31,9.3,0,16.67,2,24.4-3.45l-6.37-9.21c-8.65.52-19.12,5.85-26.94,8.6-6.15,2.18-9.73,1.13-11.3,6.76-.74,2.8-3.54,12.44-3.67,13.84Z" transform="translate(-63.45 -25.25)"/><path class="cls-9" d="M542.49,306c2.88,4.14.57,2.79,0,3.75-2.14-2.66-1.66,3.45-1.09-1.62.31-2.88-1.18-.48,1.09-2.13Zm6.29,18.55c1.88-14.76,5.93-50-9.91-57.49-2.71,9.52,3.49,30.12,1.22,34.61-4-2.79-4.67-17-4.93-23.65-.48-13.05,2.88-13.19-6-21.92-8.47,8.82-4.54,28.51-.75,39.68A48.62,48.62,0,0,0,537,311.28c5.28,6.37,6.24,10.83,11.74,13.23Z" transform="translate(-63.45 -25.25)"/><path class="cls-11" d="M384,278.5c1.57,3.4-3.14-.57,6.55,5.81,17.37,11.48,15.49,12.22,36.27,24.44,6.64,3.88,11,4,17.42,6.59-13.18.22-28.64-1.92-39.55-6.24-25.58-10-17.81-14.36-24.75-19.73-3.36,4.71,5,11.22,7.07,15.23-7.85,17.9-41.33-.08-42.38-.35,2.18,5.5,6.9,6.81,14.19,9.39,2.18,10.12,7.77,22.26,17.24,22.3-2.67-5.89-12.36-7.37-13.84-21.78l9.87.92c3.4,4.28,12.57,17.68,20,13.79l-4.37-3a38,38,0,0,1-4.67-2.53c-3.36-2.36-4.63-4.23-6.63-7.81,8.73-5.15,11.43,2.18,18,6.2,3.54,2.14,16.76,8.46,21,5.89-10.21-7.16-16.85-4.23-29.42-16l3.67-5.63c5.8,1.79,12,5.46,18.81,7.64,13.14,4.06,33,5.15,47.4,6.11,6.24.39,18.51,3.58,23.92.65-2.22-3.23-2.27-2.27-7.33-3-15.1-2.27-34.18-5.15-46.62-12.57-3.32-2-8.73-4.59-11.57-6.64-4.06-2.88-5.41-4.8-9.42-7.55-5-3.45-15.76-11.13-20.87-12.09Z" transform="translate(-63.45 -25.25)"/><path class="cls-13" d="M151.87,484.48l.48-3.05c1.57-1.44.66,3,1.62-2,1.66-8.69-1.09-5.2-1.83-6.16l.3,6.38a8.79,8.79,0,0,1-2.23-2.14c-8.07-9.6-16.45-38-18.9-50.29-3.57-18.07,1.4-50.28,12.18-59.58-.83,7.25-11.48,47.58-5,50.51,4-9.39,2.09-40.42,9.73-52.6,6.59,9.73,2.79,86.55,3.36,105.28,3.23,6.15.13,1.27,3.71,3.62-.74-19,1.14-90.7-1-102.05-4.63-24.36-19.56-1.44-23,12.62-7.16,28.85-5.15,44,5.11,72.06a138.26,138.26,0,0,0,6.46,14.14c1.22,2.36,2.66,5,3.88,7.07.18.31,1.84,2.88,2,3.06,2.57,3.19-.09.65,3.18,3.14Z" transform="translate(-63.45 -25.25)"/><path class="cls-9" d="M394.13,407.31c5.11-1,1.39-1.48,3.66,1.66-.13,0-3.75,5.59-3.66-1.66Zm-39.81-37.15c8.9,1,20.3,15.19,24.57,20.52,7,8.86,6.94,22.74,11.4,33.39,3,7,11.52,6.94,13.66-.83,1.44-5.15.92-16.15.3-21.6-1.61-14.89-11.48-18-18.2-25.28-5.63-2.7-12-6.41-19.64-7.37,3.49,3.18,25,16.8,26.41,31.95-4.45-2.19-6.81-7.25-9.43-11.26-7.33-11.31-19.29-22.27-35.44-22.88Z" transform="translate(-63.45 -25.25)"/><path class="cls-9" d="M87.27,364.93c-.65,3.84-.09.65-2.09,1.48-2.1-3.54-.83-2.49,1.18-4,.91,1.53,1.35-.22.91,2.49Zm-7,29.07c2.27-5.37,3.1-11.79,5.93-17.86L103.68,345c3.41-5.45,7.56-10.6,2.1-17.15-8.86,7.81-14.54,26.84-17,29.81-2.58-3-1.18-4.58.61-8.77a76.93,76.93,0,0,1,4.37-9c2.53-4.58,8.11-11.78,9.16-15.32-31.21-7.29-27.5,61.11-22.65,69.45Z" transform="translate(-63.45 -25.25)"/><path class="cls-1" d="M363.18,43.4c12.31,6.73,15.89,4.76,18.33,7.69-6.37,3.79-15.06-1.88-19.77-4.5a119.44,119.44,0,0,0-9.25,8.12c11.61,8.47,37.93,10.39,54.34,8.12l-4.5-18.38c-5.8-2.84-27.32-7.07-34.52-7.64Z" transform="translate(-63.45 -25.25)"/><path class="cls-9" d="M219.79,417.35c-2.62-4.71-1.31-4.28,2.45-4.85,1.39,3.63.87,3.63-2.45,4.85ZM225,387.71c-7.68,8.6-25.23,31.65-10.08,45.18,12.35,1.31,14.88-8.16,17.63-18.29,2.93-10.65,7.12-18.38,10.48-28l1.61-4.1c-13.27,5.89-16.76,22.3-24.35,25.66,2.13-14.71,25.49-30.86,29.55-36.36C240.74,376,232.76,382,225,387.71Z" transform="translate(-63.45 -25.25)"/><path class="cls-9" d="M75.44,309.88c3.76,3.45,2.67,1.58,0,4.24-2.92-2.71-2.57-1.44,0-4.24Zm3.32-47.7c1.83,10,6.46,37.05-2.09,43.34-2.06-3.75,1.26-13.53,1.7-19.08.87-10.25-.61-13.66-2.23-22.26-11.22,3.76-4,5.72-7.46,30.08-1.57,11.17-3,24.49-1.71,35.75,22.31-13.93,22.53-49.68,20-73.55a19.23,19.23,0,0,0-8.16,5.72Z" transform="translate(-63.45 -25.25)"/><path class="cls-9" d="M499.89,148.38c-2.79-12-8.9-31.34-14.71-40-9-13.36-26.67-23.53-34.48-16.76-8.25,7.11,13,16.58,22.91,28.33,5.11,6,8.17,7.42,13.62,13.09,9.21,9.6,8.65,11,12.66,15.32Z" transform="translate(-63.45 -25.25)"/><path class="cls-9" d="M111.85,404.78c1.66,2.7,1.61-2.93,1.13,2.84-.3,4.49,0,.74-1.13,2.57-3.15-2.09-2.75-2.62,0-5.41Zm-1.4,31.29,1-1.87c2.14-5.24,2-10.22,3.32-16.15,4.19-19.86,15.1-36.14,10.65-55.52-8,5.54-6.11,27.41-11.09,34.13-1.61-2.05-2.14-.92-.39-10,2.36-12.62,7-22,8.29-28.07-10.3,1.05-17.59,18.6-18.51,32.08-1.13,16.9,3.71,30.6,6.77,45.35Z" transform="translate(-63.45 -25.25)"/><path class="cls-4" d="M374.83,303.12c-8.42,3.62-16.49-.31-22.47-4.8l-15.11-15.76c8.56.61,16,3.75,22.66,7,13.53,6.55,16.32,5.94,14.92,13.58ZM241,302.81c-.62-8.77,7.94-11.21,14.79-14.14,6.59-2.79,17.64-5.85,24.88-6.11a13.35,13.35,0,0,1-2.79,2.49c-.09.08-1.92,1.44-2.14,1.61-15.28,11.09-22,21.52-34.74,16.15Zm-2.58,1.66c7.07,3.93,12.27,5,19.69-.3,19.68-14.1,24.05-24,50.24-24.32,36.58-.43,29.2,16.37,49.8,25.93,14.45,6.72,24.84-2.09,19-10.47L353,282.91c-34.62-12.83-120.3-4.63-114.54,21.56Z" transform="translate(-63.45 -25.25)"/><path class="cls-9" d="M529.14,363.18c-2.49-2.62-.7-2,0-3.27l1.17,1.66c1.71,5.67.88-.7-1.17,1.61ZM528,356.11l-1.14-1.7c-.13-.31-.65-1.44-.78-1.79a18.37,18.37,0,0,0-5.37-8c-2.93-3-6.81-4.67-9.21-9.21,7.29,1.75,21.47,12.88,16.5,20.69Zm3.88,43.95c5.24-10.12,6.55-46.92-3.88-60.28-13.4-17.11-25.89-8.2-16.55,8.08L527,381.12c2,5.89,3,13.58,4.89,18.94Z" transform="translate(-63.45 -25.25)"/><path class="cls-14" d="M144.15,106.08c.26,4.06.74,4.37-3.63,3.67-.74-3.53.31-3.53,3.63-3.67Zm8.47-5.84c-4.2,1.79-1.05,0-2.54-.62,1.88-1.48-.56-4.1,4.11-1.22-1.18,2.18.65.92-1.57,1.84Zm-33.83,42.51c2-1.13,24.18-25.36,36.18-35.22,4-3.28,9.78-6.77,10.17-14.23-25.71-11.22-43.34,27.89-46.35,49.45Z" transform="translate(-63.45 -25.25)"/><path class="cls-12" d="M268.16,451.4c-2.75-12.92,3.09-24.88,8.64-31.56,13.66-16.46,38.63-20.52,56.22-7.68,17,12.39,19.55,38.45,8.29,57.66-9.51,16.28-41.12,19.55-58.44,7.11-3.93-2.79-13.27-18.64-14.71-25.53Zm-2.93,0c1.27,7.81,10.87,24.66,15.45,27.67,19.65,13.09,50.24,11.83,62.68-7.25,5.5-8.38,9.43-22.3,7.25-34.78-2.05-11.92-8.64-22.18-16.37-27.29-34.48-22.69-74.64,7.56-69,41.65Z" transform="translate(-63.45 -25.25)"/><path class="cls-12" d="M218.4,164.53c9.47-2.88,25.09.48,31.68,5.46,2.54,1.92,7.08,7.07,9.78,9.69,16.55,16,9.08,44.43-5.67,52.55-4.54,2.49-6.42,4.5-11.74,6.37-27.37,9.61-45.92-12.83-48.45-24.22-5.37-24,9.69-45.4,24.4-49.85Zm-.09-2.53c-9.95,2.62-17.55,12.48-22.39,19.25-5.85,8.25-7.25,21.82-5,33.13,2.75,14,22.61,36.32,51.24,27.54,35.44-10.91,36.27-49.15,20.73-64-3.1-2.93-7.55-7.77-10.6-10-7.29-5.33-23.49-8.6-34-5.85Z" transform="translate(-63.45 -25.25)"/><path class="cls-11" d="M124,268.24c0-30.25,18.51-47.71,20.35-55.83-8.78,4.37-18.6,27.85-21.13,39.42-12.48,57.36,23.57,73.38,50.41,55.17,12.66-8.55,19.91-18.2,30.69-21.6,6-1.92,2.79,1.31,4.32-2.62-7.59-4.28-25.27,4.58-34,5.72-26.49,3.4-22.21-11.61-25.14-16.5-2.92,3.79-1.79,9.42,1.14,13.31,9.16,12.22,34.09,3.54,41.68,2.14-.17.26-.43.61-.56.78l-2,2.1a19.69,19.69,0,0,1-2.09,1.61c-10.65,8.38-17.86,19.6-39.33,18.51-20.69-1.05-24.27-21.69-24.32-42.21Z" transform="translate(-63.45 -25.25)"/><path class="cls-12" d="M489.28,297.53c22.35-30.95-8.73-80.27-15.88-82.5-.35,7.16,33.08,41.12,16.54,75.78-15.23,32-55.13,1.13-66.13-5.37,9.82-.13,19.47,4.76,31.38,5,12.53.26,18.6-12.92,12.09-20.12-2.48,4.23,1.79,11.91-5,15.89-4.06,2.4-13.18,1-18.2.3-7.82-1.13-18.16-5.72-27.85-4.23-4.67.7-4.89,1.26-6.11,4.14,4.19,1.84,6.94-3.4,20.34,6.46,6.5,4.76,7.77,7,17.41,10.48,17,6.11,32,7.2,41.38-5.85Z" transform="translate(-63.45 -25.25)"/><path class="cls-9" d="M222.24,69.64l-20.39-1.71-4.06,8.47c16.55,6.51,58.49,4.59,71.76-13.18-3.88-3.93-3.36-4.23-9.12-1.92-8.9,3.58-29.16,9.17-38.19,8.34Z" transform="translate(-63.45 -25.25)"/><path class="cls-1" d="M437.56,91.64c-3.54-15.46-4.5-15.54-5-33.26-6.68-5.24-15.8-10.31-26-12.05,1.7,18.81,15.93,41.2,31,45.31Z" transform="translate(-63.45 -25.25)"/><path class="cls-15" d="M473.61,120c-9.95-11.75-31.16-21.22-22.91-28.33,7.81-6.77,25.49,3.4,34.48,16.76,5.81,8.64,11.92,28,14.71,40-4-4.32-3.45-5.72-12.66-15.32-5.45-5.67-8.51-7.11-13.62-13.09Zm32.48,47.92c2.92-6.2-3-21.43-5.11-28.06-3.1-9.65-5-17.55-8.9-26.19-8.25-18-30.51-32.52-42.87-24.8-12.65,7.9,10.35,22.09,18.07,28.94,3.15,2.8,4.63,5.63,8.73,9.43,12.53,11.66,15.63,13,23.14,29,5.46,11.65.78,10.12,6.94,11.65Z" transform="translate(-63.45 -25.25)"/><path class="cls-16" d="M504.91,402.9c.79,1,1.62-1.44,1.27,2.49-.22,2.49-.27,1.27-1.27,2.71-2.79-2.23-3.58-2.8,0-5.2Zm-2.44-6.63c-.75-2.1-1.18-25.76-7.77-32.43,1.74,36.4,7.9,39.5,3.31,85,11.13-24.36,16.5-53.38,7.6-79.53-1.79-5.28-2-6.46-7.38-8.16,1.7,5.24,12.18,32.47,4.24,35.14Z" transform="translate(-63.45 -25.25)"/><path class="cls-9" d="M342.1,60.3c6.81,11.43,50.46,21.6,69.14,13.4L409,65.8c-15.67,2-38.37,1.48-52.94-5.37-8.17-3.84-7.29-3.28-14-.13Z" transform="translate(-63.45 -25.25)"/><path class="cls-15" d="M118.79,142.75c3-21.56,20.64-60.67,46.35-49.45-.39,7.46-6.15,11-10.17,14.23-12,9.86-34.13,34.09-36.18,35.22Zm-4.5,20.34c3.67-2.66,3.36-7.33,4.67-11.7,1.4-4.71,3.71-6.59,6.16-9.43,5.15-6,9.9-10.82,15.93-16.84s9.25-9.3,16.24-15.28c28.54-24.27-4.5-25.75-17.2-16.06C120.62,108.7,117.17,136.86,113.2,156c-1.18,5.72-.44,5.24,1.09,7.07Z" transform="translate(-63.45 -25.25)"/><path class="cls-12" d="M347.77,486c-13.88,12.57-43.82,22.74-63.94,10.56l-14.19-13.71c-10.91-10.3-16-35.31-18.29-38.63-1.44,2.4-1.4,2.1-.74,6.86,1.48,11.35,11.17,27.5,17.72,34.35,20.3,21.39,28.94,24.92,64.34,13.4C353.4,492,366.41,472,366.19,450.09c-.08-5.94-1.26-5-2-5.77-6,10.7,4.11,23.05-16.41,41.65Z" transform="translate(-63.45 -25.25)"/><path class="cls-15" d="M388,374.57c-3-1.57-1.14-1.18-2,1.79,6.72,7.25,16.59,10.39,18.2,25.28.62,5.45,1.14,16.45-.3,21.6-2.14,7.77-10.69,7.86-13.66.83-4.46-10.65-4.37-24.53-11.4-33.39-4.27-5.33-15.67-19.56-24.57-20.52l-2.79,1.31c9.16,4.28,11,5.59,16.5,11.79,15.62,17.72,10.34,12.53,17.67,37,2.88,9.52,3.93,12.48,15.41,11.79,8-3.37,16.72-39-13.09-57.45Z" transform="translate(-63.45 -25.25)"/><path class="cls-3" d="M128.83,266.37c2.48-6.46-.31-15.67,17.41-29.29,7.55-5.81,21.87-11.7,33.66-6.42,8.64,3.89,16.19,16.59,21,25,5,8.64,7.51,14.36,18.9,15.14,10.13.7,8.12-1.7,8.51-2.53-6.76-2.79-12.44,1-18.29-4.8-6.59-6.55-15.8-32.26-32-37.14-20.35-6.12-46.23,14.27-50.2,30-2.75,11,.74,9.69,1.05,10.09Z" transform="translate(-63.45 -25.25)"/><path class="cls-9" d="M182.25,57c3.93,15.54,4.11,15.93.66,32.17,5.89-2.7,9.91-11.13,13.22-16.89s8.17-14.75,8.56-22.61Z" transform="translate(-63.45 -25.25)"/><path class="cls-15" d="M245,390.9c.35-3.67,1.61-4.28-1.92-4.28-3.36,9.6-7.55,17.33-10.48,28-2.75,10.13-5.28,19.6-17.63,18.29-15.15-13.53,2.4-36.58,10.08-45.18l-.35-3c-16.54,9-26.8,46.57-10.34,51.42,18.42,5.41,21.51-24.1,30.64-45.22Z" transform="translate(-63.45 -25.25)"/><path class="cls-17" d="M389.68,270.64c.17.13-1.14,2.49,3.92.4l18.51-19.17c14.45-17.8,34.57-32.86,58.27-18.24,5.07,3.14,10.48,13.88,12.27,20.38,1.35,4.76.13,4.76,2.84,8.6,1-1.44.83-.17,1.31-3,.69-4.06-3-11.21-4.59-14.71-2.49-5.32-4.19-9.73-8.86-13.09-9.08-6.64-24.53-9.21-36.79-4.06C417,236,407.35,255.45,389.68,270.64Z" transform="translate(-63.45 -25.25)"/><path class="cls-18" d="M374.83,303.12c1.4-7.64-1.39-7-14.92-13.58-6.68-3.23-14.1-6.37-22.66-7l15.11,15.76c6,4.49,14.05,8.42,22.47,4.8Z" transform="translate(-63.45 -25.25)"/><path class="cls-18" d="M241,302.81c12.78,5.37,19.46-5.06,34.74-16.15.22-.17,2.05-1.53,2.14-1.61a13.35,13.35,0,0,0,2.79-2.49c-7.24.26-18.29,3.32-24.88,6.11C249,291.6,240.39,294,241,302.81Z" transform="translate(-63.45 -25.25)"/><path class="cls-19" d="M324.86,217.91c.78,4.63,3.66,6.68,6.63,10.31-5.46,9.86-14.27,9.9-7.94,34.52,2.57-3.31,2.35,4.54,1.44-4.76-.26-2.4-3.06-6.59-.7-13.7,4.06-12.18,11.74-17,21.56-8.64,16.59,14.14,14.8,23.09,23.66,26.93-1.53-5.24-2.58-4.1-4.71-9.26,5.89,2,8.25,3.28,15.23,3.58,11.83.53,11.74-.21,13.49-3.66-9.91.39-15.19,2.7-25-1.49-14.36-6.06-14-17.72-30.25-23.09-8.86-2.92-7.59-9.47-13.44-10.74Z" transform="translate(-63.45 -25.25)"/><path class="cls-20" d="M286.05,230.62c2.23-3.45,6.42-9,4.1-13.05l-6.76,12.3c-11.13-.56-11-.61-17.64,5.42-17,15.27-5.67,14.18-26.71,17-5.72.74-14.75.26-19.2,2.62l1.57,1c3.93,1.31-2.58-.18,2,.52,4.81.7,23.18-2.58,27.63-3.36-.74,4.67-4.71,11.09-3.31,13.22,6.68-7.59,4.32-18.42,22.26-31.55,16.37-12,20.43,9.51,22,20.25a7.59,7.59,0,0,0,.78,3.05l1.05,1.45c3.89-6-1.53-19.34-5.59-25.58-.13-.22-.39-.57-.52-.75s-.39-.61-.52-.78-.48-.39-.57-.83-.39-.57-.57-.87Z" transform="translate(-63.45 -25.25)"/><path class="cls-12" d="M171,240.26a9.09,9.09,0,0,0,2.22,1.88c6.42,4.28,12.05,2.88,20.43,15.8C199,266.19,203,274,215.08,275.75c-1.66-4.32,1.79-.87-6.16-5.15-11.87-6.37-17.06-30.82-37.88-30.34Z" transform="translate(-63.45 -25.25)"/><path class="cls-21" d="M398.8,275.49c3.49,2,10.61-4.19,12.22-6.51,8.6-12.52,5.85-19.24,31-32.3-1.05-.83,3.45-3-4.71-1.22-2.62.57-7.6,5-9.43,6.72-13.84,12.84-7.38,4.41-18.29,24.14-3.71,6.64-5.24,4.8-10.78,9.17Z" transform="translate(-63.45 -25.25)"/><path class="cls-19" d="M410.93,277.54c4.8.35,8.65-5.11,11.35-8.21,5.85-6.81,11.74-13.79,20-18.85,4.32-2.67,9.56-3.63,12.88-6.51-.83-.56,1.66-2-4.19-.78-9.83,2.05-25.1,17.06-31.21,24.75-3.15,3.88-6.07,5.8-8.78,9.6Z" transform="translate(-63.45 -25.25)"/><path class="cls-19" d="M196.35,274.79c5.59,2.14,6.16-.17,6.59-.48-7.07-5.37-4.45,1.75-21.34-16.41-3.58-3.84-15.58-15.5-23.27-8,14.41,1.57,16.55,4.54,23.66,12.52,3.06,3.45,9.82,10.61,14.36,12.4Z" transform="translate(-63.45 -25.25)"/><path class="cls-17" d="M423.55,280.2c13.88-3.05,8.9-11.91,39.11-26.54-2.36-2.09,3.84-1.7-3.8-1.66l-8.42,4.2c-10.09,6.89-10.7,7.85-18.16,15.84-5.59,5.94-6.9,2.79-8.73,8.16Z" transform="translate(-63.45 -25.25)"/><path class="cls-19" d="M285.18,295.39c30.6-5.45,12.48-4.71,44.26-1-4.23-7.68-27.59-5.85-35.53-4.28-9.65,1.92-7.9,3.58-8.73,5.28Z" transform="translate(-63.45 -25.25)"/><path class="cls-19" d="M437.21,281.73c8.29-.83,11-7.42,14.45-12.13,5-7,8-8.12,17.5-5.5-1.13-2.84.26-3.63-4.32-4.72-11-2.57-16.8,12.09-20.86,15.89-3.1,2.92-4.41,2.31-6.77,6.46Z" transform="translate(-63.45 -25.25)"/><path class="cls-21" d="M183.91,272.56c-8.25-4.1-12.79-12.87-20.25-16-4.58-1.92-7.6-2-10.65.79.3,1.22,7.07,0,11.09,2.36s9.38,9.69,15.45,13.66a19.71,19.71,0,0,0,4.71,2.66c6.59,2.32,4.63.05,5.5-.52Z" transform="translate(-63.45 -25.25)"/><path class="cls-11" d="M190.63,143.27c4,2.32,1.88.53,9.52,1.49a42.68,42.68,0,0,1,8.73,2.22c5.15,1.88,11.26,6.46,14,6.64-1-7.33-24.18-15.15-32.22-10.35Z" transform="translate(-63.45 -25.25)"/><path class="cls-19" d="M150.83,265.8c2.48,2.44-2.23,0,4.23,1.88,12.13,3.49,16,15.88,23,11.47-2.14-2.48-3.1-2.09-6.2-4.19-4.49-3.09-12.35-12.74-21-9.16Z" transform="translate(-63.45 -25.25)"/><path class="cls-20" d="M336.29,305c-3.8,4.89,10,21.87,17.2,25.14-1.35-5.72-6.11-8.16-9.6-12.53s-5-9.25-7.6-12.61Z" transform="translate(-63.45 -25.25)"/><path class="cls-17" d="M528,356.11c5-7.81-9.21-18.94-16.5-20.69,2.4,4.54,6.28,6.2,9.21,9.21a18.37,18.37,0,0,1,5.37,8c.13.35.65,1.48.78,1.79Z" transform="translate(-63.45 -25.25)"/><path class="cls-11" d="M411.37,161.26c20-5.2,22.09,0,26.84-2.23-3.92-4.84-17-3.53-22.48-1.66-3.75,1.31-3.27,1.27-4.36,3.89Z" transform="translate(-63.45 -25.25)"/><path class="cls-19" d="M394,152.27l28-10.22c-.61-.57,2.27-3.1-7.16-.52-8.38,2.27-14.62,5.19-20.82,10.74Z" transform="translate(-63.45 -25.25)"/><path class="cls-19" d="M282,328.78c8.08-1.35,12.49-20.9,8.16-24.83-.87,2.05-1.48,9.47-2.83,13.66-1.49,4.67-4.24,7.12-5.33,11.17Z" transform="translate(-63.45 -25.25)"/><path class="cls-20" d="M262.83,327.17c3.93,0,8.64-5.85,10.74-8.95,8.55-12.88,5.19-11.39,3.66-13.31-2.31,10.34-11.3,16.59-14.4,22.26Z" transform="translate(-63.45 -25.25)"/><path class="cls-19" d="M184.65,152c4.5-.09,8.78-.83,13.32-.13,5,.74,7.68,2.88,11,1.13-3.1-4.4-23.4-7.15-24.32-1Z" transform="translate(-63.45 -25.25)"/><path class="cls-22" d="M331.8,322.59c-4.46-9.13-3.45-15.19-6.46-18.86-2.27,4,1.74,15.23,3.75,20.08l3.54,5.59c.83-1.44,1.35-.48.83-3.5,0-.08-1.53-3-1.66-3.31Z" transform="translate(-63.45 -25.25)"/><path class="cls-23" d="M418.05,165.8c4.36.39,8.55-.61,12.92-.09,5.8.65,5.32,2.88,10.12,2.44-1.83-6.89-22.17-7.68-23-2.35Z" transform="translate(-63.45 -25.25)"/><path class="cls-23" d="M421.1,172.39c2,.65,19.34,4.67,20.39,4.63-1.4-3.93-4.19-4-8.64-5.37a31.63,31.63,0,0,0-5.81-1.4c-7.29-.57-5.28,1.79-5.94,2.14Z" transform="translate(-63.45 -25.25)"/><path class="cls-21" d="M423.94,179.68c3.54,1.35,11,2.18,15.45,6.11,3.76,3.32-.48,2.49,4.24,2.92-.27-7.37-13.75-11.3-16.33-11-7,.91-1.53-.09-3.36,1.92Z" transform="translate(-63.45 -25.25)"/><path class="cls-21" d="M312,304.6c-1.39,4.8-1.52,14.36.66,18.55,1.92,3.71,1.53,2.54,5,3.93-3.79-12.61-2.83.57-3.88-17.72-.35-6.33-.35-3.27-1.75-4.76Z" transform="translate(-63.45 -25.25)"/><path class="cls-11" d="M409.19,153c3.36,1.36,5.85-.39,9.73-1l10.74-.31c2.36-.34,1.61-.43,2.75-1.09-3.49-2.7-7.29-2.4-12.49-1.66-1.7.27-4.88,1-6.32,1.4Z" transform="translate(-63.45 -25.25)"/><path class="cls-22" d="M178.72,159c1.48,1.35-3.63,2,4.32,1.18,1.88-.22,3.71-1,6.46-1.09,4-.22,8.82,1.48,11.7-.09-4.15-4.8-16.2-3.18-22.48,0Z" transform="translate(-63.45 -25.25)"/><path class="cls-22" d="M170.42,189.19c3.85-.83,5.59-3,9.35-4.75,4.1-1.88,7.55-1.93,10.91-3.23-1.79-1.93.78-2.89-5.85-1.62a53.81,53.81,0,0,0-6.42,2.31c-4.67,2-6.68,2.88-8,7.29Z" transform="translate(-63.45 -25.25)"/><path class="cls-20" d="M367.11,280.2c.35.22.74.48,1,.61,6.29,3,2.23-.13,11.79,4.46,5.28,2.53,5.41,4.62,11.35,6.11-1.22-3.89,1-1.71-4.15-4.89-1.7-1.05-3.05-1.92-5.32-3.1-5.68-3-7.6-3.49-14.67-3.19Z" transform="translate(-63.45 -25.25)"/><path class="cls-21" d="M301.11,328.48c4.19-3.54,6.07-18.29,2.4-23.14-1.74,4.54-.39,8.47-1.31,13.84-1.26,7.68-4.06,5.24-1.09,9.3Z" transform="translate(-63.45 -25.25)"/><path class="cls-11" d="M172.91,177.23c3.06,2.19,4.93-.43,9.39-2.22,4.14-1.71,7.64-1.27,10.34-3.84-4.71-3.63-16.19,2.83-19.73,6.06Z" transform="translate(-63.45 -25.25)"/><path class="cls-22" d="M174,171c14.58-5.68,13.31-3.93,18-5.55a8,8,0,0,0,2.79-1.48c-4.67-2.84-18.77,1.18-20.82,7Z" transform="translate(-63.45 -25.25)"/><path class="cls-12" d="M258.42,268.37c5-1.74,10.61-10.39,12.92-15.36-5.32,1.61-11.78,9.51-12.92,15.36Z" transform="translate(-63.45 -25.25)"/><path class="cls-24" d="M225.29,291.55c4.63-1.7,6.37-3.36,10.83-5.76,4.06-2.18,7.72-2.53,11.69-4.23-2.4-1.75,3.72-1.53-3.53-1.23l-8.91,3.45c-6.19,3-8.16,3.67-10.08,7.77Z" transform="translate(-63.45 -25.25)"/><path class="cls-25" d="M319.27,170.38c1.31-2.53,1.4,2.92.78-3.58-.39-4.71-1.48-.87-.56-10.08l-.22-4.06c-2.75,1.83-.61-2.49-2.58,2.79-1,2.71-1.65,11.26,2.58,14.93Z" transform="translate(-63.45 -25.25)"/><path class="cls-12" d="M297.44,169.07c4.59-3.8,3.32-14.8-2.53-17.11.31,4.93,1.36,3.89,1.84,8.29.69,6.68-1.18,1.75.3,8a5.05,5.05,0,0,0,.39.83Z" transform="translate(-63.45 -25.25)"/><path class="cls-26" d="M344.63,254.49l5.15,5.11c3.67,3.1,1,2.66,6,4-1.09-5.45-4.62-8.51-11.17-9.08Z" transform="translate(-63.45 -25.25)"/><path class="cls-19" d="M219.79,417.35c3.32-1.22,3.84-1.22,2.45-4.85-3.76.57-5.07.14-2.45,4.85Z" transform="translate(-63.45 -25.25)"/><path class="cls-12" d="M336,134.81l1.74,1a4.17,4.17,0,0,0,2.67-.61c.82-4.33-3.41-6-4.41-.35Z" transform="translate(-63.45 -25.25)"/><path class="cls-27" d="M297.44,141.18c2.49-1.83,2.41.48,1.75-4.54-4.36-.09-5.89,1.4-1.75,4.54Z" transform="translate(-63.45 -25.25)"/><path class="cls-28" d="M140.52,109.75c4.37.7,3.89.39,3.63-3.67-3.32.14-4.37.14-3.63,3.67Z" transform="translate(-63.45 -25.25)"/><path class="cls-29" d="M506.18,405.39c.35-3.93-.48-1.48-1.27-2.49-3.58,2.4-2.79,3,0,5.2,1-1.44,1-.22,1.27-2.71Z" transform="translate(-63.45 -25.25)"/><path class="cls-30" d="M113,407.62c.48-5.77.53-.14-1.13-2.84-2.75,2.79-3.15,3.32,0,5.41,1.18-1.83.83,1.92,1.13-2.57Z" transform="translate(-63.45 -25.25)"/><path class="cls-31" d="M272.17,132.36c3.32,2.45,2.62,2.84,4.32-1.22-4.19-3.36-2.35-.87-4.32,1.22Z" transform="translate(-63.45 -25.25)"/><path class="cls-22" d="M395.13,479.29c1.27.65-1.7,2.88,2.53.78,2.14-1,.92.44,1.09-2.7-7.33-.88-1.92.48-3.62,1.92Z" transform="translate(-63.45 -25.25)"/><path class="cls-30" d="M397.79,409c-2.27-3.14,1.45-2.62-3.66-1.66-.09,7.25,3.53,1.7,3.66,1.66Z" transform="translate(-63.45 -25.25)"/><path class="cls-19" d="M364,435.38c1.92-4.32-.35-1.57-1-2.62-3,1.87-2.44,1.13-1.22,4.19,3-1.14,1,1.31,2.23-1.57Z" transform="translate(-63.45 -25.25)"/><path class="cls-30" d="M291.38,149c5-5.2.39-3.32,0-3.84-.31.43-4.72-.05,0,3.84Z" transform="translate(-63.45 -25.25)"/><path class="cls-30" d="M474.57,428.92c3.41-1.36,2.84-.88,1.23-4.06-1.71.74-4.63.26-1.23,4.06Z" transform="translate(-63.45 -25.25)"/><path class="cls-29" d="M339.44,153c.65.4-1.18,4,3.66,0-5.41-5.67-3.45-.13-3.66,0Z" transform="translate(-63.45 -25.25)"/><path class="cls-32" d="M147,208.18c1.74-.48,1.66,1.53,2.09-1.18s.22-.65-.87-2.62c-1.13.88-4.28-.35-1.22,3.8Z" transform="translate(-63.45 -25.25)"/><path class="cls-30" d="M75.44,314.12c2.67-2.66,3.76-.79,0-4.24-2.57,2.8-2.92,1.53,0,4.24Z" transform="translate(-63.45 -25.25)"/><path class="cls-23" d="M85.18,366.41c2-.83,1.44,2.36,2.09-1.48.44-2.71,0-1-.91-2.49-2,1.48-3.28.43-1.18,4Z" transform="translate(-63.45 -25.25)"/><path class="cls-12" d="M315.69,139.74c6.2-.26,2.23,1.18,4.06-3.19-7.64,1.31-2.05.18-4.06,3.19Z" transform="translate(-63.45 -25.25)"/><path class="cls-30" d="M272.3,155.23c5,.27,3.41,2,3.15-3.1-2.54.62-3-.08-3.15,3.1Z" transform="translate(-63.45 -25.25)"/><path class="cls-21" d="M150.08,99.62c1.49.62-1.66,2.41,2.54.62,2.22-.92.39.34,1.57-1.84-4.67-2.88-2.23-.26-4.11,1.22Z" transform="translate(-63.45 -25.25)"/><path class="cls-30" d="M319.66,146.9c1.62,1-.17,3.45,4.15,0-3.23-4.46-2.27-1-4.15,0Z" transform="translate(-63.45 -25.25)"/><path class="cls-30" d="M216.74,250.56c.13-4.27,1.13-2.27-3.15-3.18.79,3.93-.69,3.14,3.15,3.18Z" transform="translate(-63.45 -25.25)"/><path class="cls-21" d="M489.46,270.64c-1.14-.65.26-3.05-3.8,0,1.66,1.49.83,5.11,3.8,0Z" transform="translate(-63.45 -25.25)"/><path class="cls-30" d="M323.46,213.16c5.46.56,1.92.91,3.45-2-2.84-1.18-2.84-2.57-3.45,2Z" transform="translate(-63.45 -25.25)"/><path class="cls-24" d="M139.74,425.51c5.8-5.32.09-3.32,0-3.4-.31.65-2.58.48,0,3.4Z" transform="translate(-63.45 -25.25)"/><path class="cls-30" d="M275.62,253.18c3.54-3.88.92-2.31,0-3.62-1.18,1-4.54-.57,0,3.62Z" transform="translate(-63.45 -25.25)"/><path class="cls-33" d="M210.76,155.41c1.48,1.92-.61,3.36,3.71,1.22-.66-1.88,1.66-1.35-1.23-1.92-2.35-.44-.82-.09-2.48.7Z" transform="translate(-63.45 -25.25)"/><path class="cls-24" d="M225.55,155.41c2.67,1.7-3.66,1.35,1.71.92,2.53-.22.61.26,2.31-.92-3.23-5-2.71-.7-4,0Z" transform="translate(-63.45 -25.25)"/><path class="cls-29" d="M479.94,209.45c3.19-.61,2,.08,2.8-2.93-5.63-.22-3-1.35-2.8,2.93Z" transform="translate(-63.45 -25.25)"/><path class="cls-34" d="M435.73,441.14c2.92-2.45,3.36-.83,0-3.8-.66,1-2.93.18,0,3.8Z" transform="translate(-63.45 -25.25)"/><path class="cls-27" d="M387.06,155.89c5.54-.87,2.35.92,3.88-2.88-7.07.78-1.57.7-3.88,2.88Z" transform="translate(-63.45 -25.25)"/><path class="cls-34" d="M279.68,297.36c-3.58-1.44-2-2.8-3.41,1.18,4,2.35,2.1.91,3.41-1.18Z" transform="translate(-63.45 -25.25)"/><path class="cls-30" d="M383.56,270.16c1.75-3.58,1-1.92-1.17-3.1-2.71,3.19-1,2.32,1.17,3.1Z" transform="translate(-63.45 -25.25)"/><path class="cls-24" d="M279.24,211.15c1.79-3.1,1.92-2.18-1.18-3.41-1.09,2.75-1.57,2,1.18,3.41Z" transform="translate(-63.45 -25.25)"/><path class="cls-21" d="M127.08,270.47l.52,3c2.67-1.61,2.32,2.66,2.14-1.61-2.53-2.06,3.36-2.27-2.66-1.4Z" transform="translate(-63.45 -25.25)"/><path class="cls-25" d="M397.45,250.78c3.92-1.52,1.92.09,3.49-3.49-8.12,2-.44.22-3.49,3.49Z" transform="translate(-63.45 -25.25)"/><path class="cls-33" d="M288.06,199.1c3.71,3.45,2,1.14,3.36,0-1.44-1.18.44-3.36-3.36,0Z" transform="translate(-63.45 -25.25)"/><path class="cls-32" d="M427.26,223.33c1.13,2.22-.48,3.18,3.14,1.22-1.18-2.79-.13-2.49-3.14-1.22Z" transform="translate(-63.45 -25.25)"/><path class="cls-30" d="M336.16,297.36c.48.3-1.4,4,3.32,0-1.66-1.79.92-.75-1.88-1.09-4.8-.53,1.09-1-1.44,1.09Z" transform="translate(-63.45 -25.25)"/><path class="cls-24" d="M340.83,252.44c-1.22-2.44-.26-2.36-3.14-1.18,1,.83-1.31,3.67,3.14,1.18Z" transform="translate(-63.45 -25.25)"/><path class="cls-12" d="M542.49,309.71c.57-1,2.88.39,0-3.75-2.27,1.65-.78-.75-1.09,2.13-.57,5.07-1-1,1.09,1.62Z" transform="translate(-63.45 -25.25)"/><path class="cls-20" d="M383,134c5.11-1.62,1.36,1.22,3.45-3.28-2.44.61-1-1-2.4.92-.17.22-.78,2-1.05,2.36Z" transform="translate(-63.45 -25.25)"/><path class="cls-4" d="M87.58,236.73c1.7-2.23,1.44,4,1-1.53-.22-2.53.22-.65-1-2.4-2.32,3-.83,3.14,0,3.93Z" transform="translate(-63.45 -25.25)"/><path class="cls-22" d="M179.77,438.26c1.92-2.58,1.52,3.88,1-1.57-.26-2.71.39-.44-1-2.19-1.79,2.06-1.53-3.18-1.05,1.49.26,2.75-1,.48,1.05,2.27Z" transform="translate(-63.45 -25.25)"/><path class="cls-24" d="M534,240.48c2.06-3.1,2.89,0,0-3.71-2,1.66-.78-.61-1.09,2.18Z" transform="translate(-63.45 -25.25)"/><path class="cls-22" d="M185.09,226.6c3.93-.35,1.62.61,3.14-2.44-6.54.61-1.44-.88-3.14,2.44Z" transform="translate(-63.45 -25.25)"/><path class="cls-30" d="M465.58,208.79c3.63-1.57,2.49,1.22,2.23-2.92-3.36.74-1.53-1.31-2.23,2.92Z" transform="translate(-63.45 -25.25)"/><path class="cls-34" d="M336.29,211c1.09-3.14,1-1.57-1.22-2.8-1.79,3.37-1.18,2.06,1.22,2.8Z" transform="translate(-63.45 -25.25)"/><path class="cls-35" d="M323.46,199.1c3.32,3.41,1.83,1.05,3.05,0-1-.7.49-2.7-3.05,0Z" transform="translate(-63.45 -25.25)"/><path class="cls-34" d="M405.43,157.59c1.71-2.05,3,.52,0-3-1.57,1.83-2.62.92,0,3Z" transform="translate(-63.45 -25.25)"/><path class="cls-25" d="M529.14,363.18c2.05-2.31,2.88,4.06,1.17-1.61l-1.17-1.66c-.7,1.31-2.49.65,0,3.27Z" transform="translate(-63.45 -25.25)"/><path class="cls-36" d="M252.57,432.45c-1.87,1.05-.83,2.62,0,3.76,1.18-2.19,1.44-1.58,0-3.76Z" transform="translate(-63.45 -25.25)"/><path class="cls-30" d="M253.27,277.93c6.46,4,1.83,1,3,0-3.67-2.4-1.57-.83-3,0Z" transform="translate(-63.45 -25.25)"/><path class="cls-34" d="M291.38,214.16c2.79-4.19.39-2.4,0-3.36-3.41,3.71-2.14-5.19-1.23,1.53.35,2.66-.74.74,1.23,1.83Z" transform="translate(-63.45 -25.25)"/><path class="cls-34" d="M378.37,275.49c-1.61-3.1-1.31-3-3,.48Z" transform="translate(-63.45 -25.25)"/><path class="cls-12" d="M132.84,208.79c.35.18.79.26.92.61s.74.31.92.26l1.65-.87c-.26-.22-.65-1.09-.78-.7H133.8c-.22,0-.61.53-1,.7Z" transform="translate(-63.45 -25.25)"/><path class="cls-37" d="M215,476.45l.7-2.66c-.05-.18-.48-.53-.7-.83-1.88,2.36-2.36-3.67-1,1.7s-3.41-.3,1,1.79Z" transform="translate(-63.45 -25.25)"/><path class="cls-34" d="M238.6,276.71c3.28,3.45,1.14,1.53,2.67-.57Z" transform="translate(-63.45 -25.25)"/></svg>