<svg id="Layer_1" data-name="Layer 1" xmlns="http://www.w3.org/2000/svg" viewBox="0 0 572 454.87"><defs><style>.cls-1{fill:#fff;}.cls-1,.cls-10,.cls-100,.cls-101,.cls-102,.cls-103,.cls-104,.cls-105,.cls-106,.cls-107,.cls-108,.cls-109,.cls-11,.cls-110,.cls-111,.cls-112,.cls-113,.cls-114,.cls-115,.cls-116,.cls-117,.cls-118,.cls-119,.cls-12,.cls-120,.cls-121,.cls-122,.cls-123,.cls-124,.cls-125,.cls-126,.cls-127,.cls-128,.cls-129,.cls-13,.cls-130,.cls-131,.cls-132,.cls-133,.cls-134,.cls-135,.cls-136,.cls-14,.cls-15,.cls-16,.cls-17,.cls-18,.cls-19,.cls-2,.cls-20,.cls-21,.cls-22,.cls-23,.cls-24,.cls-25,.cls-26,.cls-27,.cls-28,.cls-29,.cls-3,.cls-30,.cls-31,.cls-32,.cls-33,.cls-34,.cls-35,.cls-36,.cls-37,.cls-38,.cls-39,.cls-4,.cls-40,.cls-41,.cls-42,.cls-43,.cls-44,.cls-45,.cls-46,.cls-47,.cls-48,.cls-49,.cls-5,.cls-50,.cls-51,.cls-52,.cls-53,.cls-54,.cls-55,.cls-56,.cls-57,.cls-58,.cls-59,.cls-6,.cls-60,.cls-61,.cls-62,.cls-63,.cls-64,.cls-65,.cls-66,.cls-67,.cls-68,.cls-69,.cls-7,.cls-70,.cls-71,.cls-72,.cls-73,.cls-74,.cls-75,.cls-76,.cls-77,.cls-78,.cls-79,.cls-8,.cls-80,.cls-81,.cls-82,.cls-83,.cls-84,.cls-85,.cls-86,.cls-87,.cls-88,.cls-89,.cls-9,.cls-90,.cls-91,.cls-92,.cls-93,.cls-94,.cls-95,.cls-96,.cls-97,.cls-98,.cls-99{fill-rule:evenodd;}.cls-2{fill:#fbfdff;}.cls-3{fill:#737089;}.cls-4{fill:#6c678a;}.cls-5{fill:#858198;}.cls-6{fill:#78758f;}.cls-7{fill:#e81e25;}.cls-8{fill:#565175;}.cls-9{fill:#110e30;}.cls-10{fill:#f7f6fb;}.cls-11{fill:#6f6b89;}.cls-12{fill:#f59296;}.cls-13{fill:#0c0e2a;}.cls-14{fill:#eb97a0;}.cls-15{fill:#686386;}.cls-16{fill:#5f5b7f;}.cls-17{fill:#8e182d;}.cls-18{fill:#756e90;}.cls-19{fill:#ed1c24;}.cls-20{fill:#0b0e2f;}.cls-21{fill:#f4f4f4;}.cls-22{fill:#ad1e3e;}.cls-23{fill:#f598a1;}.cls-24{fill:#817e98;}.cls-25{fill:#d3d1db;}.cls-26{fill:#a91e29;}.cls-27{fill:#f8fbf8;}.cls-28{fill:#c52026;}.cls-29{fill:#b5b4c5;}.cls-30{fill:#7b7890;}.cls-31{fill:#f7f8f9;}.cls-32{fill:#f4f5fb;}.cls-33{fill:#eb9398;}.cls-34{fill:#d0cddc;}.cls-35{fill:#8b3850;}.cls-36{fill:#e9767e;}.cls-37{fill:#911945;}.cls-38{fill:#706d81;}.cls-39{fill:#5d5a77;}.cls-40{fill:#5b5678;}.cls-41{fill:#6b6882;}.cls-42{fill:#8986a1;}.cls-43{fill:#676380;}.cls-44{fill:#f7a3a6;}.cls-45{fill:#5f042a;}.cls-46{fill:#86819f;}.cls-47{fill:#655f81;}.cls-48{fill:#6f1843;}.cls-49{fill:#3e154a;}.cls-50{fill:#5b5680;}.cls-51{fill:#f4c1bc;}.cls-52{fill:#dad6e2;}.cls-53{fill:#a8a8bb;}.cls-54{fill:#938faa;}.cls-55{fill:#dedbe8;}.cls-56{fill:#8b4966;}.cls-57{fill:#5a3855;}.cls-58{fill:#9190a4;}.cls-59{fill:#8b1842;}.cls-60{fill:#e88287;}.cls-61{fill:#3e3761;}.cls-62{fill:#34295d;}.cls-63{fill:#d8d8db;}.cls-64{fill:#bcbaca;}.cls-65{fill:#a74761;}.cls-66{fill:#8f8ba3;}.cls-67{fill:#9996a9;}.cls-68{fill:#eeeaf2;}.cls-69{fill:#b72028;}.cls-70{fill:#9793aa;}.cls-71{fill:#a1a0aa;}.cls-72{fill:#c0bdcb;}.cls-73{fill:#7f7d90;}.cls-74{fill:#e6e4f2;}.cls-75{fill:#e1dceb;}.cls-76{fill:#a19fb1;}.cls-77{fill:#eaa4a5;}.cls-78{fill:#645f77;}.cls-79{fill:#48416e;}.cls-80{fill:#d12026;}.cls-81{fill:#4c486e;}.cls-82{fill:#755f82;}.cls-83{fill:#494064;}.cls-84{fill:#cec9da;}.cls-85{fill:#f1f1f5;}.cls-86{fill:#bab9c4;}.cls-87{fill:#63154b;}.cls-88{fill:#9888a3;}.cls-89{fill:#dad9e4;}.cls-90{fill:#767389;}.cls-91{fill:#b1acc2;}.cls-92{fill:#c5c2d3;}.cls-93{fill:#a7a5b3;}.cls-94{fill:#aca9c1;}.cls-95{fill:#ad1e22;}.cls-96{fill:#9e9bb2;}.cls-97{fill:#cac9d4;}.cls-98{fill:#bdb9d1;}.cls-99{fill:#e4e3ec;}.cls-100{fill:#8f89a9;}.cls-101{fill:#b192a7;}.cls-102{fill:#cf1f26;}.cls-103{fill:#9a97b0;}.cls-104{fill:#630629;}.cls-105{fill:#c8b8c4;}.cls-106{fill:#251e50;}.cls-107{fill:#5b536f;}.cls-108{fill:#c3c1cc;}.cls-109{fill:#a7a2b8;}.cls-110{fill:#4d4a65;}.cls-111{fill:#9795a4;}.cls-112{fill:#8583a5;}.cls-113{fill:#b7b5cb;}.cls-114{fill:#b2b1bc;}.cls-115{fill:#524e72;}.cls-116{fill:#868391;}.cls-117{fill:#c7c4d2;}.cls-118{fill:#b2aaba;}.cls-119{fill:#cdc9e2;}.cls-120{fill:#9e9ab6;}.cls-121{fill:#b3b2c4;}.cls-122{fill:#7a7497;}.cls-123{fill:#a298a9;}.cls-124{fill:#a5a2c3;}.cls-125{fill:#716d90;}.cls-126{fill:#8f8797;}.cls-127{fill:#514c77;}.cls-128{fill:#a57188;}.cls-129{fill:#b5b1c9;}.cls-130{fill:#d2cee2;}.cls-131{fill:#68648d;}.cls-132{fill:#a78697;}.cls-133{fill:#1c154e;}.cls-134{fill:#8a6d87;}.cls-135{fill:#fac6c7;}.cls-136{fill:#7f769f;}</style></defs><path class="cls-1" d="M334.89,355.59l1.09-.35c2,1.69,2.22-1.47,1.5,3.56-4.19,1.65-.72,1.17-4.63.07,0-4.91-.22-1.57,2-3.28Zm-36.34,10.73c-3.53,2.74-3.65,3.08-7.2,1.56l3.89-2.48a128.6,128.6,0,0,1,15.62-6.35l13.51-3.63c6-.06,2.73-.31,5.75,2.08-4.34,2.46-11.52,2.58-16.93,4s-9.79,3.58-14.64,4.84ZM309.12,356c4.6-.16,10.21-.6,13.46-3.33-4.43-3.09-13.5,1.3-19.18,1.9-3.24,1.95-4.34,2.11-5.53,5.28,3.93-.11,8.58-1.52,11.25-3.85Zm19.26-7.25c1.82,3.31,3.15,1.88-1.19,3.47-2.81-3.07-.56-2.44,1.19-3.47ZM320.73,343c4.85.26,2.88-1,3.48,3.27-5.07-.07-3.61,1.5-3.48-3.27Zm-57.17-31c3.16-1.86-.14-2.6,3.94.11-4.84,3.92-1.59,2-3.94-.11Zm-17.46-7.44c5.47,5.63,5.4,3.23,11.44,6.33-6.38,3.67-11.2-.39-14.69-5.93-2.86-4.25-4.16-5.83-.94-9.83l4.19,9.43Zm37.63-26.19c-3-4.16-2.38-.53,0-4.32l1.06,2.18c.86,4.12.83-.7-1,2.14Zm9.37-18.14c3.81,5.24,6.12,15.95-1.13,18.64-1.64-4.08,1-4,1.2-9,.14-4.68-2.15-4.85-.07-9.66Zm-71.53-1.66,1-.51,2.53,3.07c-3.84,2.29-.85,4.24-6.41-.7l2.84-1.86Zm102.75,1.64c-3.83-5.25.69,5.7-1-1.94-1-4.68-1,1.2,1-2.08,2.09,3.86,3.05-.09,0,4Zm-94.61-9.71c2.69,2.05,2.61.81,1.33,4-6.12-1.72-2.77-1.82-1.33-4ZM246,245.1c1.64,3.6,3.31,2-1.3,4-3.83-4.16-.46-3,1.3-4Zm13.2-2.49c-.06,4.7.52,1.8-1.64,3-2.95-2.54-3.14,1.24-1.8-4.89,5-.17,1.55-.73,3.44,1.88ZM140.52,245.2c-3-3.81-2.22-.9-.07-4.16,2.1,3.84,2.55.21.07,4.16Zm.08-11.75c1.15,2,2.27-2.22.85,4.12-6.23,1.06-1.94.46-3.79-1.33l2.94-2.79Zm178.85-6.62c2.49-1.94-3.76-3.82,4.35-1.39-.94,4.25-1.07,4.39-4.35,1.39Zm-181.33,1.51c-2.51-3.65-1.59-1.18-.07-3.8l1.09,1.9c1.09,4.34.62-.43-1,1.9Zm193.82-10.19-2.67,3.09c-2-1.84-2.48,2.22-1.58-3.25,6.9-3.19,2.3-.92,4.25.16ZM141.27,220.1c-3.74,1.38-2.11,3.34-4.19-1.34,5.28-3.09,2.7-.86,4.19,1.34Zm195.12-7.8c6.9,3.26,3.59,1.53,1.61,4.57-1.61-2.27-1.62,1.61-1.61-4.57Zm12.23-3.76c1.86,3.49,2.25,2-1.21,3.55-2.88-3-1.18-2.35,1.21-3.55Zm13.38-5c-.67,4.16,1.32,2.88-3.43,3.22.34-4.72-1.07-2.75,3.43-3.22Zm18.81-6.86c1.54,1.92,2.45-2.4,1.2,3.72-5,1.12-.89,1.3-4.17-.65l.6-2.76,2.37-.31Zm-8.22,4.94c-3.67-.56-2.46.61-3.11-3,4.88-.29,3.5-1.55,3.11,3Zm20.73-6.26c1.6,3.08,2.91,0-.16,4-5.42-2.33-2.18-2.59.16-4Zm5.32-5.22c4,1.21,1.83-1,3.11,2.88-2,1.55,2.72,2.47-4.06,1.22-1.34-6.29-.42-2.28.95-4.1Zm9.51-3.52c-1.65,2.23-4,.47-.07,3.95,3.72-4.32,2-1.21.07-3.95Zm9.11.4c2.13-1.69-2.82-2.73,4.06-1.19.42,5,.64,1.66-1.94,3.51l-2.12-2.32Zm8.44-6.58c3.9,1.4,2.76-2.36,2.54,3.72-3.76-.65-3.94.08-2.54-3.72Zm46.08-29.36c-.67,4.9,1.51,3.64-3.78,3.62.27-4.61,2.09-3.12,3.78-3.62Zm-221.1-1.34,2,.07.78,3.09c-2.16,1.12,2.67,3.13-4.26.4-.59-5.59-.34-1.83,1.5-3.56Zm192.51,17.94c-9.24,11.25-19.41,7.75-21.91,7.59L419,182.67c-3.2-4.37-1.54-6.55-5.67-7.06l-1.06,8.09c-4.33-1.26-1.8,1.17-3.53-2.92,0-7.22-2.66-7.59-9.27-4.6.72,5.7,3.42,6-.15,11.2l-3.35-9.52-4.92.4.16,2.94c2.7,5.08,4.51,6.54,1,11.14-2.38-4.05-.72-2.62-2.22-6.31-1-2.45-1.43-1.86-2.64-4.47-5-1.16-2.93-1.85-7.5.33-.78,8.09,4.2,3.79,2.49,12.53-2.91-1.65-3.9-4.59-5.58-7.85l-1.14-.51-5.22-3.56-4.7.77c3.75,3.85,7.57,6.47,8.85,11.3-9.17-2.79-7.73-12.4-21.69-8.65,1.26,5.86,5.7,5.75,6.66,12.27-4.4-1.28-7-5.48-9.91-9l.41.15c-7.17-.76-7.89-1.25-13.5,2.66,2.93,5.42,10.23,4.69,11.29,12.94-7.11-2.95-8-11.57-18.85-7.75l-1.14,1.93c3.89,5.48,7.44,3.49,8.59,13.17-7.26-3.33-5.45-11.77-18.31-9.8l.38,3c4.86.91,7.66,2.18,8.52,6.65-10.56-1.55-1.41-5-17.59-2.28l1.42,3.67c5.57.29,10.17,2.81,10.09,8.39-6.79-.23-2.46-8.21-15.23-5,.14,7.3,23.38,23.13,16,33.75-4.18-3.9-7.32-23-19.49-30.06L299.76,230c-.55,3.87,1.37,1.32-2.5,3.79l-.15,1.35c-8.9,12.87-.21,13.16-5,21.63-3.77-3.17-2.42-1.06-3.28-6.47-.18-6-2.82-9.26-2.55-17.48.22-6.41,1.95-12.56,2-18.39,1.4-14.12,5.1-22.84,2.52-38.26-2.64-15.76-7.37-17.2-13.75-28.42l-12.71-11.49-7.61-2.47-3.57,1.9-2.16,1c-1.79-2.6-1.81,3-1.43-3.51l2.83-2.67-17.56-4.73.93,4.88,1.81,2.29,7.19,3c-4.34,3-2.27,1.73-8,.15.56,3.63,3.63,5.7,7.86,6.55l4.38,1.5,3.5-1.53,1.57-.89c2,2.35,1.7-2.57,1.78,3.42l-6.42,3L238,145.15l.24,4.72c7.55,6.14,15,13.06,24,17.87,5.55,3,19.81,13.26,21.9,18.7,7.13,18.57-14.87,44.12,0,67.13l.72,6.73c.36,4.15,2.22-2.43.19,4.4l-4.79-3.14,1-5.17-4-8.87-2.91-3-3.56.65-.61-6.53c-.88-8.78-4.3-15.81-7.9-23.69l-1.38.46c-9.32,2.37-.78,13.42-5.4,20.34-5.06-6.12-2.8-22.83-13.68-28.07-8.74,1.85-8,10-7.52,17.29.95,6.79,6.36,9.76,3.65,13.56-5-2.9-18.31-36.3-34.63-24.51l-2.3,4.8,1.58,3c5.27,5.36,19.43,4.32,25.22,20.19,2.21,1.9,4.6-.48.12,4.81l-2.4-2.76c-4.25-8.72-15.67-19.3-27.07-17.43l.09,6.15.21-.61c5.24,4.44,20.64,14.58,15,22.34-2.7-4.74-1.43-6.83-6.16-10.92-2.9-2.51-6-4.33-8.74-7.24l-4.08.55c-16.69,2.05-40.06-6.7-32.48-24.18l-6.79-1.16-2.81.8-2.77.54L147,207.2l-3.66-3.75-.66.26-5.78,1.34-.06,3.11,6.67,1.17c4.09,3,3.8,3.39.64,7.32l-1.66-3c-5-3.2-5.16-.67-8.88-5.52L126.64,207c3.47,6.09,3.88,2.49,8.63,6.72-5.7,3-8.12-1.86-15-3,.29,7.45-.42,5.54,7.73,6.52,3.18,2,3,1.69,5,5.75l-3.43,1.46-1.95-.85c-3.64,3-5.91,2.55-11.47,1.94-8.89-1-7.16-3-10,2.54,6.36,3.76,1.51.51,13.18.77,6.59.26,9.81-3.42,14.28-1.11-6.71,6.37-23.43,5.42-32.53,5.89l.07,6,.1,1.66a59.51,59.51,0,0,0,17.06-2.69c6.17-1.75,9.19-5,14.31-5.77-1.71,6.05-12.58,9.6-19.36,9.81-3.32,2.71-2.77,1.63-7.22,3.14l1.52,5c10.86-1.51,15-5.66,23.66-8.17,1.77-2-1.9-1.74,3.76-2-.23,4.74,1.43,1.11-2.11,3.68-5.83,5.34-20,9.53-28.3,10.24l.35,3.38c4.75-.6,10.4-3.46,16.55-4.63,61.78-11.83,73.59,32.48,104.75,41,8.95-1.86-.06-3.69,8.9-2.72,2.4,7.53.74,2.8-.59,4.56l-4.43,2.82c-4.51,3.28-3.09,3.53-8.55,5.18l.46-.23c-2.37,3.68-1.85,3-6.66,4.48l-4,2.09-2.52,7.11c11.89,1.23,15.57,1.18,27.61.84,8.35-.23,17.53-2,25.59-1,4.73,9.05,12.35,14.49,22.05,18.57,4.3,1.8,30.11,5.93,30.23,8.32l1.35,5.13-2.54.86c-5.09.22-13.22,2.93-17,1.25,4.29-3.86,4.92-3.36,10.62-3.9l.09-3.28c-29-.37-46.43-23-47.41-23.36-15.71-.86-31.76,2.68-48.17.81l-.33,3.62,1.92,1.5,3.58,2.66,3.61,3,.84,2,2.81,1.19-.06,2.37,3.83,2.13c4.53,3.59,10.43,7.36,12.36,12.32,4.72,2,13,9.25,15.22,13.8l4.22,2.1,4.19,3.36.22.17,3.4,4.17,2.33.32.82,3,.75.36c2.5,5.55,2.66,10.26,1.49,16.16,3.57,4,8.34,13,10.35,18.78l2.82,4.11,4.74,3.9,2.13,2.87,1.48,1.26c8.48,4,9.89,2.93,19.83,2.43,19.56-1.69,60.59-16.62,76.1-27.39,4.48-3.11,5.06-5.29,10.09-5.72,1.78-5.21,18.72-14.7,24-18.8,6.5-6.16,18.32-18.9,21.18-27.11l.94-3.59c-1-4.19-4.79-17.86-7.31-20.47-13-5.36-25.26,10.43-34.37,15l-7,5.67c-3.26,4.48-15.15,14.11-20.49,15.91-18.63,6.3-25.11-4.76-65.29,10-10.36,3.81-14.65,8.54-23.57,12.94-1.85,1.61,1.49,2-4,1.18.15-4.61-1.33-1.08,2.41-4.8,4.85-.45,21.19-16.11,51.65-19.73,10.1-1.2,28.22.13,36.24-2,8.82-2.32,14.07-10.84,21.47-15.09,2-3.75,4.05-4.46,8.24-6.53C406.3,333.17,430,319,439.49,323c12,5.06-1.84,20.56,24.64,29.7l.28-2.68-4-4c-1.55-3.41-1.16-.81-1.42-5.75l-5.07-3.21.74-9.69c-6.8-2-6.56-5.65-6.5-11.89l4.48-2-1.56,3.14c.22,5.07,1.85,6.21,4.47,9.81,9.72-1,10.6,1.07,11,9.58,4.92,2.52,1.91.06,4.62,3.49l4.78,2.39,2.12-.58c-2-16.86-24.61-35.29-42.12-36.81l-14.27,3.15c-2.79,3.14-20.55,15.42-26.19,20.43-9.58,8.5-17.45,15.42-32.11,14.1-25.69-2.3-37.39-32.41-34.08-54,5.15-33.51,37.19-58.59,72-61.8,31.55-2.9,14.72,2.83,36-9.83a16.49,16.49,0,0,1,5.49-8.55c2.25-5.44,17.79-30.83,21.53-33.37.87-6.36,8.25-11.17,9.25-17.21l.8-6.75c-.45-1.95-2.1-4.17,1.37-4.9l3.6-7c9.45-21.18,20.55-37.23,35.52-55.2,8.25-9.91,34.6-39.31,44.31-45.61.47-3,1-2-2.48-2l-14.66,8.53-5.46,4.18L520,69.79c-.63,3-3.85,7.51-6.55,8.6C510.06,84.51,501,93.28,496.24,99c-5.14,6.18-10.08,13.61-15.16,20.17-6.24,8-22.63,35.5-26,44.57-5.78.89-2.91,1.45-6.76,0-.6-6.31-1.34-2.06,1.89-5.85.16-.88,15.56-37.11,16.78-39.18,8-13.6,36.09-56.51,46.42-66.06,7.84-7.25,22.52-21.62,24.69-31.5l-1.27.41C525.37,27.88,488.55,73,480.26,85.25,467.87,103.53,443.47,146.82,443.19,167.71Z" transform="translate(-5 -11)"/><path class="cls-1" d="M443.86,209.68c-.54,3.46-2.71,6.41-5.4,9.15-12.3,12-14.06,10-31.17,10.76-15.79.69-19.45,1.8-33.38,8-52.49,23.36-50.79,85.89-19.55,98.26,13,5.13,20.94,3.18,31.66-4,2.58-1.73,19-15.69,20.79-18l3.77-2.72c-5.58-2.77-25.14-.18-34.51-4.56C384.3,302,399.33,311,408,305.41c-9.16,1.14-36.6-11.56-36.58-19.51,4.21.41,20.21,17.17,41.39,16.79C408.52,298,401.06,297,400.26,292c10.43.78,8.51,10.4,34.93,9.82,17.93-.39,18.58,7,30,13.05,6.63-6.56,10-39,10.58-48.89,1.06-18.75-2.19-40.28-.77-57.85-5.28-5-4.23-26.16-11.94-27.82C460.66,185.58,447.58,206.91,443.86,209.68Z" transform="translate(-5 -11)"/><path class="cls-1" d="M205.74,87.3c-3.56,3.62-6.8,3.68-8.13,7.5,8.26,1.46,31.69,14.84,36.34,21.07l-.15-.37,32.8,19.69c4.47,3,9.78,6.32,12.25,10.9a59.27,59.27,0,0,1,9.28,12.38c3.2,5.41,3.72,12.31,6.75,17.19l3.61-2.85c1.33-6,3.63-6.64,9.62-7.69,4.12-4.61,6.59-3.61,12.09-4.24,9.26-1,4.25-4.94,14.26-3.71l3.61.33c4.61-5.59,6.84-4,13.46-2.69l3.24-2.59,3.31-1.61,2.46.14,2.48-.89c.21-4.32-.2-8.19,3.58-10.66l4.57.68.46,2.41c3.71-2.32,2.5,2,2.82-6.4.09-2.33-.13-3.89.1-6.5.42-4.59.59-6.67,3.79-9.81l6.5,2.59c1.58-7.85,1.59-19.11,9.67-22l-5.51-6-4.7-3.74c-5.76-4.55-31.21-14.25-39.35-17.32-30.83-11.64-67.43-10.43-99-1.2C229.53,76.74,211.55,85.64,205.74,87.3Z" transform="translate(-5 -11)"/><path class="cls-1" d="M110.83,260.68v2.4c-.66,18.78,21.81,84.35,35.76,98,13.26,13,19.43,21.24,35.11,33.17,8.49,6.46,35.92,22.62,45.71,24.65,3.51-2.53,3.25-2.92,4.15-7l.79-2.84c1.47-8.17,3.93-3.89,1-12.82-4.3-2.15-3.69-1.35-5.33-5.86l.11-.54-12-10.56-3.93-3.46-3.89-3.3-4.26-2.95-20.17-18.34-4-3.58-8.24-9L166.47,335l1-.09c-5.48-2.47-11.37-3.28-14.51-7.58l-.33-5.23,4.31-3.84,5.09-3.71,1.4-1.79,5.67.32,1.66,2.87c3-2.66,1.15.78,1.54-2.37.1-.86-.56-1.81-.69-3.12-.28-2.92-1.75-4.63,2-5.41l-.12-3,2.26-.33c.11-3.12-.06-2.27,3.78-3.37l23.8,1.16,20.8.43c-.76-2.13,0-1.53-1.39-3.59-21.07-6.93-33.71-26.51-46.91-33-10.7-5.25-20.14-8.73-32.56-8.92C136.91,254.34,113.89,255.58,110.83,260.68Z" transform="translate(-5 -11)"/><path class="cls-2" d="M206.71,157.54c-1.57,3.65.71,2.1-3.78,2.4.44-3.78-.55-4.26,3.78-2.4ZM190.05,147.3c2.39-1.36-.09-3.11,4.46.07-5.09,4.16-2.65,1.24-4.46-.07Zm6.57-8.36c5.87-.53,2.27-.91,3.83,2.06-3.27,1.27-3.52,2.53-3.83-2.06Zm9.7-6.3c.69,5.32,2.13,1.91-2.79,3.5.26-4.1-.4-2.62,2.79-3.5Zm8.71-.72c-4.31-4.84-.16-3.18,1.05-3.62,1.24,2.83,1.54,1.13-1.05,3.62Zm2.33-15.74.07,3.49-1.3,3.18c-2.18-1.37-2.13.73-1.82-3.42l.33-3.23c-1.15-3.73-.74-1.87,2.14-3.33l.58,3.31ZM163.53,98.53c8.86,1,33.81,4.35,39.15,9.16-16.55,1.74-47.08-14.59-111.57-1.63,44.75-1.61,41.4-4.86,88.58,1.28,8.65,1.13,17.32,4.34,25.79,5l3.41,3c-4.13,1.61-3.58,2.38-6.92-.74-6.48.11-26.82-4.1-35.84-5-20.57-2-96.85-5.34-106.08,11.79C67.6,121,84,116.83,93.6,115.64c22.07-2.75,101-.75,107.92,7.86l1.56,3.71-2,1.39c-29,.67-57.82-.79-87.82.27-15.25.54-27.54-.32-43,1.87-16.44,2.34-20.77,6.39-33.74,10.2L35,140.33,24.75,148l1.18,1.38,1.5,1.12c9.2-10.85,60.23-16.3,75.3-16.65,11-.25,83.45-1.54,88.16.65-7.94,4.88-88.36-.11-128.17,6.91-15.27,2.69-20.17,5.53-33.34,11.47l-4.72.38c-2.94,2.91-10,6-11.12,9.32-3.3,4.13-1.92,1.44.68,2.72L23,163.86,28.66,162c10.85-14.06,91.85-18,114.61-19l39.25-.48c5.89.71,4.82,1.4,5.62,2-5.89,2.72-48.63,2.21-58.83,2.27,2.89,1.84-.3,1,4.44,1.75,9,1.46,16.43-2.84,21.15,3.21l.73.91c.18.23.49.66.75,1,7.32-1.18,18.78-3.21,24.5.58,5.44,0,15,.92,18.13,4.61l-26.94-3.09C182.85,167.23,206,163.49,219,168c1.72-2.51,2-4.54,3.88-8.19,3-6-.27-5.5,4.5-8.22,3-2.6.76-1.5,6.38-1.92.26-5.48-1-3,2.19-5.74l-1.14-5.17c-5.55-3.81-.19-16.56-4.53-22.55-1-1.32-7.12-5.87-9-7.08-5.83-3.85-4.44-2.07-10.16-1.24-7.86-16-38-13.24-54.68-13.43-2.84,2,.19,1-5.36,1.69C157.08,96.39,158.32,96.17,163.53,98.53Z" transform="translate(-5 -11)"/><path class="cls-3" d="M395.9,171.69c4.9-11.29-1-71.21,13.57-79.92.66,1.33.58.65.59,2.85L403.8,128.1c-1.54,13.7.55,28.49,1.14,42.45L394.53,174c-7.42-10.17-11-63,.38-69.18,5.38,22.85-6.79,53.43,1,66.9Zm53.21-108.3c-3.5-.22-.29-2.6.67-3.53l-.67,3.53ZM422.59,171.72c2.45-7.36,2.76-25.33,4.4-34.55,4.56-25.63,11.57-33.14,22.42-56.83,3.6-7.85,12.56-18.8,10.75-27.12-5.48,2-5.83,7.51-11.05,10.17-1.62,9.21-12.92,25.35-16.85,36.36-4.55,12.8-12.23,27.3-11.7,41-1.81,2.85-1.11,0-1.56,5.21-.19,2.2,0,5.42,0,7.75,0,4.45-.62,9.81-.16,13.79-.87-10.95-1.37-15.65-1.09-26.79-1.09-25.55,28.86-71,28.32-80.24-3.1,1.58-.21-.86-3.69,3.05L434.42,75.1c-11.25,21.65-17,34-21.28,58.34-2.27,4.47-1.95,7.2-1.81,12.59.05,1.76.37,4.93.3,6.46-.3,6.81,1,1.81-1.56,5.24,2.14-18.3-3.61-15.62,5.71-49.07,2.93-10.51,18.87-31.44,11.25-40.12-14.45,12.39-19.9,55.33-19.88,76.21,0,11.23-2,27.38,4.64,28.26l7.09.74,3.71-2Zm-21.4-73.84-.91,3.28-1.06,5-3.54-5.59-1.17-.37c-8.08,2.89-8.09,14.15-9.67,22l-6.5-2.59a17.67,17.67,0,0,1,3,3.62c2.71,9.84,3.16,16.29,4.21,26.37.86,8.3,4.51,18.93,4.68,25.36,7.13,1.84,2.64.69,5.72,2.93l3.35,9.52c3.57-5.2.87-5.5.15-11.2,6.61-3,9.3-2.62,9.27,4.6l2.7,1.47,1.22-5.53a11.7,11.7,0,0,1,.67-1.11c4.13.51,2.47,2.69,5.67,7.06l2.31-7.37c2.5.16,12.67,3.66,21.91-7.59l-3.07-1.79-3,1.35c-2.93-15.16,19-55.7,27.91-69.65,12.35-19.46,29.41-40.61,40.1-60.06-1.71.43-.49,1.42-2.06-1.68C489.22,55,474.87,77.3,461.78,97.15c-18.83,28.54-20.09,41.32-28.29,72.41L432,172.64l-2.85.33c-6.42-1.66-1.76-13.21-1.11-18.37.95-7.6,1.52-13.81,3.29-21.37,5.62-24,32.55-81.84,50.48-95.48l-.18,4.17c.41.67-2.79.63,2.1,1.4,4.25.67,1.45,2.62,3.16-1.06l-2.05-9.18c-7.86,1.27-14.56,11.46-19.42,16.67-3.87-1.76-3.34-4.83-8.06-.34-2.92,2.79-3.76,6.59-7.52,7.38-5.67,1.2-3.87-3.5-9.79,4.55-2.38,3.23-3.95,6.25-6.79,9.14-2.79-2.12-6.31-12.3-12.86.52-2.74,5.36-4.92,12.43-7.5,18C404,88.3,403.69,89.06,401.19,97.88Z" transform="translate(-5 -11)"/><path class="cls-4" d="M32.12,139.41l5.74-1.68-1.34,3.21c13-3.81,17.3-7.86,33.74-10.2,15.46-2.19,27.75-1.33,43-1.87,30-1.06,58.82.4,87.82-.27l-1.23-2.45-16-2.18c-9,1.25-26.34.2-36.57.45l-68.07,1.71c-9.2,1-21.93,5-29.33,5.37-3.08,2.56-8.67,4.2-13.3,5.17l10.16-7.23c5.31-.56,21.57-6.52,29.64-8.06a216,216,0,0,1,34.41-3.82c27.11-.73,46.31,1.49,72.69,4l18,2c-6.94-8.61-85.85-10.61-107.92-7.86-9.64,1.19-26,5.4-33.55,5.84,9.23-17.13,85.51-13.8,106.08-11.79,9,.88,29.36,5.09,35.84,5l5.1.28-1.59-2.59c-8.47-.68-17.14-3.89-25.79-5-47.18-6.14-43.83-2.89-88.58-1.28,64.49-13,95,3.37,111.57,1.63-5.34-4.81-30.29-8.21-39.15-9.16l-48.43-.16c9.35-4.89,30.42-4.48,41.38-3.89,16.65.19,46.82-2.61,54.68,13.43,5.72-.83,4.33-2.61,10.16,1.24,1.83,1.21,8,5.76,9,7.08,4.34,6-1,18.74,4.53,22.55l.34-3.92.61-4.23-.93-4.88,17.56,4.73,4.33,3.29,7.61,2.47,2.28-1.05L233.8,115.5l.16,2.9c-2.34-2.93-1.36-.72,0-2.53-4.65-6.23-28.08-19.61-36.34-21.07l-3.45-1.25c-20.85-.63-53.88-3.23-74.75.49-9,1.6-11.5,4.86-20,6.67C64,108.24,53.71,123.22,47.12,126.62S33.58,132.93,32.12,139.41Z" transform="translate(-5 -11)"/><path class="cls-4" d="M162.66,204.25l-.07,2.82c-1.56-2.59-3.71-1.65.07-2.82ZM160,184.68c-7.24,18,51.19,21.14,57.65,15-3.43-8.42-6.39-1.69-29.29-7.06-5.11-1.2-26.14-8-28.36-8Zm-1.2-26.59c9.93-1.58,17.44,9.07,56.25,11.2l-.71,9.07c-11.77,2.63-60.45-3.46-55.54-20.27Zm22.09-3.89-54.45.87c-14.74.38-29.13,3.41-43.25,6.93-6.69,1.67-33.18,10-35.86,12.94l2.63.44c3.38.3,25.74-8.52,32.68-10.16,11-2.62,25.61-5.83,36.83-6.4L136,157.2l19.15-.49.18,7.48,6.89,5.79c10.55,11.27,37.15,13,52.41,11.93L217,191c-15.9,4.27-42.94-4.32-56.88-10.73-2.54,2.24-.87-1.16-3.21,3.79-2.36,3.07.71,12.71,1.24,17.39l4.07,11.29C154.6,230.21,178,239,194.66,236.91l4.72-2.44c-6.37.57-2.49.91-3.58-2.1h-2.07c-7.43,4.38-25.18-1.05-27-8.84-3-3.11-2.27-1.39-1.34-5.38l3,2.69,12.14,3,14.87,2c7,1,5.9-.57,7.06-4.06-6.24.74-12.87,2.8-18.42-.88-7.43-1.13-11.71-3-17.9-6.63-1.47,3.07.3,1.83-2.76,2.37.09-5.66-.4-.75,2-2.94l-2.39-4.81c12.19,3,19.78,6.34,33.57,5.13l6.61-.06c16.32-11.79,29.59,21.61,34.63,24.51,2.71-3.8-2.7-6.77-3.65-13.56l-5.81-4.42c-1.6-4.74-8.56-7.28-12.83-10.28-9.64-1.39-17.69,1.1-28.86.29-14.76-1.08-13.19-2.93-24.05-6.3-.7-2.41-1.6-3.91-1.55-6.89,25.14,5.79,15.88,9.87,56.78,7.24l.41,4.08c5.3,4.73,6.2,4.49,12.43,8,4.83-1.52,2.46-.36,2.52-2-7.83-1.22-1.05.17-4.25-2.53-4.89-3.62-7.26-3.12-7-9.7l8.15.38,11.75,3.52,2.86-2.4,3,2-.16-5.09c-7.41,1.42-26.47.89-28.06-7.87l27,2.21c.29-3.57-2.53-.22,2.1-4.51-7.25,2.25-32.72,2.78-29.26-8.64l6.28-.19c-3.65-2.62,4.09-2.94-6.45-2.67l2.5-1.1c-3-4-3.22-1.69-3.56-6.1,9.32-5.67,19.3,4.37,33.59,4,2.71,2.41,1.5-.16,1.21,3.91,2.86-2.13.57,1.19,3.55-3.66-1.17-3.64-.29-4.58-2.95-4-8.31,1.41-26.32-2-29.26-9.72,6.12-4.1,5.78,1.1,14.51,2.54.74,0,4.34.14,4.51.11,6.1-1.09,3.55,2.45,6.08-2.7-10.46,1.12-15.4-.33-21.72-7.5,4.22-2.39,4-2.05,9.57-1.08l-1.35-2.16-8.54-.2c-4.77,2.72-1.47,2.22-4.5,8.22-1.84,3.65-2.16,5.68-3.88,8.19-13-4.53-36.14-.79-46.92-12.3L199,158.81C195.87,155.12,186.32,154.17,180.88,154.2Z" transform="translate(-5 -11)"/><path class="cls-2" d="M177.54,331c3.9,1.13,3.64.25,5.37,4.38L186.3,338c3.86,2.5,6.75,4,7.83,7.55l2.43.2.87,2.94c3-.2.6-.38,1.61,2l4.08,2.87,23,19.64,2.91.69.72,2.72a95.52,95.52,0,0,1,19.91,17.66l4.75-1.15.22-9.77c-2.9-2.95-2.71-3.34-3.23-7.57l-3.63-3.92-10-9.07-5.1-4.85c-4.47-4.75-11-8.19-13.73-13.56l-2.78-.86-4.26-4.18c-3.71-1.9-2.76-1.07-4.25-3.76-4.4-.69-3.56-1.15-5.16-3.86l-.81,0c-4.46-1.85-3-.54-5.39-4l-4.37-1.24-16.81-.13Z" transform="translate(-5 -11)"/><path class="cls-5" d="M527.94,24.84l-4.06,3.56,1.86-4.89c1.21-4.66,1.8-3.52.87-8.69-8.31-.67-13.17,7.42-17.57,13.63l-3.64-1.24,2.44,5.28-2.44,4c8-4,7.11-13,17.34-17.73C518.67,42.66,492,58.18,475.42,87.08c-8.34,14.55-13.4,20.63-20.3,37-11.18,26.51-7.47,21.44-15,41.83l3.07,1.79c.28-20.89,24.68-64.18,37.07-82.46C488.55,73,525.37,27.88,536.8,21.64L541,17.78l2.85-3.26,1.11,1-3.17,2.93-3.73,2.74c-2.17,9.88-16.85,24.25-24.69,31.5C503.05,62.28,475,105.19,467,118.79c-1.22,2.07-16.62,38.3-16.78,39.18l.26,2.68,12.4-22c.33-11.22,26.19-50.06,34.47-60.23,5.79-7.12,15.05-20.7,21.08-26.08,4.6-4.11,21.87-20.26,23.47-24.45-1.36-1.91-.52.79,1.5-1.68,2.85-3.48.09,1.83,2.57-3.69-1.17-.66-6.57.7.85-3.51,1.13-4.91,1.71-2.74,0-7.69C542,11.32,528.9,21.74,527.94,24.84Z" transform="translate(-5 -11)"/><path class="cls-1" d="M117.45,201.61l1.18-.22c3.67-4,3.62-4.08,7.42-1.45,4.15-.78,2.77.81,5.06-3.08l2.62-2.81,6.16.32.84.13c2.35-3.85-1.27-1.57,3.93-3.31l3.15,3.67.55.49,7.07,6.53,2.68-.44c-.53-4.68-3.6-14.32-1.24-17.39-7-15,.16-9.9-1.58-19.86l-.18-7.48L136,157.2C130.31,163,113.08,193.71,117.45,201.61Z" transform="translate(-5 -11)"/><path class="cls-2" d="M541.86,27.86c-1.6,4.19-18.87,20.34-23.47,24.45-6,5.38-15.29,19-21.08,26.08-8.28,10.17-34.14,49-34.47,60.23l1.12,2.26c3.86-9.45,15.12-24.29,21.53-32.75,4.45-5.88,7.5-9.66,12.31-15.18,4.29-4.93,7.89-13.22,13.9-15.66a10.77,10.77,0,0,1,6.05-6.93c2.66-6.56,11.9-20.2,18.31-23.32l3.1-4.39c3.6-7.82,17.78-18,22.61-26.64C554.58,17.19,546.82,25.34,541.86,27.86Z" transform="translate(-5 -11)"/><path class="cls-6" d="M421.72,307.67a30,30,0,0,1-7.92-.29l-5.84-2c-8.63,5.54-23.66-3.38-31.89,1.21,9.37,4.38,28.93,1.79,34.51,4.56l-3.77,2.72c-1.78,2.26-18.21,16.22-20.79,18-10.72,7.17-18.7,9.12-31.66,4-31.24-12.37-32.94-74.9,19.55-98.26,13.93-6.19,17.59-7.3,33.38-8,17.11-.74,18.87,1.29,31.17-10.76-2.58-1.16-3.59,1.56-1.1-2.25-21.32,12.66-4.49,6.93-36,9.83-34.79,3.21-66.83,28.29-72,61.8-3.31,21.58,8.39,51.69,34.08,54,14.66,1.32,22.53-5.6,32.11-14.1C401.17,323.09,418.93,310.81,421.72,307.67Z" transform="translate(-5 -11)"/><path class="cls-7" d="M155.88,327.43l1,.26c9.8.28,14.39,6.52,20.72,13.08,5.87,6.09,13,10.31,18.61,15.57,7.25,6.75,31.65,27.88,34.69,34.55l7.62,7.39-3.47,12.56,3.61-2.15,6.59-2.74,1.75-.18,1.89,1.7c5.68,6.84,5.43,12,11.26,14.46a8.92,8.92,0,0,0,1.48.36l-.38-6.58a52.31,52.31,0,0,1-4-4.85c-2.72-3.55-1.08-1.92-3.08-5.75A40.91,40.91,0,0,0,246,394.75c-3.09-2.81-18.49-16.52-19.49-18.52l-24.85-20.75-4.39-4.35c-4.78-4.94-9.36-8.19-14.7-12.62-4.4-3.65-12.33-8-9.76-14.39l10.95-1.93,8-.51,14.09-2.59c-2.72-3.16.08-1.71-4.39-2.16,0,0-4.18.82-4.46.87l-19.87,1.89-4.09-.45-8.16-3.54C160.08,317.62,155.53,321.81,155.88,327.43Z" transform="translate(-5 -11)"/><path class="cls-8" d="M251,192c6.93-3.58,7.47,1.35,14.35,4.68,5.65,2.74,9.8,3.16,14.86,7.39l-1.31,8.57c-17.49-15.7-25.53-12.46-27.9-20.64Zm4.3-11.28c-2,9.32,18,16.25,25.77,18.69.45-6.1-4.24-9.4-10.14-11.8-4.1-1.67-12.78-6.39-15.63-6.89Zm-19.4-28.91,1.35,2.16,12.15,8.58c-2.53,5.15,0,1.61-6.08,2.7-.17,0-3.77-.1-4.51-.11l14.23.5,2,1.88,5.34,2.7C267,173.78,280,182.27,280.9,189.7c-7.39-3.68-15.94-7.95-22.61-12.44l-1.77-.94c-3,4.85-.69,1.53-3.55,3.66-15.57,3.15-18,0-31.24-1.85l-2.5,1.1c10.54-.27,2.8.05,6.45,2.67,6.09,3.16,18,1.79,25.12,3,1.31,7-.62.38-2.14,5.8-4.63,4.29-1.81.94-2.1,4.51l3.69,3.19-1.82,3.73c6.11-3.94,2.06-2.1,3.69.79l3.4-2.45c11.36,6.61,23.3,11,21,20.85-6.51-5.8-4.12-6.27-14.35-9.2l4.24,3.18-4.23-.39c3.6,7.88,7,14.91,7.9,23.69l2.36,5.81.47-6.94-5.15-19.58c9.86,4.71,7.36,19.25,9.4,29.6l4,8.87,3,1-.12-3.82c-14.85-23,7.15-48.56,0-67.13-2.09-5.44-16.35-15.71-21.9-18.7-8.94-4.81-16.42-11.73-24-17.87C237.14,152.75,237.71,150.87,235.91,151.81Z" transform="translate(-5 -11)"/><path class="cls-2" d="M483.77,48.76c-3.09,6.79-12.82,17.6-17.25,24.77a219.37,219.37,0,0,0-15.1,27.82c-8.41,19.34-18.69,44.11-19.94,65.05l-.51,4.08,2.52-.92c8.2-31.09,9.46-43.87,28.29-72.41C474.87,77.3,489.22,55,503.05,35.88l.58-5.68C497.38,32.35,489.6,43.8,483.77,48.76Z" transform="translate(-5 -11)"/><path class="cls-9" d="M101.05,215.27l-1,2.67-9.37-.39.13,4.27.61,7.6-4.66,2-2.87,8.19-4.7,3.27,3.26,7.52c1.61,6.34,3.69-.3,8.62,10.1,2.41,5.08,5.14,8.13,10.44,3.06,4.58-5.09,2.44-.32,3.5-5.75l-.35-3.38.28-3.74-.18-3.11-1-4.2-6.16-1.88,3.64-1.9-.07-6c1.73-2.92,2.8-5.85,4.48-9.43l.89-2.41,6.23-2.2c-1.83-2.4-1.25-1.81-3.87-3.85-3.46-2.69-1,.42-3.44-3.37C102.35,213.66,103.61,212.79,101.05,215.27Z" transform="translate(-5 -11)"/><path class="cls-10" d="M395.9,171.69c-7.78-13.47,4.39-44-1-66.9-11.37,6.22-7.8,59-.38,69.18l10.41-3.42c-.59-14-2.68-28.75-1.14-42.45l6.26-33.48c0-2.2.07-1.52-.59-2.85C394.94,100.48,400.8,160.4,395.9,171.69Z" transform="translate(-5 -11)"/><path class="cls-11" d="M574.91,29.15l-3-.41c2.65-1.18,1.19-2.77,3,.41Zm-27.39-9.78-1.59,3.12c-2.48,5.52.28.21-2.57,3.69-2,2.47-2.86-.23-1.5,1.68,5-2.52,12.72-10.67,19.91-11.85-4.83,8.64-19,18.82-22.61,26.64l3.63-1.28-.7,3.1,14.66-8.53,13.06-5.47c-4.73,3.79-4.47,5.94-10.58,7.48-9.71,6.3-36.06,35.7-44.31,45.61-15,18-26.07,34-35.52,55.2l1.47.61h1.89c13-25.8,21.86-37.4,40.41-59.52,12-14.28,23.05-27.32,37.18-38.89,4.8-3.94,12.53-6.05,14.56-11.81,3.25-1.5,1.8,1.22,1.56-2.71-9.28-1.33-18.9,8.33-27.29,9.7,4.25-7.86,18.13-15.56,16.69-25.14C558.1,10.9,554.57,17.27,547.52,19.37Z" transform="translate(-5 -11)"/><path class="cls-2" d="M46.78,129.44c1.28,3.07-3.5,3,3.14,2.06,7.4-.38,20.13-4.38,29.33-5.37l68.07-1.71c10.23-.25,27.59.8,36.57-.45l2.94-.72-3.31-1.74c-26.38-2.46-45.58-4.68-72.69-4a216,216,0,0,0-34.41,3.82C68.35,122.92,52.09,128.88,46.78,129.44Z" transform="translate(-5 -11)"/><path class="cls-2" d="M449.11,63.39c-1.62,9.21-12.92,25.35-16.85,36.36-4.55,12.8-12.23,27.3-11.7,41,.09,5.61-.33,10.87-.12,16.78.1,2.75-.11,5.19-.08,7.75.09,6.35-2,4.62,2.23,6.47,2.45-7.36,2.76-25.33,4.4-34.55,4.56-25.63,11.57-33.14,22.42-56.83,3.6-7.85,12.56-18.8,10.75-27.12C454.68,55.25,454.33,60.73,449.11,63.39Z" transform="translate(-5 -11)"/><path class="cls-10" d="M505.4,36.54l-.29,1C494.42,57,477.36,78.16,465,97.62c-8.86,13.95-30.84,54.49-27.91,69.65l3-1.35c7.53-20.39,3.82-15.32,15-41.83,6.9-16.38,12-22.46,20.3-37,16.54-28.9,43.25-44.42,47.32-68.27C512.51,23.53,513.39,32.54,505.4,36.54Z" transform="translate(-5 -11)"/><path class="cls-12" d="M204.09,85.48c0,2.09-.54,1.49,1.65,1.82,5.81-1.66,23.79-10.56,40.2-15.36,31.58-9.23,68.18-10.44,99,1.2,8.14,3.07,33.59,12.77,39.35,17.32L389,94.2l5.51,6,1.17.37,4.6.62.91-3.28c-11-6-13.39-13.47-40.94-22.87-18.71-6.38-29.95-11.57-50.85-13.14C268.78,58.81,239.4,69.32,204.09,85.48Z" transform="translate(-5 -11)"/><path class="cls-13" d="M175.8,301.7,173.66,305c-1.27,6.51,0,9,3.42,14.68L197,317.8c3.07-2.74-3.2-.41,3.78-2.52,1.64-.49,4-.35,5.8-.46l1.66-3.08,3.22-1.4,4-2.09,6.66-4.48-.46.23.26-1.93c-5.23.24-15.25.25-18.52-2.58l-23.8-1.16Z" transform="translate(-5 -11)"/><path class="cls-14" d="M231.14,423.63l.42-11.72c-.9,4.07-.64,4.46-4.15,7-9.79-2-37.22-18.19-45.71-24.65C166,382.32,159.85,374,146.59,361.08c-14-13.65-36.42-79.22-35.76-98-5.47,6.52-2.5,6.95-.91,15.2,3.19,16.51,7,25.46,12.09,40.83,6.62,20.09,8.79,29.86,24.6,45.79,13.47,13.56,19.25,22.79,36.41,34.46C196.13,408.28,215.69,419.62,231.14,423.63Z" transform="translate(-5 -11)"/><path class="cls-4" d="M312.29,165.14c8.86-3.67,11.69.12,18.22,5.7,4.44,3.78,11,9.23,12.91,14.54l-7.95,2.89c-4.05-3.09-8.5-10.53-17.3-17.33l-5.88-5.8Zm15.34-3.4c-.11,2.36,18.1,20,21.55,23.15l7.09-4c-5.39-6.62-18.41-25.1-28.64-19.18Zm-19.52,3.38-1.79,2.45,3,1.57c10,5.25,17.12,12.74,23.74,21.37l-2.41,2-3.48,3c0,2.11-.54,1.52,1.78,1.63,10.9-3.82,11.74,4.8,18.85,7.75-1.06-8.25-8.36-7.52-11.29-12.94,5.61-3.91,6.33-3.42,13.5-2.66l-1.4-2.74c4.53,4,1.83,1,1,2.59,2.94,3.51,5.51,7.71,9.91,9-1-6.52-5.4-6.41-6.66-12.27,14-3.75,12.52,5.86,21.69,8.65-1.28-4.83-5.1-7.45-8.85-11.3l-1.75-1c-9-3-13.32-16.87-22.91-21.55-4.31-.87-4.08,0-6.56-3.57-10-1.23-5,2.67-14.26,3.71C314.7,161.51,312.23,160.51,308.11,165.12Z" transform="translate(-5 -11)"/><path class="cls-10" d="M429.11,173c-1.67-5.21-2.63-8.19.71-12.26,1-20.35,10.87-44.05,19.63-62.41,5.84-12.24,23-42.49,32.16-51.56l0-4.82.18-4.17c-17.93,13.64-44.86,71.49-50.48,95.48C429.52,140.79,429,147,428,154.6,427.35,159.76,422.69,171.31,429.11,173Z" transform="translate(-5 -11)"/><path class="cls-7" d="M221.63,344l16.48,15.29c12.37,11.62,18.44,14.29,19.67,31.69l6.64,1.66c2.44,7.79,15.25,46.11,26.7,43.12-3.45-8.21-25.24-25.65-21.31-52.6-2.85-2.09-6.09-6.1-9.06-8.61-2.76-2.33-6.95-6.07-9.23-8.47l-9.05-9.22c-3.5-1.53-10.21-8.38-14.07-11.68-5.79-5-6.38-10.19-14.94-8.72C215.48,341,217.84,340.06,221.63,344Z" transform="translate(-5 -11)"/><path class="cls-2" d="M214.33,178.36l.71-9.07c-38.81-2.13-46.32-12.78-56.25-11.2C153.88,174.9,202.56,181,214.33,178.36Z" transform="translate(-5 -11)"/><path class="cls-15" d="M27.43,150.53l3.82-.8-1.87,3.18c13.17-5.94,18.07-8.78,33.34-11.47,39.81-7,120.23-2,128.17-6.91-4.71-2.19-77.12-.9-88.16-.65C87.66,134.23,36.63,139.68,27.43,150.53Z" transform="translate(-5 -11)"/><path class="cls-4" d="M288.26,214.41l3.21-3,4.72.8c-4.12-4.14-3.7-1.64-2.53-8.43,5.43-.86,7.73.19,11.28,4.17,4,1.42,1.45,4.17,4.45,1.87,16.18-2.68,7,.73,17.59,2.28-.86-4.47-3.66-5.74-8.52-6.65l-6.1-.28-3.12,1.66c-9.59-6.84-6.27-3.34-14.67-7.16l.57-9.91c6.57.19,9.54,2.47,12.51,7.6l2.94,2.54c4.42-2.66-.06.61,2-3.43-9.53-10.12-9.68-5.94-17.61-10.91,0-10.54,7-10.82,14.72-5.35,9.06,6.39,7.18,6.4,13.1,14l2.6.52-.33-2.93c-3.66-7.24-14.18-18.14-23.39-17.33l-3.16-1.05-.06-.6-3.61,2.85c-3-4.88-3.55-11.78-6.75-17.19a59.27,59.27,0,0,0-9.28-12.38c-2.13.12-1.5-.4-1.82,1.64,6.38,11.22,11.11,12.66,13.75,28.42C293.36,191.57,289.66,200.29,288.26,214.41Z" transform="translate(-5 -11)"/><path class="cls-2" d="M160.08,180.26c13.94,6.41,41,15,56.88,10.73l-2.37-9.08c-15.26,1.06-41.86-.66-52.41-11.93l-4.89.77C156.34,177.3,156.86,175.46,160.08,180.26Z" transform="translate(-5 -11)"/><path class="cls-10" d="M413.14,133.44c-.17,4.51-.63,34,3.29,37.71,1.87-9.54-3.29-22,1.28-30.47-1.09-25.55,28.86-71,28.32-80.24-3.1,1.58-.21-.86-3.69,3.05L434.42,75.1C423.17,96.75,417.39,109.05,413.14,133.44Z" transform="translate(-5 -11)"/><path class="cls-15" d="M28.66,162l2.07.88C41.38,159,48.6,155.73,61,153.67c10.74-1.78,25.88-4,36.61-4.52l31.69-2.38c10.2-.06,52.94.45,58.83-2.27-.8-.58.27-1.27-5.62-2l-39.25.48C120.51,144,39.51,147.92,28.66,162Z" transform="translate(-5 -11)"/><path class="cls-10" d="M411.79,173l-1.72-15.28c2.14-18.3-3.61-15.62,5.71-49.07,2.93-10.51,18.87-31.44,11.25-40.12-14.45,12.39-19.9,55.33-19.88,76.21C407.16,156,405.11,172.13,411.79,173Z" transform="translate(-5 -11)"/><path class="cls-16" d="M105,257.79c-1.06,5.43,1.08.66-3.5,5.75l9.32-2.86c3.06-5.1,26.08-6.34,32.49-6.25,12.42.19,21.86,3.67,32.56,8.92,13.2,6.47,25.84,26,46.91,33l3.73,1.68-2.34,1.91-20.8-.43c3.27,2.83,13.29,2.82,18.52,2.58l-.26,1.93c5.46-1.65,4-1.9,8.55-5.18-.63-3.64-.09-1.53-3.88-4.66-31.16-8.52-43-52.83-104.75-41C115.41,254.33,109.76,257.19,105,257.79Z" transform="translate(-5 -11)"/><path class="cls-17" d="M237.78,362.78l10,9.07,3.16.6.47,3.32,3.23,7.57-.22,9.77,0,2.45,1.88.05c4.25-2.3,1.82-2,7.14-.44l.31,5.49L267.48,412c3.41,2.86,1.79.08,3,5.12l2.63,7c4.06,2.8,3.3,2.27,5.2,7.06l3.29,5.27c.28.09,3.41.94,3.73,1.06l11.54-2.05c-4.16-2.46-3.14-1-5.47-3.69-1.87-2.19.39-.64-2.42-3.71,4.55-1.76,2.39-1.65,3.51-2.48l-2.13-2.87-4.74-3.9-2.82-4.11c-5.16-2.93-11.35-12.59-10.35-18.78,1.17-5.9,1-10.61-1.49-16.16l-1.17,3.32c-3.93,26.95,17.86,44.39,21.31,52.6-11.45,3-24.26-35.33-26.7-43.12l-6.64-1.66c-1.23-17.4-7.3-20.07-19.67-31.69v1.62Z" transform="translate(-5 -11)"/><path class="cls-10" d="M45,165.23,38,169l-5.43,8.6c6,.49,9-1.3,14.73-2.66C50,172,76.49,163.67,83.18,162c14.12-3.52,28.51-6.55,43.25-6.93l-8.27-1.45C106.34,151.54,58.33,161.77,45,165.23Z" transform="translate(-5 -11)"/><path class="cls-5" d="M408,305.41c6.58-1.34,21.51-2.9,28-.89,17.51,1.52,40.13,20,42.12,36.81l-2.12.58c1.7,5.52.3,4.27,5,5.28.82-16.37-2.41-17.12-11.85-29.16l-3.94-3.12c-11.46-6.09-12.11-13.44-30-13.05-26.42.58-24.5-9-34.93-9.82.8,4.91,8.26,5.93,12.51,10.65-21.18.38-37.18-16.38-41.39-16.79C371.36,293.85,398.8,306.55,408,305.41Z" transform="translate(-5 -11)"/><path class="cls-2" d="M217.64,199.72c-3.43-8.42-6.39-1.69-29.29-7.06-5.11-1.2-26.14-8-28.36-8C152.75,202.68,211.18,205.82,217.64,199.72Z" transform="translate(-5 -11)"/><path class="cls-14" d="M475,208.17c-1.42,17.57,1.83,39.1.77,57.85-.55,9.85-3.95,42.33-10.58,48.89l3.94,3.12c14.28-33,12.63-81.91,7.07-116.51-4.46,3.89-.78-1.4-1.87,3.14C474.24,205.19,475,207.49,475,208.17Z" transform="translate(-5 -11)"/><path class="cls-3" d="M429.82,160.71c.25,4.87-1.26,4,1.66,5.69,1.25-20.94,11.53-45.71,19.94-65.05a219.37,219.37,0,0,1,15.1-27.82c4.43-7.17,14.16-18,17.25-24.77l-1.95.85-.21-2.87c-9.12,9.07-26.32,39.32-32.16,51.56C440.69,116.66,430.86,140.36,429.82,160.71Z" transform="translate(-5 -11)"/><path class="cls-18" d="M205.8,319.09l-14.09,2.59c12.71.21,10.38-2.28,17.37,2.31l1.86,1.35.33-3.62c16.41,1.87,32.46-1.67,48.17-.81,1,.38,18.39,23,47.41,23.36l7.52-.06c-.12-2.39-25.93-6.52-30.23-8.32-9.7-4.08-17.32-9.52-22.05-18.57-8.06-1-17.24.74-25.59,1-12,.34-15.72.39-27.61-.84l-.65,3.28Z" transform="translate(-5 -11)"/><path class="cls-6" d="M286.45,382.1l-1.62,3.38,3.25.24c8.92-4.4,13.21-9.13,23.57-12.94,40.18-14.73,46.66-3.67,65.29-10,5.34-1.8,17.23-11.43,20.49-15.91-.08-2,.49-1.52-1.62-1.6-7.4,4.25-12.65,12.77-21.47,15.09-8,2.11-26.14.78-36.24,2C307.64,366,291.3,381.65,286.45,382.1Z" transform="translate(-5 -11)"/><path class="cls-19" d="M486.82,371.27c4.12,2.2,2.88,1.44,3.82,5.07l5.24,6.44,3.29.09-1.36-4.47c-1.44-7.11-8.5-14-11.52-20.78-4-6.26-13.59-15.66-21.69-17.77l-1.32,4c2.77,4.68,8,10.29,12.18,14.2C480.56,362.85,482.31,366.42,486.82,371.27Z" transform="translate(-5 -11)"/><path class="cls-20" d="M288.26,214.41c-.07,5.83-1.8,12-2,18.39-.27,8.22,2.37,11.49,2.55,17.48,2.06,2,1-2.24,2.69,3.87.1-9.16-3.26-13.81,5.63-19l.15-1.35.33-3.22,2.17-.57c.31-7.23.81-8.07-1-15.17l-2.57-2.59-4.72-.8Z" transform="translate(-5 -11)"/><path class="cls-10" d="M162.66,204.25c10.86,3.37,9.29,5.22,24.05,6.3,11.17.81,19.22-1.68,28.86-.29,2.6.73,1.54,1.83,2.73-1.58l-.41-4.08c-40.9,2.63-31.64-1.45-56.78-7.24C161.06,200.34,162,201.84,162.66,204.25Z" transform="translate(-5 -11)"/><path class="cls-21" d="M30.73,162.86c-3.31,2.56-2.78,2.84-6.17,2.31C21,171,19,169.29,16.5,174c6.17-.46,12.46-4.5,18.22-7.22,4.85-1.7,3.52-2.42,8.49-2.36C53.53,155,81.74,155.77,96,151.91l1.64-2.76c-10.73.51-25.87,2.74-36.61,4.52C48.6,155.73,41.38,159,30.73,162.86Z" transform="translate(-5 -11)"/><path class="cls-22" d="M167.47,334.87l-1,.09,5.16,3.67,8.24,9c4.86,1.69,2.07-.61,4,3.58l20.17,18.34,3.23.54,1,2.41,3.89,3.3c4.59,1.64,2-.77,3.93,3.46l12,10.56,2.77,1c-3-6.67-27.44-27.8-34.69-34.55-5.65-5.26-12.74-9.48-18.61-15.57-6.33-6.56-10.92-12.8-20.72-13.08C162.6,333.09,161.92,326.86,167.47,334.87Z" transform="translate(-5 -11)"/><path class="cls-2" d="M312.62,196.48c4.55,3.28,5.14,3.39,10.93,1.23l-.72-3.51c-5.92-7.58-4-7.59-13.1-14C302,174.75,295,175,295,185.57,302.94,190.54,303.09,186.36,312.62,196.48Z" transform="translate(-5 -11)"/><path class="cls-18" d="M96,151.91c-14.24,3.86-42.45,3.05-52.77,12.48l1.8.84c13.32-3.46,61.33-13.69,73.15-11.61l32.92-3.1C132.4,149.79,114.54,149.56,96,151.91Z" transform="translate(-5 -11)"/><path class="cls-23" d="M313.82,429.31l-11.38,2.07,14.66-.14c10.24.92,37.41-8.11,47-12.92,9.24-4.64,33.38-13,35.9-22.12-5,.43-5.61,2.61-10.09,5.72C374.41,412.69,333.38,427.62,313.82,429.31Z" transform="translate(-5 -11)"/><path class="cls-24" d="M464,140.88c-3,7.67-10.9,17.33-8.91,22.89,3.4-9.07,19.79-36.52,26-44.57,5.08-6.56,10-14,15.16-20.17,4.78-5.75,13.82-14.52,17.18-20.64l-2.93,1.23,1.21-2.33c-6,2.44-9.61,10.73-13.9,15.66-4.81,5.52-7.86,9.3-12.31,15.18C479.08,116.59,467.82,131.43,464,140.88Z" transform="translate(-5 -11)"/><path class="cls-11" d="M404.05,338.77c-3.2,3.73-1.87,1.32.42,2.46,9.11-4.57,21.4-20.36,34.37-15,2.52,2.61,6.28,16.28,7.31,20.47l5.93,5.36c8.58,1.54,5.65,4.09,17.27,3.48-2-4-1.28-3.47-4.94-5.53l-.28,2.68c-26.48-9.14-12.68-24.64-24.64-29.7C430,319,406.3,333.17,404.05,338.77Z" transform="translate(-5 -11)"/><path class="cls-10" d="M377.83,146.87l7.11,21.88c2,3.07,1.5,5.21,1.22,8.75l3.55-2.09.51-.48c-.17-6.43-3.82-17.06-4.68-25.36-1.05-10.08-1.5-16.53-4.21-26.37l-3.61,1.16Z" transform="translate(-5 -11)"/><path class="cls-2" d="M330.51,170.84c-6.53-5.58-9.36-9.37-18.22-5.7l5.88,5.8c8.8,6.8,13.25,14.24,17.3,17.33l7.95-2.89C341.54,180.07,335,174.62,330.51,170.84Z" transform="translate(-5 -11)"/><path class="cls-25" d="M97.62,149.15,96,151.91c18.56-2.35,36.42-2.12,55.1-1.39l-32.92,3.1,8.27,1.45,54.45-.87c-5.72-3.79-17.18-1.76-24.5-.58-.26-.32-.57-.75-.75-1l-.73-.91c-4.72-6-12.16-1.75-21.15-3.21-4.74-.77-1.55.09-4.44-1.75Z" transform="translate(-5 -11)"/><path class="cls-26" d="M261.27,415.71c.36,1.17,2.62,7.44,2.7,8,.82,6.24-4.87-1.27,4.48,20.27l-1.22-2.26,3.37-2.19-2.85-3.8,1.88-2.19,0-4.13c-.1-2.26.52-.34-.51-3.32l-5.42-11.26c-3.66-2.9-2.92-2.85-4.59-7.5l-2.69-6.06c-4.32-2.45-4.86-2.8-6.75-7a95.52,95.52,0,0,0-19.91-17.66l-3.22-.37c1,2,16.4,15.71,19.49,18.52a40.91,40.91,0,0,1,8.21,10.36c2,3.83.36,2.2,3.08,5.75A52.31,52.31,0,0,0,261.27,415.71Z" transform="translate(-5 -11)"/><path class="cls-2" d="M349.18,184.89l7.09-4c-5.39-6.62-18.41-25.1-28.64-19.18C327.52,164.1,345.73,181.78,349.18,184.89Z" transform="translate(-5 -11)"/><path class="cls-24" d="M14.22,165.33l-4,1.61-.91-3.05-.53,4.31L5,166.92c2.74,4.2,5.75,1.76,11,1.21-3.54,4.84-5.55,3.9-5.17,9.66,7.75.55,9.22-.76,16-3.32l4.8-2.42-2.32,3.19-.07,5.24c6.61.93,16.46-1.17,20.69-5.1l-2.63-.44c-5.72,1.36-8.69,3.15-14.73,2.66L38,169l-4.66,1.23,1.36-3.48c-5.76,2.72-12,6.76-18.22,7.22,2.46-4.68,4.45-2.94,8.06-8.8l-3.39,1.06L23,163.86Z" transform="translate(-5 -11)"/><path class="cls-2" d="M341,160.74c9.59,4.68,13.9,18.52,22.91,21.55l4-3c-5.59-8-14.25-23.65-26-22.49Z" transform="translate(-5 -11)"/><path class="cls-20" d="M499.66,392.65l26.77,34.12,3.14,1.33-.16-3.78-2.69-5.59-1.87-4.21c-3.56-.91-2.8-2-3.49-5.1l.19.75c-5.41-2.68-8.09-6.51-10.71-12.09l-5.32-7.92-5.14-1.28Z" transform="translate(-5 -11)"/><path class="cls-13" d="M191.93,326.47l4.37,1.24c4.56,1.85,2.84.75,5.39,4l.81,0,5.16,3.86c4.78,1.4,3.79-.29,10.26-1l-.21-2.13c-2.11-2.15-.69-.45-1.27-2.92l-2.53,0-1-2.68-1.92-1.5L209.08,324c-7-4.59-4.66-2.1-17.37-2.31l-8,.51a6.06,6.06,0,0,0,.88.74c.25.15.64.48,1,.65,5.91,3.13-4.61-2.11,2.24.92C191.44,326.1,188.36,323.71,191.93,326.47Z" transform="translate(-5 -11)"/><path class="cls-2" d="M372,181.34l4.72.69,1.24-4.05c-2.25-9.62-10.68-23.62-22-24.33l-1.21,3.65C359,163.23,372.34,173.66,372,181.34Z" transform="translate(-5 -11)"/><path class="cls-13" d="M139.89,194.37c-4.37,3.13-4.33,1.48-8.78,2.49-2.29,3.89-.91,2.3-5.06,3.08l-7.42,1.45-1.18.22.28,1.46-.19,4,2.8,1.64,3.85.58,2.45-2.29.84-2.63,6.83,1.14,2.54-.44,2.3-3.12c4.51-.26,1.57-.92,3.48,1.78l.66-.26,1.62.28c-.15-6.71-.34-1.11,1.68-3.59l2.27-1.71-.5-3.08-.55-.49-3.11-2.06-4,1.7Z" transform="translate(-5 -11)"/><path class="cls-27" d="M221.73,178.13c13.24,1.8,15.67,5,31.24,1.85.29-4.07,1.5-1.5-1.21-3.91-14.29.33-24.27-9.71-33.59-4C218.51,176.44,218.74,174.17,221.73,178.13Z" transform="translate(-5 -11)"/><path class="cls-2" d="M248.66,190.73c1.52-5.42,3.45,1.22,2.14-5.8-7.11-1.24-19,.13-25.12-3l-6.28.19C215.94,193.51,241.41,193,248.66,190.73Z" transform="translate(-5 -11)"/><path class="cls-24" d="M229,212.17c3.2,2.7-3.58,1.31,4.25,2.53-.06,1.59,2.31.43-2.52,2l1.1,2.46-3.43,1.43,5.81,4.42c-.48-7.32-1.22-15.44,7.52-17.29,10.88,5.24,8.62,22,13.68,28.07,4.62-6.92-3.92-18,5.4-20.34l-5.47-2.85-.87,5.62c-6.49-7.52-2.78-4.51-.43-6.09l-5-4.35-3.42-.21-.8-3.55-2.86,2.4-11.75-3.52,5.92,2.9C232.21,211.11,234.07,211.46,229,212.17Z" transform="translate(-5 -11)"/><path class="cls-5" d="M298.76,214.81c1.81,7.1,1.31,7.94,1,15.17l2.44-9.43c12.17,7.08,15.31,26.16,19.49,30.06,7.36-10.62-15.88-26.45-16-33.75,12.77-3.18,8.44,4.8,15.23,5,.08-5.58-4.52-8.1-10.09-8.39l-1.42-3.67c-3,2.3-.43-.45-4.45-1.87C306.78,213.83,304.21,216.89,298.76,214.81Z" transform="translate(-5 -11)"/><path class="cls-28" d="M248.66,410.06l4.93,11.45c3.53,1.84,2.27,2.24,2.71,6.8l5.34,13.16c6.88,5.55,1.27,9.06,8.95,11.9l.1-5L268.45,444c-9.35-21.54-3.66-14-4.48-20.27-.08-.56-2.34-6.83-2.7-8l.38,6.58a8.92,8.92,0,0,1-1.48-.36c-5.83-2.44-5.58-7.62-11.26-14.46l-1.89-1.7Z" transform="translate(-5 -11)"/><path class="cls-2" d="M301.71,174.46c9.21-.81,19.73,10.09,23.39,17.33l1.87,1.66,3.67-.93,2.41-2c-6.62-8.63-13.75-16.12-23.74-21.37l-6.51.19Z" transform="translate(-5 -11)"/><path class="cls-2" d="M166.75,223.53c1.8,7.79,19.55,13.22,27,8.84l.92-6c-5.83-.45-9.4.34-14.07-2.57l-12.14-3-2.53-1Z" transform="translate(-5 -11)"/><path class="cls-2" d="M165.44,213.75l.75.57c6.19,3.64,10.47,5.5,17.9,6.63l13.49,1-1-7.87c-13.79,1.21-21.38-2.16-33.57-5.13Z" transform="translate(-5 -11)"/><path class="cls-29" d="M410.07,157.73,411.79,173l7.09.74,3.71-2c-4.23-1.85-2.14-.12-2.23-6.47,0-2.56.18-5,.08-7.75-.21-5.91.21-11.17.12-16.78-1.81,2.85-1.11,0-1.56,5.21-.19,2.2,0,5.42,0,7.75,0,4.45-.62,9.81-.16,13.79-.87-10.95-1.37-15.65-1.09-26.79-4.57,8.45.59,20.93-1.28,30.47-3.92-3.7-3.46-33.2-3.29-37.71-2.27,4.47-1.95,7.2-1.81,12.59.05,1.76.37,4.93.3,6.46C411.33,159.3,412.61,154.3,410.07,157.73Z" transform="translate(-5 -11)"/><path class="cls-10" d="M265.36,196.68c-6.88-3.33-7.42-8.26-14.35-4.68,2.37,8.18,10.41,4.94,27.9,20.64l1.31-8.57C275.16,199.84,271,199.42,265.36,196.68Z" transform="translate(-5 -11)"/><path class="cls-30" d="M334.46,157.17c2.48,3.54,2.25,2.7,6.56,3.57l1-4c11.71-1.16,20.37,14.48,26,22.49l-4,3,1.75,1,4.7-.77,1.59-1.16c.37-7.68-13-18.11-17.24-24l1.21-3.65-1.17-1.43-3.24,2.59c-6.62-1.27-8.85-2.9-13.46,2.69Z" transform="translate(-5 -11)"/><path class="cls-2" d="M253.57,172.32l1.46-4.8-2-1.88-14.23-.5c-8.73-1.44-8.39-6.64-14.51-2.54C227.25,170.31,245.26,173.73,253.57,172.32Z" transform="translate(-5 -11)"/><path class="cls-31" d="M270.94,187.61c-4.1-1.67-12.78-6.39-15.63-6.89-2,9.32,18,16.25,25.77,18.69C281.53,193.31,276.84,190,270.94,187.61Z" transform="translate(-5 -11)"/><path class="cls-10" d="M366.54,153.43c3.76,7.2,13.38,11.41,12.66,20.79l2,1.57,2.06-.77c-1.69-5.85-2.66-11.52-5.26-17.21-2.1-4.58-6.52-10.52-7.74-14.68-5.13,1.63-2.64-2.15-3.95,4.09C366.28,147.4,366.52,152.77,366.54,153.43Z" transform="translate(-5 -11)"/><path class="cls-31" d="M252.12,203l-.7,5.07,10.76,4.13c10.23,2.93,7.84,3.4,14.35,9.2,2.29-9.85-9.65-14.24-21-20.85Z" transform="translate(-5 -11)"/><path class="cls-32" d="M256.38,401.27l2.69,6.06c3.45,3.05,3.1,3.14,4.59,7.5l5.42,11.26,4.17,1-.12-3-2.63-7c-3-2.8-1.63-.38-3-5.12l-3.81-11.35-2.93-4.74-4.52-.31C254.29,400.93,254.61,396,256.38,401.27Z" transform="translate(-5 -11)"/><path class="cls-33" d="M112.13,201.69l-.65,2.41,6.25-1-.28-1.46c-4.37-7.9,12.86-38.66,18.51-44.41l-16.5,1.62,10.08-.21c-1.69,5.9-7.91,13.93-10.54,20.74A131.23,131.23,0,0,0,112.13,201.69Z" transform="translate(-5 -11)"/><polygon class="cls-27" points="233.46 400.51 231.46 405.28 231.42 409.29 247.88 413.69 248.59 410.51 243.66 399.06 238.19 398.57 233.46 400.51"/><path class="cls-31" d="M247.61,200.9l.82,1.26,1.82-3.73-3.69-3.19-27-2.21C221.14,201.79,240.2,202.32,247.61,200.9Z" transform="translate(-5 -11)"/><path class="cls-2" d="M312.36,205.18l1-4.31-5.73-3.5c-3-5.13-5.94-7.41-12.51-7.6l-.57,9.91c8.4,3.82,5.08.32,14.67,7.16Z" transform="translate(-5 -11)"/><path class="cls-10" d="M258.29,177.26c6.67,4.49,15.22,8.76,22.61,12.44-.86-7.43-13.89-15.92-20.53-19.48C256.85,172.45,256.47,170.63,258.29,177.26Z" transform="translate(-5 -11)"/><path class="cls-34" d="M163.53,98.53c-5.21-2.36-6.45-2.14-12.41-2.36,5.55-.69,2.52.35,5.36-1.69-11-.59-32-1-41.38,3.89Z" transform="translate(-5 -11)"/><path class="cls-35" d="M197.26,351.13l1.78-.45c-1-2.42,1.35-2.24-1.61-2l-3.3-3.14c-3.94-2.41-5.58-3.7-7.83-7.55l-3.39-2.55L177.54,331l-2.42-4.68,16.81.13c-3.57-2.76-.49-.37-4.11-2-6.85-3,3.67,2.21-2.24-.92-.31-.17-.7-.5-1-.65a6.06,6.06,0,0,1-.88-.74l-10.95,1.93c-2.57,6.43,5.36,10.74,9.76,14.39C187.9,342.94,192.48,346.19,197.26,351.13Z" transform="translate(-5 -11)"/><path class="cls-36" d="M424,377.4c1.18,2.46-2.49,3.7,3.1.88,4.74-1.1,18.92-18.89,20.72-25.33l.32-2.86-3,.2C442.35,358.5,430.53,371.24,424,377.4Z" transform="translate(-5 -11)"/><path class="cls-37" d="M207.66,335.57c1.49,2.69.54,1.86,4.25,3.76l4.26,4.18,2.78.86,2.68-.41c-3.79-3.9-6.15-3-8.17-7.54,8.56-1.47,9.15,3.75,14.94,8.72,3.86,3.3,10.57,10.15,14.07,11.68-3.37-3.57-1.44-1.47-2.64-4.26-1.93-5-7.83-8.73-12.36-12.32l-3.83-2.13-2.75-3.56-.84-2-2.34-.09.21,2.13C211.45,335.28,212.44,337,207.66,335.57Z" transform="translate(-5 -11)"/><path class="cls-38" d="M370.27,143.13c1.22,4.16,5.64,10.1,7.74,14.68,2.6,5.69,3.57,11.36,5.26,17.21,3.56-1.41,2.25-2.19,1.67-6.27l-7.11-21.88-6.2-4.58-.46-2.41-4.57-.68C368.77,142.78,364.72,139.56,370.27,143.13Z" transform="translate(-5 -11)"/><path class="cls-6" d="M442.85,208l1,1.65c3.72-2.77,16.8-24.1,19.24-29.33l1.85-4.23-.57-1.46C460.64,177.2,445.1,202.59,442.85,208Z" transform="translate(-5 -11)"/><path class="cls-39" d="M484,147.29c-4.87,2.08-5.44,7-10.41,10.16-1,6-8.38,10.85-9.25,17.21l.57,1.46,1,.09c3.42-5.37,6.68-10.28,10.41-15.49,3.17-4.43,10-11.35,11.93-14.92.41-3.12.8-1.8-.83-3.85Z" transform="translate(-5 -11)"/><path class="cls-6" d="M195.45,225.89l.41,5.91,2.61,1-.09-6.15c11.4-1.87,22.82,8.71,27.07,17.43l3,.92-.76-3c-5.79-15.87-19.95-14.83-25.22-20.19C201.35,225.32,202.47,226.91,195.45,225.89Z" transform="translate(-5 -11)"/><path class="cls-40" d="M486.85,42.26c-1.71,3.68,1.09,1.73-3.16,1.06-4.89-.77-1.69-.73-2.1-1.4l0,4.82.21,2.87,1.95-.85c5.83-5,13.61-16.41,19.86-18.56l-.58,5.68c1.57,3.1.35,2.11,2.06,1.68l.29-1,2.44-4-2.44-5.28C501.19,24.19,488.3,39.37,486.85,42.26Z" transform="translate(-5 -11)"/><path class="cls-41" d="M5,166.92l3.74,1.28.53-4.31,4.27-1.28c1.13-3.28,8.18-6.41,11.12-9.32l-3.85-.36,1.54-1.8c0-5.53-.67-1.69,2.4-3.1L35,140.33l-2-.9a53.05,53.05,0,0,0-9.5,5.75c-5.51,4-3.39,3.29-5.16,9.18C14,156.25,6.33,162.51,5,166.92Z" transform="translate(-5 -11)"/><path class="cls-17" d="M460.43,346l4,4c3.66,2.06,2.9,1.56,4.94,5.53,1.74,2.9,3.19,5.22,6.32,6.15l2.6,3.91,2.81,3.71,2.68,3.88c1,.66,2,.82,3.25,1.48l-.19-3.4c-4.51-4.85-6.26-8.42-11.36-13.21-4.18-3.91-9.41-9.52-12.18-14.2l1.32-4-3.7.89Z" transform="translate(-5 -11)"/><path class="cls-42" d="M377.93,178,376.69,182l-4.72-.69-1.59,1.16,5.22,3.56c1.24-4,0-2.42,1.68-1.75l-.54,2.26c1.68,3.26,2.67,6.2,5.58,7.85,1.71-8.74-3.27-4.44-2.49-12.53,4.57-2.18,2.46-1.49,7.5-.33l.19-2.24,3.66,1.88-.16-2.94,4.92-.4c-3.08-2.24,1.41-1.09-5.72-2.93l-.51.48-2,3c-4.86-1-3.66-.29-6.51-2.65l-2-1.57C380.1,179.93,379.65,176.51,377.93,178Z" transform="translate(-5 -11)"/><path class="cls-24" d="M459.93,329.37l2.38,1.17c1.23,5.45.94,5.52-4.12,5.91-1.66-4.19-1.09-2.85-.1-7.17l-1.37-1.55,3.21,1.64Zm.5,16.65.47-5.28c-.15-4,1.25-3.48,4-3.21l6.35,2c-2.71-3.43.3-1-4.62-3.49-.42-8.51-1.3-10.56-11-9.58l-.89.92-.74,9.69,5.07,3.21C459.27,345.21,458.88,342.61,460.43,346Z" transform="translate(-5 -11)"/><path class="cls-43" d="M355.94,153.65c11.31.71,19.74,14.71,22,24.33,1.72-1.47,2.17,2,1.27-3.76.72-9.38-8.9-13.59-12.66-20.79a10.83,10.83,0,0,0-2.79-1.33c-4.13-1.81-.78,2.39-2.13-.88-.19-.46-.74-.28-1.08-.47l-2.46-.14-3.31,1.61Z" transform="translate(-5 -11)"/><path class="cls-2" d="M296.19,212.22l2.57,2.59c5.45,2.08,8-1,6.18-6.85-3.55-4-5.85-5-11.28-4.17C292.49,210.58,292.07,208.08,296.19,212.22Z" transform="translate(-5 -11)"/><path class="cls-44" d="M400,396.2c6.5-1,23.83-12.47,27.12-17.92-5.59,2.82-1.92,1.58-3.1-.88C418.73,381.5,401.79,391,400,396.2Z" transform="translate(-5 -11)"/><path class="cls-31" d="M249.41,162.55,237.26,154c-5.57-1-5.35-1.31-9.57,1.08C234,162.22,239,163.67,249.41,162.55Z" transform="translate(-5 -11)"/><path class="cls-45" d="M499.66,392.65l.72-3.77,5.14,1.28-1.47-8,.27-2c-1.87-1.16-1.56-.05-2.53-2.42l-2.56.09c.86,3.8,2.36,6.12.8,8.76-6.15-1.68-2.6-.15-4.15-3.75l-5.24-6.44-4.35-.25Z" transform="translate(-5 -11)"/><path class="cls-46" d="M295.24,365.4c1,1.14-1.61,1.26,3.31.92,4.85-1.26,9.26-3.45,14.64-4.84s12.59-1.52,16.93-4c-3-2.39.29-2.14-5.75-2.08l-13.51,3.63A128.6,128.6,0,0,0,295.24,365.4Z" transform="translate(-5 -11)"/><path class="cls-15" d="M235.14,134.86l-.34,3.92,1.14,5.17,0,7.86c1.8-.94,1.23.94,2.28-1.94l-.24-4.72,11.48,2.94c-2.36-5.84,1.91-.28-4.81-5.48-4.23-.85-7.3-2.92-7.86-6.55,5.72,1.58,3.65,2.8,8-.15l-7.19-3Z" transform="translate(-5 -11)"/><path class="cls-43" d="M101.17,233.6c9.1-.47,25.82.48,32.53-5.89-4.47-2.31-7.69,1.37-14.28,1.11A29.89,29.89,0,0,1,105,230.49l.61-6.32C104,227.75,102.9,230.68,101.17,233.6Z" transform="translate(-5 -11)"/><path class="cls-15" d="M101.24,239.58l-3.64,1.9,6.16,1.88,1,4.2,1.13-4,7.46-1c6.78-.21,17.65-3.76,19.36-9.81-5.12.76-8.14,4-14.31,5.77a59.51,59.51,0,0,1-17.06,2.69Z" transform="translate(-5 -11)"/><path class="cls-47" d="M107.65,250.68h-2.71l-.28,3.74c8.29-.71,22.47-4.9,28.3-10.24l.53-2.17-2.18.51C122.69,245,118.51,249.17,107.65,250.68Z" transform="translate(-5 -11)"/><path class="cls-48" d="M233.37,396.25c2.91,8.93.45,4.65-1,12.82l-.77,6.35,3.78,1,1.1-.13,2-4.77.22-2.82-3.61,2.15,3.47-12.56-7.62-7.39-2.77-1-.11.54Z" transform="translate(-5 -11)"/><path class="cls-49" d="M270.69,448.33l-.1,5-1.81,2.4-3.11-1.65,2.13,9.9,3.17-1.29-.53-6.41,2.61-3.47,2.16,2.33c.91,4.47.48,2.21,2.71,3,1.18-4.1,3.23-13.22-1.07-15.9l.5,7.8C272.15,450.34,275.46,452,270.69,448.33Z" transform="translate(-5 -11)"/><path class="cls-50" d="M105.46,212.34c2.43,3.79,0,.68,3.44,3.37,2.62,2,2,1.45,3.87,3.85l-6.23,2.2-.89,2.41c6-2.2,15.15-.55,22-.6l1.95.85,1-2.68L114.83,223l-.81-4.07c5.07-3.36,2.53.72,5.33-4.83l-7.42,1.76c-3.15-4.82-2.19-5.59-2.1-11.44l1.65-.33.65-2.41-3.91.82.55,9.2Z" transform="translate(-5 -11)"/><path class="cls-51" d="M463.1,180.35c7.71,1.66,6.66,22.83,11.94,27.82-.05-.68-.8-3-.67-3.51,1.09-4.54-2.59.75,1.87-3.14-1.59-4.54-2.84-9-4.53-13.35-2-5.15-4.71-7.87-5.76-12l-1-.09Z" transform="translate(-5 -11)"/><path class="cls-2" d="M229,212.17c5.07-.71,3.21-1.06,7.1-6.42l-5.92-2.9-8.15-.38C221.74,209.05,224.11,208.55,229,212.17Z" transform="translate(-5 -11)"/><path class="cls-52" d="M450.18,158c-3.23,3.79-2.49-.46-1.89,5.85,3.85,1.4,1,.84,6.76,0-2-5.56,5.93-15.22,8.91-22.89l-1.12-2.26-12.4,22Z" transform="translate(-5 -11)"/><path class="cls-53" d="M371.63,142.29l6.2,4.58-.11-22.51,3.61-1.16a17.67,17.67,0,0,0-3-3.62c-3.2,3.14-3.37,5.22-3.79,9.81-.23,2.61,0,4.17-.1,6.5C374.13,144.29,375.34,140,371.63,142.29Z" transform="translate(-5 -11)"/><path class="cls-54" d="M120.34,208.69l-2.21,1,.57,2.94.65,1.45c-2.8,5.55-.26,1.47-5.33,4.83,6.58-.46,6.86-.47,13.11,1.32l.92-3c-8.15-1-7.44.93-7.73-6.52,6.83,1.15,9.25,6,15,3-4.75-4.23-5.16-.63-8.63-6.72l-2.45,2.29Z" transform="translate(-5 -11)"/><path class="cls-55" d="M272.92,237.5c3.6,2.18,2.35,2.48,1.34,7l2.91,3c-2-10.35.46-24.89-9.4-29.6Z" transform="translate(-5 -11)"/><path class="cls-56" d="M486.29,357.62l3.67.28c-1.71-4.17-4.72-8.77-8.94-10.71-4.73-1-3.33.24-5-5.28l-4.78-2.39-6.35-2-.26,2.32C472.7,342,482.25,351.36,486.29,357.62Z" transform="translate(-5 -11)"/><path class="cls-57" d="M296.89,435.5l-11.54,2.05V440l3.6.23-.53,5.77.38,3.81,2.82-1.34,1.12-7.49,1.45-3.49c5,1.12,3.12,1.3,6.51,1.9l-.18-5.05-.33-1.93c0,.08-1.63,2.22-1.92,2.53-.11.1-.61.54-.69.36S297.12,435.43,296.89,435.5Z" transform="translate(-5 -11)"/><path class="cls-58" d="M194.66,236.91l4.08-.55c2.77,2.91,5.84,4.73,8.74,7.24,4.73,4.09,3.46,6.18,6.16,10.92,5.68-7.76-9.72-17.9-15-22.34l.7,2.29Z" transform="translate(-5 -11)"/><path class="cls-6" d="M517.75,70.36l2.5-1.32-.28.75,16.66-21.14L536.06,47C529.65,50.16,520.41,63.8,517.75,70.36Z" transform="translate(-5 -11)"/><path class="cls-59" d="M497.81,378.4l1.42-.63,2.56-.09-.92-2.4-.57-1.68-3.22-4.75-7.12-11-3.67-.28C489.31,364.43,496.37,371.29,497.81,378.4Z" transform="translate(-5 -11)"/><path class="cls-43" d="M318.08,202.5c12.86-2,11.05,6.47,18.31,9.8-1.15-9.68-4.7-7.69-8.59-13.17-3.06.27-6,.67-9,1.12-4,.6-2.66-1.38-3.66,3.23Z" transform="translate(-5 -11)"/><path class="cls-60" d="M236.55,427.61l.27-3.92,19.48,4.62c-.44-4.56.82-5-2.71-6.8l-.71,3.18-16.46-4.4,0-4-1.1.13Z" transform="translate(-5 -11)"/><path class="cls-59" d="M162,314.51l-5.09,3.71-4.31,3.84.33,5.23,2.92.14c-.35-5.62,4.2-9.81,9-11.73l8.16,3.54-2.23-3.33L169.1,313l-5.67-.32Z" transform="translate(-5 -11)"/><path class="cls-22" d="M269.81,383.12,271,379.8l-.75-.36-3.15-3.28-3.4-4.17-.22-.17c-5-1.55-2.12.64-4.19-3.36l-4.22-2.1-3.53-.32c2.28,2.4,6.47,6.14,9.23,8.47C263.72,377,267,381,269.81,383.12Z" transform="translate(-5 -11)"/><path class="cls-61" d="M408,305.41l5.84,2a30,30,0,0,0,7.92.29L436,304.52C429.47,302.51,414.54,304.07,408,305.41Z" transform="translate(-5 -11)"/><path class="cls-13" d="M119.35,214.11l-.65-1.45c-2-3-1-2.66-3.22-4.8-3.4-3.22-1.52.36-4-3.76l-1.65.33c-.09,5.85-1,6.62,2.1,11.44Z" transform="translate(-5 -11)"/><path class="cls-22" d="M201.65,355.48l24.85,20.75-.41-3-23-19.64C203.27,356.33,204.17,356.12,201.65,355.48Z" transform="translate(-5 -11)"/><path class="cls-62" d="M247.77,206l1.24,1.74,5,4.35,1.3.47,5.47,2.85,1.38-.46,4.23.39-4.24-3.18L251.42,208l.7-5.07c-1.63-2.89,2.42-4.73-3.69-.79l-.82-1.26Z" transform="translate(-5 -11)"/><polygon class="cls-61" points="226.56 400.91 226.14 412.63 229.11 419.96 231.52 420.56 231.55 416.61 230.36 405.41 226.58 404.42 227.35 398.07 226.56 400.91"/><path class="cls-63" d="M114,218.94l.81,4.07,15.81-1.27-1,2.68,3.43-1.46c-2-4.06-1.84-3.72-5-5.75l-.92,3C120.88,218.47,120.6,218.48,114,218.94Z" transform="translate(-5 -11)"/><path class="cls-64" d="M119.42,228.82c-11.67-.26-6.82,3-13.18-.77,2.82-5.59,1.09-3.51,10-2.54,5.56.61,7.83,1.07,11.47-1.94-6.89.05-16-1.6-22,.6l-.61,6.32A29.89,29.89,0,0,0,119.42,228.82Z" transform="translate(-5 -11)"/><path class="cls-65" d="M232.68,357.93l5.42,2.94v-1.62L221.63,344l-2.68.41C221.73,349.74,228.21,353.18,232.68,357.93Z" transform="translate(-5 -11)"/><path class="cls-58" d="M156.87,184.05c2.34-5,.67-1.55,3.21-3.79-3.22-4.8-3.74-3-2.79-9.51l4.89-.77-6.89-5.79C157,174.15,149.85,169.06,156.87,184.05Z" transform="translate(-5 -11)"/><path class="cls-16" d="M505.52,390.16l5.32,7.92,4.92,2.89c-1.6-4.83-8.2-16.05-11.71-18.85Z" transform="translate(-5 -11)"/><path class="cls-66" d="M292,278.78c7.25-2.69,4.94-13.4,1.13-18.64-2.08,4.81.21,5,.07,9.66C293,274.79,290.33,274.7,292,278.78Z" transform="translate(-5 -11)"/><path class="cls-17" d="M270.6,439.53l-3.37,2.19,1.22,2.26,2.24,4.35c4.77,3.66,1.46,2,6.66,1.76l-.5-7.8-.83-2-3.41-.57,4,8.68C271.17,446.72,271.92,445.18,270.6,439.53Z" transform="translate(-5 -11)"/><path class="cls-67" d="M184.09,221c5.55,3.68,12.18,1.62,18.42.88l-1.58-3,2.3-4.8-6.61.06,1,7.87Z" transform="translate(-5 -11)"/><path class="cls-68" d="M147.33,204.84l5.12,2.47.13,5.06,2.81-.8c.75-5.4,1.19-2.21.75-6.41-3.91-3.08-4.65-3.82-9.55-5Z" transform="translate(-5 -11)"/><path class="cls-67" d="M313.18,350.2l-.68-3.61-5.74,1c-5.7.54-6.33,0-10.62,3.9C300,353.13,308.09,350.42,313.18,350.2Z" transform="translate(-5 -11)"/><path class="cls-46" d="M303.4,354.6l1.45,2.72,4.27-1.29c4.6-.16,10.21-.6,13.46-3.33C318.15,349.61,309.08,354,303.4,354.6Z" transform="translate(-5 -11)"/><path class="cls-69" d="M296.89,435.5c.23-.07.62-.37.69-.21s.58-.26.69-.36c.29-.31,1.88-2.45,1.92-2.53l-6.2-5.52-1.48-1.26c-1.12.83,1,.72-3.51,2.48,2.81,3.07.55,1.52,2.42,3.71C293.75,434.54,292.73,433,296.89,435.5Z" transform="translate(-5 -11)"/><path class="cls-70" d="M323.55,197.71c-5.79,2.16-6.38,2-10.93-1.23-2.09,4,2.39.77-2,3.43l-2.94-2.54,5.73,3.5-1,4.31,6.1.28-.38-3-2.91,1c1-4.61-.35-2.63,3.66-3.23,3-.45,5.91-.85,9-1.12l1.14-1.93c-2.32-.11-1.78.48-1.78-1.63Z" transform="translate(-5 -11)"/><path class="cls-56" d="M282.82,414.74C280.81,409,276,400,272.47,396,271.47,402.15,277.66,411.81,282.82,414.74Z" transform="translate(-5 -11)"/><path class="cls-51" d="M300.19,432.4l.33,1.93,1.71.2a6.39,6.39,0,0,1,1-.56c7.22-2.61,9.06.42,13.9-2.73l-14.66.14,11.38-2.07c-9.94.5-11.35,1.6-19.83-2.43Z" transform="translate(-5 -11)"/><path class="cls-56" d="M242.47,356.82l9.05,9.22,3.53.32c-2.26-4.55-10.5-11.84-15.22-13.8C241,355.35,239.1,353.25,242.47,356.82Z" transform="translate(-5 -11)"/><path class="cls-71" d="M288.79,250.28c.86,5.41-.49,3.3,3.28,6.47,4.83-8.47-3.86-8.76,5-21.63-8.89,5.22-5.53,9.87-5.63,19C289.84,248,290.85,252.28,288.79,250.28Z" transform="translate(-5 -11)"/><polygon class="cls-72" points="178.89 112.97 194.85 115.15 196.09 117.6 198.08 116.21 196.52 112.5 178.52 110.51 181.83 112.25 178.89 112.97"/><path class="cls-66" d="M264.32,136.24,277,147.73c.32-2-.31-1.52,1.82-1.64-2.47-4.58-7.78-7.92-12.25-10.9Z" transform="translate(-5 -11)"/><path class="cls-73" d="M246.1,304.47,243.65,302l-.8,2.86c3.49,5.54,8.31,9.6,14.69,5.93C251.5,307.7,251.57,310.1,246.1,304.47Z" transform="translate(-5 -11)"/><path class="cls-58" d="M360.54,150.75c.34.19.89,0,1.08.47,1.35,3.27-2-.93,2.13.88a10.83,10.83,0,0,1,2.79,1.33c0-.66-.26-6-.22-6.21,1.31-6.24-1.18-2.46,3.95-4.09-5.55-3.57-1.5-.35-3.67-3.93-3.78,2.47-3.37,6.34-3.58,10.66Z" transform="translate(-5 -11)"/><path class="cls-74" d="M478.14,148.64l-3.71,2.06-.8,6.75c5-3.14,5.54-8.08,10.41-10.16-1.12-3,2.77-3.17-3.27-1.87Z" transform="translate(-5 -11)"/><path class="cls-24" d="M133.56,208.14c3.72,4.85,3.89,2.32,8.88,5.52l2.62.85-1.6-5.18-6.67-1.17.06-3.11-2.54.44Z" transform="translate(-5 -11)"/><path class="cls-75" d="M215.57,210.26c4.27,3,11.23,5.54,12.83,10.28l3.43-1.43-1.1-2.46c-6.23-3.48-7.13-3.24-12.43-8C217.11,212.09,218.17,211,215.57,210.26Z" transform="translate(-5 -11)"/><path class="cls-76" d="M448.18,315.48c-.06,6.24-.3,9.92,6.5,11.89l.89-.92c-2.62-3.6-4.25-4.74-4.47-9.81l-.37-2Z" transform="translate(-5 -11)"/><path class="cls-37" d="M264,454l1.66.11,3.11,1.65,1.81-2.4c-7.68-2.84-2.07-6.35-8.95-11.9Z" transform="translate(-5 -11)"/><path class="cls-77" d="M194.16,93.55l3.45,1.25c1.33-3.82,4.57-3.88,8.13-7.5-2.19-.33-1.65.27-1.65-1.82C199.3,87.62,195.75,89.07,194.16,93.55Z" transform="translate(-5 -11)"/><path class="cls-77" d="M269.08,426.09c1,3,.41,1.06.51,3.32l3.75,3.92.87-2.83,4.12.72c-1.9-4.79-1.14-4.26-5.2-7.06l.12,3Z" transform="translate(-5 -11)"/><path class="cls-58" d="M480.77,145.42c6-1.3,2.15-1.18,3.27,1.87l3.42-5.34c1.63,2.05,1.24.73.83,3.85,2.42-1.62,1.78,1.81,2.24-3.55-4.56-2.77-1.28-.52-4.09-1.32-3.63-1-1.28.58-3.68-1.56h-1.89Z" transform="translate(-5 -11)"/><path class="cls-54" d="M156.14,205.16c.44,4.2,0,1-.75,6.41l6.79,1.16-4.07-11.29-2.68.44C159.26,205.55,160.1,204.82,156.14,205.16Z" transform="translate(-5 -11)"/><path class="cls-78" d="M387.33,181.56c1.21,2.61,1.65,2,2.64,4.47,1.5,3.69-.16,2.26,2.22,6.31,3.5-4.6,1.69-6.06-1-11.14l-3.66-1.88Z" transform="translate(-5 -11)"/><path class="cls-46" d="M298.49,172.81l.06.6,3.16,1.05,1.09-5.13,6.51-.19-3-1.57,1.79-2.45C302.12,166.17,299.82,166.8,298.49,172.81Z" transform="translate(-5 -11)"/><path class="cls-76" d="M292.74,441l3.19-2c3.13,4.61.29,2.4,2.93,6.44,3.34-2.4,3.83-7.17,3.37-10.86l-1.71-.2.18,5.05c-3.39-.6-1.55-.78-6.51-1.9Z" transform="translate(-5 -11)"/><path class="cls-79" d="M521.55,410.17c-1.18-4-2.53-7.06-5.79-9.2l-4.92-2.89C513.46,403.66,516.14,407.49,521.55,410.17Z" transform="translate(-5 -11)"/><path class="cls-80" d="M270.6,439.53c1.32,5.65.57,7.19,6,8.87l-4-8.68-3-6.18-1.88,2.19Z" transform="translate(-5 -11)"/><path class="cls-81" d="M517.75,70.36a10.77,10.77,0,0,0-6.05,6.93l-1.21,2.33,2.93-1.23c2.7-1.09,5.92-5.61,6.55-8.6l.28-.75Z" transform="translate(-5 -11)"/><path class="cls-82" d="M170.76,315.91l2.23,3.33,4.09.45c-3.39-5.64-4.69-8.17-3.42-14.68-3.8.78-2.33,2.49-2,5.41.13,1.31.79,2.26.69,3.12C171.91,316.69,173.76,313.25,170.76,315.91Z" transform="translate(-5 -11)"/><path class="cls-83" d="M437.36,216.58c-2.49,3.81-1.48,1.09,1.1,2.25,2.69-2.74,4.86-5.69,5.4-9.15l-1-1.65A16.49,16.49,0,0,0,437.36,216.58Z" transform="translate(-5 -11)"/><path class="cls-84" d="M234.62,296c-4.11-2.56-1.84.91-3.12-3.22,4.27.24,1.33-2.84,3.12,3.22Zm-8.31-1.84c3.79,3.13,3.25,1,3.88,4.66l4.43-2.82c1.33-1.76,3,3,.59-4.56C226.25,290.47,235.26,292.3,226.31,294.16Z" transform="translate(-5 -11)"/><path class="cls-85" d="M458.09,329.28c-1,4.32-1.56,3,.1,7.17,5.06-.39,5.35-.46,4.12-5.91l-2.38-1.17Z" transform="translate(-5 -11)"/><path class="cls-61" d="M475.8,145.8c-.85,5.51-1.06,2,2.34,2.84l2.63-3.22.1-6-1.47-.61Z" transform="translate(-5 -11)"/><path class="cls-86" d="M429.11,173l2.85-.33,1.53-3.08-2.52.92.51-4.08c-2.92-1.67-1.41-.82-1.66-5.69C426.48,164.78,427.44,167.76,429.11,173Z" transform="translate(-5 -11)"/><path class="cls-3" d="M146.59,200.14c4.9,1.2,5.64,1.94,9.55,5,4-.34,3.12.39-.71-3.28l-7.07-6.53.5,3.08Z" transform="translate(-5 -11)"/><polygon class="cls-56" points="264.63 422.54 267.61 428.72 271.02 429.29 268.34 422.33 264.59 418.41 264.63 422.54"/><path class="cls-81" d="M34.72,166.75l-1.36,3.48L38,169l7-3.77-1.8-.84C38.24,164.33,39.57,165.05,34.72,166.75Z" transform="translate(-5 -11)"/><path class="cls-87" d="M197,317.8c.28-.05,4.42-.88,4.46-.87,4.47.45,1.67-1,4.39,2.16l2.44,1.64.65-3.28c-2.52-2.37-1.75-2.44-.7-5.71l-1.66,3.08c-1.76.11-4.16,0-5.8.46C193.75,317.39,200,315.06,197,317.8Z" transform="translate(-5 -11)"/><path class="cls-88" d="M167.47,334.87c-5.55-8-4.87-1.78-10.57-7.18l-1-.26-2.92-.14C156.1,331.59,162,332.4,167.47,334.87Z" transform="translate(-5 -11)"/><polygon class="cls-89" points="301.76 336.55 307.5 335.59 308.18 339.2 310.71 338.34 309.37 333.21 301.85 333.27 301.76 336.55"/><path class="cls-29" d="M281.13,256.39l-1,5.17L285,264.7c2-6.83.17-.25-.19-4.4l-.72-6.73.12,3.82Z" transform="translate(-5 -11)"/><path class="cls-62" d="M118.7,212.66l-.57-2.94,2.21-1-2.8-1.64.19-4-6.25,1c2.48,4.12.6.54,4,3.76C117.74,210,116.75,209.69,118.7,212.66Z" transform="translate(-5 -11)"/><path class="cls-90" d="M147,207.2l2.86,5.71,2.77-.54-.13-5.06-5.12-2.47C150.74,208.43,149.28,206.1,147,207.2Z" transform="translate(-5 -11)"/><path class="cls-42" d="M249.63,394.26c1.89,4.21,2.43,4.56,6.75,7-1.77-5.29-2.09-.34-.16-5.66l-1.88-.05,0-2.45Z" transform="translate(-5 -11)"/><path class="cls-91" d="M244.62,142.61c6.72,5.2,2.45-.36,4.81,5.48l6.42-3c-.08-6,.21-1.07-1.78-3.42-.47,3.81,2.42.39-1.64,3.78l.07-2.89-3.5,1.53Z" transform="translate(-5 -11)"/><path class="cls-76" d="M242.85,304.87l.8-2.86,2.45,2.46L241.91,295C238.69,299,240,300.62,242.85,304.87Z" transform="translate(-5 -11)"/><path class="cls-92" d="M49.92,131.5c-6.64.93-1.86,1-3.14-2.06l-10.16,7.23C41.25,135.7,46.84,134.06,49.92,131.5Z" transform="translate(-5 -11)"/><path class="cls-25" d="M227.37,151.61l8.54.2,0-7.86c-3.17,2.73-1.93.26-2.19,5.74C228.13,150.11,230.42,149,227.37,151.61Z" transform="translate(-5 -11)"/><path class="cls-54" d="M253.57,172.32c2.66-.58,1.78.36,2.95,4l1.77.94c-1.82-6.63-1.44-4.81,2.08-7l-5.34-2.7Z" transform="translate(-5 -11)"/><path class="cls-64" d="M556.75,35.94c3.47,0,3-.94,2.48,2,6.11-1.54,5.85-3.69,10.58-7.48Z" transform="translate(-5 -11)"/><path class="cls-58" d="M395.81,345.3c2.11.08,1.54-.42,1.62,1.6l7-5.67c-2.29-1.14-3.62,1.27-.42-2.46C399.86,340.84,397.82,341.55,395.81,345.3Z" transform="translate(-5 -11)"/><polygon class="cls-62" points="17.35 140.13 15.81 141.93 19.66 142.28 24.38 141.91 26.25 138.73 22.43 139.53 20.93 138.41 17.35 140.13"/><path class="cls-29" d="M309.12,356l-4.27,1.29-1.45-2.72c-3.24,1.95-4.34,2.11-5.53,5.28C301.8,359.77,306.45,358.36,309.12,356Z" transform="translate(-5 -11)"/><path class="cls-72" d="M193.73,232.37h2.07l.06-.57-.41-5.91-14.87-2c4.67,2.91,8.24,2.12,14.07,2.57Z" transform="translate(-5 -11)"/><path class="cls-93" d="M271,462.73,267.8,464l-2.13-9.9L264,454c1.13,4,1,8.92,3.82,11.86C272.06,464.38,269.72,465.33,271,462.73Z" transform="translate(-5 -11)"/><path class="cls-94" d="M251,136.66l1.7-3.83.46,2.84,3.57-1.9-4.33-3.29-2.83,2.67C249.17,139.69,249.19,134.06,251,136.66Z" transform="translate(-5 -11)"/><path class="cls-91" d="M104.76,247.56l.18,3.11h2.71l-1.52-5c4.45-1.51,3.9-.43,7.22-3.14l-7.46,1Z" transform="translate(-5 -11)"/><path class="cls-95" d="M495.88,382.78c1.55,3.6-2,2.07,4.15,3.75,1.56-2.64.06-5-.8-8.76l-1.42.63,1.36,4.47Z" transform="translate(-5 -11)"/><path class="cls-96" d="M270.09,238.63l.61,6.53,3.56-.65c1-4.53,2.26-4.83-1.34-7l-.47,6.94Z" transform="translate(-5 -11)"/><path class="cls-97" d="M383.27,175l-2.06.77c2.85,2.36,1.65,1.65,6.51,2.65l2-3-3.55,2.09c.28-3.54.81-5.68-1.22-8.75C385.52,172.83,386.83,173.61,383.27,175Z" transform="translate(-5 -11)"/><polygon class="cls-79" points="531.06 36.04 531.63 37.65 537.1 33.47 537.79 30.37 534.16 31.65 531.06 36.04"/><path class="cls-47" d="M526.43,426.77c2.18,3.66,1.85,3.81,5.9,4.83.06-4.24-.07-4.6-2.92-7.28l.16,3.78Z" transform="translate(-5 -11)"/><path class="cls-70" d="M86.76,231.4l4.66-2-.61-7.6c-3,4.38-.66.82-2.28,5.54A16.43,16.43,0,0,1,86.76,231.4Z" transform="translate(-5 -11)"/><polygon class="cls-40" points="128.56 197.14 129.31 194.49 122.48 193.35 121.64 195.98 128.56 197.14"/><path class="cls-61" d="M23,163.86l-1.82,2.37,3.39-1.06c3.39.53,2.86.25,6.17-2.31L28.66,162Z" transform="translate(-5 -11)"/><path class="cls-46" d="M82.45,250.38l-3.26-7.52,4.7-3.27-5.32,1.09C77.77,245.42,78.66,247.6,82.45,250.38Z" transform="translate(-5 -11)"/><polygon class="cls-98" points="317.83 183.2 318.55 186.71 322.16 184.57 325.64 181.52 321.97 182.45 320.1 180.79 320.43 183.72 317.83 183.2"/><path class="cls-56" d="M238.68,408.69l-.22,2.82,4.73-1.94c1.46-1.81.88-1.57,2.08-3.62Z" transform="translate(-5 -11)"/><polygon class="cls-51" points="440.21 339.29 443.17 339.09 442.85 341.95 447.08 341.06 441.15 335.7 440.21 339.29"/><path class="cls-62" d="M143.29,203.45,147,207.2c2.33-1.1,3.79,1.23.38-2.36l-.74-4.7c-2,2.48-1.83-3.12-1.68,3.59Z" transform="translate(-5 -11)"/><path class="cls-93" d="M336,355.24,334.63,359l.26-3.44c-2.26,1.71-2.08-1.63-2,3.28,3.91,1.1.44,1.58,4.63-.07C338.2,353.77,338,356.93,336,355.24Z" transform="translate(-5 -11)"/><path class="cls-99" d="M255.34,212.55l-1.3-.47c-2.35,1.58-6.06-1.43.43,6.09Z" transform="translate(-5 -11)"/><path class="cls-100" d="M263.67,400.66l-.31-5.49c-5.32-1.58-2.89-1.86-7.14.44l4.52.31Z" transform="translate(-5 -11)"/><path class="cls-100" d="M208.89,317.45l2.52-7.11-3.22,1.4C207.14,315,206.37,315.08,208.89,317.45Z" transform="translate(-5 -11)"/><path class="cls-66" d="M222.61,258c0,3.71,2.48.23-1.2,3.67l.16-3.16-2.84,1.86c5.56,4.94,2.57,3,6.41.7Z" transform="translate(-5 -11)"/><path class="cls-101" d="M243.19,409.57l5.47.49L247,405.77l-1.75.18C244.07,408,244.65,407.76,243.19,409.57Z" transform="translate(-5 -11)"/><path class="cls-102" d="M487,374.67l-.72,1.42,4.35.25c-.94-3.63.3-2.87-3.82-5.07Z" transform="translate(-5 -11)"/><path class="cls-103" d="M131.11,196.86c4.45-1,4.41.64,8.78-2.49l-6.16-.32Z" transform="translate(-5 -11)"/><path class="cls-104" d="M201.65,355.48c2.52.64,1.62.85,1.47-1.93L199,350.68l-1.78.45Z" transform="translate(-5 -11)"/><path class="cls-96" d="M194.13,345.5c-1.08-3.59-4-5.05-7.83-7.55C188.55,341.8,190.19,343.09,194.13,345.5Z" transform="translate(-5 -11)"/><path class="cls-83" d="M319.45,226.83c3.28,3,3.41,2.86,4.35-1.39C315.69,223,321.94,224.89,319.45,226.83Z" transform="translate(-5 -11)"/><polygon class="cls-105" points="395.29 90.16 390.68 89.54 394.21 95.13 395.29 90.16"/><path class="cls-43" d="M468,154.73c5.29,0,3.11,1.28,3.78-3.62C470.09,151.61,468.27,150.12,468,154.73Z" transform="translate(-5 -11)"/><path class="cls-106" d="M324.21,346.22c-.6-4.3,1.37-3-3.48-3.27C320.6,347.72,319.14,346.15,324.21,346.22Z" transform="translate(-5 -11)"/><path class="cls-107" d="M244.73,249.06c4.61-2,2.94-.36,1.3-4C244.27,246.07,240.9,244.9,244.73,249.06Z" transform="translate(-5 -11)"/><path class="cls-72" d="M142.44,213.66l1.66,3c3.16-3.93,3.45-4.27-.64-7.32l1.6,5.18Z" transform="translate(-5 -11)"/><path class="cls-108" d="M298.55,366.32c-4.92.34-2.27.22-3.31-.92l-3.89,2.48C294.9,369.4,295,369.06,298.55,366.32Z" transform="translate(-5 -11)"/><path class="cls-67" d="M118.63,201.39l7.42-1.45C122.25,197.31,122.3,197.43,118.63,201.39Z" transform="translate(-5 -11)"/><path class="cls-109" d="M137.08,218.76c2.08,4.68.45,2.72,4.19,1.34C139.78,217.9,142.36,215.67,137.08,218.76Z" transform="translate(-5 -11)"/><path class="cls-110" d="M393.16,199.4c3.07-4,1.76-.93.16-4C391,196.81,387.74,197.07,393.16,199.4Z" transform="translate(-5 -11)"/><path class="cls-38" d="M336.39,212.3c0,6.18,0,2.3,1.61,4.57C340,213.83,343.29,215.56,336.39,212.3Z" transform="translate(-5 -11)"/><path class="cls-38" d="M231,254.45c1.28-3.23,1.36-2-1.33-4C228.27,252.63,224.92,252.73,231,254.45Z" transform="translate(-5 -11)"/><path class="cls-111" d="M428.24,184.19c.22-6.08,1.36-2.32-2.54-3.72C424.3,184.27,424.48,183.54,428.24,184.19Z" transform="translate(-5 -11)"/><path class="cls-62" d="M460.9,340.74l3.7-.89.26-2.32C462.15,337.26,460.75,336.78,460.9,340.74Z" transform="translate(-5 -11)"/><path class="cls-43" d="M200.45,141c-1.56-3,2-2.59-3.83-2.06C196.93,143.53,197.18,142.27,200.45,141Z" transform="translate(-5 -11)"/><path class="cls-83" d="M358.57,206.79c4.75-.34,2.76.94,3.43-3.22C357.5,204,358.91,202.07,358.57,206.79Z" transform="translate(-5 -11)"/><path class="cls-64" d="M202,114.67c3.34,3.12,2.79,2.35,6.92.74l-3.41-3,1.59,2.59Z" transform="translate(-5 -11)"/><path class="cls-39" d="M202.93,159.94c4.49-.3,2.21,1.25,3.78-2.4C202.38,155.68,203.37,156.16,202.93,159.94Z" transform="translate(-5 -11)"/><path class="cls-112" d="M136.85,205.05l5.78-1.34c-1.91-2.7,1-2-3.48-1.78Z" transform="translate(-5 -11)"/><path class="cls-84" d="M9.27,163.89l.91,3.05,4-1.61c-2.6-1.28-4,1.41-.68-2.72Z" transform="translate(-5 -11)"/><polygon class="cls-52" points="209.31 108.43 212.43 108.67 212.36 105.18 209.64 105.2 209.31 108.43"/><path class="cls-101" d="M263.66,414.83c-1.49-4.36-1.14-4.45-4.59-7.5C260.74,412,260,411.93,263.66,414.83Z" transform="translate(-5 -11)"/><path class="cls-113" d="M408.71,180.78c1.73,4.09-.8,1.66,3.53,2.92l1.06-8.09a11.7,11.7,0,0,0-.67,1.11l-1.22,5.53Z" transform="translate(-5 -11)"/><path class="cls-53" d="M234.11,431c1.88,2.21-1.41,1.81,3.39,2,1.23-5.33,1.84-1.37-.95-5.32l0,3.95Z" transform="translate(-5 -11)"/><path class="cls-41" d="M372.59,201.65c.39-4.51,1.77-3.25-3.11-3C370.13,202.26,368.92,201.09,372.59,201.65Z" transform="translate(-5 -11)"/><path class="cls-38" d="M190.05,147.3c1.81,1.31-.63,4.23,4.46.07C190,144.19,192.44,145.94,190.05,147.3Z" transform="translate(-5 -11)"/><path class="cls-76" d="M257.59,245.62l-1.41-3.68,3.05.67c-1.89-2.61,1.59-2.05-3.44-1.88C254.45,246.86,254.64,243.08,257.59,245.62Z" transform="translate(-5 -11)"/><path class="cls-96" d="M474.43,150.7l3.71-2.06c-3.4-.88-3.19,2.67-2.34-2.84C472.33,146.53,474,148.75,474.43,150.7Z" transform="translate(-5 -11)"/><path class="cls-114" d="M215,131.92c2.59-2.49,2.29-.79,1.05-3.62C214.87,128.74,210.72,127.08,215,131.92Z" transform="translate(-5 -11)"/><path class="cls-96" d="M101.05,215.27c2.56-2.48,1.3-1.61,4.41-2.93-1.95-1.7,3-1-3.3-1.66Z" transform="translate(-5 -11)"/><path class="cls-115" d="M347.41,212.09c3.46-1.54,3.07-.06,1.21-3.55C346.23,209.74,344.53,209.08,347.41,212.09Z" transform="translate(-5 -11)"/><path class="cls-116" d="M203.53,136.14c4.92-1.59,3.48,1.82,2.79-3.5C203.13,133.52,203.79,132,203.53,136.14Z" transform="translate(-5 -11)"/><path class="cls-107" d="M327.19,352.25c4.34-1.59,3-.16,1.19-3.47C326.63,349.81,324.38,349.18,327.19,352.25Z" transform="translate(-5 -11)"/><path class="cls-6" d="M147.81,194.86l-3.15-3.67c-5.2,1.74-1.58-.54-3.93,3.31l4-1.7Z" transform="translate(-5 -11)"/><path class="cls-117" d="M288.08,385.72l-3.25-.24,1.62-3.38c-3.74,3.72-2.26.19-2.41,4.8C289.57,387.76,286.23,387.33,288.08,385.72Z" transform="translate(-5 -11)"/><polygon class="cls-118" points="221.5 365.23 224.72 365.6 224 362.88 221.09 362.19 221.5 365.23"/><polygon class="cls-61" points="372.84 188.78 376.22 188.9 375.81 185.71 373.44 186.02 372.84 188.78"/><path class="cls-29" d="M401.75,193.05l-3.16.57.05-3.45c-1.37,1.82-2.29-2.19-.95,4.1C404.47,195.52,399.71,194.6,401.75,193.05Z" transform="translate(-5 -11)"/><polygon class="cls-61" points="248.44 141.93 247.66 138.84 245.68 138.77 245.04 141.98 248.44 141.93"/><path class="cls-54" d="M419.38,189.37c2.58-1.85,2.36,1.48,1.94-3.51-6.88-1.54-1.93-.5-4.06,1.19l2.92-.46Z" transform="translate(-5 -11)"/><path class="cls-107" d="M408.08,190.6c3.72-4.32,2-1.21.07-3.95C406.5,188.88,404.15,187.12,408.08,190.6Z" transform="translate(-5 -11)"/><path class="cls-108" d="M225.45,244.07l2.4,2.76c4.48-5.29,2.09-2.91-.12-4.81l.76,3Z" transform="translate(-5 -11)"/><path class="cls-110" d="M401.75,193.05c-1.28-3.88.85-1.67-3.11-2.88l-.05,3.45Z" transform="translate(-5 -11)"/><path class="cls-119" d="M545.93,22.49l1.59-3.12-.74-.39C539.36,23.19,544.76,21.83,545.93,22.49Z" transform="translate(-5 -11)"/><path class="cls-110" d="M214.64,116.2l2.72,0-.58-3.31C213.9,114.33,213.49,112.47,214.64,116.2Z" transform="translate(-5 -11)"/><path class="cls-30" d="M524.85,414.52c-1.75-4.82-.11-2.3-3.49-5.1C522.05,412.5,521.29,413.61,524.85,414.52Z" transform="translate(-5 -11)"/><path class="cls-120" d="M253.44,152.93l-3.4,0,.64-3.21c-1.84,1.73-2.09-2-1.5,3.56C256.11,156.06,251.28,154.05,253.44,152.93Z" transform="translate(-5 -11)"/><path class="cls-72" d="M133,244.17c3.54-2.57,1.88,1.06,2.11-3.68-5.66.28-2,0-3.76,2l2.18-.51Z" transform="translate(-5 -11)"/><path class="cls-90" d="M217.43,119.67l-3.12-.24c-.31,4.15-.36,2,1.82,3.42Z" transform="translate(-5 -11)"/><path class="cls-114" d="M137.66,236.24c1.85,1.79-2.44,2.39,3.79,1.33,1.42-6.34.3-2.14-.85-4.12l.11,3.51Z" transform="translate(-5 -11)"/><polygon class="cls-61" points="29.98 129.33 31.52 129.94 32.86 126.73 27.12 128.41 28 128.43 29.98 129.33"/><path class="cls-113" d="M329.27,221.24l-1.06-2.9,3.73-.19c-1.95-1.08,2.65-3.35-4.25-.16C326.79,223.46,327.25,219.4,329.27,221.24Z" transform="translate(-5 -11)"/><path class="cls-106" d="M199.38,234.47l-.7-2.29-.21.61-2.61-1-.06.57C196.89,235.38,193,235,199.38,234.47Z" transform="translate(-5 -11)"/><polygon class="cls-91" points="244.01 196.73 242.77 194.99 239.79 192.97 240.59 196.52 244.01 196.73"/><path class="cls-61" d="M263.56,311.91c2.35,2.08-.9,4,3.94.11C263.42,309.31,266.72,310.05,263.56,311.91Z" transform="translate(-5 -11)"/><path class="cls-62" d="M257.59,245.62c2.16-1.21,1.58,1.69,1.64-3l-3.05-.67Z" transform="translate(-5 -11)"/><path class="cls-96" d="M377.84,199.78c3.28,1.95-.8,1.77,4.17.65,1.25-6.12.34-1.8-1.2-3.72l.41,3.18Z" transform="translate(-5 -11)"/><polygon class="cls-100" points="265.44 445.32 270.21 444.18 268.05 441.85 265.44 445.32"/><path class="cls-90" d="M140.52,245.2c2.48-3.95,2-.32-.07-4.16C138.3,244.3,137.52,241.39,140.52,245.2Z" transform="translate(-5 -11)"/><path class="cls-121" d="M22.35,151.13l3.58-1.72L24.75,148C21.68,149.44,22.34,145.6,22.35,151.13Z" transform="translate(-5 -11)"/><path class="cls-122" d="M201.69,331.75c-2.55-3.29-.83-2.19-5.39-4C198.67,331.21,197.23,329.9,201.69,331.75Z" transform="translate(-5 -11)"/><path class="cls-30" d="M283.73,278.28c1.86-2.84,1.89,2,1-2.14L283.7,274C281.35,277.75,280.69,274.12,283.73,278.28Z" transform="translate(-5 -11)"/><path class="cls-92" d="M166.75,223.53l-.84-3.68,2.53,1-3-2.69C164.48,222.14,163.79,220.42,166.75,223.53Z" transform="translate(-5 -11)"/><path class="cls-58" d="M291.62,448.46l-2.82,1.34-.38-3.81c-1.21,4.55-1.73,1.5,1.21,5.71Z" transform="translate(-5 -11)"/><path class="cls-18" d="M297.26,233.77c3.87-2.47,1.95.08,2.5-3.79l-2.17.57Z" transform="translate(-5 -11)"/><path class="cls-83" d="M234.62,296c-1.79-6.06,1.15-3-3.12-3.22C232.78,296.91,230.51,293.44,234.62,296Z" transform="translate(-5 -11)"/><path class="cls-96" d="M233.37,396.25,228,390.39C229.68,394.9,229.07,394.1,233.37,396.25Z" transform="translate(-5 -11)"/><path class="cls-123" d="M270.5,417.13c-1.23-5,.39-2.26-3-5.12C268.87,416.75,267.51,414.33,270.5,417.13Z" transform="translate(-5 -11)"/><path class="cls-62" d="M166.19,214.32l-.75-.57c-2.41,2.19-1.92-2.72-2,2.94C166.49,216.15,164.72,217.39,166.19,214.32Z" transform="translate(-5 -11)"/><polygon class="cls-109" points="232.78 351.78 233.1 349.88 227.68 346.93 232.78 351.78"/><polygon class="cls-124" points="536.01 6.78 536.8 7.49 539.97 4.56 538.86 3.52 536.01 6.78"/><path class="cls-122" d="M215.44,308.25c4.81-1.46,4.29-.8,6.66-4.48Z" transform="translate(-5 -11)"/><path class="cls-114" d="M182.91,335.4c-1.73-4.13-1.47-3.25-5.37-4.38Z" transform="translate(-5 -11)"/><polygon class="cls-125" points="324.27 210.24 326.94 207.15 323.21 207.34 324.27 210.24"/><path class="cls-126" d="M138.12,228.34c1.64-2.33,2.11,2.44,1-1.9l-1.09-1.9C136.53,227.16,135.61,224.69,138.12,228.34Z" transform="translate(-5 -11)"/><polygon class="cls-127" points="132.66 225.24 135.71 225.96 135.59 222.45 132.66 225.24"/><polygon class="cls-128" points="246.37 364.77 245.9 361.45 242.74 360.85 246.37 364.77"/><path class="cls-129" d="M224.18,299.92l2.34-1.91-3.73-1.68C224.16,298.39,223.42,297.79,224.18,299.92Z" transform="translate(-5 -11)"/><path class="cls-101" d="M254.6,383.34l-3.23-7.57C251.89,380,251.7,380.39,254.6,383.34Z" transform="translate(-5 -11)"/><path class="cls-18" d="M207.66,335.57l-5.16-3.86C204.1,334.42,203.26,334.88,207.66,335.57Z" transform="translate(-5 -11)"/><path class="cls-109" d="M285.35,440v-2.44c-.32-.12-3.45-1-3.73-1.06Z" transform="translate(-5 -11)"/><polygon class="cls-83" points="230.14 123.86 232.56 121.92 230.75 119.63 230.14 123.86"/><path class="cls-113" d="M527.94,24.84c-2.81.62-2.23,1.25-2.2-1.33l-1.86,4.89Z" transform="translate(-5 -11)"/><path class="cls-61" d="M254.07,141.69l-1.57.89-.07,2.89C256.49,142.08,253.6,145.5,254.07,141.69Z" transform="translate(-5 -11)"/><path class="cls-30" d="M324.32,260.12c3-4.11,2.05-.16,0-4-2,3.28-2-2.6-1,2.08C325,265.82,320.49,254.87,324.32,260.12Z" transform="translate(-5 -11)"/><path class="cls-70" d="M175.8,301.7l3.78-3.37C175.74,299.43,175.91,298.58,175.8,301.7Z" transform="translate(-5 -11)"/><path class="cls-76" d="M217.71,332.42l2.34.09-3.61-3C217,332,215.6,330.27,217.71,332.42Z" transform="translate(-5 -11)"/><path class="cls-106" d="M449.11,63.39l.67-3.53C448.82,60.79,445.61,63.17,449.11,63.39Z" transform="translate(-5 -11)"/><polygon class="cls-130" points="531.8 10.64 533.07 10.23 536.8 7.49 536.01 6.78 531.8 10.64"/><polygon class="cls-106" points="414.38 178.37 415.18 175.59 412.26 176.05 414.38 178.37"/><path class="cls-9" d="M222.61,258l-1,.51-.16,3.16C225.09,258.2,222.59,261.68,222.61,258Z" transform="translate(-5 -11)"/><polygon class="cls-91" points="203.34 361.52 202.31 359.12 199.08 358.58 203.34 361.52"/><path class="cls-118" d="M183.91,351.24c-2-4.19.82-1.89-4-3.58Z" transform="translate(-5 -11)"/><polygon class="cls-101" points="192.43 337.64 191.56 334.69 189.13 334.5 192.43 337.64"/><path class="cls-93" d="M263.46,371.82l-4.19-3.36C261.34,372.46,258.5,370.27,263.46,371.82Z" transform="translate(-5 -11)"/><polygon class="cls-54" points="211.44 318.5 207.86 315.84 208.91 318.52 211.44 318.5"/><path class="cls-131" d="M529.41,424.32c-.45-4.1.16-2.63-2.69-5.59Z" transform="translate(-5 -11)"/><polygon class="cls-16" points="168.66 294.01 170.8 290.7 168.54 291.03 168.66 294.01"/><path class="cls-123" d="M216.16,379.29c-1.94-4.23.66-1.82-3.93-3.46Z" transform="translate(-5 -11)"/><polygon class="cls-132" points="218.64 327.11 218.7 324.74 215.89 323.55 218.64 327.11"/><polygon class="cls-67" points="265.23 368.44 264.41 365.48 262.08 365.16 265.23 368.44"/><polygon class="cls-106" points="245.98 125.66 248.14 124.67 247.68 121.83 245.98 125.66"/><path class="cls-129" d="M26.85,174.47c4.45-1,1.84-.82,2.48.77l2.32-3.19Z" transform="translate(-5 -11)"/><path class="cls-103" d="M501.79,377.68c1,2.37.66,1.26,2.53,2.42l-3.45-4.82Z" transform="translate(-5 -11)"/><path class="cls-50" d="M376.74,186.57l.54-2.26c-1.68-.67-.44-2.21-1.68,1.75Z" transform="translate(-5 -11)"/><path class="cls-133" d="M162.66,204.25c-3.78,1.17-1.63.23-.07,2.82Z" transform="translate(-5 -11)"/><polygon class="cls-63" points="443.18 304.48 445.73 303.64 446.1 305.64 447.66 302.5 443.18 304.48"/><path class="cls-123" d="M486.29,376.09l.72-1.42c-1.29-.66-2.21-.82-3.25-1.48Z" transform="translate(-5 -11)"/><path class="cls-83" d="M574.91,29.15c-1.82-3.18-.36-1.59-3-.41Z" transform="translate(-5 -11)"/><polygon class="cls-61" points="330.98 344.25 329.89 344.59 329.63 348.03 330.98 344.25"/><path class="cls-61" d="M350,189.35l-.41-.15c.84-1.61,3.54,1.39-1-2.59Z" transform="translate(-5 -11)"/><path class="cls-62" d="M233.8,115.5l.15.37c-1.35,1.81-2.33-.4,0,2.53Z" transform="translate(-5 -11)"/><polygon class="cls-8" points="453.09 318.28 454.93 318.37 451.72 316.73 453.09 318.28"/><path class="cls-132" d="M227.47,340.24l-3.83-2.13Z" transform="translate(-5 -11)"/><path class="cls-123" d="M267.08,376.16l-3.4-4.17Z" transform="translate(-5 -11)"/><path class="cls-120" d="M500.3,373.6l-3.22-4.75Z" transform="translate(-5 -11)"/><path class="cls-132" d="M483.76,373.19l-2.68-3.88Z" transform="translate(-5 -11)"/><path class="cls-134" d="M478.27,365.6l-2.6-3.91Z" transform="translate(-5 -11)"/><path class="cls-135" d="M389,94.2l-4.7-3.74Z" transform="translate(-5 -11)"/><path class="cls-132" d="M171.63,338.63,166.47,335Z" transform="translate(-5 -11)"/><path class="cls-101" d="M156.94,318.22l5.09-3.71Z" transform="translate(-5 -11)"/><path class="cls-64" d="M406.81,313.9l3.77-2.72Z" transform="translate(-5 -11)"/><path class="cls-88" d="M216.17,343.51l-4.26-4.18Z" transform="translate(-5 -11)"/><path class="cls-101" d="M481.08,369.31l-2.81-3.71Z" transform="translate(-5 -11)"/><path class="cls-136" d="M298.76,214.81l-2.57-2.59Z" transform="translate(-5 -11)"/><path class="cls-132" d="M290.38,422.75l-4.74-3.9Z" transform="translate(-5 -11)"/></svg>