<svg id="Camada_1" data-name="Camada 1" xmlns="http://www.w3.org/2000/svg" viewBox="0 0 391.82 568.82"><defs><style>.cls-1{fill:#fdfdfd;}.cls-1,.cls-10,.cls-11,.cls-12,.cls-13,.cls-14,.cls-15,.cls-16,.cls-17,.cls-18,.cls-19,.cls-2,.cls-20,.cls-21,.cls-22,.cls-23,.cls-24,.cls-25,.cls-26,.cls-27,.cls-28,.cls-29,.cls-3,.cls-30,.cls-31,.cls-32,.cls-33,.cls-34,.cls-35,.cls-36,.cls-37,.cls-38,.cls-39,.cls-4,.cls-40,.cls-41,.cls-42,.cls-43,.cls-44,.cls-45,.cls-46,.cls-47,.cls-48,.cls-49,.cls-5,.cls-50,.cls-51,.cls-52,.cls-53,.cls-54,.cls-55,.cls-56,.cls-57,.cls-58,.cls-59,.cls-6,.cls-60,.cls-61,.cls-62,.cls-63,.cls-64,.cls-65,.cls-66,.cls-67,.cls-68,.cls-69,.cls-7,.cls-70,.cls-71,.cls-72,.cls-73,.cls-74,.cls-75,.cls-76,.cls-77,.cls-78,.cls-79,.cls-8,.cls-80,.cls-81,.cls-82,.cls-83,.cls-84,.cls-85,.cls-86,.cls-87,.cls-88,.cls-89,.cls-9,.cls-90,.cls-91,.cls-92,.cls-93,.cls-94{fill-rule:evenodd;}.cls-2{fill:#fbfcfa;}.cls-3{fill:#140e44;}.cls-4{fill:#ed1b22;}.cls-5{fill:#655875;}.cls-6{fill:#120b44;}.cls-7{fill:#141047;}.cls-8{fill:#f41b20;}.cls-9{fill:#6d2e4f;}.cls-10{fill:#79758a;}.cls-11{fill:#763755;}.cls-12{fill:#1a124a;}.cls-13{fill:#f6f6f6;}.cls-14{fill:#9391a4;}.cls-15{fill:#764866;}.cls-16{fill:#88849b;}.cls-17{fill:#8c89a2;}.cls-18{fill:#8d2f4a;}.cls-19{fill:#f4f4f4;}.cls-20{fill:#686483;}.cls-21{fill:#663555;}.cls-22{fill:#771634;}.cls-23{fill:#76637c;}.cls-24{fill:#877794;}.cls-25{fill:#e61b26;}.cls-26{fill:#fafafa;}.cls-27{fill:#762745;}.cls-28{fill:#716c8a;}.cls-29{fill:#573558;}.cls-30{fill:#6b6983;}.cls-31{fill:#494568;}.cls-32{fill:#615c7b;}.cls-33{fill:#1b1848;}.cls-34{fill:#6e6d91;}.cls-35{fill:#b5b2c3;}.cls-36{fill:#9491aa;}.cls-37{fill:#8c445a;}.cls-38{fill:#a8a7b5;}.cls-39{fill:#967695;}.cls-40{fill:#928ca8;}.cls-41{fill:#ae3248;}.cls-42{fill:#523a66;}.cls-43{fill:#8b899c;}.cls-44{fill:#e82226;}.cls-45{fill:#817c9a;}.cls-46{fill:#74718b;}.cls-47{fill:#5c597a;}.cls-48{fill:#d72228;}.cls-49{fill:#646182;}.cls-50{fill:#928ca3;}.cls-51{fill:#9994ab;}.cls-52{fill:#a3a1b3;}.cls-53{fill:#9897a6;}.cls-54{fill:#858395;}.cls-55{fill:#7c7993;}.cls-56{fill:#b8b6c7;}.cls-57{fill:#332a55;}.cls-58{fill:#ebebed;}.cls-59{fill:#a82437;}.cls-60{fill:#562546;}.cls-61{fill:#8a6379;}.cls-62{fill:#807c93;}.cls-63{fill:#84819a;}.cls-64{fill:#797492;}.cls-65{fill:#8985a4;}.cls-66{fill:#a71629;}.cls-67{fill:#a5a2b9;}.cls-68{fill:#acaabb;}.cls-69{fill:#b1adc2;}.cls-70{fill:#9d9ab2;}.cls-71{fill:#9d99ac;}.cls-72{fill:#a09cb2;}.cls-73{fill:#6c698a;}.cls-74{fill:#661435;}.cls-75{fill:#66637b;}.cls-76{fill:#292455;}.cls-77{fill:#ecebf3;}.cls-78{fill:#595372;}.cls-79{fill:#736a84;}.cls-80{fill:#4d0e34;}.cls-81{fill:#38335a;}.cls-82{fill:#938a99;}.cls-83{fill:#575476;}.cls-84{fill:#a5a5ae;}.cls-85{fill:#53496a;}.cls-86{fill:#4e4f6a;}.cls-87{fill:#342a4e;}.cls-88{fill:#d6d8e7;}.cls-89{fill:#f2f2f6;}.cls-90{fill:#423b64;}.cls-91{fill:#45375a;}.cls-92{fill:#4a4772;}.cls-93{fill:#56526c;}.cls-94{fill:#27224b;}</style></defs><path class="cls-1" d="M320.13,260.38c1.41,2.34,3.94-.26-.08,4.42-2.82-3.38-2.9-1.22.08-4.42Zm-45.57.37c1.37,1.9,3-1.78,0,4.13-2-3.31-1.86,2.45-1-2.16,1.45-7.62-2.75,3.35.93-2Zm37.91-3.08c1.78-3.12.48-3,4-1.23-2,4-.41,3.31-4,1.23ZM278.13,259c-1.86-4.31-.6-4.23,3.56-3.53l.52,4.46c-7.09,1.68-2.41.45-4.08-.93ZM297,249.86l2,0c1.49,1.82,2-1.3,1.16,4l-4.28.41c-1-6.73-.3-2.34,1.12-4.39Zm8.32-3.42c2.94,3,3.09,3.83-1,4.69-1.49-3-1.49-2.12,1-4.69Zm7.4,2.49c2.56-4.34,1.41.12,6.09-3.6,4.13-3.23-.4-3.83,6-4.65-.71,6.32-6.13,11.71-12.08,8.25Zm-44.27-8.47c6,.19,4,2.34,9.52,5.24,4.75,2.49,7.21,1.23,10.26,2.08l.44,3c-6.35.48-12.3-.56-16.76-5.1a22.4,22.4,0,0,1-3.46-5.2Zm102.7-14.61c1.93-2-1.71-2.23,4.16-1.6,1.86,3.72,2,1.23-.08,5.39-7.39,1.49-2.23.38-4.42-1.22Zm-149.49-.55c3.83,1.82,2.41-2,2.41,4-3.3-.33-5.27-.07-2.41-4Zm90.06-5.54c4.2.11,3.12-1.79,3.08,3.12-3.87-.26-2.82,1-3.08-3.12ZM282,218.35c-.67,3.93,1.45,2.93-3.16,3.15-.11-4.75-1.22-2.78,3.16-3.15Zm-4.61-6.06c4.2-2.64,2.23-1.38,3.83,1.19-5,2.19-2,.44-3.83-1.19Zm35.83-2c5.43-.34,3-1.19,3.09,3.12-4.24-.71-2.75,1.3-3.09-3.12Zm5.65-9.11c1.49,2.45,3.31-1.67,0,4.13-1.93-2.83-2.67-.86,0-4.13Zm-42,.56c2.9,4.38,1.79.33,0,4.09-1-1.64-4.09,1.67,0-4.09Zm29.7,5.54c-.08,2.75-.89,3.86-3.87,4.94-2.6,3.72-5.05,5.31-2,10.78,3.75,6.76,21.78,16.2,31.78,7.54-4.13-3.94-11.6-3.68-11.82-9.1L347,230.8c4.53,1.33,8.1.89,10.14,3.53-5.35,3-8.88-.23-14.68-1.75-9.29-2.49-5.16.71-13,3.9-7.28,3-9.66-.44-14.46,0s-4.16,5.87-11.56,2.16c-3.19-7.33,1.08-5.58-4.53-12.6-9.85,3.71-3.49,6.28-7.69,12.56-8.44,2-2.05-3-14.13-3.53-9.74-.45-6.5-1.34-13.49-4.65-8.29-3.94-21.93,6-30.59,1.41,4.39-3.23,16.06-3.3,22.3-4.75,6-1.42,15.32-6.36,20.22-6.17-1.26,4.64-5.13,4.23-9.51,7.24,12,9.71,35,.19,29.1-16.35-4.09-1.26-3.09-1.82-5.87-4.46-3-2.75-4.2-2.19-7.33-4.57-3.71-2.83-2.63-1.52-3.15-6.58,2.93-4.72,9.51-8.7,15.68-9.51,4.65-.6,14.83,1.3,17,5.65l5,1.11c.78,7.62-4.5,10.15-10,13.83ZM269.61,194c-.07,5.73,1.05,2.12-2.41,3.76-2.05-4.28-2.05-3.5,2.41-3.76ZM327,193c0,4.68,1.16,2.67-3.16,3.19.27-4-2-3.45,3.16-3.19Zm-74.52-.11c1.45,2.19,3.24-1.86,0,4.27-2.23-3.49-2.9-.3,0-4.27Zm145.18-5.77c4,3.91,3.6,7.51,4.42,13.46l2.31-1.19c3-.33.7-1.08,3.27.59-4.46,7.88-.71-2.6-8.18,14.05-3.05,6.73-6.32,9.89-13.38,10.78,1.71-6,7.84-4.68,10.59-14.34-9.59,8.14-35.6,9.21-48.43,8.88-2.78,4.57.19,3.2-3.45,4.53-3.65-6.35.63-4.72-9.89-6-4.68-.56-10.59-1.23-14-3.42,5-3.16,15.09.85,21.44.52-.37-12.86-11.59-1.64-17.43-9,3.23-1.79,8.81-.26,14-.78-1.18-7-2.3-3.72-5.64-8.89,8.47-.07,5.94,3.76,10.92,8.59,9,2,12.19-2.05,20.3-1.71-3.42,6.09-13.16,4.16-19.18,6.5,1.37,9.44,7.1,6.95,16.61,6.4a95.49,95.49,0,0,0,20.26-3.5c29.36-7.62,9.66-20.66,15.46-25.5Zm-196.73-5,2.23-.56-.18,2.42c-4.17,6.35-5.17,11.44-4.57,19.88,17.09,7.88,30,11.63,49.61,11.34l1.82-7.36c-5.46-.93-15.2-2.23-19.21-5.36,4.12-2.6,13.08,2,20.74,1.68,3.9-3.87,5.39-8.33,10.59-8.66-1.15,4.87-4.2,2.64-5.65,9.33,7.1.37,8.92-2.9,13.83,1-8.7,5.39-16.69-2.79-18,8.88,6.5,2.75,17-4.38,22.33-1.3-5.53,7.29-15.42,2.45-24.56,9.41-4.35-6.55-9.48-3.61-25.17-6.1-10.89-1.71-16.05-4.83-25.6-7.66,4.38,13.57,16,15.06,19.14,17.7-2.16,2.08,3.86,2.34-4.84,1.52a20.71,20.71,0,0,1-4.46-1.9,51.11,51.11,0,0,1-7.24-6.43c-7-7.24-4.76-11.41-10.11-16.46,2.45-5.32,1.15,3.9,4.05-10.19.82-4,3.05-9.14,5.2-11.18Zm-28.69-.26c1.93-2-1.52-2.2,4.12-1.56l.08,4.57c-6.77,1.37-2.16.41-4.2-1.27ZM395,184.52l-2.08-.18c-1.64-1.79-2.46,2.23-1.12-3.5l4.28-.93c1.52,7.29.48,2.53-1.08,4.61Zm-8.89-5.2c2.35,3,2.05,1.78-1,4.39-4.13-2.9-3.57-.34-2.12-5.47,5.87-.85,1.67-.26,3.08,1.08Zm-176.69-1c1.34,2,2.86-1.56,0,4-1.93-3-3,0,0-4Zm112.43-2.45c.63,5,1,1.85-1.89,3.6-1.27-2.68-2.87-3.27,1.89-3.6Zm-44.71-.38c1.56,2.75,2.08-1.89.59,3.16,0,.23-.52.64-.7,1-2-3.16-2.75-.33.11-4.13Zm8.07-4.86c-1.64,4.31-1.16,3.6-4.54,1.15,1.52-1.23-.37-4.5,4.54-1.15Zm-73.48-3.76c5.46-6.58,12.89-11.86,19.66-16.39l5.24-1.6c11.48-11,37.2,4.54,39.51,21.63-13.05,12.71-24.79,11.9-34.76,13.5,2.61,4.6,4.35,2.08,6,7.39-4.65-.44-15.47-7.25-18.48-10.52l-1.37.78-11-1.26a11,11,0,0,0,1.26-5.84l-4.49-3.15c-5.54,1.52-3.94,2.86-9.82,2.56a16.63,16.63,0,0,1,8.26-7.1Zm108.3-3.72c.3-6.76,9-12,15.28-13.41a10,10,0,0,1,2.71-1.64,18.38,18.38,0,0,1,2-.7c22.41-6.4,45.53,15,47.8,28.21-4.91-1.23-3-1.31-6.25-5.32-3.64,1.19-6.17,3.9-9.51,6.84,2,.78,2.86.15,6.09,2.08-3.42,2.45-11.22,3.64-16.09,4.94a89.06,89.06,0,0,1-9.37,6.73c-13,7.73-3,5.65-10.66,6.58.7-6.17,9.51-7.62,12.37-13-5.53-.15-12.37.15-16.5-3.09-4.53-.26-2.86.26-5.31-1.67-5.84-.37-7.1-4.05-11.64-6.76-3.08-1.64-6.13-2.49-8.06-3.68,2.26-5.84-1.75.63,5.46-4.61.22-.19,1.38-1.27,1.71-1.53Zm-118,7.85c-3.19-5-.85-2.64,0-4.13,1.83,3.76,3.2-.37,0,4.13Zm190.34-1.49c-.19-.3-.6-.67-.64-.85-1.67-6.29-1.19.29.67-3,1.27,2.79,3.13-.37,0,3.87ZM297.94,140c2,3.64,3.6-.19,0,5.17-3.61-4.13-2-1.6,0-5.17Zm-95.82,23.27c-4.09-5.69,1.45-22.27,9.29-23-.33,4.53-3.64,5.76-5.57,10.81s-.6,9.74-3.72,12.16Zm190.41-3.46C389,155,391,152.52,388,148c-1.71-2.63-4.72-5.09-6.17-7.91,7,.26,11.11,8.36,12.08,13.38,1.3,6.95.85,3.68-1.41,6.28Zm-14.8-21.26c-2.37,1.82-.55,3.46-4.34,0,.89-.93,1-5.8,4.34,0Zm-156,1.19s-1.38,4.53-3.61-.15c-1.56-3.31-.22-1.93,1.19-4.13,2.9.9,1.67-1.11,3.27,2.05,1.71,3.34-.52,1.71-.85,2.23Zm132.13-6.13c2.19-1.6-2.94-2.57,5-1.12l-1.19,4.28c-5.42,1-1.56.48-3.3-1.34Zm-13.94,1.26c4.31-3.57,1.11-2,4.16,0-3.27,2.2-.71,3.16-4.16,0Zm-99.39-3.57c1.56,3.27,5.28,2.42-1.45,4.39-3.64-4.46-.37-3.05,1.45-4.39Zm9.44,1.12c2.68-2.12-.78-3.61,4.13,0-3.46,2.49-.78,2.72-4.13,0ZM333.28,129c.37,5.87,1.34,2.12-2.45,3.45.22-4.08-1-2.26,2.45-3.45Zm-34.12,2.9c-4.16-1.53-2.67-6.69-2.64-11.75.12-13.19-3.75-36.53,2.53-38.69,1.79,4.13,2.23,46.42.11,50.44ZM173.87,171.29c-3.6-5.5,3.68-41.77,9.81-44.53,1.79,3.24-3.49,17.1-4.64,21.75-2.9,11.82-1.19,21.07-5.17,22.78Zm106.86-9.55c-3.38-1.82-2.23-4.8-2.72-9.74-1.48-16.05-7.21-16.43-11.15-25.24,11.38,3.65,18.74,27.66,13.87,35Zm33.19,2.68c-5.35-6.88,3.9-35.83,15-38.84-2.19,5.87-7.28,9.84-10.07,17.87-2.12,6.06-1.78,16.84-4.94,21Zm21.41-33.79c2.08-4.79,4.53-4.68,5.31-10.56.78-5.57-1.48-8.58,2.75-11.55,1.53,3.86,1.34,9.58.63,13.86-1,6-3.56,7.69-8.69,8.25Zm-2.87-10.52c3.72,4.61,2.35,1-.07,4.35-2.94-3.31-2.19-1.37.07-4.35Zm-70.2-.11c5-2,6.91,5.2-1.23,3.9-.89-6.72-.3-2.49,1.23-3.9Zm98.15,13.72c.86-5.1,3.54-4.8,6.4-9.78,3.31-5.72,1-8.07,3.6-12.53,5.28,6.84-1.78,20.82-10,22.31Zm-112.5-1c-9.92-2.31-12.12-21.86-7.81-29.74,3.16,3.61.78,9.89,2.2,16.36s4.46,8.55,5.61,13.38Zm-59.51-12.6c-1.15,3.42,2.35,2.27-3.56,2.34.33-3.79.4-3.68,3.56-2.34Zm66.46,4.94c-1.93-4.83-3.87-12.52.15-16.28,2.3,4.39.37,8.33,2.93,14.57,3.35,8.07,5.54,5.47,7.47,10.22-3.38,1.38-3,1.49-6.91-2.38-2.41-2.34-2.38-3-3.64-6.13Zm89.42,6.58c2.42-5.72,6.77-4.53,9.59-11,2.42-5.43,1.38-9.85,1.68-12.9.4-4.27-1.6,1.11,1.37-4.13,5.61,9.11-.22,27.06-12.64,28ZM222.86,114.09c.52-2.79.26-1.11,1.86-3.08,3.27,18.88,9.14,18.39,10.44,23.71-5.76-.11-7.32-3.23-9.63-8.66a46.41,46.41,0,0,1-2.34-7.58,15.88,15.88,0,0,1-.33-4.39Zm86.12-3c3.08,1.93,2.93.55,1.26,4.27-3.79-1.67-2.86-.78-1.26-4.27Zm-23.42-.52c3.94,4.42,2,2.26.19,5.09-3-2.08-4.28-2.94-.19-5.09Zm24.53-3.13c-4.76-1-2.45-7.28-1.45-12.37,2.27-11.78,3.05-10.74,6.95-12.19,0,.41-5.5,24.56-5.5,24.56ZM279.76,83.61c6,.82,10.89,19.22,5.91,23.68Zm-9.92,4.13c-2.75-4.16-2-.78,0-4.31.18.37.7.82.78,1.08s.26.85.3,1.11c1,4.5.7-.48-1.08,2.12ZM326,86.25c-.18-.33-.59-.74-.66-1-1.68-6.47-.9-.34.63-3.13,1.45,3.39,2.75-.37,0,4.09Zm-137.37,22.6C177.92,95,182.05,23.92,205.8,22.66c17.39-.93,51.44,52.59,49.73,62.37-11.63,3.75-20.85-3.54-39.62,6-5,2.57-10.37,4.76-14.91,8.29-4.2,3.27-7.28,8.74-12.34,9.48ZM321.2,78.3c-4.68,0-1.89,1.11-2.9-2.83,3.72,1.45,2-1.33,2.9,2.83Zm-47.94-2.42c3.45-2.19,1-2,4.53.08-5.2,3.57-1.37,2.75-4.53-.08Zm24.71,1c-2.6-4.31-1.85-1,0-4.61.19.41.63.86.71,1.16,1.45,6.32.89.67-.75,3.45Zm34.38,8c-.55-1-3.38.93.78-6.91,1-1.89,1.9-3.72,2.9-5.65,2-3.79,3.91-7.65,6.14-11.19,4.6-7.32,8.17-16.42,16.42-19.1-2.23,5.46-10.25,14.46-14,21.52-3.6,6.73-6.8,16.43-12.23,21.33ZM263,86c-6.36-14.79-22.19-38.91-23.3-45,5.83,2.49,11.48,15.46,15.09,21.63,2,3.49,4.72,7.17,6.57,10.63.67,1.19,2.46,4.83,2.87,5.87,2.93,7.73,1.22,4.72-1.23,6.91ZM232.82,37.41c-4.09-5.64.48,5.39-1-2.11-.93-4.65-1,1,1-2.16,3.24,6.13,1.45,2.19,0,4.27ZM361.72,31c2,3.61,2.75.41,0,4.61-3.94-3.82-2.12-1.37,0-4.61ZM253.86,265.55c20.85-3.76,19.06,8.06,35.6,10a66.29,66.29,0,0,0,21.82-.82c11-2.53,9.7-4.46,16.2-7.7,1.68-3.6.12-1.52,4.8-2,1.26-.15,5.72.18,7.43.22,12.71.07,20.56-3.46,32.71-8.14,6.21-2.38,12-5.76,18.21-8.7,5.8-2.71,14.05-8.62,18.66-10.37l8.47-12c4.06-24.16,5-79-10.48-97.23.45-3.31-3.27-18.77-5.42-21.78-1.79-2.42-13.61-7.51-17.32-9.78-27.32-16.35-40.48-3.57-44.27-12C332.46,82.87,367.48,37,374.5,33.77c5.46-11.52,19.22-14.6,28.29-5,8.8,9.3,12.19,19.74,10.74,32.6l1.33.41c6.4-26.95-15.27-57.61-41.92-44.68-17.47,8.44-42.48,44.23-48,46.76-.11,0-38.77,1.64-43.89,2-14.24.89-18.37-9.51-27.4-19.33-13.71-14.83-35.19-44.26-58-27.43-21.23,15.65-24.2,48.88-20.37,72.85,8.33,52.44-6.06,33.08-10.82,74-7.88,67.5,43.3,81.69,89.47,99.61Z" transform="translate(-115.19 -11.18)"/><path class="cls-1" d="M429.43,568.54c-1.67-3-2.49-16.47,0-19.85,3.08,4.35,2.75,16.39,1.93,18.14Zm-51.32-20.93c4.05-4.09,1.93-1.56,4.16-.07-2.6,1.74-.08,3.68-4.16.07Zm25.49-4.53c2.49,3.71,3.65-.26.11,4.83-2.34-3.53-3.23-1-.11-4.83ZM428,538.39c2.71,4.28,1.44.78,0,3.76-1.86-3-3,.18,0-3.76Zm-24.28-2.78c5.21,2.3,2.64,1,1.23,3.94-1.67-1.08-4.38.14-1.23-3.94Zm-22.26.37c2.53,3.86,1.67.44,0,4.2-1.56-3-2.08,3-.59-3.24,0-.22.45-.63.63-1Zm46.68-3.53c1.42,2.08,2-2.53.67,3-.07.26-.48.7-.67,1.11-1.93-3.75-2.19,3.35-.63-3.19.08-.23.45-.6.63-.93ZM402.41,402.73c3.2,1.68,4.2,2.49,0,4.39-2.34-2.68-2.64-1.6,0-4.39Zm22.79-35.64c1.82-1.41-2.27-2.53,3.68-.86l.67,4.28c-6.81,1.22-2.38.33-4.35-1.12Zm-3.79-36.95c1.56-2.56-1.23-1.71,3.23-1.89,2.45,3.86,2,.82.78,5.2-5.35-.18-1.49.15-3.2-2Zm4.12-19.81c1.6,2.38,3.42.34.08,4.72-3.65-1.7-3.57-2.56-.08-4.72Zm-10.89-48.72c4.91,6.58-2.3,18.58,7.62,41.63a5,5,0,0,1,.78,2.6c0,2.19-.07,1.22-1,3-7.84-6.17-11.78-41.3-7.36-47.24Zm3.61-12.3c2,4.16,1.37,3-1.12,5.31-3.45-2.64-3.27-3.79,1.12-5.31Zm43-77.57c3.6,3.6,7,4.31,9.55,7.17-7.66,4.61-17.47-9.51-18.62-16.2,5.28,2.08,4.9,4.86,9.07,9Zm-10-20.44c3,2.37,3,.89,1.37,4.6-5.31-2.23-2.71-1.71-1.37-4.6Zm-25.2-21.08c2.34,12.86-8.33,12.9-8.4,12.79-.15-.3-.67.07-1,.22,8.14,20.89,7.14,41,6.28,64.11L420.29,227c-.3,3.87-3.6,9.67-6.65,11.71-7.58,16.61-8,26-8.18,44.79-.18,18,13.38,26.76,14.68,39.77-6.61-2.61-.67,1.52-7.77-10.56-2.3-3.94-4.34-8.29-6.57-12l-2.72,2.52c.82,10.82-13.38,44.42-19.18,55.08-10.77,19.78-27.69,22.31-43.15,33.23,1.53,2.9,29.66,44.31,29.66,44.34,5.32-5.72,14.42-24.49,24-25.35-5.05,10.52-24.94,18.59-20.85,36.91,3.94,17.81,9.22,22.75,9.33,51l-.44,8.62c8.43,6,32.18,5.69,43.3,4.42,8.73-1,6.69-1.45,12.22-5.31l2.16-.23-.11,2.31c-2.94,3.83-6.77,5.5-11.78,6.24-12.79,2-34.27,1.82-45.5-3.53l-3.19,4.35c.22,12.23-10.19,26.91-15.58,37,2.31,5.28,7,4.46,7.06,12.75,3.83,4.61-1.11,3.6,3.91,5.39.33-5.76-1.34-12.38,2.71-16.65,1.75,3.31.11,11.07.48,15.91l3.5.92c1.11-8.06,3-12.89,12-11.48,3,3.94,4,4.72,4.28,9.89l3.56,2.78a9.34,9.34,0,0,0,1.08.38c1.08-5.62.11-14.69,1-17.06,7.55,2.6.6,11.18,4.69,17.35,2.3-4.27-.41-7.88,2.19-13.08,2.15-4.27,6-4.65,10.22-4.27,5.65,5.72,2.53,9.85,5,16.28l9.7-.56c.56-6.4-1.75-8,1.71-12.53.41-5.76,5.28-9.66,11.26-7.65l.71,2.78c5.57-.37,6-15.79,6.65-23.45.82-9.4,1-19.55-.93-28.66-4,1.9-5.28,4.8-10.11,1.9.9-5.76,2.38-1.93,8.66-6.06l7.7-14.34c8.14-32.67,14.57-49.18-2.53-82.44-6.77-13.2-38.1-51.37-31.82-63.22l7.4,13.27c82.81-31.63,50.25-101.58,51.25-160.38.78-46.46,20.07-55.83,4.28-53.41l-7.32,12.45L475.37,148c-1.37-5.87-1.26-7.84,1.12-13.19l.41-3.68-5.17.89c-2.64,4.12.22,2.6-3.53,6.76-.71,8.48-8.66,6.14-12,.08-2.6-4.65-3.9-7-11-10.86-2.86,6.32.86,11.15-6.91,15-4.87-1.34-5.69-2-5.87-7.06-1.82-1.93-1.12,1-2-4l-1.79-3.38Z" transform="translate(-115.19 -11.18)"/><path class="cls-1" d="M186.14,407.56c1.37,1.31,1.78-1.89,1.22,3.72-4.27.52-5.42,1.38-4.35-4.38,5.51-1.38,1.64-.34,3.13.66ZM201,395.93l1.23.74c2.19,1.79,2.08-1.41,1.9,3.24-3.16,1.82-1,1.63-4.28.15-1.22-5.5-.7-2.08,1.15-4.13Zm19.48-8.25c3.31,1.6,2.38-1.86,2.3,3.64-4.53,0-4.34.49-2.3-3.64Zm-17.21-.56c1.56,5.84-1,4.05-1.19,4.39-1.82-1.19-9.07-11.23-9.51-13.2,6.39.45,10.4,7.73,10.7,8.81Zm33.08-16.54c4,1,4.2,0,2.64,4.13-4.39-1.75-2.19,1-2.64-4.13ZM223,375.82c2.9,5.21,2.19,4.61-.49,7.85l-5.61-12.86c3.42.78,4.05,1.37,6.1,5Zm15.57-8.29-5.13-12.11c3.72-.26,4,.15,5.84,4.12,2.11,4.65,2,4.58-.71,8Zm-97.9-35.79c.6.63,13.27,33.83,15.8,39.21,5.28,11.15,22.15,25.2,23.56,32-14.27-3.61-45.38-60.1-39.36-71.18Zm0-14.08c1.71,3.64,1.82,2.26-1.34,4.23-2.82-3.49-1.37-2.82,1.34-4.23Zm21.3-1.3,1.59.07c1.79,2,2.38-2.42,1.38,4.2l-4.16-.71c-1.12-5.65-.49-1.74,1.19-3.56Zm12.78,1.22c-1.41,1.56,3,1.56-3.6,1.64-.49-4.91-1.31-5.54,4.75-4.61.86,5.61.34,1.78-1.15,3Zm-18.21-19.14c2,3.68,1.45,2.16-1.38,4.39-3.38-4.39-1.89-2.9,1.38-4.39Zm-7.36,85.78c1,.45,16,18.59,19.07,21.52,6.28,6.14,16.24,18.18,26.57,15.8,4-3.31,1-5.91,7.43-7.66l0-3.38c4.87-.78,8.84,1.15,9.7,5.69,3.9-1.3,2.71,1.45,2-4.35l-6-14.31c6,2,8.62,11.34,10,17.47l2.3.18,6.21-7.76c4.27,0,6.17-1,7.4,2.6l3.42-.78c0-10.71-8.33-13.64-9.3-23.75,6.51,1.86,7.77,12.71,13.61,17.91l1-4.46c.67-3.42-1.26-3,1.9-4.61.48-9.14,5.24-6.87,11.41-7.06l-1.49-7c-3.38-2-7.92-6.54-9.48-9.92,5.88.45,9.18,4.39,11.38,9.7,2.75,2.42-.23.67,3.08,1.64L261,365.45l.6-3c.48-.07,3.12-.29,3.23-.33,2.79-.56.9,0,2.87-1.08-5.51-8.51-6.81-3.49-11.23-8.73-4.53-.26-11.08-4-13.75-7.66-6.62-3.42-6.84-8-11.9-12.38-26.57-22.78-44-12.89-50.17-16.83,4.27-2.61,10.67-2,16.06-2.53l-.82-4.83-2.34-2.49c-3.94-1.64-9.93-4.61-14-5.39-3.68-.71-4.68-.26-8.14-.26-7.32,0-6.32-.71-7.8-2.08,17.24-4.09,14.83.37,27.46,2.64l.41-20.71-21.3-20.36c-21,10.74-32.7,29.58-37.39,53-5.35,26.61,3.5,49.32,16.47,71.8Z" transform="translate(-115.19 -11.18)"/><path class="cls-1" d="M199.59,540.18c3.35-1.68,2.08-1.82,3.83,1.3-4.76,2.34-2.16,0-3.83-1.3Zm-29.4-1c3.83.78,1.27-.82,2.72,2.57-3.61-.75.07,2.82-2.16-.64a12.15,12.15,0,0,0-.56-1.93Zm29.33-6.35c3.6-2.64.18-2.64,4.12.11-4.83,3.86-1.45,2.19-4.12-.11Zm-24.42-4c3.05,1.78,3.19.48,1.19,3.9-2.57-1.37-3.79-.37-1.19-3.9Zm-5.43-16.13c-5,.07-1.67.93-4-2,2-1,3.57-4.61,4,2Zm-17.54-6,1,.44c2,1.82,1.9-2.23,1.9,3.91l-4.5-.26c-.86-6.69-.45-2.27,1.56-4.09Zm-7.55-18c-1.93,2,2.9,1.9-2.67,1.53-3.2-5-2.49-6.73,3.45-6.28,1.31,5.61,1.34,2-.78,4.75Zm-10-10.62c-9.66-7.1-8.36-40.29-6.25-53.6.75-4.79.86-12.27,4.87-14.46.86,10.11-3.75,24.46-2.9,36.76.78,11.67,5.58,29.47,4.28,31.3ZM137,407.42c-4.35-1.71-4.39-1.57-.19-4.35,2.83,3.68,1.94,1.86.19,4.35Zm12.49,158.51v-2.78l4.31-6.92,6.5,0,2.49,3.61,1.64.85-.41,2.86c5.69,5.65.78,9.15,4.91,12.34,3.15-8.1-2-19.66,2.45-27,3.38,2.12,1.71,7.21,2,12.15l1,11.12c.07.44.3,1.74.33,2.11l3.83-6.57c-.11-6.29,2.75-13.9,8.77-16.17,8,3.71,9.44,15,9.78,23.08l3.16,1.08-.56-28.21h1.67l5.24,27.61c0-10.11.49-17.47,11.56-17.73l3,2.53-3.75-8.73L206,516.2,203.46,514c-7.18,2.6-22.12,7.29-26.91-.82,4-2.23,16.83,4.35,26.09-3.68l-1.3-5.09L196,463.65l-2.71-30-1.12-6.32c-12.23-4.61-17.28-9.63-26.09-18.14-5.84-5.68-16.47-17-18.51-24.9L142.13,379c-17.54,8.8-38.54,82.54-6.95,112.76,6.43,6.13,11.37,10.56,11.45,20.22,0,10.59-7.4,48.43,2.9,54Z" transform="translate(-115.19 -11.18)"/><path class="cls-2" d="M338.37,470.19c15.76-5,11.49,20.67,12.94,32.6,1.86,15.24,9.7,21.11-5,33-23.31,19-41.67,21.11-66,7.25-40.44-23-38.58-22.71-1.53-37.88,22.64-9.29,43.9-30,59.54-35Zm-89.09-64-2.71-1.16-5.46,2.79c-.3,1.12-6.36,11.11-7.58,13.05l-5.69-1.08c-5.58-1.38-11-1.9-11.45,4.91l.19,2.93,3.19.41,66.72-36.68,1.63,2.71c10.56,20.26-22.15,12.53-16.72,30L309,403.29c5.64,5,3.86,4.24,6.57,19.48-3.12,0-29.4,16.2-34.23,19-.22,22.22,32.49,22.63,50.48,6.76l2.93-3c6.39,1.27,7.81,6,3.57,10.67-9.22,24.2-21.67,18-40,20.63l.82,16.39-43.56,12.49-2-4.61,21.15-42.44-4.57-2.31c-23.05-17.8-45.57,35.38-48.43,12.79l-3.42-1.68c1,8.85,6.36,17.29,8.44,26.13,1.26.75,17.35,32.52,23.34,39.33,5.16,5.87,10.66,10.51,16.5,15.38,5.58,4.57,17.17,6.1,20.29,12.08,7.44-1.41,10.08,1.93,17.21,2.42,6.25.44,13.79-.15,19.44-2,12.49-4.23,17.95-6.09,24.23-18,10.37-6.8,17.62-35.82,16.28-48-3.75-33.19-17.65-64.74-40.66-89.2-6.35-6.73-6.13-10.22-15.13-16.87-7.39-5.43-19.55-.86-27.28-4.91l-1.41.41-5.05-.6c-4.5,7.25-5.43,4.76-12.12.75l-5.61,6.39c.44,6.8,5.61,15.68-4.54,19Z" transform="translate(-115.19 -11.18)"/><path class="cls-3" d="M276.12,490.6c-.15-4.2,1.52-12,4.61-14.35,2.19,3.12,2.38,4.79,2.71,9-2.79,2.75-3.83,4.94-7.32,5.39Zm-56.35-62.52c-2.34,2.75-.93,2.12-5.65,2.94l.86,6.17c1.6,15,23.23-1.27,30.1-2,3.24-3.27,3.2-3.13,8.29-1.49-.52,4.42-2.82,5.72-6.76,7.84-6.25,2.53-26.84,10.22-29,15.13.22,6.39,1.45,6.73,4.09,12.38,2.86,22.59,25.38-30.59,48.43-12.79l4.57,2.31L253.52,501l2,4.61,43.56-12.49-.82-16.39c18.36-2.6,30.81,3.57,40-20.63l-.26-8.32-6.24.7c-18,15.87-50.7,15.46-50.48-6.76,4.83-2.79,31.11-19,34.23-19-2.71-15.24-.93-14.5-6.57-19.48L271.4,424.14c-5.43-17.5,27.28-9.77,16.72-30l-1.63-2.71Z" transform="translate(-115.19 -11.18)"/><path class="cls-1" d="M476.56,104.46c-3.9-.92-2,.56-3-3,7.92,2.2,2.46.23,3,3ZM449,99.08c2.86,1.48,3.53-.27,1.12,3.64C446,101,448,101.34,449,99.08Zm-37-8.33c-1-1.75-1.64,2.42-.78-2.49.82-4.39.37-.93,2.19-2.34,3.27,3.08,2.6.7,2.08,5.61-6,1.49-2,.48-3.49-.78Zm37.17-23.53c-.45,6.06,1.67,2.42-3,3.87.26-6.32.38-3,3-3.87Zm-36.09,15C414.6,71.61,436.87,63.13,440,69.68c-3.2,2-10,1.71-15,4.38-4.46,2.38-7.58,6.13-11.85,8.18Zm5-17.88c-8,2.31-12.12,11-13.12,18.81-1.9,14.6,1.15,18.51,2,30.66,4,1.9.11,1.71,4.46.15,2.2-3.27,6.54-6.28,9.48-1.64,3.46-1.33,1.52-2.3,2.79-7.76l6.58,1.74c-3.87,5.61-3.09.26-4.17,6.51-.55,3.23-.52,8.1.82,10.48,4.61-.71,1.15,1.3,4.35-2.9,1.38-3.49,1.19-3.49,4.16-5.5a20.91,20.91,0,0,1,7.4,10.22l4.31-.15c1.12-5.35.71-15.54,5.46-18,1.86,4-4.12,20.78.9,21.08,1.48-2.94,6.17-8.25,9-9.81,4.27,1.37,5.35,2.3,5.65,6.72,2.19,2.46,1.12,0,2.42,4.39l5.27-3-1.22-17.18c5.31.79.7-.48,4.72,2,3.79-4.31,1-2.78,5.42-3.64-.7,5.76-1.78,5.5-6.39,8.89l1.49,10.22,4.27-1.6.63-.49,11.12,8.26C510.68,120.6,504.25,84.28,486,72c-19.29-13-46.31-15.76-67.94-7.66Z" transform="translate(-115.19 -11.18)"/><path class="cls-4" d="M312.51,381.84l-2.57,1.27c1.34,6.69,9.74,11.11,14.27,16.61a155.25,155.25,0,0,1,12.42,17c16.83,27.43,33.26,53.38,30.1,87.91-1.11,12.3-6.5,34.56-17.21,41.77-3.6,20.26-48.65,24.68-62.7,13.9-7.76,0-15.94-5.68-22.19-10.11a58.88,58.88,0,0,1-8.66-7.28c-2.89-3-6.76-5.61-9-8.22-10.44-11.93-15.87-29.54-25.16-42.14.45-3.8-3.31-9.41-4.61-13.64a110.85,110.85,0,0,1-3.6-15.13c-3.31-4-5.06-16.84-6.1-22.6-1.67-9.14-1.78-11.6-11.63-14.53l3.83,37.39L247.91,551c4.31,1.75,4.31,1.49,6.58,5.47l23.3,13.93c22.64,6.21,58,14.46,74-8.17,17.1-24.24,26-34.23,26.39-66.2.49-38.5-15.94-71.51-39.54-100.87-3-3.79-8-8.25-11.45-11.86-6.5-6.61-7-6.8-14.64-1.45Z" transform="translate(-115.19 -11.18)"/><path class="cls-5" d="M180.56,231.13c8.4,3.42,8.25,13.83,28,22.52,5.87,2.61,11.11,4.91,17.28,7.33,7.44,2.9,14.94,1.52,16.91,8.06-14.64.63-26-3.72-38-11.48-10.63-6.88-24.16-11.45-24.2-26.43Zm-11,21.19c-1.63,6.13-.7,1.19.26,5.05l3.68-2.64,5.28-3c12.75,11.56,16,19.81,40.92,31.52,21.15,10,39.21,9.14,61.85,10.55-4.28,1.64-2.79.3-6.06,3.54,5.13-.19,1.71-.86,3,1.89L291,293.35l1-1.79c-.33,0-2.42.15-2.68.08-2.93-.93-.85.07-2.9-1.52l2.09-3.28-3.91-.92c-1.67,11.26-52.07-.79-61.62-4.8-10.26-4.27-40.22-21-40.33-33,11.08,1.11,16.88,20.55,70.84,26.65-7.17-2.35-7.58-2.83-9.51-10l9.89.82c-46.17-17.92-97.35-32.11-89.47-99.61,4.76-41,19.15-21.6,10.82-74-3.83-24-.86-57.2,20.37-72.85,22.86-16.83,44.34,12.6,58,27.43,9,9.82,13.16,20.22,27.4,19.33,5.12-.33,43.78-1.93,43.89-2,5.54-2.53,30.55-38.32,48-46.76,26.65-12.93,48.32,17.73,41.92,44.68,1.45,3.46-2.63,3.64,3.24,2.6C439.73,56.26,466.75,59,486,72c18.21,12.26,24.64,48.58,9.89,60.77l-11.12-8.26,3.61-1.33c2.38,4.75,1.49,5.31.59,10.66l.6,2.83c15.79-2.42-3.5,6.95-4.28,53.41-1,58.8,31.56,128.75-51.25,160.38l-7.4-13.27c-6.28,11.85,25.05,50,31.82,63.22,17.1,33.26,10.67,49.77,2.53,82.44,3.71-1.12,1.78-4.17,2.86.26,11.89-15.39,9.63-54.45,3-72.52C460.1,392.14,437,364.67,434.27,356c21-21.75,49.69-15.09,58.27-59.66,7-36.5-4.53-73.51-3.75-109.94.71-32,26.24-71.84,15.65-97.12C491.17,57.45,450,54.47,420.77,58.75c-6.17-69-52.59-53.34-85.55-12-12.64,15.83-6.14,14.12-27.4,13-10.48-.59-30.18,4.35-37.42-.52-12.86-8.66-24.72-31.48-43.27-42.82-22.86-14-41,2.23-50.51,22.9-14.46,31.44.15,51.18,0,75.86-.11,20.07-20.26,34.56-16,69.58,2,17.09,23.08,50.51,19,61.73Z" transform="translate(-115.19 -11.18)"/><path class="cls-6" d="M332.39,512.64l3.57-3.2c6.84,1.15,7,5.28,2.49,9.89-12.79-1.19-31.15,26.27-44.71,17.21,1.19-5.43,3.27-3.72,9.66-6.73,15.83-7.51,19.36-11.93,29-17.17Zm-52.55,7.65c1.19-5.61,7.24-5.13,12.22-8.06,4.46-2.64,6.62-4.87,12-7.66,8.25-4.31,18.51-14.57,27.13-13.08l-.37,6.8c-7.13,4.79-15.76,5.43-26.05,13.12-5.8,4.31-18.92,16.24-24.9,8.88Zm58.53-50.1c-15.64,5-36.9,25.72-59.54,35-37,15.17-38.91,14.87,1.53,37.88,24.3,13.86,42.66,11.74,66-7.25,14.68-11.93,6.84-17.8,5-33-1.45-11.93,2.82-37.58-12.94-32.6Z" transform="translate(-115.19 -11.18)"/><path class="cls-1" d="M266.08,338.47c2.53,4.42,2.12,2.64-1.56,4.87-1.56-3.61-3.64-2.86,1.56-4.87Zm53.26-18c-1.07,1.34-16,10.41-20.44,14.31-13.71,12.08-2.45,13.27-12.67,22.78-6.91,1.49-14.76-1-15.17-9.07-.55-11.15,8.55-10.4,13.76-13,1.07-.55,11.11-10.37,13.45-12.41,8.07-6.95,2.38-12.82,10.56-15.8,7.36-8.06,21.26,7.59,10.51,13.2Zm-52.18,11.63c-6.58-3.12,1.9-23.45,9.18-25.76.19,4.09-3.45,7-5.35,11.56s-1.41,10.75-3.83,14.2Zm19.07-28.1c-1.27,4.8-3.05,0-3.72-.93.19-.07,5.21-4.64,3.72.93Zm-7.77-4.83L265.15,311.3c-6.28,13.49-7.8,13.68-5.57,29.85l3.57,10.51a29,29,0,0,1,9.48,10.56l4.31,4.79c3.23-.11,8.25,2.38,12.93,2.94,5,.6,10.85-.37,15.46.74,3.57-3.94,3.2-2.08,8.7-3.64a23.71,23.71,0,0,0,7.4-3.57c13.3-8.51,18.88-38.09,12.34-51.36-2.38-3.9-10.89-12.38-15.28-13.86-10.44-3.76-15.28-6.14-27.54-4.91Z" transform="translate(-115.19 -11.18)"/><path class="cls-7" d="M201.34,504.42c4.38,3.53,1.93,1.38,2.82,6.06.6,3.09.6,2.23,1.79,5.72l11.52,35c4.64,3.08,7.84,11.3,10.81,16.24l.86,2.41,2.82,2-6.17,1.71a44,44,0,0,1-19.14,1.6l-5.24-27.61h-1.67l.56,28.21c-.56,3.56-3.64,1.89-6.77,1.45l-12.78,0,27.54.48,65.08-5.87c6.84.41,2.86.3,4.42-1.38l-23.3-13.93c-4.28-1.68-4.65-1.27-6.58-5.47l-48.24-86.93-3.72-.41Z" transform="translate(-115.19 -11.18)"/><path class="cls-8" d="M404.83,61.09c-1.86,3.87-1,4-4.91,1.3,1.75-2.23-.48-5.76,4.91-1.3ZM378.7,32.77c-2.86,2.41-5.46,5.31-7.92,7.8-3.6,3.68-5.12,4.76-6.5,8.4,11.34.41,26.2-3,34,8.48-4,2.45-6.88-1-11.19-3.2-9.18-4.61-31.18-3.79-35,12.79,10.18-.45,35-3.65,38.46,10.48-5.61.93-6-2.72-11.55-5.21-6.51-2.93-36.84-7.09-35.65,12.16,8.36,2.34,12-2.57,32.64,4.2,7.84,2.6,17.46,12.26,24.93,11.67.3-4.83,1.31-11.41-.85-15.72l-2.64-.23.34-3.79,3.41-.59c6.92-12,13.42-24.68,6.47-37.65-6.61-12.38-15.31-24.53-29-9.59Z" transform="translate(-115.19 -11.18)"/><path class="cls-8" d="M199.85,83.17c-1.86,3.86-1,4.16-5,1.37,1.67-2-.86-5.46,5-1.37Zm-4.9-25c4.49,3.16,2.08-.11,2.34,4.09-3.94,2.3-1.49,1.82-5.65.78-.19-3.31.18-4.24,3.31-4.87Zm53.52,15.5c-9.63-.56-18.29-2.38-28-1.75-5.43.37-17.13,6.47-20.26,5.17,4.69-12,33.86-8.25,44.31-7.29l.18-3.45L234.86,53a54.21,54.21,0,0,0-20.48-.48c-5.31.86-9.81,4.16-14.53,4.72,3.05-10.67,22.9-7.17,31.15-9.07-2.08-4.42-11.86-16.31-16.06-19.47-26.35-19.59-34.38,58.54-25.16,74.44,4.57-1.15,7.88-6.17,13.08-9.36a126,126,0,0,1,13.83-7.06c17.43-8.07,22.11-2.38,36.39-5.32Z" transform="translate(-115.19 -11.18)"/><path class="cls-1" d="M378.22,291.6c-8.33,3.72-33.34,19-38.28,19.66-1,2.64,2.52,34.16-10.08,49.58-3,3.65-9.14,5.91-10.59,9.78l3.53,5c8.18-3.2,16.17-1.08,26.46-8.77,7.36-5.5,13.2-10.93,18-18.85,6.28-10.44,17.91-47,16.87-58.16Z" transform="translate(-115.19 -11.18)"/><path class="cls-9" d="M364.43,557.35c4.42,4.35,4.76,6.58,3.83,12.56l-15.61-.48c1.56-4.28,7.69-11.26,11.78-12.08Zm37.43-276.82c.29,18.77.33,19-4.61,37.28-8.37,30.88-25.39,61.77-59,70l-8.44-8.32c3.38-3.57,18.58-6.17,25.76-12.57C379,346,382.31,317.58,388,287.7Zm-.15-5.5c-8.59,8.28-25.39,11-29.59,15.35,9.37-1.16,2.57-1.94,6.1,1.22l5.87-1.78c1,11.15-10.59,47.72-16.87,58.16-4.76,7.92-10.6,13.35-18,18.85C339,374.52,331,372.4,322.8,375.6l-2.93-.59c-5.65,2.78-2.94,1.45-7.36,6.83,7.65-5.35,8.14-5.16,14.64,1.45,3.49,3.61,8.44,8.07,11.45,11.86,23.6,29.36,40,62.37,39.54,100.87-.41,32-9.29,42-26.39,66.2-15.94,22.63-51.32,14.38-74,8.17-1.56,1.68,2.42,1.79-4.42,1.38,5.17,4.68,35.42,7.62,44.23,7.84,7.69.23,15.27-.67,21.89-4.05,11.67-6,11.93-1.34,21.71-3.6l10-.56-.19-6.32c0-8.29-4.75-7.47-7.06-12.75,5.39-10.07,15.8-24.75,15.58-37-.6-4.94.18-3.53.63-7.58.18-1.6-.08-2.75.37-4.43,1.15-4.6-.3-1.52,2.34-4.86-.11-28.25-5.39-33.19-9.33-51-4.09-18.32,15.8-26.39,20.85-36.91-9.59.86-18.69,19.63-24,25.35,0,0-28.13-41.44-29.66-44.34,15.46-10.92,32.38-13.45,43.15-33.23,5.8-10.66,20-44.26,19.18-55.08,3.79-22.11-.52-26.31.82-36.2,1.93,3.72.07,5.8-2.19,8Z" transform="translate(-115.19 -11.18)"/><path class="cls-8" d="M388,287.7c-5.72,29.88-9,58.28-32.48,79.2-7.18,6.4-22.38,9-25.76,12.57l8.44,8.32c33.63-8.21,50.65-39.1,59-70,4.94-18.29,4.9-18.51,4.61-37.28Z" transform="translate(-115.19 -11.18)"/><path class="cls-10" d="M149.3,573.26c.67-3.76,1.12-3,.23-7.33-10.3-5.57-2.86-43.41-2.9-54-.08-9.66-5-14.09-11.45-20.22-31.59-30.22-10.59-104,6.95-112.76l5.39,5.31,1.71,0c-13-22.48-21.82-45.19-16.47-71.8,4.69-23.42,16.36-42.26,37.39-53l21.3,20.36L191,300.49c-12.63-2.27-10.22-6.73-27.46-2.64,1.48,1.37.48,2,7.8,2.08,3.46,0,4.46-.45,8.14.26,4,.78,10,3.75,14,5.39l.26-27c4.9-.11,6.09,1.68,11.18,2.87-5.46-5.06-13.75-6.17-18.91-11.34-3.54-3.53-13-10.56-12.57-15.39l-3.68,2.64c-1-3.86-1.89,1.08-.26-5.05-4.79,11.78-33.74,12.3-41.14,67.9-2.31,17.28,1.23,30.37,8.25,45.94,7,15.39-2,6.88-13.27,35.23-10.81,27.29-12.52,61.11,4.91,86.2,13.56,19.51,15.87,9.84,13.45,39.95-1.08,13.31-3.08,35.87,7.58,45.72Z" transform="translate(-115.19 -11.18)"/><path class="cls-1" d="M209.81,308.48c4,6.31-.22,5.65,7.55,10.14a71.64,71.64,0,0,1,9.7,6.17c2.86,2.23,6.47,4.76,8.88,7.29,8.85,9.33,3.83,3.08,8.85,7.65l6.35.49,1.42-9.11c2-5.91,5.35-10.52,6.2-17.06-3.83-1.56-2.38-.41-5-2.94-7.69.38-35.6-13.75-41.44-19.1l-3.49,1.12Z" transform="translate(-115.19 -11.18)"/><path class="cls-3" d="M253.48,274.77c7.21,4.83,22.42,9.73,31.11,11.15l3.91.92c4.72-.81,6.13.08,10.66.15,6,0,7.88-2.23,11.52,1l1.53-1.56c1.23-1.22,26.76-10.33,29.88-11l4.65-5.61,1.19-2.93-20.45.14c-6.5,3.24-5.2,5.17-16.2,7.7a66.29,66.29,0,0,1-21.82.82c-16.54-1.94-14.75-13.76-35.6-10l-9.89-.82c1.93,7.21,2.34,7.69,9.51,10Z" transform="translate(-115.19 -11.18)"/><path class="cls-4" d="M284.59,285.92c-8.69-1.42-23.9-6.32-31.11-11.15-54-6.1-59.76-25.54-70.84-26.65.11,12,30.07,28.73,40.33,33,9.55,4,60,16.06,61.62,4.8Z" transform="translate(-115.19 -11.18)"/><path class="cls-11" d="M244.71,66.37l3.76,7.32,4.61,7.73c-14.28,2.94-19-2.75-36.39,5.32a126,126,0,0,0-13.83,7.06c-5.2,3.19-8.51,8.21-13.08,9.36-9.22-15.9-1.19-94,25.16-74.44,4.2,3.16,14,15.05,16.06,19.47-8.25,1.9-28.1-1.6-31.15,9.07,4.72-.56,9.22-3.86,14.53-4.72a54.21,54.21,0,0,1,20.48.48Zm-56.05,42.48c5.06-.74,8.14-6.21,12.34-9.48,4.54-3.53,9.89-5.72,14.91-8.29,18.77-9.59,28-2.3,39.62-6,1.71-9.78-32.34-63.3-49.73-62.37-23.75,1.26-27.88,72.29-17.14,86.19Z" transform="translate(-115.19 -11.18)"/><path class="cls-7" d="M319.34,320.52l2.05-6.32c-3.27-7.43-4.05-8.33-12.56-6.88-8.18,3-2.49,8.85-10.56,15.8-2.34,2-12.38,11.86-13.45,12.41-5.21,2.61-14.31,1.86-13.76,13,.41,8.1,8.26,10.56,15.17,9.07,10.22-9.51-1-10.7,12.67-22.78,4.46-3.9,19.37-13,20.44-14.31Z" transform="translate(-115.19 -11.18)"/><path class="cls-12" d="M197.92,283.69l3.27,2.08L212.3,292c5.84,5.35,33.75,19.48,41.44,19.1,4.09.45,7,1.16,11.41.19l13.31-12.08c-1.3-2.75,2.12-2.08-3-1.89-7-.34-12.9,1.45-21.59.37a93.57,93.57,0,0,1-17.73-3.94c-8.81-2.9-23.16-10.37-31.19-12.3-5.09-1.19-6.28-3-11.18-2.87l.29,3.2c6.4.11,1.6-.07,3.87,1.9Z" transform="translate(-115.19 -11.18)"/><path class="cls-13" d="M310.68,288l-21.81.38c4.64,2.89,7.73.37,17.06,1.89,5.83,1,9.21,1.93,13.3,5.8,8.48-.08,20.56.3,28.66-1s16.06-4.72,24.23-4.68c4.2-4.39,21-7.07,29.59-15.35a42,42,0,0,0,.3-5c-.67-3.46.92-1.56-1.9-3.24-14,14.09-81.1,30-89.43,21.26Z" transform="translate(-115.19 -11.18)"/><path class="cls-14" d="M202.94,184l-2.12.18.07-2c-2.15,2-4.38,7.17-5.2,11.18-2.9,14.09-1.6,4.87-4.05,10.19,5.35,5.05,3.08,9.22,10.11,16.46a51.11,51.11,0,0,0,7.24,6.43,20.71,20.71,0,0,0,4.46,1.9c8.7.82,2.68.56,4.84-1.52-3.16-2.64-14.76-4.13-19.14-17.7,9.55,2.83,14.71,5.95,25.6,7.66,15.69,2.49,20.82-.45,25.17,6.1,9.14-7,19-2.12,24.56-9.41-5.31-3.08-15.83,4-22.33,1.3,1.26-11.67,9.25-3.49,18-8.88-4.91-3.9-6.73-.63-13.83-1,1.45-6.69,4.5-4.46,5.65-9.33-5.2.33-6.69,4.79-10.59,8.66-7.66.29-16.62-4.28-20.74-1.68,4,3.13,13.75,4.43,19.21,5.36L248,215.19c-19.62.29-32.52-3.46-49.61-11.34-.6-8.44.4-13.53,4.57-19.88Z" transform="translate(-115.19 -11.18)"/><path class="cls-15" d="M374.5,33.77l4.2-1c13.68-14.94,22.38-2.79,29,9.59,6.95,13,.45,25.64-6.47,37.65l-3.41.59,3.67.26-1.37,3.76c2.16,4.31,1.15,10.89.85,15.72-7.47.59-17.09-9.07-24.93-11.67-20.67-6.77-24.28-1.86-32.64-4.2l-3.12.78c3.79,8.47,17-4.31,44.27,12,3.71,2.27,15.53,7.36,17.32,9.78,2.15,3,5.87,18.47,5.42,21.78l.26-5.32,3.27-.41.75-6.58-3.05,2.16L407,113.83c-.89-12.15-3.94-16.06-2-30.66,1-7.84,5.09-16.5,13.12-18.81-5.87,1-1.79.86-3.24-2.6l-1.33-.41c1.45-12.86-1.94-23.3-10.74-32.6-9.07-9.58-22.83-6.5-28.29,5Z" transform="translate(-115.19 -11.18)"/><path class="cls-16" d="M304.89,234.33c.7-.37.26-4.43,4.87,1.08-4.09,3.3-3.09,2.26-4.87-1.08Zm-18,1.19c1.19-1.19-3.68-2.38,3.46-2.35-.67,3.16.29,3.65-3.46,2.35Zm15.83-23.27c-4.2.89-3.68.67-7.54-.41,5.91,16.54-17.06,26.06-29.1,16.35,4.38-3,8.25-2.6,9.51-7.24-4.9-.19-14.27,4.75-20.22,6.17-6.24,1.45-17.91,1.52-22.3,4.75,8.66,4.58,22.3-5.35,30.59-1.41,7,3.31,3.75,4.2,13.49,4.65,12.08.52,5.69,5.57,14.13,3.53,4.2-6.28-2.16-8.85,7.69-12.56,5.61,7,1.34,5.27,4.53,12.6,7.4,3.71,6.66-1.71,11.56-2.16s7.18,2.94,14.46,0c7.81-3.19,3.68-6.39,13-3.9,5.8,1.52,9.33,4.72,14.68,1.75-2-2.64-5.61-2.2-10.14-3.53l-26.39-9.33c.22,5.42,7.69,5.16,11.82,9.1-10,8.66-28-.78-31.78-7.54-3-5.47-.56-7.06,2-10.78Z" transform="translate(-115.19 -11.18)"/><path class="cls-3" d="M279.5,384.15l1.41-.41c9.37-.63,20.52,3.2,29-.63l2.57-1.27c4.42-5.38,1.71-4,7.36-6.83l-3.5-6.17-11,1.85c-4.61-1.11-10.44-.14-15.46-.74-4.68-.56-9.7-3.05-12.93-2.94l-4.76-2.15c-1.3,5.35-.41,11.52-.07,16.84.63.14,2.93.55,3.08.63Z" transform="translate(-115.19 -11.18)"/><path class="cls-4" d="M342.09,275.43c-3.12.71-28.65,9.82-29.88,11,24.12.89,89.27-10.74,91.47-30.14-1.53.15-23.19,9.59-28,11.26-13.75,4.76-19.62,5-33.6,7.84Z" transform="translate(-115.19 -11.18)"/><path class="cls-17" d="M397.62,187.12c-5.8,4.84,13.9,17.88-15.46,25.5a95.49,95.49,0,0,1-20.26,3.5c-9.51.55-15.24,3-16.61-6.4,6-2.34,15.76-.41,19.18-6.5-8.11-.34-11.3,3.68-20.3,1.71-5-4.83-2.45-8.66-10.92-8.59,3.34,5.17,4.46,1.93,5.64,8.89-5.16.52-10.74-1-14,.78,5.84,7.35,17.06-3.87,17.43,9-6.35.33-16.39-3.68-21.44-.52,3.38,2.19,9.29,2.86,14,3.42,10.52,1.26,6.24-.37,9.89,6,3.64-1.33.67,0,3.45-4.53,12.83.33,38.84-.74,48.43-8.88-2.75,9.66-8.88,8.32-10.59,14.34,7.06-.89,10.33-4.05,13.38-10.78,7.47-16.65,3.72-6.17,8.18-14.05-2.57-1.67-.26-.92-3.27-.59L402,200.58c-.82-6-.41-9.55-4.42-13.46Z" transform="translate(-115.19 -11.18)"/><path class="cls-18" d="M347.7,542.7l3,.3-1.19,3.42c10.71-7.21,16.1-29.47,17.21-41.77,3.16-34.53-13.27-60.48-30.1-87.91a155.25,155.25,0,0,0-12.42-17c-4.53-5.5-12.93-9.92-14.27-16.61-8.51,3.83-19.66,0-29,.63,7.73,4.05,19.89-.52,27.28,4.91,9,6.65,8.78,10.14,15.13,16.87,23,24.46,36.91,56,40.66,89.2,1.34,12.16-5.91,41.18-16.28,48Z" transform="translate(-115.19 -11.18)"/><path class="cls-19" d="M173.46,254.73c-.44,4.83,9,11.86,12.57,15.39,5.16,5.17,13.45,6.28,18.91,11.34,8,1.93,22.38,9.4,31.19,12.3a93.57,93.57,0,0,0,17.73,3.94c8.69,1.08,14.57-.71,21.59-.37,3.27-3.24,1.78-1.9,6.06-3.54-22.64-1.41-40.7-.59-61.85-10.55-24.9-11.71-28.17-20-40.92-31.52Z" transform="translate(-115.19 -11.18)"/><path class="cls-3" d="M320.05,163.11l-1.3,4.91,2.19,4.91c4.54,2.71,5.8,6.39,11.64,6.76l5.09-.37c2.3-3.23,4.09-8.47,6.95-10.85.37-6.95.7-8.77-1.41-15.32l-3.61-3.34-4.27-.11c-6.32,1.37-15,6.65-15.28,13.41Z" transform="translate(-115.19 -11.18)"/><path class="cls-12" d="M319.23,296.1c-1.74.85-2-1-.74,2.16,4.39,1.48,12.9,10,15.28,13.86l3.15,1.23,3-2.09c4.94-.67,29.95-15.94,38.28-19.66-3.53-3.16,3.27-2.38-6.1-1.22-8.17,0-16.17,3.3-24.23,4.68s-20.18,1-28.66,1Z" transform="translate(-115.19 -11.18)"/><path class="cls-20" d="M327.48,267l20.45-.14-1.19,2.93c3.31,3.83,4.46,2.12,10-.3-8.1,1.23-6.13,1.05-6.73-.14-.19-.41-.67-.26-1-.45,6.62-3.87,21.45-6.36,30.18-11,6.84-3.61,20.26-11.34,27.14-13.27-1.82,10-2.53,3.42-7.66,10.52,4.42-1.64,7.25-1.34,6.95,3.64s-4.09,6.46-5.5,7.91c2.82,1.68,1.23-.22,1.9,3.24a42,42,0,0,1-.3,5c2.26-2.16,4.12-4.24,2.19-8-1.34,9.89,3,14.09-.82,36.2l2.72-2.52c2.23,3.71,4.27,8.06,6.57,12,7.1,12.08,1.16,7.95,7.77,10.56-1.3-13-14.86-21.75-14.68-39.77.22-18.77.6-28.18,8.18-44.79-3.16.85-1.56-.67-4.31,1.67l0-2.38c-4.61,1.75-12.86,7.66-18.66,10.37-6.21,2.94-12,6.32-18.21,8.7-12.15,4.68-20,8.21-32.71,8.14-1.71,0-6.17-.37-7.43-.22-4.68.48-3.12-1.6-4.8,2Z" transform="translate(-115.19 -11.18)"/><path class="cls-21" d="M356.7,269.52c-5.5,2.42-6.65,4.13-10,.3l-4.65,5.61c14-2.82,19.85-3.08,33.6-7.84,4.8-1.67,26.46-11.11,28-11.26-2.2,19.4-67.35,31-91.47,30.14L310.68,288c8.33,8.7,75.42-7.17,89.43-21.26,1.41-1.45,5.2-3,5.5-7.91s-2.53-5.28-6.95-3.64c-2.23-.12-33.64,13.86-42,14.3Z" transform="translate(-115.19 -11.18)"/><path class="cls-7" d="M211.75,166.83l-.79,2.34c6.55,1.23,12.75,7.29,16.62,12.45l1.37-.78,5.47.19c0-6.17,3-6.54,3.9-14.16.85-7.36-.07-9.7-1.67-16.5l-5.24.07c-6.77,4.53-14.2,9.81-19.66,16.39Z" transform="translate(-115.19 -11.18)"/><path class="cls-22" d="M340.27,85.25l3.12-.78C342.2,65.22,372.53,69.38,379,72.31c5.57,2.49,5.94,6.14,11.55,5.21C387.1,63.39,362.31,66.59,352.13,67c3.79-16.58,25.79-17.4,35-12.79,4.31,2.16,7.17,5.65,11.19,3.2-7.81-11.49-22.67-8.07-34-8.48,1.38-3.64,2.9-4.72,6.5-8.4,2.46-2.49,5.06-5.39,7.92-7.8l-4.2,1c-7,3.2-42,49.1-34.23,51.48Z" transform="translate(-115.19 -11.18)"/><path class="cls-5" d="M421,112.34c2.9,6.51,2.27,9,2.27,16.06l-.6,9.59c-8.29,1.67-2.6-.74-7.84-3.16-4.79-2.79-4.57-5.76-4-11.71l-3.27.41-.26,5.32c15.46,18.21,14.54,73.07,10.48,97.23l2.05-1.71.48,2.67,2.71-19.7c.86-23.15,1.86-43.22-6.28-64.11.34-.15.86-.52,1-.22.07.11,10.74.07,8.4-12.79,1.78-3.86-.41-2.34,3.45-3.27l.86,4.94c.85,5,.15,2.05,2,4,.18-5.35-1.67-7.88-1.08-15.46-3.2,4.2.26,2.19-4.35,2.9-1.34-2.38-1.37-7.25-.82-10.48,1.08-6.25.3-.9,4.17-6.51l-6.58-1.74c-1.27,5.46.67,6.43-2.79,7.76Z" transform="translate(-115.19 -11.18)"/><path class="cls-23" d="M413.45,560.43c3.31-3.49,1.86-2.19,6.28-1.78l.6,4.5c2.34,2.45,1-2.72,2.3,4.05.89,4.72-3.53,7.51-11.15,4.94-.78-3.57-1.89-10,2-11.71ZM371,565.08l.19,6.32-10,.56c3.79,2.52,12.52,2,19.84,2.89,13.12,1.6,30.15.71,43.45.45,8.59-.15,15,.41,18.32-3.12l-5.31.11.71-1.34c-1.9-6.06-1.79-6.39-1.12-12.6-3.46,4.54-1.15,6.13-1.71,12.53l-9.7.56c-2.45-6.43.67-10.56-5-16.28-4.2-.38-8.07,0-10.22,4.27-2.6,5.2.11,8.81-2.19,13.08-4.09-6.17,2.86-14.75-4.69-17.35-.93,2.37,0,11.44-1,17.06a9.34,9.34,0,0,1-1.08-.38l-3.56-2.78-.45,2.45c-2.3,3.57,1.9,1.23-3.64,2.6L382,573.63l-.33-3-3.5-.92c-.37-4.84,1.27-12.6-.48-15.91-4.05,4.27-2.38,10.89-2.71,16.65-5-1.79-.08-.78-3.91-5.39Z" transform="translate(-115.19 -11.18)"/><path class="cls-24" d="M271.92,169.17c-4.65,5.54-15.65,10.82-22.86,10.86,11-17.44,3.31-18.85,2.71-30.93,9.63,2.72,19.11,9,20.15,20.07Zm-35.27-20.33c6.39-.59,9.21-2.56,12.52,4,2,4,2.64,9.29,2.42,14-.82,15.69-11.89,14.24-17.17,14.2l-5.47-.19c3,3.27,13.83,10.08,18.48,10.52-1.68-5.31-3.42-2.79-6-7.39,10-1.6,21.71-.79,34.76-13.5-2.31-17.09-28-32.59-39.51-21.63Z" transform="translate(-115.19 -11.18)"/><path class="cls-25" d="M231.41,150.44l5.24-.07c1.6,6.8,2.52,9.14,1.67,16.5-.89,7.62-3.94,8-3.9,14.16,5.28,0,16.35,1.49,17.17-14.2.22-4.68-.41-10-2.42-14-3.31-6.58-6.13-4.61-12.52-4Z" transform="translate(-115.19 -11.18)"/><path class="cls-13" d="M279.84,520.29c6,7.36,19.1-4.57,24.9-8.88,10.29-7.69,18.92-8.33,26.05-13.12l.37-6.8c-8.62-1.49-18.88,8.77-27.13,13.08-5.35,2.79-7.51,5-12,7.66-5,2.93-11,2.45-12.22,8.06Z" transform="translate(-115.19 -11.18)"/><path class="cls-13" d="M208.55,253.65c-19.74-8.69-19.59-19.1-28-22.52,0,15,13.57,19.55,24.2,26.43,12,7.76,23.34,12.11,38,11.48-2-6.54-9.47-5.16-16.91-8.06-6.17-2.42-11.41-4.72-17.28-7.33Z" transform="translate(-115.19 -11.18)"/><path class="cls-26" d="M249.06,180c7.21,0,18.21-5.32,22.86-10.86-1-11.11-10.52-17.35-20.15-20.07.6,12.08,8.26,13.49-2.71,30.93Z" transform="translate(-115.19 -11.18)"/><path class="cls-26" d="M357.11,153.93c4.75,5.77,1.89,16.13-.11,23.16-.38,4.2-1.23,1.49.85,3.49l3.23-1.3c6.69-1.74,13.46-7.39,17.51-12.49-4.09-9.62-11.15-13-20.7-16.35-2.08,2.16-1.23-.56-.78,3.49Z" transform="translate(-115.19 -11.18)"/><path class="cls-21" d="M463.59,122.16c4.13,5.31,5.54,14.31-1,18.21-8.21-4.83-4.83-16.58,1-18.21Zm-24.45,16.42c-4.32-.18-4.65-.89-5.69-6.57-.78-4.35-.89-7.25.82-11,7.62,1.49,7.73,11.37,4.87,17.54Zm-7.81-18.17c-.59,7.58,1.26,10.11,1.08,15.46.18,5.06,1,5.72,5.87,7.06,7.77-3.83,4.05-8.66,6.91-15,7.07,3.87,8.37,6.21,11,10.86,3.38,6.06,11.33,8.4,12-.08,1.49-7.39.93-6.72,0-13.79-.3-4.42-1.38-5.35-5.65-6.72-2.82,1.56-7.51,6.87-9,9.81-1.68,3.27,2.34,1.19-2.31,2.93-1.52-3.86-.85-2.26-.37-6.61l-3.68.63-4.31.15a20.91,20.91,0,0,0-7.4-10.22c-3,2-2.78,2-4.16,5.5Z" transform="translate(-115.19 -11.18)"/><path class="cls-26" d="M210.33,436.15l2.12,17.35c4.24,4.5-.89,2.12,5.13,3.2,2.19-4.91,22.78-12.6,29-15.13,3.34-6.06,3.42-1.15,4.87-7.36l-6.4,1c-6.87.7-28.5,17-30.1,2-4.16-4.76.48-2.75-4.83-4.76Z" transform="translate(-115.19 -11.18)"/><path class="cls-15" d="M253.19,390.73c1.48,6,1.82,8.36.41,14.38-7.55-1.63-11.56-15.05-.41-14.38Zm14.38-24c2.27,8,4.09,7.66,2.79,16.95-8.77-.07-12-17.24-3.09-17.35-2.75-3.13-2.71-3.39-6.32-.9l-1.52,16.25c-3.31-1-.33.78-3.08-1.64l-2.64-.56c1.26-.18.81-1,.74.78l1.49,7c-6.17.19-10.93-2.08-11.41,7.06l-.23,5.95,5,6,2.9,3.45c10.15-3.31,5-12.19,4.54-19l5.61-6.39c6.69,4,7.62,6.5,12.12-.75l5.05.6-4.31-1.82c-.15-.08-2.45-.49-3.08-.63-.34-5.32-1.23-11.49.07-16.84l4.76,2.15-4.31-4.79-3.24-2.34c.26,3.05-.15,2.45.93,6.06Z" transform="translate(-115.19 -11.18)"/><path class="cls-8" d="M292,205.71c2.12,4.24,2.9,3.94,7.24,4.27,5.77-3.64,3.8-4.46,6.14-10l4.75.19,2.27-.52v-3.79c-6.47-2.45-8.88-7.73-18.21-6.21-5.43.89-11.49,4.72-11.75,10,6.29,1.56,6.81-1.26,9.56,6.06Z" transform="translate(-115.19 -11.18)"/><path class="cls-13" d="M332.39,512.64c-9.63,5.24-13.16,9.66-29,17.17-6.39,3-8.47,1.3-9.66,6.73,13.56,9.06,31.92-18.4,44.71-17.21,1.6-4.54,2.27-3.27.37-7.7-4.27-1.48-2.6-1.22-6.43,1Z" transform="translate(-115.19 -11.18)"/><path class="cls-4" d="M343.21,153.15c2.11,6.55,1.78,8.37,1.41,15.32L340.53,180l10.3,1a26,26,0,0,0,5.5-14.27c.93-8.77,0-9.7-4.91-15.61l-7-2.12c-2.09,3-1.53-.22-1.19,4.16Z" transform="translate(-115.19 -11.18)"/><path class="cls-10" d="M335.33,149.7l4.27.11,3.61,3.34c-.34-4.38-.9-1.15,1.19-4.16l7,2.12,5.69,2.82c-.45-4.05-1.3-1.33.78-3.49,9.55,3.35,16.61,6.73,20.7,16.35-4,5.1-10.82,10.75-17.51,12.49l-3.56,3.31c3.34,3.09.59,1.19,4.53,1.52,4.87-1.3,12.67-2.49,16.09-4.94-3.23-1.93-4.12-1.3-6.09-2.08,3.34-2.94,5.87-5.65,9.51-6.84,3.24,4,1.34,4.09,6.25,5.32-2.27-13.16-25.39-34.61-47.8-28.21a18.38,18.38,0,0,0-2,.7,10,10,0,0,0-2.71,1.64Z" transform="translate(-115.19 -11.18)"/><path class="cls-18" d="M221.78,492.57c9.29,12.6,14.72,30.21,25.16,42.14,2.27,2.61,6.14,5.21,9,8.22a58.88,58.88,0,0,0,8.66,7.28c6.25,4.43,14.43,10.07,22.19,10.11-3.12-6-14.71-7.51-20.29-12.08-5.84-4.87-11.34-9.51-16.5-15.38-6-6.81-22.08-38.58-23.34-39.33l-3.35-4.09Z" transform="translate(-115.19 -11.18)"/><path class="cls-27" d="M194.87,421.54l3.31,1.89c-.37.26-.82.45-1.12.71s-.7.45-1,.74a10.13,10.13,0,0,0-.89.78c-2.56,3-1.34,4.17-1.89,8l2.71,30,3.72.41-3.83-37.39c9.85,2.93,10,5.39,11.63,14.53,1,5.76,2.79,18.58,6.1,22.6l-1.12-10.3-2.12-17.35c-2.93-2.53-1.74-1.3-1.82-5.17l5.61,0c-.44-4.91.56-4.39-1.89-8.18l-.37,5.28c-5.58.82-8.4-1-12.12-4.72,0-7.25,2-3.53,2.56-9.52-6.46,1.75-3.41,4.35-7.43,7.66Z" transform="translate(-115.19 -11.18)"/><path class="cls-10" d="M180,402.92c-1.41-6.77-18.28-20.82-23.56-32-2.53-5.38-15.2-38.58-15.8-39.21-6,11.08,25.09,67.57,39.36,71.18Z" transform="translate(-115.19 -11.18)"/><path class="cls-8" d="M201.19,285.77l-3.27-2.08c-6.43-.26-2.38,17.65-2,18.8.93,2.64,2.6,3.72,4.31,6.28,3.42,5.21,1,4.35,7.29,4.54-.49-26.95-2.16-20.7-6.36-27.54Z" transform="translate(-115.19 -11.18)"/><path class="cls-19" d="M356.7,269.52c8.32-.44,39.73-14.42,42-14.3,5.13-7.1,5.84-.49,7.66-10.52-6.88,1.93-20.3,9.66-27.14,13.27-8.73,4.6-23.56,7.09-30.18,11,.3.19.78,0,1,.45.6,1.19-1.37,1.37,6.73.14Z" transform="translate(-115.19 -11.18)"/><path class="cls-28" d="M164.06,563.59c1,7.7,4.05,7.18.19,14.35-5.65,0-3.65-.33-9-2.08,5.68,5.5,29.36,4,40.7,3.86,11-.15,9.18.56,12.3-2.08l-27.54-.48c-3.2-3-2.05-4.2-2.16-9.4l-3.83,6.57c0-.37-.26-1.67-.33-2.11l-1-11.12c-.26-4.94,1.41-10-2-12.15-4.42,7.32.7,18.88-2.45,27-4.13-3.19.78-6.69-4.91-12.34Z" transform="translate(-115.19 -11.18)"/><path class="cls-29" d="M286.82,560.32c14.05,10.78,59.1,6.36,62.7-13.9l1.19-3.42-3-.3c-6.28,11.9-11.74,13.76-24.23,18-5.65,1.9-13.19,2.49-19.44,2-7.13-.49-9.77-3.83-17.21-2.42Z" transform="translate(-115.19 -11.18)"/><path class="cls-30" d="M242.67,344.64l-2.79-5,4.91.11c-5-4.57,0,1.68-8.85-7.65-2.41-2.53-6-5.06-8.88-7.29a71.64,71.64,0,0,0-9.7-6.17c-7.77-4.49-3.57-3.83-7.55-10.14l-.15,7.24c-5.35.75-4.46.26-9.77-1.45-2.23-4.72-.11-2.71-4-6.2l.82,4.83c-5.39.56-11.79-.08-16.06,2.53,6.17,3.94,23.6-5.95,50.17,16.83,5.06,4.35,5.28,9,11.9,12.38Z" transform="translate(-115.19 -11.18)"/><path class="cls-31" d="M193.24,433.62c.55-3.79-.67-4.94,1.89-8a10.13,10.13,0,0,1,.89-.78c.34-.29.78-.52,1-.74s.75-.45,1.12-.71l-3.31-1.89c-10.33,2.38-20.29-9.66-26.57-15.8-3.05-2.93-18.1-21.07-19.07-21.52l-1.71,0c2,7.88,12.67,19.22,18.51,24.9,8.81,8.51,13.86,13.53,26.09,18.14Z" transform="translate(-115.19 -11.18)"/><path class="cls-32" d="M305.33,370.69l11-1.85,3.5,6.17,2.93.59-3.53-5c1.45-3.87,7.62-6.13,10.59-9.78,12.6-15.42,9.11-46.94,10.08-49.58l-3,2.09-3.15-1.23c6.54,13.27,1,42.85-12.34,51.36a23.71,23.71,0,0,1-7.4,3.57c-5.5,1.56-5.13-.3-8.7,3.64Z" transform="translate(-115.19 -11.18)"/><path class="cls-10" d="M453.33,497.21c-6.28,4.13-7.76.3-8.66,6.06,4.83,2.9,6.14,0,10.11-1.9,2,9.11,1.75,19.26.93,28.66-.67,7.66-1.08,23.08-6.65,23.45l1,4.39,0,1.67,2.16,1.08-.86,3.46c6.21-6.66,6.62-21.71,7.4-31.19.89-11.07-1.94-28.88-.6-37.09l-5.05,4Z" transform="translate(-115.19 -11.18)"/><path class="cls-33" d="M252.56,331.11l-1.42,9.11-6.35-.49-4.91-.11,2.79,5c2.67,3.68,9.22,7.4,13.75,7.66,4.2.93,4.2,1.93,6.73-.64l-3.57-10.51c-4.31-3.79-2.49-7.4-3-12.75Z" transform="translate(-115.19 -11.18)"/><path class="cls-28" d="M134.55,478.15c1.3-1.83-3.5-19.63-4.28-31.3-.85-12.3,3.76-26.65,2.9-36.76-4,2.19-4.12,9.67-4.87,14.46-2.11,13.31-3.41,46.5,6.25,53.6Z" transform="translate(-115.19 -11.18)"/><path class="cls-34" d="M379.56,515.35l3.19-4.35c11.23,5.35,32.71,5.5,45.5,3.53,5-.74,8.84-2.41,11.78-6.24l-2.68.33.63-2.41c-5.53,3.86-3.49,4.31-12.22,5.31-11.12,1.27-34.87,1.56-43.3-4.42l.44-8.62c-2.64,3.34-1.19.26-2.34,4.86-.45,1.68-.19,2.83-.37,4.43-.45,4.05-1.23,2.64-.63,7.58Z" transform="translate(-115.19 -11.18)"/><path class="cls-4" d="M180.75,577.16l12.78,0c1-5.17-1.3-17.84-6.17-21.41-6.39,3.34-7.17,14.42-6.61,21.37Z" transform="translate(-115.19 -11.18)"/><path class="cls-35" d="M299.16,131.86c2.12-4,1.68-46.31-.11-50.44-6.28,2.16-2.41,25.5-2.53,38.69,0,5.06-1.52,10.22,2.64,11.75Z" transform="translate(-115.19 -11.18)"/><path class="cls-4" d="M414.79,134.83c5.24,2.42-.45,4.83,7.84,3.16l.6-9.59c-4-1.93-1.6-9.63-4.87-14.46-5,.6-5.09,1.53-5.39,7.32-.37,6.21.11,7.88,1.82,13.57Z" transform="translate(-115.19 -11.18)"/><path class="cls-22" d="M248.47,73.69l-3.76-7.32-.18,3.45c-10.45-1-39.62-4.68-44.31,7.29,3.13,1.3,14.83-4.8,20.26-5.17,9.7-.63,18.36,1.19,28,1.75Z" transform="translate(-115.19 -11.18)"/><path class="cls-36" d="M263,86c2.45-2.19,4.16.82,1.23-6.91-.41-1-2.2-4.68-2.87-5.87-1.85-3.46-4.53-7.14-6.57-10.63-3.61-6.17-9.26-19.14-15.09-21.63,1.11,6.13,16.94,30.25,23.3,45Z" transform="translate(-115.19 -11.18)"/><path class="cls-14" d="M332.35,84.91c5.43-4.9,8.63-14.6,12.23-21.33,3.76-7.06,11.78-16.06,14-21.52-8.25,2.68-11.82,11.78-16.42,19.1-2.23,3.54-4.17,7.4-6.14,11.19-1,1.93-1.89,3.76-2.9,5.65-4.16,7.84-1.33,5.91-.78,6.91Z" transform="translate(-115.19 -11.18)"/><path class="cls-37" d="M178.59,567.76c.11,5.2-1,6.35,2.16,9.4-.56-6.95.22-18,6.61-21.37,4.87,3.57,7.18,16.24,6.17,21.41,3.13.44,6.21,2.11,6.77-1.45l-3.16-1.08c-.34-8.1-1.79-19.37-9.78-23.08-6,2.27-8.88,9.88-8.77,16.17Z" transform="translate(-115.19 -11.18)"/><path class="cls-38" d="M173.87,171.29c4-1.71,2.27-11,5.17-22.78,1.15-4.65,6.43-18.51,4.64-21.75-6.13,2.76-13.41,39-9.81,44.53Z" transform="translate(-115.19 -11.18)"/><path class="cls-20" d="M468.2,124.94c.93,7.07,1.49,6.4,0,13.79,3.75-4.16.89-2.64,3.53-6.76l5.17-.89-.41,3.68c3.79-3.13,1.15-1.53,3.9-4.54,3.64-4,2.19-.3,3.79-5.2l-4.27,1.6-1.49-10.22c4.61-3.39,5.69-3.13,6.39-8.89-4.42.86-1.63-.67-5.42,3.64-4-2.45.59-1.18-4.72-2l1.22,17.18-5.27,3c-1.3-4.39-.23-1.93-2.42-4.39Z" transform="translate(-115.19 -11.18)"/><path class="cls-18" d="M193.5,305.58l2.34,2.49c3.94,3.49,1.82,1.48,4,6.2,5.31,1.71,4.42,2.2,9.77,1.45l.15-7.24-1-15.35L212.3,292l-11.11-6.24c4.2,6.84,5.87.59,6.36,27.54-6.25-.19-3.87.67-7.29-4.54-1.71-2.56-3.38-3.64-4.31-6.28-.41-1.15-4.46-19.06,2-18.8-2.27-2,2.53-1.79-3.87-1.9l-.29-3.2Z" transform="translate(-115.19 -11.18)"/><path class="cls-10" d="M414.64,261.61c-4.42,5.94-.48,41.07,7.36,47.24,1-1.79,1-.82,1-3a5,5,0,0,0-.78-2.6c-9.92-23.05-2.71-35.05-7.62-41.63Z" transform="translate(-115.19 -11.18)"/><path class="cls-39" d="M213.57,463.8a110.85,110.85,0,0,0,3.6,15.13c1.3,4.23,5.06,9.84,4.61,13.64l1.56-3.13,3.35,4.09c-2.08-8.84-7.44-17.28-8.44-26.13l3.42,1.68c-2.64-5.65-3.87-6-4.09-12.38-6-1.08-.89,1.3-5.13-3.2Z" transform="translate(-115.19 -11.18)"/><path class="cls-11" d="M209.26,572.55c.92-4.57,1.15-8.66,5.09-11.26,4.9.93,7.5,6.43,7,11.33-4.79,1.38-7.54,2-12.07-.07Zm-2.61,2.6a44,44,0,0,0,19.14-1.6c-1.26-5.5-4.72-11.33-7.58-16.13-11.07.26-11.59,7.62-11.56,17.73Z" transform="translate(-115.19 -11.18)"/><path class="cls-40" d="M291,293.35c12.26-1.23,17.1,1.15,27.54,4.91-1.26-3.16-1-1.31.74-2.16-4.09-3.87-7.47-4.83-13.3-5.8-9.33-1.52-12.42,1-17.06-1.89l21.81-.38c-3.64-3.27-5.5-1-11.52-1-4.53-.07-5.94-1-10.66-.15l-2.09,3.28c2,1.59,0,.59,2.9,1.52.26.07,2.35-.11,2.68-.08Z" transform="translate(-115.19 -11.18)"/><path class="cls-41" d="M282,202.81l6.4-1.49,3.68,4.39c-2.75-7.32-3.27-4.5-9.56-6.06.26-5.28,6.32-9.11,11.75-10,9.33-1.52,11.74,3.76,18.21,6.21l-1-3.49c-2.16-4.35-12.34-6.25-17-5.65-6.17.81-12.75,4.79-15.68,9.51.52,5.06-.56,3.75,3.15,6.58Z" transform="translate(-115.19 -11.18)"/><path class="cls-27" d="M344.62,168.47c-2.86,2.38-4.65,7.62-6.95,10.85l-5.09.37c2.45,1.93.78,1.41,5.31,1.67l15.31,1.08,3.8-5.35c2-7,4.86-17.39.11-23.16l-5.69-2.82c4.91,5.91,5.84,6.84,4.91,15.61a26,26,0,0,1-5.5,14.27l-10.3-1Z" transform="translate(-115.19 -11.18)"/><path class="cls-4" d="M153,562l-2.6,8.58c4.87,3.13,7.84,5.21,13.38,5-1.26-5.91-.93-11.34-4.91-15.68Z" transform="translate(-115.19 -11.18)"/><path class="cls-17" d="M313.92,164.42c3.16-4.13,2.82-14.91,4.94-21,2.79-8,7.88-12,10.07-17.87-11.11,3-20.36,32-15,38.84Z" transform="translate(-115.19 -11.18)"/><path class="cls-11" d="M476.49,134.76c-2.38,5.35-2.49,7.32-1.12,13.19l6.92,1.19,7.32-12.45-.6-2.83c-5.65,4.24-3.75,8.37-9.25,11.38-4.76-7.1,4.2-14.46,8.66-22l-3.61,1.33-.63.49c-1.6,4.9-.15,1.22-3.79,5.2-2.75,3-.11,1.41-3.9,4.54Z" transform="translate(-115.19 -11.18)"/><path class="cls-4" d="M364.43,557.35c-4.09.82-10.22,7.8-11.78,12.08l15.61.48c.93-6,.59-8.21-3.83-12.56Z" transform="translate(-115.19 -11.18)"/><path class="cls-4" d="M212.23,422.84l-4.39-8.7-5.54-.26c-.59,6-2.6,2.27-2.56,9.52,3.72,3.68,6.54,5.54,12.12,4.72Z" transform="translate(-115.19 -11.18)"/><path class="cls-4" d="M443.26,568.35c3.94-1.6,5.39-4.72,6.84-8.81l0-1.67c-4.49-2.6-1.11-1.08-4.64-4.65-7.36,2.49-7.73,8.4-6.43,15.43Z" transform="translate(-115.19 -11.18)"/><path class="cls-42" d="M227.54,411.62c3.46-2.49.56-1.57,6.36-1.6l-.45,6.76c-6.24,1.82-4,1.71-7.1-1.11l-1.19-2.2Zm9.78-2.38-3.42.78c-1.23-3.57-3.13-2.6-7.4-2.6l-6.21,7.76,7.55,4.65,5.69,1.08c1.22-1.94,7.28-11.93,7.58-13.05.07-5.13,1.41-1.82-1.08-3.64l-1.52,3.16c-.12.18-.49,1.11-.56.89s-.37.67-.63,1Z" transform="translate(-115.19 -11.18)"/><path class="cls-43" d="M280.73,161.74c4.87-7.32-2.49-31.33-13.87-35C270.8,135.57,276.53,136,278,152c.49,4.94-.66,7.92,2.72,9.74Z" transform="translate(-115.19 -11.18)"/><path class="cls-44" d="M463.59,122.16c-5.87,1.63-9.25,13.38-1,18.21,6.58-3.9,5.17-12.9,1-18.21Z" transform="translate(-115.19 -11.18)"/><path class="cls-45" d="M237.32,409.24c.26-.3.55-1.16.63-1s.44-.71.56-.89l1.52-3.16c2.49,1.82,1.15-1.49,1.08,3.64l5.46-2.79,2.71,1.16-5-6,.23-5.95c-3.16,1.64-1.23,1.19-1.9,4.61l-1,4.46c-5.84-5.2-7.1-16-13.61-17.91,1,10.11,9.33,13,9.3,23.75Z" transform="translate(-115.19 -11.18)"/><path class="cls-27" d="M397.47,571.51l-11.93.3c-1.3-4.83-.45-8.48,4.65-10.26,6.5,3.42,2,6.69,7.28,10Zm-15.83-.86.33,3,11.86.48c5.54-1.37,1.34,1,3.64-2.6l.45-2.45c-.3-5.17-1.3-5.95-4.28-9.89-9-1.41-10.89,3.42-12,11.48Z" transform="translate(-115.19 -11.18)"/><path class="cls-14" d="M337.89,181.36c4.13,3.24,11,2.94,16.5,3.09-2.86,5.35-11.67,6.8-12.37,13,7.62-.93-2.31,1.15,10.66-6.58a89.06,89.06,0,0,0,9.37-6.73c-3.94-.33-1.19,1.57-4.53-1.52l3.56-3.31-3.23,1.3c-2.08-2-1.23.71-.85-3.49l-3.8,5.35Z" transform="translate(-115.19 -11.18)"/><path class="cls-9" d="M292,205.71l-3.68-4.39-6.4,1.49c3.13,2.38,4.35,1.82,7.33,4.57,2.78,2.64,1.78,3.2,5.87,4.46,3.86,1.08,3.34,1.3,7.54.41,3-1.08,3.79-2.19,3.87-4.94,2.19-4.65.37-1.9,4.24-5.21l-.64-1.93-4.75-.19c-2.34,5.54-.37,6.36-6.14,10-4.34-.33-5.12,0-7.24-4.27Z" transform="translate(-115.19 -11.18)"/><path class="cls-17" d="M212,416.19c1.34,3.94,2,5.76,4.42,8.55.48-6.81,5.87-6.29,11.45-4.91l-7.55-4.65L218,415c-1.38-6.13-4-15.46-10-17.47l6,14.31c.7,5.8,1.89,3.05-2,4.35Z" transform="translate(-115.19 -11.18)"/><path class="cls-46" d="M206,516.2c-1.19-3.49-1.19-2.63-1.79-5.72-.89-4.68,1.56-2.53-2.82-6.06l1.3,5.09c-9.26,8-22.08,1.45-26.09,3.68,4.79,8.11,19.73,3.42,26.91.82Z" transform="translate(-115.19 -11.18)"/><path class="cls-4" d="M209.26,572.55c4.53,2.08,7.28,1.45,12.07.07.52-4.9-2.08-10.4-7-11.33-3.94,2.6-4.17,6.69-5.09,11.26Z" transform="translate(-115.19 -11.18)"/><path class="cls-25" d="M489,133.86c.9-5.35,1.79-5.91-.59-10.66-4.46,7.58-13.42,14.94-8.66,22,5.5-3,3.6-7.14,9.25-11.38Z" transform="translate(-115.19 -11.18)"/><path class="cls-18" d="M411.48,114l.08,2.56-.75,6.58c-.59,5.95-.81,8.92,4,11.71-1.71-5.69-2.19-7.36-1.82-13.57.3-5.79.41-6.72,5.39-7.32,3.27,4.83.85,12.53,4.87,14.46,0-7.1.63-9.55-2.27-16.06-2.94-4.64-7.28-1.63-9.48,1.64Z" transform="translate(-115.19 -11.18)"/><path class="cls-47" d="M252.56,331.11l4.05-2.71c.48,5.35-1.34,9,3,12.75-2.23-16.17-.71-16.36,5.57-29.85-4.42,1-7.32.26-11.41-.19,2.64,2.53,1.19,1.38,5,2.94-.85,6.54-4.2,11.15-6.2,17.06Z" transform="translate(-115.19 -11.18)"/><path class="cls-48" d="M267.57,366.75l-.3-.4c-8.88.11-5.68,17.28,3.09,17.35,1.3-9.29-.52-8.95-2.79-16.95Z" transform="translate(-115.19 -11.18)"/><path class="cls-25" d="M439.14,138.58c2.86-6.17,2.75-16.05-4.87-17.54-1.71,3.72-1.6,6.62-.82,11,1,5.68,1.37,6.39,5.69,6.57Z" transform="translate(-115.19 -11.18)"/><path class="cls-27" d="M153,562l-3.49,1.19v2.78c.89,4.32.44,3.57-.23,7.33,1.49,2.82,3.09,3.19,6,2.6,5.31,1.75,3.31,2.08,9,2.08,3.86-7.17.81-6.65-.19-14.35l.41-2.86-1.64-.85c-4.61-1.42-2.45-.82-3.94,0,4,4.34,3.65,9.77,4.91,15.68-5.54.19-8.51-1.89-13.38-5Z" transform="translate(-115.19 -11.18)"/><path class="cls-49" d="M413.12,82.24c4.27-2,7.39-5.8,11.85-8.18,5-2.67,11.82-2.41,15-4.38-3.12-6.55-25.39,1.93-26.87,12.56Z" transform="translate(-115.19 -11.18)"/><path class="cls-50" d="M247.91,132.75c-1.15-4.83-4.2-6.8-5.61-13.38s1-12.75-2.2-16.36c-4.31,7.88-2.11,27.43,7.81,29.74Z" transform="translate(-115.19 -11.18)"/><path class="cls-16" d="M344.28,131.67c12.42-.93,18.25-18.88,12.64-28-3,5.24-1-.14-1.37,4.13-.3,3,.74,7.47-1.68,12.9-2.82,6.43-7.17,5.24-9.59,11Z" transform="translate(-115.19 -11.18)"/><path class="cls-51" d="M265.41,133.6c-1.93-4.75-4.12-2.15-7.47-10.22-2.56-6.24-.63-10.18-2.93-14.57-4,3.76-2.08,11.45-.15,16.28,1.26,3.12,1.23,3.79,3.64,6.13,3.9,3.87,3.53,3.76,6.91,2.38Z" transform="translate(-115.19 -11.18)"/><path class="cls-49" d="M267.16,332.15c2.42-3.45,2-9.81,3.83-14.2s5.54-7.47,5.35-11.56c-7.28,2.31-15.76,22.64-9.18,25.76Z" transform="translate(-115.19 -11.18)"/><path class="cls-52" d="M310.09,107.47s5.5-24.15,5.5-24.56c-3.9,1.45-4.68.41-6.95,12.19-1,5.09-3.31,11.37,1.45,12.37Z" transform="translate(-115.19 -11.18)"/><path class="cls-51" d="M227.58,181.62c-3.87-5.16-10.07-11.22-16.62-12.45l.79-2.34a16.63,16.63,0,0,0-8.26,7.1c5.88.3,4.28-1,9.82-2.56l4.49,3.15a11,11,0,0,1-1.26,5.84Z" transform="translate(-115.19 -11.18)"/><path class="cls-4" d="M253.19,390.73c-11.15-.67-7.14,12.75.41,14.38,1.41-6,1.07-8.4-.41-14.38Z" transform="translate(-115.19 -11.18)"/><path class="cls-53" d="M202.12,163.23c3.12-2.42,1.75-7,3.72-12.16s5.24-6.28,5.57-10.81c-7.84.7-13.38,17.28-9.29,23Z" transform="translate(-115.19 -11.18)"/><path class="cls-25" d="M397.47,571.51c-5.28-3.27-.78-6.54-7.28-10-5.1,1.78-5.95,5.43-4.65,10.26Z" transform="translate(-115.19 -11.18)"/><path class="cls-14" d="M235.16,134.72c-1.3-5.32-7.17-4.83-10.44-23.71-1.6,2-1.34.29-1.86,3.08a15.88,15.88,0,0,0,.33,4.39,46.41,46.41,0,0,0,2.34,7.58c2.31,5.43,3.87,8.55,9.63,8.66Z" transform="translate(-115.19 -11.18)"/><path class="cls-47" d="M470.84,178.91c-2.57-2.86-5.95-3.57-9.55-7.17-4.17-4.17-3.79-7-9.07-9,1.15,6.69,11,20.81,18.62,16.2Z" transform="translate(-115.19 -11.18)"/><path class="cls-4" d="M413.45,560.43l-.15,10.45,6.21.48.82-8.21-.6-4.5c-4.42-.41-3-1.71-6.28,1.78Z" transform="translate(-115.19 -11.18)"/><path class="cls-51" d="M335.33,130.63c5.13-.56,7.73-2.27,8.69-8.25.71-4.28.9-10-.63-13.86-4.23,3-2,6-2.75,11.55-.78,5.88-3.23,5.77-5.31,10.56Z" transform="translate(-115.19 -11.18)"/><path class="cls-52" d="M285.67,107.29c5-4.46.11-22.86-5.91-23.68Z" transform="translate(-115.19 -11.18)"/><path class="cls-15" d="M202.3,413.88l5.54.26,4.39,8.7c2.45,3.79,1.45,3.27,1.89,8.18,4.72-.82,3.31-.19,5.65-2.94l-3.19-.41-.19-2.93c-2.41-2.79-3.08-4.61-4.42-8.55-.86-4.54-4.83-6.47-9.7-5.69Z" transform="translate(-115.19 -11.18)"/><path class="cls-54" d="M360.41,133.72c8.22-1.49,15.28-15.47,10-22.31-2.64,4.46-.29,6.81-3.6,12.53-2.86,5-5.54,4.68-6.4,9.78Z" transform="translate(-115.19 -11.18)"/><path class="cls-18" d="M437.09,558.35c-.67,6.21-.78,6.54,1.12,12.6l5.05-2.6-4.27.3c-1.3-7-.93-12.94,6.43-15.43,3.53,3.57.15,2,4.64,4.65l-1-4.39-.71-2.78c-6-2-10.85,1.89-11.26,7.65Z" transform="translate(-115.19 -11.18)"/><path class="cls-55" d="M256.42,352.3c4.42,5.24,5.72.22,11.23,8.73-2,1.08-.08.52-2.87,1.08-.11,0-2.75.26-3.23.33l-.6,3c3.61-2.49,3.57-2.23,6.32.9l.3.4,2.75-.81c-1.08-3.61-.67-3-.93-6.06l3.24,2.34a29,29,0,0,0-9.48-10.56c-2.53,2.57-2.53,1.57-6.73.64Z" transform="translate(-115.19 -11.18)"/><path class="cls-46" d="M447.2,125l3.68-.63c-.48,4.35-1.15,2.75.37,6.61,4.65-1.74.63.34,2.31-2.93-5-.3,1-17.1-.9-21.08-4.75,2.49-4.34,12.68-5.46,18Z" transform="translate(-115.19 -11.18)"/><path class="cls-51" d="M392.53,159.77c2.26-2.6,2.71.67,1.41-6.28-1-5-5.09-13.12-12.08-13.38,1.45,2.82,4.46,5.28,6.17,7.91,2.94,4.5.93,7,4.5,11.75Z" transform="translate(-115.19 -11.18)"/><path class="cls-16" d="M268.46,240.46a22.4,22.4,0,0,0,3.46,5.2c4.46,4.54,10.41,5.58,16.76,5.1l-.44-3c-3.05-.85-5.51.41-10.26-2.08-5.54-2.9-3.53-5-9.52-5.24Z" transform="translate(-115.19 -11.18)"/><path class="cls-56" d="M218.21,557.42c2.86,4.8,6.32,10.63,7.58,16.13l6.17-1.71-2.82-2c.19,1.83,1.23.9-1.08,1.23l-2.56-2.68c1.37-2.78-.45-.85,2.78-1-3-4.94-6.17-13.16-10.81-16.24l3.75,8.73Z" transform="translate(-115.19 -11.18)"/><path class="cls-57" d="M417.76,226.08l-8.47,12,0,2.38c2.75-2.34,1.15-.82,4.31-1.67,3.05-2,6.35-7.84,6.65-11.71l-.48-2.67Z" transform="translate(-115.19 -11.18)"/><path class="cls-58" d="M276.12,490.6c3.49-.45,4.53-2.64,7.32-5.39-.33-4.17-.52-5.84-2.71-9-3.09,2.34-4.76,10.15-4.61,14.35Z" transform="translate(-115.19 -11.18)"/><path class="cls-57" d="M461,482.87l-7.7,14.34-.18,2.6,5.05-4c2.46-4.42,5.09-7.62,5.69-12.67-1.08-4.43.85-1.38-2.86-.26Z" transform="translate(-115.19 -11.18)"/><path class="cls-30" d="M431.33,566.83c.82-1.75,1.15-13.79-1.93-18.14-2.46,3.38-1.64,16.87,0,19.85Z" transform="translate(-115.19 -11.18)"/><path class="cls-59" d="M420.33,563.15l-.82,8.21-6.21-.48.15-10.45c-3.86,1.71-2.75,8.14-2,11.71,7.62,2.57,12-.22,11.15-4.94-1.26-6.77,0-1.6-2.3-4.05Z" transform="translate(-115.19 -11.18)"/><path class="cls-60" d="M443.26,568.35l-5.05,2.6-.71,1.34,5.31-.11c4.2.26,7.14-4.24,8.59-8.1l.86-3.46-2.16-1.08c-1.45,4.09-2.9,7.21-6.84,8.81Z" transform="translate(-115.19 -11.18)"/><path class="cls-10" d="M202.08,391.51c.22-.34,2.75,1.45,1.19-4.39-.3-1.08-4.31-8.36-10.7-8.81.44,2,7.69,12,9.51,13.2Z" transform="translate(-115.19 -11.18)"/><path class="cls-61" d="M312.43,195.86v3.79l-2.27.52.64,1.93c-3.87,3.31-2.05.56-4.24,5.21,5.46-3.68,10.74-6.21,10-13.83l-5-1.11Z" transform="translate(-115.19 -11.18)"/><path class="cls-62" d="M312.73,248.93c5.95,3.46,11.37-1.93,12.08-8.25-6.39.82-1.86,1.42-6,4.65-4.68,3.72-3.53-.74-6.09,3.6Z" transform="translate(-115.19 -11.18)"/><path class="cls-23" d="M149.53,563.15,153,562l5.87-2.08c1.49-.82-.67-1.42,3.94,0l-2.49-3.61-6.5,0Z" transform="translate(-115.19 -11.18)"/><path class="cls-30" d="M238.58,367.53c2.68-3.41,2.82-3.34.71-8-1.82-4-2.12-4.38-5.84-4.12Z" transform="translate(-115.19 -11.18)"/><path class="cls-63" d="M254.45,380.28c.07-1.82.52-1-.74-.78l2.64.56c-2.2-5.31-5.5-9.25-11.38-9.7,1.56,3.38,6.1,7.95,9.48,9.92Z" transform="translate(-115.19 -11.18)"/><path class="cls-64" d="M319.34,320.52c10.75-5.61-3.15-21.26-10.51-13.2,8.51-1.45,9.29-.55,12.56,6.88Z" transform="translate(-115.19 -11.18)"/><path class="cls-47" d="M222.52,383.67c2.68-3.24,3.39-2.64.49-7.85-2-3.64-2.68-4.23-6.1-5Z" transform="translate(-115.19 -11.18)"/><path class="cls-65" d="M320.94,172.93,318.75,168l1.3-4.91c-.33.26-1.49,1.34-1.71,1.53-7.21,5.24-3.2-1.23-5.46,4.61,1.93,1.19,5,2,8.06,3.68Z" transform="translate(-115.19 -11.18)"/><path class="cls-45" d="M331.8,448.52l6.24-.7.26,8.32c4.24-4.68,2.82-9.4-3.57-10.67Z" transform="translate(-115.19 -11.18)"/><path class="cls-59" d="M226.35,415.67c3.09,2.82.86,2.93,7.1,1.11l.45-6.76c-5.8,0-2.9-.89-6.36,1.6,5.58.33,3.38-1.42,4.8,3.34-4.09,2.08-.38,1.6-6,.71Z" transform="translate(-115.19 -11.18)"/><path class="cls-4" d="M226.35,415.67c5.61.89,1.9,1.37,6-.71-1.42-4.76.78-3-4.8-3.34l-2.38,1.85Z" transform="translate(-115.19 -11.18)"/><path class="cls-66" d="M191.64,63.06c4.16,1,1.71,1.52,5.65-.78-.26-4.2,2.15-.93-2.34-4.09-3.13.63-3.5,1.56-3.31,4.87Z" transform="translate(-115.19 -11.18)"/><path class="cls-67" d="M246.61,441.57c3.94-2.12,6.24-3.42,6.76-7.84-5.09-1.64-5.05-1.78-8.29,1.49l6.4-1c-1.45,6.21-1.53,1.3-4.87,7.36Z" transform="translate(-115.19 -11.18)"/><path class="cls-68" d="M144.58,488.77c-3.68-1.44-3.86-.37-.81-4Zm0,0c2.12-2.78,2.09.86.78-4.75-5.94-.45-6.65,1.26-3.45,6.28,5.57.37.74.44,2.67-1.53Z" transform="translate(-115.19 -11.18)"/><path class="cls-23" d="M210.33,436.15l-.18-3.72c5.31,2,.67,0,4.83,4.76l-.86-6.17-5.61,0c.08,3.87-1.11,2.64,1.82,5.17Z" transform="translate(-115.19 -11.18)"/><path class="cls-62" d="M174.8,317.58l-3.23-.85c3.83-1.68,1.48-3.2,3.23.85Zm0,0c1.49-1.19,2,2.64,1.15-3-6.06-.93-5.24-.3-4.75,4.61,6.61-.08,2.19-.08,3.6-1.64Z" transform="translate(-115.19 -11.18)"/><path class="cls-69" d="M221.71,139.7C218,138.4,220,141,219.07,137c3.27.89,1.63-1,2.64,2.68Zm0,0c.33-.52,2.56,1.11.85-2.23-1.6-3.16-.37-1.15-3.27-2.05-1.41,2.2-2.75.82-1.19,4.13,2.23,4.68,3.57.15,3.61.15Z" transform="translate(-115.19 -11.18)"/><path class="cls-70" d="M412,90.75l.82-3.68c2.12,4,2.71,1.93-.82,3.68Zm0,0c1.45,1.26-2.49,2.27,3.49.78.52-4.91,1.19-2.53-2.08-5.61-1.82,1.41-1.37-2-2.19,2.34-.86,4.91-.26.74.78,2.49Z" transform="translate(-115.19 -11.18)"/><path class="cls-71" d="M370.82,228.42c2.19,1.6-3,2.71,4.42,1.22,2.09-4.16,1.94-1.67.08-5.39-5.87-.63-2.23-.4-4.16,1.6,5.31-.29,1.85-.85,4,1.08-2.64,2.75.52,1.08-4.31,1.49Z" transform="translate(-115.19 -11.18)"/><path class="cls-56" d="M262.26,120c4.34,2.64,2.67.11,1.15,3.57Zm0,0c-1.53,1.41-2.12-2.82-1.23,3.9,8.14,1.3,6.21-5.91,1.23-3.9Z" transform="translate(-115.19 -11.18)"/><path class="cls-72" d="M186.14,407.56l-.52,3.42c-2.34-3.82-3.09-1.71.52-3.42Zm0,0c-1.49-1,2.38-2-3.13-.66-1.07,5.76.08,4.9,4.35,4.38.56-5.61.15-2.41-1.22-3.72Z" transform="translate(-115.19 -11.18)"/><path class="cls-73" d="M332.39,512.64c3.83-2.23,2.16-2.49,6.43-1,1.9,4.43,1.23,3.16-.37,7.7,4.53-4.61,4.35-8.74-2.49-9.89Z" transform="translate(-115.19 -11.18)"/><path class="cls-72" d="M386.13,179.32c-.85,4,.9,1.67-2.41,2.49,1-3.61-.82-1.3,2.41-2.49Zm0,0c-1.41-1.34,2.79-1.93-3.08-1.08-1.45,5.13-2,2.57,2.12,5.47,3-2.61,3.31-1.38,1-4.39Z" transform="translate(-115.19 -11.18)"/><path class="cls-35" d="M278.13,259c1.3-3-.23-2,2.71-2.75-.78,3.94,1.19,1.86-2.71,2.75Zm0,0c1.67,1.38-3,2.61,4.08.93l-.52-4.46c-4.16-.7-5.42-.78-3.56,3.53Z" transform="translate(-115.19 -11.18)"/><path class="cls-74" d="M194.8,84.54c4,2.79,3.19,2.49,5-1.37-5.91-4.09-3.38-.63-5,1.37Z" transform="translate(-115.19 -11.18)"/><path class="cls-20" d="M417.13,254.62c2.49-2.27,3.09-1.15,1.12-5.31-4.39,1.52-4.57,2.67-1.12,5.31Z" transform="translate(-115.19 -11.18)"/><path class="cls-51" d="M153.17,507.17l.07,3.24-1.11-3.68c-2,1.82-2.42-2.6-1.56,4.09l4.5.26c0-6.14.14-2.09-1.9-3.91Z" transform="translate(-115.19 -11.18)"/><path class="cls-22" d="M399.92,62.39c3.94,2.68,3.05,2.57,4.91-1.3-5.39-4.46-3.16-.93-4.91,1.3Z" transform="translate(-115.19 -11.18)"/><path class="cls-40" d="M299,249.83l-1.52,3.82-.48-3.79c-1.42,2-2.16-2.34-1.12,4.39l4.28-.41c.81-5.31.33-2.19-1.16-4Z" transform="translate(-115.19 -11.18)"/><path class="cls-71" d="M422.22,331.48c1.71,2.12-2.15,1.79,3.2,2,1.23-4.38,1.67-1.34-.78-5.2-4.46.18-1.67-.67-3.23,1.89,3.94.38.29-2.34,3.9,1.53Z" transform="translate(-115.19 -11.18)"/><path class="cls-14" d="M172.2,183.59c2,1.68-2.57,2.64,4.2,1.27l-.08-4.57c-5.64-.64-2.19-.41-4.12,1.56,3.42.15,1-1.53,3.79,1.41Z" transform="translate(-115.19 -11.18)"/><path class="cls-32" d="M239.06,135.65c6.73-2,3-1.12,1.45-4.39-1.82,1.34-5.09-.07-1.45,4.39Z" transform="translate(-115.19 -11.18)"/><path class="cls-75" d="M285.75,115.69c1.78-2.83,3.75-.67-.19-5.09-4.09,2.15-2.79,3,.19,5.09Z" transform="translate(-115.19 -11.18)"/><path class="cls-51" d="M163.61,316.43l-1.33,3.64-.26-3.71c-1.68,1.82-2.31-2.09-1.19,3.56l4.16.71c1-6.62.41-2.19-1.38-4.2Z" transform="translate(-115.19 -11.18)"/><path class="cls-72" d="M354.36,135.39c1.74,1.82-2.12,2.3,3.3,1.34l1.19-4.28c-8-1.45-2.82-.48-5,1.12,4.31-.34,1.3-1.45,3.71,1Z" transform="translate(-115.19 -11.18)"/><path class="cls-76" d="M264.52,343.34c3.68-2.23,4.09-.45,1.56-4.87-5.2,2-3.12,1.26-1.56,4.87Z" transform="translate(-115.19 -11.18)"/><path class="cls-71" d="M202.23,396.67l.19,3.35c-3.65-3.87-1.12-.08-1.42-4.09-1.85,2.05-2.37-1.37-1.15,4.13,3.31,1.48,1.12,1.67,4.28-.15.18-4.65.29-1.45-1.9-3.24Z" transform="translate(-115.19 -11.18)"/><path class="cls-77" d="M304.89,234.33c1.78,3.34.78,4.38,4.87,1.08-4.61-5.51-4.17-1.45-4.87-1.08Z" transform="translate(-115.19 -11.18)"/><path class="cls-17" d="M392.94,184.34l1-3.42c1.93,1.74,1.48-1.23,1,3.6,1.56-2.08,2.6,2.68,1.08-4.61l-4.28.93c-1.34,5.73-.52,1.71,1.12,3.5Z" transform="translate(-115.19 -11.18)"/><path class="cls-52" d="M425.2,369.39c2,1.45-2.46,2.34,4.35,1.12l-.67-4.28c-5.95-1.67-1.86-.55-3.68.86l3.68,1.19c-1.82,1.75,1.11,1.49-3.68,1.11Z" transform="translate(-115.19 -11.18)"/><path class="cls-78" d="M425.61,315.05c3.34-4.38,1.52-2.34-.08-4.72-3.49,2.16-3.57,3,.08,4.72Z" transform="translate(-115.19 -11.18)"/><path class="cls-79" d="M280.69,171.74c3.38,2.45,2.9,3.16,4.54-1.15-4.91-3.35-3-.08-4.54,1.15Z" transform="translate(-115.19 -11.18)"/><path class="cls-32" d="M282.51,303.12c.67,1,2.45,5.73,3.72.93,1.49-5.57-3.53-1-3.72-.93Z" transform="translate(-115.19 -11.18)"/><path class="cls-11" d="M254.49,556.46c-2.27-4-2.27-3.72-6.58-5.47,1.93,4.2,2.3,3.79,6.58,5.47Z" transform="translate(-115.19 -11.18)"/><path class="cls-70" d="M411.56,116.54l-.08-2.56c-4.35,1.56-.48,1.75-4.46-.15l1.49,4.87Z" transform="translate(-115.19 -11.18)"/><path class="cls-31" d="M137,407.42c1.75-2.49,2.64-.67-.19-4.35-4.2,2.78-4.16,2.64.19,4.35Z" transform="translate(-115.19 -11.18)"/><path class="cls-54" d="M304.37,251.13c4.05-.86,3.9-1.71,1-4.69-2.45,2.57-2.45,1.64-1,4.69Z" transform="translate(-115.19 -11.18)"/><path class="cls-10" d="M373.39,138.47c3.79,3.5,2,1.86,4.34,0-3.34-5.84-3.45-1-4.34,0Z" transform="translate(-115.19 -11.18)"/><path class="cls-10" d="M402.45,407.12c4.16-1.9,3.16-2.71,0-4.39-2.6,2.79-2.3,1.71,0,4.39Z" transform="translate(-115.19 -11.18)"/><polygon class="cls-80" points="284.92 73.43 286.3 69.68 282.62 69.42 282.28 73.21 284.92 73.43"/><path class="cls-81" d="M224.08,229.27c0-5.94,1.42-2.15-2.41-4-2.86,3.9-.89,3.64,2.41,4Z" transform="translate(-115.19 -11.18)"/><path class="cls-75" d="M155.21,302.83c2.83-2.23,3.39-.71,1.38-4.39-3.27,1.49-4.76,0-1.38,4.39Z" transform="translate(-115.19 -11.18)"/><path class="cls-71" d="M452.7,155.9c1.67-3.71,1.6-2.23-1.37-4.6-1.34,2.89-3.94,2.37,1.37,4.6Z" transform="translate(-115.19 -11.18)"/><path class="cls-20" d="M267.2,197.72c3.46-1.64,2.34,2,2.41-3.76-4.46.26-4.46-.52-2.41,3.76Z" transform="translate(-115.19 -11.18)"/><path class="cls-82" d="M165.69,510.74c2.31,2.94-1,2.08,4,2-.41-6.62-2-3-4-2Z" transform="translate(-115.19 -11.18)"/><path class="cls-10" d="M239,374.71c1.56-4.09,1.34-3.09-2.64-4.13.45,5.17-1.75,2.38,2.64,4.13Z" transform="translate(-115.19 -11.18)"/><path class="cls-81" d="M222.78,391.32c.08-5.5,1-2-2.3-3.64-2,4.13-2.23,3.6,2.3,3.64Z" transform="translate(-115.19 -11.18)"/><path class="cls-30" d="M297.94,145.13c3.6-5.36,2-1.53,0-5.17-2,3.57-3.61,1,0,5.17Z" transform="translate(-115.19 -11.18)"/><path class="cls-83" d="M323.8,196.19c4.32-.52,3.13,1.49,3.16-3.19-5.12-.26-2.89-.82-3.16,3.19Z" transform="translate(-115.19 -11.18)"/><path class="cls-84" d="M404.94,539.55c1.41-2.9,4-1.64-1.23-3.94-3.15,4.08-.44,2.86,1.23,3.94Z" transform="translate(-115.19 -11.18)"/><path class="cls-81" d="M139.38,321.89c3.16-2,3.05-.59,1.34-4.23-2.71,1.41-4.16.74-1.34,4.23Z" transform="translate(-115.19 -11.18)"/><path class="cls-55" d="M316.3,213.44c-.11-4.31,2.34-3.46-3.09-3.12.34,4.42-1.15,2.41,3.09,3.12Z" transform="translate(-115.19 -11.18)"/><path class="cls-85" d="M446.23,71.09c4.65-1.45,2.53,2.19,3-3.87-2.6.82-2.72-2.45-3,3.87Z" transform="translate(-115.19 -11.18)"/><path class="cls-14" d="M314.81,222.88c0-4.91,1.12-3-3.08-3.12.26,4.12-.79,2.86,3.08,3.12Z" transform="translate(-115.19 -11.18)"/><path class="cls-75" d="M310.24,115.39c1.67-3.72,1.82-2.34-1.26-4.27-1.6,3.49-2.53,2.6,1.26,4.27Z" transform="translate(-115.19 -11.18)"/><path class="cls-86" d="M403.71,547.91c3.54-5.09,2.38-1.12-.11-4.83-3.12,3.79-2.23,1.3.11,4.83Z" transform="translate(-115.19 -11.18)"/><path class="cls-10" d="M278.83,221.5c4.61-.22,2.49.78,3.16-3.15-4.38.37-3.27-1.6-3.16,3.15Z" transform="translate(-115.19 -11.18)"/><path class="cls-86" d="M320.05,264.8c4-4.68,1.49-2.08.08-4.42-3,3.2-2.9,1-.08,4.42Z" transform="translate(-115.19 -11.18)"/><path class="cls-87" d="M370.82,228.42c4.83-.41,1.67,1.26,4.31-1.49-2.12-1.93,1.34-1.37-4-1.08Z" transform="translate(-115.19 -11.18)"/><path class="cls-57" d="M316.48,256.44c-3.53-1.78-2.23-1.89-4,1.23,3.6,2.08,2,2.75,4-1.23Z" transform="translate(-115.19 -11.18)"/><path class="cls-52" d="M184.84,122.49c5.91-.07,2.41,1.08,3.56-2.34-3.16-1.34-3.23-1.45-3.56,2.34Z" transform="translate(-115.19 -11.18)"/><path class="cls-75" d="M176.29,532.78c2-3.42,1.86-2.12-1.19-3.9-2.6,3.53-1.38,2.53,1.19,3.9Z" transform="translate(-115.19 -11.18)"/><path class="cls-79" d="M320,179.43c2.9-1.75,2.52,1.41,1.89-3.6-4.76.33-3.16.92-1.89,3.6Z" transform="translate(-115.19 -11.18)"/><path class="cls-31" d="M361.72,35.59c2.75-4.2,2-1,0-4.61-2.12,3.24-3.94.79,0,4.61Z" transform="translate(-115.19 -11.18)"/><path class="cls-88" d="M286.86,235.52c3.75,1.3,2.79.81,3.46-2.35-7.14,0-2.27,1.16-3.46,2.35Z" transform="translate(-115.19 -11.18)"/><path class="cls-89" d="M229.14,569.87l-.86-2.41c-3.23.11-1.41-1.82-2.78,1l2.56,2.68c2.31-.33,1.27.6,1.08-1.23Z" transform="translate(-115.19 -11.18)"/><path class="cls-20" d="M332.39,124.46c2.42-3.34,3.79.26.07-4.35-2.26,3-3,1-.07,4.35Z" transform="translate(-115.19 -11.18)"/><path class="cls-10" d="M378.11,547.61c4.08,3.61,1.56,1.67,4.16-.07-2.23-1.49-.11-4-4.16.07Z" transform="translate(-115.19 -11.18)"/><path class="cls-53" d="M450.14,102.72c2.41-3.91,1.74-2.16-1.12-3.64-1,2.26-3,1.93,1.12,3.64Z" transform="translate(-115.19 -11.18)"/><path class="cls-10" d="M273.26,75.88c3.16,2.83-.67,3.65,4.53.08-3.57-2.08-1.08-2.27-4.53-.08Z" transform="translate(-115.19 -11.18)"/><path class="cls-84" d="M281.21,213.48c-1.6-2.57.37-3.83-3.83-1.19,1.79,1.63-1.19,3.38,3.83,1.19Z" transform="translate(-115.19 -11.18)"/><path class="cls-85" d="M199.52,532.86c2.67,2.3-.71,4,4.12.11-3.94-2.75-.52-2.75-4.12-.11Z" transform="translate(-115.19 -11.18)"/><path class="cls-90" d="M339.9,134.83c3.45,3.12.89,2.16,4.16,0-3.05-2,.15-3.53-4.16,0Z" transform="translate(-115.19 -11.18)"/><path class="cls-78" d="M250,132.38c3.35,2.75.67,2.52,4.13,0-4.91-3.64-1.45-2.15-4.13,0Z" transform="translate(-115.19 -11.18)"/><path class="cls-47" d="M203.42,541.48c-1.75-3.12-.48-3-3.83-1.3,1.67,1.26-.93,3.64,3.83,1.3Z" transform="translate(-115.19 -11.18)"/><path class="cls-46" d="M330.83,132.41c3.79-1.33,2.82,2.42,2.45-3.45-3.45,1.19-2.23-.63-2.45,3.45Z" transform="translate(-115.19 -11.18)"/><path class="cls-31" d="M252.44,192.89c-2.9,4-2.23.78,0,4.27,3.24-6.13,1.45-2.08,0-4.27Z" transform="translate(-115.19 -11.18)"/><path class="cls-47" d="M276.86,201.77c-4.09,5.76-1,2.45,0,4.09,1.79-3.76,2.9.29,0-4.09Z" transform="translate(-115.19 -11.18)"/><path class="cls-69" d="M426.13,130.22l2.52-1.71,1.79,3.38-.86-4.94c-3.86.93-1.67-.59-3.45,3.27Z" transform="translate(-115.19 -11.18)"/><path class="cls-30" d="M298,76.92c1.64-2.78,2.2,2.87.75-3.45-.08-.3-.52-.75-.71-1.16-1.89,3.65-2.64.3,0,4.61Z" transform="translate(-115.19 -11.18)"/><path class="cls-5" d="M476.56,104.46c-.55-2.78,4.91-.81-3-3,1,3.57-.89,2.09,3,3Z" transform="translate(-115.19 -11.18)"/><path class="cls-10" d="M318.86,201.21c-2.67,3.27-1.93,1.3,0,4.13,3.31-5.8,1.49-1.68,0-4.13Z" transform="translate(-115.19 -11.18)"/><path class="cls-31" d="M269.84,87.74c1.78-2.6,2,2.38,1.08-2.12,0-.26-.26-.89-.3-1.11s-.6-.71-.78-1.08c-2,3.53-2.75.15,0,4.31Z" transform="translate(-115.19 -11.18)"/><path class="cls-31" d="M202.08,171c3.16-4.5,1.79-.37,0-4.13-.81,1.49-3.15-.82,0,4.13Z" transform="translate(-115.19 -11.18)"/><path class="cls-31" d="M277.16,175.45c-2.86,3.8-2.12,1-.11,4.13.18-.33.67-.74.7-1,1.49-5.05,1-.41-.59-3.16Z" transform="translate(-115.19 -11.18)"/><path class="cls-78" d="M209.44,178.28c-3.05,4-2,1,0,4,2.9-5.57,1.38-2,0-4Z" transform="translate(-115.19 -11.18)"/><path class="cls-79" d="M321.2,78.3c-.93-4.16.82-1.38-2.9-2.83,1,3.94-1.78,2.79,2.9,2.83Z" transform="translate(-115.19 -11.18)"/><path class="cls-91" d="M425.2,369.39c4.79.38,1.86.64,3.68-1.11l-3.68-1.19Z" transform="translate(-115.19 -11.18)"/><path class="cls-57" d="M144.58,488.77l-.81-4c-3.05,3.6-2.87,2.53.81,4Z" transform="translate(-115.19 -11.18)"/><path class="cls-87" d="M392.94,184.34l2.08.18c.44-4.83.89-1.86-1-3.6Z" transform="translate(-115.19 -11.18)"/><path class="cls-54" d="M381.45,536c-.18.33-.59.74-.63,1-1.49,6.21-1,.19.59,3.24,1.71-3.76,2.57-.34,0-4.2Z" transform="translate(-115.19 -11.18)"/><path class="cls-75" d="M428,538.39c-3.05,3.94-1.9.78,0,3.76,1.48-3,2.75.52,0-3.76Z" transform="translate(-115.19 -11.18)"/><polygon class="cls-90" points="324.84 497.11 324.95 494.8 322.8 495.02 322.16 497.44 324.84 497.11"/><path class="cls-30" d="M326,86.25c2.72-4.46,1.42-.7,0-4.09-1.53,2.79-2.31-3.34-.63,3.13.07.22.48.63.66,1Z" transform="translate(-115.19 -11.18)"/><path class="cls-91" d="M392.42,169.47c3.16-4.24,1.3-1.08,0-3.87-1.86,3.31-2.34-3.27-.67,3,0,.18.45.55.64.85Z" transform="translate(-115.19 -11.18)"/><path class="cls-57" d="M172.2,183.59l3.79-.33c-2.75-2.94-.37-1.26-3.79-1.41Z" transform="translate(-115.19 -11.18)"/><path class="cls-75" d="M428.13,532.45c-.18.33-.55.7-.63.93-1.56,6.54-1.3-.56.63,3.19.19-.41.6-.85.67-1.11,1.3-5.54.75-.93-.67-3Z" transform="translate(-115.19 -11.18)"/><path class="cls-92" d="M232.82,37.41c1.41-2.08,3.2,1.86,0-4.27-2,3.16-1.93-2.49-1,2.16,1.52,7.5-3.05-3.53,1,2.11Z" transform="translate(-115.19 -11.18)"/><path class="cls-91" d="M354.36,135.39l3.19-.78c-2.41-2.49.6-1.38-3.71-1Z" transform="translate(-115.19 -11.18)"/><path class="cls-93" d="M278.13,259c3.9-.89,1.93,1.19,2.71-2.75-2.94.75-1.41-.29-2.71,2.75Z" transform="translate(-115.19 -11.18)"/><polygon class="cls-78" points="87.75 172.78 87.94 170.37 85.7 170.92 85.63 172.97 87.75 172.78"/><path class="cls-90" d="M274.56,260.75c-3.68,5.32.52-5.65-.93,2-.89,4.61-1-1.15,1,2.16,3-5.91,1.33-2.23,0-4.13Z" transform="translate(-115.19 -11.18)"/><path class="cls-85" d="M221.71,139.7c-1-3.68.63-1.79-2.64-2.68.93,4-1,1.38,2.64,2.68Z" transform="translate(-115.19 -11.18)"/><path class="cls-5" d="M170.19,539.21a12.15,12.15,0,0,1,.56,1.93c2.23,3.46-1.45-.11,2.16.64-1.45-3.39,1.11-1.79-2.72-2.57Z" transform="translate(-115.19 -11.18)"/><path class="cls-81" d="M422.22,331.48l3.09.19c-3.61-3.87,0-1.15-3.9-1.53Z" transform="translate(-115.19 -11.18)"/><path class="cls-87" d="M412,90.75c3.53-1.75,2.94.3.82-3.68Z" transform="translate(-115.19 -11.18)"/><path class="cls-81" d="M386.13,179.32c-3.23,1.19-1.41-1.12-2.41,2.49,3.31-.82,1.56,1.49,2.41-2.49Z" transform="translate(-115.19 -11.18)"/><path class="cls-87" d="M202.23,396.67l-1.23-.74c.3,4-2.23.22,1.42,4.09Z" transform="translate(-115.19 -11.18)"/><polygon class="cls-94" points="183.83 238.64 181.82 238.68 182.3 242.47 183.83 238.64"/><path class="cls-87" d="M186.14,407.56c-3.61,1.71-2.86-.4-.52,3.42Z" transform="translate(-115.19 -11.18)"/><path class="cls-31" d="M262.26,120l1.15,3.57c1.52-3.46,3.19-.93-1.15-3.57Z" transform="translate(-115.19 -11.18)"/><path class="cls-94" d="M174.8,317.58c-1.75-4.05.6-2.53-3.23-.85Z" transform="translate(-115.19 -11.18)"/><polygon class="cls-81" points="48.43 305.25 46.83 305.17 47.09 308.89 48.43 305.25"/><polygon class="cls-94" points="37.98 495.99 36.94 495.54 38.06 499.22 37.98 495.99"/></svg>