<svg id="Camada_1" data-name="Camada 1" xmlns="http://www.w3.org/2000/svg" viewBox="0 0 431.92 564.77"><defs><style>.cls-1{fill:#0e0e3e;}.cls-1,.cls-10,.cls-11,.cls-12,.cls-13,.cls-14,.cls-15,.cls-16,.cls-17,.cls-18,.cls-19,.cls-2,.cls-20,.cls-21,.cls-22,.cls-23,.cls-24,.cls-25,.cls-26,.cls-27,.cls-28,.cls-29,.cls-3,.cls-30,.cls-31,.cls-32,.cls-33,.cls-4,.cls-5,.cls-6,.cls-7,.cls-8,.cls-9{fill-rule:evenodd;}.cls-2{fill:#100b39;}.cls-3{fill:#101042;}.cls-4{fill:#f91229;}.cls-5{fill:#f4f4f4;}.cls-6{fill:#fdfdfd;}.cls-7{fill:#f5122a;}.cls-8{fill:#fdfdf9;}.cls-9{fill:#120b41;}.cls-10{fill:#f8f8f8;}.cls-11{fill:#fa1428;}.cls-12{fill:#4d1444;}.cls-13{fill:#381237;}.cls-14{fill:#251238;}.cls-15{fill:#fafefa;}.cls-16{fill:#f9faf6;}.cls-17{fill:#260635;}.cls-18{fill:#560934;}.cls-19{fill:#8e8d99;}.cls-20{fill:#f2f4f4;}.cls-21{fill:#671237;}.cls-22{fill:#1a1b42;}.cls-23{fill:#322d4e;}.cls-24{fill:#46435c;}.cls-25{fill:#38405c;}.cls-26{fill:#54536a;}.cls-27{fill:#363658;}.cls-28{fill:#060327;}.cls-29{fill:#262647;}.cls-30{fill:#161437;}.cls-31{fill:#090931;}.cls-32{fill:#1a1b4b;}.cls-33{fill:#241643;}</style></defs><path class="cls-1" d="M153.72,313.81l-.09-30.68c4.79-1.37,6.24-2.65,11-4.49l-.09,30c-3.54,2.82-5.77,3.85-10.81,5.21Zm291-31.11,10.34,2,0,28.76-10-4.87Zm-13.38-6.92a37.57,37.57,0,0,1,10.34,5.68l.22,25-10.56-3.67ZM167.87,307.62l-.52-23.68,0-7.82c4.32-1.28,7.4-3.51,12-4.79l0,31.54Zm14.27-6.8L182,269.11l10.22-5.51.25,33Zm232.67-35.26L428,272.87l.47,27.7c-5.69-1.8-8.72-5.39-13.6-8.21Zm-207.5-7.86L207.1,288c-2.31,1.45-8.46,5.94-11.67,6.37l-.17-32.4Zm196.52,0,7.9,5.26-.25,27.78-8-4Zm-193.4,23.16c12.23-1.28,15.52.26,23.9-7.73,20.55,3.72,8.2,9.78,35.77-.52,9.57,6.54,20.26,12,32.1,1.07,12.26,3.08,16.58,10,35.77.13,14.91,5.94,24.32,8.38,38.25-.77,11.54,3.93-1.58,3.25,24.1,6.63l-.08,6.49-190-.43Zm94.24-21.2c5.6,4.06,7.95,6.67,17,5.6,9.32-1.11,10-4.31,15.17-7.09,16,17.18,30.48,6.37,40.78,1.15,5.55,6.5,12.18,5.73,22.78,5.56v11.24c-14.11,1.07-17.57-3.21-24.15-7.22-5.43,3.76-10.09,7.69-19.79,7.13-14.27-.85-15-5.13-18.46-6.54-16.24,14.07-30.56,2.1-35.77,0-6.67,4.79-5.13,7.61-17.36,7-9.4-.42-10.25-5-14.74-8.2-15,13.5-27.78,3.93-35.77.38-6.2,6.75-10,9.66-23.81,8.93l-.26-10.34c8.81-.34,14.32-3.33,20.35-7.09,3.93,1.24,25,15.6,40.73-.77L274,261.5c4.4,3.29,8.68,4.1,14.57,4.19,8.12.09,11.8-3.59,16.07-6ZM400.62,258c-.72,5.73-5.08,4.53-10.9,3.93-5.34-.55-7.69-1.11-10-5.13,5.9-.38,16.71-1.71,20.94,1.2Zm-190.06-1.5,17.95,0c-2.86,5.56-11.32,7.78-18,7.65Zm163.22.3c-4.57,7.61-21.54,12.53-34.15.26Zm-41.24.43c-4.32,3.51-5.68,5-13.12,5.21-6,.22-10-1.11-12.18-5.94Zm-30.6-.08c-3.72,3.71-5.9,5.55-13.34,5.55-6.83,0-11.62-1.11-13.93-6.32Zm-33.25-.09c-7,9.06-29.32,9.7-34.62-.68Zm-165.1,13.8L101.92,272c18.25,14.36,21.71,12.82,49.15,12.31,0,11,1.84,30.94-2.44,33-.81,3-1.58,2.77,1.29,1.66,8.8-5.17,21.79-10.85,31.58-15,46.37-19.74,8.72-14.62,76.29-14.62H396c7.65,0,17.22,5.05,23.38,9.41,13.42,9.53,9.91,5.51,23.67,12.14,5.94,2.86,10.52,6.19,15.3,8.33l-2.6,6.41c-.22,2.78-.82,2,2.09,1.75l4.06-8L458.23,316l.26-32.52c19.53-2.61,33.55-6.07,45-16.2l-2.82-.13c-4.61.64-5.9,4.06-11.11,4.36-9.32.52-46.93-37.65-64-39H186.16c-8.42.22-70.39,35.43-77.66,40.09Z" transform="translate(-88.16 -15.23)"/><path class="cls-1" d="M188.85,577.3c-.94-7.35,6.2-6.71,13.34-9.7,6.11-2.57,9.83-5.09,15.42-8.08C223,556.7,227.87,555,233.43,552c7-3.76,7.43-7.22,17.44-6.93-3.72,10.95-54.37,31.25-62,32.23Zm168.31-36.07c5.08-.51,9.78,9.7,26.75,17.48a172.48,172.48,0,0,0,34.79,11.15l.09,4.62c-7.4,1.79-31-7.05-37.19-9.87-13.72-6.33-17.73-11.5-24.44-23.38Zm-241.82,6c2.69-14,29.15-37.86,42.61-39.83-1.54,8.38-1.45,7.74-8.38,11.33-10.89,5.77-21.49,18.25-25.51,30.17Zm69.88,29.41c-4.66-1.24-7.44-3.16-11.67-6.2-6.07-4.32-26.37-22.69-22.35-30.56,5.13-5.13,7.14-2.9,14.79-3.59-2.1-4.87-5.52.56-7.18-10.51-1-6.45-.52-12.44,2.09-17.95,19.36.08,25.94-1.71,43.17-5.13-6.88,14.53-7.95,9.45-14.75,32.18-4.61,15.39-5.51,25-4.1,41.76Zm62.74-41c12.91-8.85,29-17.44,33.68-34.15l4.91.47c-.94,6.75-11.07,20.13-14.49,24.49-5.51,7-15.08,14.36-24.23,15.22Zm77.14-23c-2.9-4.87-5.21-8.59-3.54-12.35l4.06-.64c.21.21.55.55.68.72a4.72,4.72,0,0,1,.6.69c.17.3.81,1.28,1,1.62s.86,1.88,1.11,2.48c8.68,18.63,16.8,20.86,28.89,30.64l-5.12,4.23c-6.89-1.66-16.16-10.64-20.09-16.37-2-2.94-5.6-7.73-7.57-11Zm-125.86,32.1c4.74-18,8.63-31.29,20.3-41.46,20.26,3,33.42,6.71,50.56-4.75l8.8,2c-2.48,10.86-20.6,26.37-28.33,30.22-7.53,3.76-7.91-.17-13.81.56-5.08.64-2.86,1-4,1.79.85.47.51.6,2.86.94,4.23.68,3-.56,8.89,2.31-.47,5.77-1,6.24-11.15,11.84-9.32,5.17-38.26,19.87-45.91,20.94-.64-17.87,5-42.65,14.58-57.19,7.52-11.41,7.26-12.09,13.5-10.38-.21,1.88-19,27.18-18.29,39,.3,4.19-.17,1.75,2,4.15Zm-35.65-72.11c3.34-2.73,5.6-3.33,10.82-4.57l-.35,23.29-9.78,1.37Zm23.59-9.83c.22,6.2.09,12.4.13,18.55.09,9.36-.3,7.18-10.47,9.06l.69-24.14Zm23.9,21.8c-1.71-6.92-.9-24.19-.69-32.18l189.16.51-.38,31.76Zm-20.69-23.93c5.17-2.4,10.81-5.52,16.88-6.75l-.08,29.83-17,3.33Zm-33.68.72c-3.12-.38-2.78-1.28-2.13,1.54,3.71,5.47,5.94,5.56,6.49,14,.39,5.94.39,12.18.3,18.12-4.83,5.22-5.6,8.94-12.56,12.95-12.61,7.31-36.38,24.62-36.33,41.07,14.44,5.73,24.87,3.77,40.77,4.58,4.92,8.5,11,12.86,18.29,18.8,18.21,15,27,4.53,51-5.51,8.25-3.46,17.22-9.19,24.15-11.58,2.95,3.2,3.2,4.7,6.07,7.43,2.3,2.18,4.18,3.55,6.62,5.77,16.37,15,19.53,8.38,32.27-7.78,3.89-4.91,9.7-15.81,14.23-19,5.73,10.85,19.45,31.07,27.14,36.07,10.09-2.61,23.89-16.71,29.62-22.22,2.48,1.83,2.22,2.52,5,4.57,2.05,1.54,4.1,2.31,6.24,3.55,14.18,8.12,24.4,10.47,41.45,14.49,7.4,1.75,5.34,1.41,13-1.67C441,571.57,457.59,566.1,462,554.73c11.45.77,27.35,4.66,34.49-5.55,1.37-7.48-2.18-7.87-4.45-14.79l-.64,4.91c.81,5.9,3.85,3.64,1.41,10.35-5-1.75-2.56,0-5.51-5.6-9.32-17.57-21.8-22.23-33.93-28.94l-.47-7c-.56,2.18.59,1.58-2.91,1.58.85,6.41,1.41,11.11-1.07,17.31a18.83,18.83,0,0,1-3.12,5.3c-3.68,4.4-2.09.38-3.93,6.37,5-1.16,8.63-3,14.49-1.76,11.54,8.3,2.35,20.18-5.26,25.48-5.3,3.67-21.92,10.89-29.23,12.6,2.6-24.91,1.79-48.68-10.82-65.86-3.46-.25-3-1.19-2.39,2C418.19,524.9,422,545.93,420,566.1c-7,.81-27.06-6.62-33-9.19-7.86-3.37-21.71-10.94-25-19.31,1.67-.3,5.13-.65,6.84-1,5.43-1.15,2,.64,3.5-2.22-4.66-2.27-8.84.47-16.24-3.42-10.43-5.38-24.45-20.13-25.94-32.61,6.58,0,9.62,3.16,17.22,4l.43-2.31c-2.52-.9-5.56-1.41-8.5-2.82-10.73-5.13-5.82-1.15-27.23,1a127.82,127.82,0,0,1-23.55.38c-14.7-1.2-11.75-2.86-17.22-5.21-7.82,6-13.64,8.46-24.88,9.7-26.67,3-27.14-10.09-43.12-3.68-11.62,4.62-33.29,7.22-45.09,5,3-9.87,13.55-9.53,23.12-11.71,9.32-2.09,20.26-5.64,29.75-4.79,20.39,1.84,48.85.17,70.09.22,24.06,0,101.72-1.29,123.39,0,6.15.35,10.21,2.35,15.85,1.58.47.05,1,.18,1.41.18,6.29-.26,4.92,3.54,4.92-1.29L420.24,487l.38-27.31c-4.48,3.08-3.41-4.79-3.93,6.84l.47,19.4c-4.74.68-9.14-.17-14-1.45l.22-30.26c4.78-1,.72.43,3-2.22-1.41-1.2,1-.86-3.42-2.27-5.3-1.62-189.93-.34-193.26,0-12.05,1.2-33,16.93-47.1,18.46Z" transform="translate(-88.16 -15.23)"/><path class="cls-2" d="M433.28,467.08l11.83,4.53.35,21.15-11.84-2.18ZM402.12,303.64c4.4.81,22.09,10.94,25.26,13A135.86,135.86,0,0,0,454,329.58l-.17,125.91c-5.34-.47-22-8.93-27-11.07-8.93-3.84-20.13-7.05-29.75-9.91-1.49-24.83-.3-72.36-.34-101.25,0-12.56-1.5-20.69,5.43-29.62ZM338.69,420.49l33-.47.13,13.72-33.08.38ZM237.1,421l35.61-.38v13.55H237.32Zm-82.18,35.09-.13-127.23c8.55-3.68,17.31-8.85,26-13.21,8-4,18.25-11.79,26.37-12.86,7.09,10.64,4.19,39.62,4.14,52.69v77.11c-8.08,3.71-18.08,7.77-27.56,11.66-7.36,3-21.8,10.94-28.85,11.84ZM371.77,406.3l-.34,10.64-32.18.05-.43-10.9-.68-15.47,33.76-.39Zm-99.19-.55.13,11.66-35.26.35-.13-12-.3-14.4,35.73-.39Zm-35.43-30.14,35.47-.29,0,12.9-35.3.09Zm101.46.26,33.08-.34.21,11.54-33.42.6ZM306,375.61l29.36-.12c.68,5.6,1.8,26.15-1.11,31.07-13,.13,2.48-.94-11-6.5l-.55-10c-9.28-6.07.77-3.16-15.13-6.33-.69-5.38-1.28-3.33-1.54-8.08Zm-5.64,8.72-8,.52-4.19,4.61c-.17.13-.51.39-.77.56-.08,7.65.22,9.4-3.67,14.74l-7.48.09L276,375.53l26.24-.09c.17,4-.64,4.41-1.88,8.89Zm-62.87-24.27,134.11.17.13,11.75-134.28,0Zm123.94-3.51c1.84-3.2,2.61-2.9,5.34-5.55s1.8-3,5.17-4.06l-.08,9.57Zm13.63-55.3,23.6,0c-1.24,4.74-4.11,8.67-4.79,12.82-1.67,10,1.88,99.49-.68,120.09L375.06,434Zm-3.07.43-.05,10.25c-6.66.73-14.31-5.08-15.94-10.81ZM239.41,315.91c-.6,3-.51.73,1.92,3.29.77-5.21-.25-1.11,2.53-4.7a45.15,45.15,0,0,1,3.33-4.15,24.58,24.58,0,0,1,7.69-5.85c-.34-2.87-1.79-3.93,2.1-3.42l29.53-.47c1.11,1,2.05-.22,2.61,2.73l1.45-2.82H319.8c.22.26.56.56.69.69l2.13,1.79c-2.18-3.46-.89-.68,1-1.71l28.12-.72c.09,0,5.09-1.93,1.67,4.06,3.85,1.06.13-.77,3.72,2,1.58,1.24,2,1.84,3.29,2.91,3,2.44,3.67,2.91,7.48,3.29l1.92.47c.26,0,.81.17,1,.22l2.3,31-4.27-.73c-.77,5.52-8.38,11.29-15.09,12.27l-3.8,1.15H329.55l-3.08-2-5.51.59c-.73,4.06.68,1.12-2.7,1.5l-25.21,0c-1.11-.21-4.4-.42-4.57-.42a10.93,10.93,0,0,1-3.55-1.37l-.13.51c-2.44,1.37.13.21-3.76,1.2l-19.7.08L257.87,356l-4.91-.22c-2,2.48-.09,1-2.91,1.2l-13-.51.17-10.77,2.87.08,1.07-2.86-3.25.85c-2.57-2.18-.73,1.37-2.22-3-1.2-3.46.38-21.54.85-24.83l.6-14.7h15.64c-1.62,4.66-3.76,4.19-7,7.78a59.46,59.46,0,0,1-6.46,6.88Zm-28.76-14.66h23.29l0,132.62-19,.34c-1.58-31.24,0-83.6-.3-119.5-.09-8.67-1.84-6.15-4.06-13.46Zm-60.73,17.69c-2.87,1.11-2.1,1.33-1.29-1.66L147,318.47c2.65,14.32,5-7.26,5,33.34L151.8,448c0,9-1.29,9.45,2.78,15-.65-2.82-1-1.92,2.13-1.54,1.58-4.53,5.52-4.35,12.95-7.65,5.43-2.39,8.76-4.4,14.58-6.58,9.27-3.5,21.84-10.47,32.82-10.08,50.35,1.62,118.86.12,171.51.21,16.84,0,35.47,10,48.47,15.09,5.25,2.09,11.54,4.4,14.61,7.95-1.49,2.77-.77,1.06-2.56,3.8-1.63,2.39-1.07,1.37-2,4.1-9.36-1.75-34.28-16.79-40.69-16.32-2.31,2.65,1.75,1.24-3,2.22l-.22,30.26-.42-31.07c6.84,1.24,8.93,3.46,14.61,5.38l-.17,27.14-.47-19.4c.52-11.63-.55-3.76,3.93-6.84L420.24,487,420,461l10,3.33.47,24.7-3.76-.47c0,4.83,1.37,1-4.92,1.29-.42,0-.94-.13-1.41-.18,8.81,6.12,28,1.59,30.26,15.18-25.34,1.62-32.09-1.58-52.31-8.47-20.56,8.51-26.33,7.87-50.56,3.68l-.43,2.31c9.15,6.24,31,3.2,42.36,1.58,5.72,4.79,9.87,10.43,13.5,19.45,1.58,3.93,5.77,22.65,8.72,24.23,3.12-6.88-6.79-28.29-11.15-35.39l-5.43-7.18c-3-6.67-.77-1.2,0-3.46,6-2.39,10.81,6.07,13.29,9.57-.6-3.2-1.07-2.26,2.39-2-1.71-2.65-2.52-3.5-3.93-5.64,23.12,3.72,6.54,5.6,42.14,4.92l.73,1.28c3.5,0,2.35.6,2.91-1.58,8.59-.43,28.84,17.91,36,28.25.22.3.9,1.28,1.11,1.54l1.41,1.36.64-4.91c-6.92-4.57-2.05-8.38-34.23-28.59-4.62-2.91-5-6.93-9.66-11-.3-40.09,2.74-21.32,8.34-35.38,1.41-3.51.72-77.87.68-87.92,0-10.64-1.33-35.09.64-44.15-2.91.26-2.31,1-2.09-1.75-9.53,2.56-50.18-25.6-54.88-27.22-44.06-1.93-92.36-.09-136.94-.09-18.42,0-49.92-2.91-65.17,4.32-7.65,3.63-15.35,8.12-22.36,12.09-6.79,3.81-14.91,10.13-22.26,11.33-2.65-3-2.87-3-4.23-7.1Z" transform="translate(-88.16 -15.23)"/><path class="cls-3" d="M235.35,221.28c-.43-21.45,17.1-38.42,28-42.52,11.11-4.15,86.89,1.24,91.16,3.5,7.57,4,16.92,25.6,16.8,39.07l-10.18-.05c0-18.29-3.07-33.42-20.85-34.57a8.86,8.86,0,0,0,2.09,1.49c1,.6,1.41.6,2.48,1.12a32.82,32.82,0,0,1,4,2.26c9.49,6.63,9.61,18.85,9.32,29.79-26.72.17-91.72,1-109-.26.22-9,1.2-16.24,5.86-22.48,7-9.4,11.79-6.58,15.47-12.52-16.29,2.95-23.47,16.2-24,35.22Zm139,.13c-.13-20.13-9.06-29.1-15.13-38.5,10.56-.69,44.36,6.32,53.51,10.42l.13,27.95H389.6c-.73-11.28-4.62-26.45-13.17-29.53.94,3.89,9,10.05,10.35,29.66ZM199.92,191.28c17.1-5.77,35.86-11.79,56-12.78-5.26,9.41-23.68,14.11-23.25,43H222.4c.3-22.78,9.49-22.23,12.31-30.14-9.87,3.64-15,16.46-14.74,30.18l-21.5-.26Zm77-44.92c-18.89-12.82-21.58-26.88-8.37-44.19,6.62-8.72,11.15-7,21.58-13,11.84-6.75.56-15.73,21-13.63,8.25,11-.38,8.63,17,14.79,28.89,10.25,24.06,48.12,1.2,55.51,3.25-8.07,9.44-12.13,9.23-25.08-1.54,1.58-.77.21-2,2.6-1.58,3-.81,6.63-6.45,15.65-3.81,6.15-5.56,9.27-14.49,10.34,2.35-8.38,5.17-9.92,6.37-22.18.81-8.47-1.2-6.84-1.2-6.88-3.76,10.42-.08,21.36-9.87,29-4.57.17-12.27.34-15.47-1.46-2-2-.43,1.8-2.14-3.2,0-.22-.47-2.95-.47-3-.21-2.17-.09-4.78-.13-7,0-5.17.43-11.11-1.54-15.08-1.71,2.77-1.32,1.32-1.07,7.65l1.12,21.11c-11.76-.13-14.32-4.7-16.93-17.69-1.11-5.52-.26-5.22-2.86-8.68-.39.9-.86-.56-.73,3.42.13,4.44,4.57,17,6.28,21ZM261.46,107c-17-15.72-11.06-56.07,14.28-69.15,17.18-8.84,39.58-10.47,56.37-1,4.83,2.73,15.52,12.18,18.17,16.41,7.9,12.65,10,43,0,55.05-2.39-2.05-4.66-8-7-11.16-6.88-9.23-20.56-10.3-23.93-13-1.84-1.49-2.18-3-3.34-5.34-5.72-11.8-19-4.28-20.64-1.54-4.15,7.22,1.58,7.14-9.62,11.2-5.85,2.13-11.19,4.14-15,7.26-5.94,4.83-5.56,8.17-9.28,11.24Zm109.37-.89-1.41,3.46c-5.38.9-1.54-.13-4.31,1.41l-1.29-3.63-4.53,1.36c-1.75,4.49-.12,2-2.82,3.17-1.92-5.26,3.42-19.66,2.91-30.35-.38-7.95-3.25-24-7-29.32-22.52-32.22-71.54-32.39-94.06-.94-8.51,11.93-9.19,29.66-9.83,43.89-.22,4.62,1.62,5.3.72,6.63-1.88,2.65-1.49,3.85-2.09,2.44-.13-.26-.47.59-.6.81L242.66,99l1.67,9.79c-2.05-1.46-2-1.76-5.05-2.48l-2.05,4.53c-2.18-6.67-4-8.76-5.21-17.1-2.74-18,3-36.37,12.39-50.13,11.63-17,31.24-24.62,57.7-26.11,14.06-.82,26.71.94,36.11,7,7.48,4.83,18.6,11.89,23.13,18.94C366.86,52,371.9,60.07,374,72.6c4,24.44,1.84,18.8-3.12,33.55Zm-186,88.42-1.11,5.09c-2,7.82.82,19.53,3.81,24.66,28.29-.39,221.94,2.78,230.7-.6l3.42-5.43a68.8,68.8,0,0,0,2.14-6.58c2.48-8.33,7.26-45.94-6.71-40.05l1.41,1c4.27,2.52,4,1.53,4.61,6.32-11.49,1.8-8.29-1.37-15.17-3.59-2.56-1.41-1.79-.77-1.79-.94,1.88,7.18,9.18,7.22,17.69,7.44l.34,13.07c-3-.38-12.31-5-23.63-8.07-9.7-2.57-18.12-3.81-28.38-5.3-3.51-26.54-34-15.47-37.91-26.63C334,143.29,342,142.77,349,137.05c21.79-17.78,33.46-30.31,27.69-64.58-2.9-17.23-13.55-32.95-24-40.22-15.13-10.6-23.21-17.69-46.89-17-42,1.29-66,16.84-75,53.08a66.49,66.49,0,0,0,9.06,52.1c6.2,9.28,8,9.92,16,16,6.84,5.21,14.91,6.58,19.66,14.19-3.38,18.46-29.15,5.77-37.27,27.52-14,1.37-42.82,10.09-53.47,16.37Z" transform="translate(-88.16 -15.23)"/><path class="cls-4" d="M434.64,199.62c3.12-11.29,2.18-6.8,5.39-9-.86,8-7.18,34.23-14.36,36.59Zm-331,71.28,4.91,1.67c7.27-4.66,69.24-39.87,77.66-40.09H425.5c17.09,1.37,54.7,39.54,64,39,5.21-.3,6.5-3.72,11.11-4.36,2.44-4.57,15.69-16,16.71-35,.34-6.84-1.62-16.28-7.09-17.91-6.63-2-16.93.43-19,5.56,5.94,5.6,12.14,3.93,11.24,17.31-.51,8-4.62,16.79-9.06,21.54-12.05-1.37-32.35-19.79-60-30.22.12-9.32,21.58-26.67,18.89-50.52-1.84-16.11-25.65-15.89-35.78-13.71-7.65,1.66-9.1,3.41-8.63,11.15,6.88,2.22,3.68,5.39,15.17,3.59-.64-4.79-.34-3.8-4.61-6.32l-1.41-1c14-5.89,9.19,31.72,6.71,40.05a68.8,68.8,0,0,1-2.14,6.58l-3.42,5.43c-8.76,3.38-202.41.21-230.7.6-3-5.13-5.82-16.84-3.81-24.66-3.37-5.51-2.35-24,5.17-26.67-.89,4.19-.81,2.14-2,6.45,7.52-.51,13-1.88,13.89-9-7.1-14.92-40.65-4.88-43.6,6.53-4.78,18.34,17.57,42.79,16.29,49-.94,4.53-48.64,33.94-60.14,31.93a48.54,48.54,0,0,1-4-20.86c.6-12.35,3.63-10.47,8.72-16-2-6.07-10.13-8.51-16.76-4.66-12.22,7.22-11.45,26.16-7.48,37.78,4.41,12.82,7.14,10.73,9.75,16.75Z" transform="translate(-88.16 -15.23)"/><path class="cls-5" d="M261.46,107c3.72-3.07,3.34-6.41,9.28-11.24,3.85-3.12,9.19-5.13,15-7.26,11.2-4.06,5.47-4,9.62-11.2C297,74.6,310.32,67.08,316,78.88c1.16,2.35,1.5,3.85,3.34,5.34,3.37,2.69,17.05,3.76,23.93,13,2.35,3.17,4.62,9.11,7,11.16,9.91-12.05,7.86-42.4,0-55-2.65-4.23-13.34-13.68-18.17-16.41-16.79-9.49-39.19-7.86-56.37,1C250.4,51,244.45,91.32,261.46,107Z" transform="translate(-88.16 -15.23)"/><path class="cls-6" d="M335.49,181.41c1.41,2.91,1.88,2.18-1.24,3.46-2.74-3.63-.3-2.61,1.24-3.46Zm-59.66-.68c-.65,6.15-6.33.59,0,0Zm-40.48,40.55,11.24.05c.51-19,7.69-32.27,24-35.22-3.68,5.94-8.46,3.12-15.47,12.52-4.66,6.24-5.64,13.47-5.86,22.48,17.27,1.29,82.27.43,109,.26.29-10.94.17-23.16-9.32-29.79a32.82,32.82,0,0,0-4-2.26c-1.07-.52-1.45-.52-2.48-1.12a8.86,8.86,0,0,1-2.09-1.49c17.78,1.15,20.85,16.28,20.85,34.57l10.18.05c.12-13.47-9.23-35.05-16.8-39.07-4.27-2.26-80.05-7.65-91.16-3.5-10.94,4.1-28.47,21.07-28,42.52Z" transform="translate(-88.16 -15.23)"/><path class="cls-6" d="M328.65,479.17c-13.16-14.49,1.2-20,9.23-17.74,6.28,1.76,13.34,18.89-9.23,17.74Zm-36.54-3.46c-1-10.22.81-14.36,9-16.5,7.57-2,14.88.6,16.71,7.74,4.32,17.31-14.91,19.61-25.68,8.76Zm-10,3.76c-21.89,1.2-18.81-15-11.12-18.12,6.2-2.48,11.93.34,14.06,3.89,4.19,6.88,0,10.47-2.94,14.23Zm-71,5.17,188.09.09.38-31.76-189.16-.51c-.21,8-1,25.26.69,32.18Z" transform="translate(-88.16 -15.23)"/><path class="cls-6" d="M337.45,115.38c.3-.3.39-1,.6-1.16s.43-.72.6-.85c4.06-2.44,1.37,0,2.18,2Zm-66.11.3c-3.42-2.35-.81-1.88,0-3.08.17.3.6.6.64.73v1.53c0-.25-.47.52-.64.82Zm49.36-1.33c-2-2.56-1.37-1.49,0-3.72,3.59,2.18,3.08,2.06,0,3.72Zm-29.62-1.07c-4.74-2.26-.94-2.18,0-3.42Zm8.64-29.87c.3.55,4.4-1.5,0,3.93-4.62-3.72-.17-3.67,0-3.93Zm10.42,1.88c1.2-.51-1.7-3.51,2.65,0-4.87,4.87-1.66.73-2.65,0Zm-3-2.05c4.27,5.47.43,3.29,0,3.93-.85-.9-3.89.56,0-3.93Zm-30.22,63.12c-1.71-4-6.15-16.54-6.28-21-.13-4,.34-2.52.73-3.42,2.6,3.46,1.75,3.16,2.86,8.68,2.61,13,5.17,17.56,16.93,17.69L290,127.22c-.25-6.33-.64-4.88,1.07-7.65,2,4,1.5,9.91,1.54,15.08,0,2.27-.08,4.88.13,7,0,.05.43,2.78.47,3,1.71,5,.13,1.24,2.14,3.2,3.2,1.8,10.9,1.63,15.47,1.46,9.79-7.66,6.11-18.6,9.87-29,0,0,2-1.59,1.2,6.88-1.2,12.26-4,13.8-6.37,22.18,8.93-1.07,10.68-4.19,14.49-10.34,5.64-9,4.87-12.66,6.45-15.65,1.24-2.39.47-1,2-2.6.21,12.95-6,17-9.23,25.08,22.86-7.39,27.69-45.26-1.2-55.51-17.35-6.16-8.72-3.77-17-14.79-20.42-2.1-9.14,6.88-21,13.63-10.43,5.9-15,4.23-21.58,13-13.21,17.31-10.52,31.37,8.37,44.19Z" transform="translate(-88.16 -15.23)"/><path class="cls-7" d="M163,440.49l-.08-99.24c5.9-4.23,12.27-7.26,17.61-11.11s13.16-10.43,18.67-9.74l.52,107.66c-13.68,4.53-29.66,14.1-36.72,12.43Zm-8.07,15.6c7.05-.9,21.49-8.84,28.85-11.84,9.48-3.89,19.48-7.95,27.56-11.66V355.48c0-13.07,2.95-42.05-4.14-52.69-8.12,1.07-18.38,8.84-26.37,12.86-8.72,4.36-17.48,9.53-26,13.21Z" transform="translate(-88.16 -15.23)"/><path class="cls-7" d="M359.29,108.75c2.31-7.73,2.23-6.62,5.82-7.6.17.25.47.29.51.76s.38.69.47,1a15.46,15.46,0,0,1,.38,3.8l4.36-.51C375.79,91.4,378,97,374,72.6c-2.05-12.53-7.09-20.56-12.6-29.15-4.53-7.05-15.65-14.11-23.13-18.94-9.4-6.06-22.05-7.82-36.11-7C275.65,19,256,26.61,244.41,43.62,235,57.38,229.28,75.76,232,93.75c1.24,8.34,3,10.43,5.21,17.1l2.05-4.53c3,.72,3,1,5.05,2.48L242.66,99l3.89,6.07c.13-.22.47-1.07.6-.81.6,1.41.21.21,2.09-2.44.9-1.33-.94-2-.72-6.63.64-14.23,1.32-32,9.83-43.89,22.52-31.45,71.54-31.28,94.06.94,3.72,5.3,6.59,21.37,7,29.32.51,10.69-4.83,25.09-2.91,30.35,2.7-1.12,1.07,1.32,2.82-3.17Z" transform="translate(-88.16 -15.23)"/><path class="cls-6" d="M156.71,461.43l5.9,6.71c14.06-1.53,35-17.26,47.1-18.46,3.33-.34,188-1.62,193.26,0,4.41,1.41,2,1.07,3.42,2.27,6.41-.47,31.33,14.57,40.69,16.32.94-2.73.38-1.71,2-4.1,1.79-2.74,1.07-1,2.56-3.8-3.07-3.55-9.36-5.86-14.61-7.95-13-5.13-31.63-15.05-48.47-15.09-52.65-.09-121.16,1.41-171.51-.21-11-.39-23.55,6.58-32.82,10.08-5.82,2.18-9.15,4.19-14.58,6.58-7.43,3.3-11.37,3.12-12.95,7.65Z" transform="translate(-88.16 -15.23)"/><path class="cls-4" d="M347.84,500.07c24.23,4.19,30,4.83,50.56-3.68,20.22,6.89,27,10.09,52.31,8.47-2.26-13.59-21.45-9.06-30.26-15.18-5.64.77-9.7-1.23-15.85-1.58-21.67-1.24-99.33,0-123.39,0-21.24,0-49.7,1.62-70.09-.22-9.49-.85-20.43,2.7-29.75,4.79-9.57,2.18-20.13,1.84-23.12,11.71,11.8,2.26,33.47-.34,45.09-5,16-6.41,16.45,6.67,43.12,3.68,11.24-1.24,17.06-3.72,24.88-9.7,5.47,2.35,2.52,4,17.22,5.21a127.82,127.82,0,0,0,23.55-.38c21.41-2.18,16.5-6.16,27.23-1,2.94,1.41,6,1.92,8.5,2.82Z" transform="translate(-88.16 -15.23)"/><path class="cls-6" d="M412,549.48c4.49,5,.39,3.24,0,3.8,0,0-6.07,1.07,0-3.8Zm-3.29-38.3c-2.48-3.5-7.31-12-13.29-9.57-.77,2.26-3-3.21,0,3.46l5.43,7.18c4.36,7.1,14.27,28.51,11.15,35.39-2.95-1.58-7.14-20.3-8.72-24.23-3.63-9-7.78-14.66-13.5-19.45-11.37,1.62-33.21,4.66-42.36-1.58-7.6-.86-10.64-4-17.22-4,1.49,12.48,15.51,27.23,25.94,32.61,7.4,3.89,11.58,1.15,16.24,3.42-1.49,2.86,1.93,1.07-3.5,2.22-1.71.34-5.17.69-6.84,1,3.25,8.37,17.1,15.94,25,19.31,6,2.57,26,10,33,9.19,2-20.17-1.84-41.2-11.33-54.92Z" transform="translate(-88.16 -15.23)"/><path class="cls-7" d="M407.63,427l-.08-105.31c4.44-.77,37,15.52,37.65,16.5,2.35,5.85,2,96.12,0,104.92-5.21-.68-33.94-13.46-37.57-16.11Zm-5.51-123.39c-6.93,8.93-5.43,17.06-5.43,29.62,0,28.89-1.15,76.42.34,101.25,9.62,2.86,20.82,6.07,29.75,9.91,5,2.14,21.67,10.6,27,11.07L454,329.58a135.86,135.86,0,0,1-26.58-12.9c-3.17-2.1-20.86-12.23-25.26-13Z" transform="translate(-88.16 -15.23)"/><path class="cls-6" d="M198.55,546.7c3.68,2.35,3.29,1.71,0,4.1-1.66-1.88-.77,0-1-2.56-.43-5.35-.73.77,1-1.54Zm.69-1.92c-2.14-2.4-1.67,0-2-4.15-.73-11.84,18.08-37.14,18.29-39-6.24-1.71-6-1-13.5,10.38-9.58,14.54-15.22,39.32-14.58,57.19,7.65-1.07,36.59-15.77,45.91-20.94,10.12-5.6,10.68-6.07,11.15-11.84-5.85-2.87-4.66-1.63-8.89-2.31-2.35-.34-2-.47-2.86-.94,1.11-.77-1.11-1.15,4-1.79,5.9-.73,6.28,3.2,13.81-.56,7.73-3.85,25.85-19.36,28.33-30.22l-8.8-2c-17.14,11.46-30.3,7.74-50.56,4.75-11.67,10.17-15.56,23.46-20.3,41.46Z" transform="translate(-88.16 -15.23)"/><path class="cls-8" d="M149.92,318.94c1.36,4.15,1.58,4.06,4.23,7.1,7.35-1.2,15.47-7.52,22.26-11.33,7-4,14.71-8.46,22.36-12.09,15.25-7.23,46.75-4.32,65.17-4.32,44.58,0,92.88-1.84,136.94.09,4.7,1.62,45.35,29.78,54.88,27.22l2.6-6.41c-4.78-2.14-9.36-5.47-15.3-8.33-13.76-6.63-10.25-2.61-23.67-12.14-6.16-4.36-15.73-9.41-23.38-9.41H257.79c-67.57,0-29.92-5.12-76.29,14.62-9.79,4.15-22.78,9.83-31.58,15Z" transform="translate(-88.16 -15.23)"/><path class="cls-6" d="M210.65,301.25c2.22,7.31,4,4.79,4.06,13.46.34,35.9-1.28,88.26.3,119.5l19-.34,0-132.62Z" transform="translate(-88.16 -15.23)"/><path class="cls-6" d="M375.06,434l18.13.12c2.56-20.6-1-110.09.68-120.09.68-4.15,3.55-8.08,4.79-12.82l-23.6,0Z" transform="translate(-88.16 -15.23)"/><path class="cls-9" d="M415.58,427.16c-5.94-1.46-4.79-1.84-4.7-8.72l.13-36.93c6.71.81,27.69,10.47,31.84,14.7l0,6.2c-20.13-3-26.2,5.13-27.23,24.75Zm-4.32-60c5.09.22,11.12,4.19,15.22,6a107,107,0,0,0,16.37,6.06l0,12.14c-.09,0-31.08-13.16-31.89-13.63Zm-.12-42.44,12.35,7c1.71,19,10.68,26.24,19.36,34.53l.17,9.49c-5.43-.81-28-10.25-32.1-12.86ZM407.63,427c3.63,2.65,32.36,15.43,37.57,16.11,2-8.8,2.35-99.07,0-104.92-.68-1-33.21-17.27-37.65-16.5Z" transform="translate(-88.16 -15.23)"/><path class="cls-2" d="M166.41,396c8.59-4.06,19.41-12.39,30.22-15.55v24.36c0,12,2,19.74-3,22l-1.2-5.94c-.43-5.47-.68-8.89-5.43-13.17-5.73-5.08-12.14-5.42-21-2.65Zm0-14.83c8.72-3.93,22.48-14.06,30.13-14.87L196,376.43c-5.77,2.6-24.62,14.36-29.87,15Zm30.3-57.39-.25,38.25c-9.62,3.42-19.49,12.18-30.56,15.21.34-11.58,1.11-5,7.52-11.15,7.35-7,12.78-24.58,12.35-37.1ZM163,440.49c7.06,1.67,23-7.9,36.72-12.43l-.52-107.66c-5.51-.69-13.42,5.94-18.67,9.74s-11.71,6.88-17.61,11.11Z" transform="translate(-88.16 -15.23)"/><path class="cls-6" d="M411.09,509.17c12.61,17.18,13.42,40.95,10.82,65.86,7.31-1.71,23.93-8.93,29.23-12.6,7.61-5.3,16.8-17.18,5.26-25.48-5.86-1.28-9.53.6-14.49,1.76,1.84-6,.25-2,3.93-6.37A18.83,18.83,0,0,0,449,527c2.48-6.2,1.92-10.9,1.07-17.31l-.73-1.28c-35.6.68-19-1.2-42.14-4.92,1.41,2.14,2.22,3,3.93,5.64Z" transform="translate(-88.16 -15.23)"/><path class="cls-6" d="M185.22,576.66c-1.41-16.8-.51-26.37,4.1-41.76,6.8-22.73,7.87-17.65,14.75-32.18-17.23,3.42-23.81,5.21-43.17,5.13-2.61,5.51-3.08,11.5-2.09,17.95,1.66,11.07,5.08,5.64,7.18,10.51-7.65.69-9.66-1.54-14.79,3.59-4,7.87,16.28,26.24,22.35,30.56,4.23,3,7,5,11.67,6.2Z" transform="translate(-88.16 -15.23)"/><path class="cls-10" d="M304.67,259.66c-4.27,2.44-7.95,6.12-16.07,6-5.89-.09-10.17-.9-14.57-4.19l-2.69-2.09c-15.77,16.37-36.8,2-40.73.77-6,3.76-11.54,6.75-20.35,7.09l.26,10.34c13.85.73,17.61-2.18,23.81-8.93,8,3.55,20.77,13.12,35.77-.38,4.49,3.16,5.34,7.78,14.74,8.2,12.23.6,10.69-2.22,17.36-7,5.21,2.1,19.53,14.07,35.77,0,3.5,1.41,4.19,5.69,18.46,6.54,9.7.56,14.36-3.37,19.79-7.13,6.58,4,10,8.29,24.15,7.22V264.88c-10.6.17-17.23.94-22.78-5.56-10.3,5.22-24.79,16-40.78-1.15-5.13,2.78-5.85,6-15.17,7.09-9,1.07-11.37-1.54-17-5.6Z" transform="translate(-88.16 -15.23)"/><path class="cls-8" d="M375.79,280.22c8.08-4.53,1.92-1.07,3.55,0-6.58,4.92-2.22,1.07-3.55,0Zm-39.32,1.54c.22-.34.73-2.18.9-2.39,1.5-2.18-.73-.13,2.61-1.11-2.18,4.87,2.13,2-3.51,3.5Zm-65.13-3.93c1.84,3.16,2,2-1.24,4.14-2.48-3.59-1.75-2.48,1.24-4.14Zm-39.24,4.36c1.24-5.69-1.19-4.06,4.32-4.23-.94,5.34.38,2.52-4.32,4.23Zm-21.67-1.33-.17,4.87,190,.43.08-6.49c-25.68-3.38-12.56-2.7-24.1-6.63-13.93,9.15-23.34,6.71-38.25.77-19.19,9.83-23.51,2.95-35.77-.13-11.84,10.9-22.53,5.47-32.1-1.07-27.57,10.3-15.22,4.24-35.77.52-8.38,8-11.67,6.45-23.9,7.73Z" transform="translate(-88.16 -15.23)"/><polygon class="cls-11" points="149.28 356.71 283.57 356.75 283.44 345 149.33 344.83 149.28 356.71"/><path class="cls-12" d="M323.09,329.58c4.49-3.67,7.14-1.53,12-8.93,2.78-4.23-.34-2.09,4.11-4.06,6.66,3.51.3,7.14,11.07,10.52a14.24,14.24,0,0,1,2.77.81,6.57,6.57,0,0,1,2.53,1.66l-16.37,13.21c-5.26-2.78-4.36-6.28-12-9.79-5.94-2.73-1.28-.34-4.15-3.42Zm34.92,0c4.28-5.25,4.45-1.92,9.49-10,2.91-4.65,0-1.79,3.93-3.84v26.2c-4.36-2.1-3-3.34-6.07-6.46-2.95-3-4.95-2.48-7.35-5.9Zm-67.91-1.23c4.06-4.71,6-.47,9-4.32,1.75-2.18,0-6.07,6.79-6.11,5.82-.05,4.06,3,7.1,5.85,4.4,4.15,5.17-1.66,7.48,7-6,2.35-9.66,4.53-12,11.07l-5.05,0c-4.44-6.33-.72-5.69-9.4-10.09-5.64-2.86-2.18-1.8-3.93-3.33Zm-20,13.8-2.78-3.59c-4.36-6.58-6.5-4.15-12.65-6.5,1.5-7.52,3.89-3.63,8.42-6,4-2.14-.77-5.17,7-9.19,5,1.32,5.34,2.73,6,8,6.2.05,7.31.47,11.12,3.12-4.41,5.13-8.12.86-12.83,9.53-2.56,4.66-.21,2.87-4.31,4.62ZM311,316c2.35-4.53,6.88-7.82,9.23-11.41,4.27,2.31,12.39,7.74,14.66,11.41C330.66,329.5,318,328.86,311,316Zm-34.79-.55c4.53-2.91,8.29-7.61,12.43-11.24,5.09,2.05,11.33,6.62,12.7,11.67l-4.23,7.56c-8.21.94-5.77,3.33-12.78.68-6.76-2.52-6.58-.94-8.12-8.67ZM254.88,304.5c4.36,4.7,7.48,6.37,13.21,8.55-2.18,5-3.51,4.1-5.9,10.81-11.24,3-7.73,4.27-20.86-4.66-2.43-2.56-2.52-.3-1.92-3.29l-2.82,0c-.47,3.29-2.05,21.37-.85,24.83,1.49,4.36-.35.81,2.22,3l-.47-22.65L249.2,327c2.22,1.88,1.67.9,2.73,3.8-2.18,3.81-1.92,1.63-6,5.47-2.69,2.53-3,2.83-4.74,6.63l-1.07,2.86c1.54,2.18,3,4.11,4.36,5.73,2.65,3,3,1.88,5.55,5.47,2.82-.21.94,1.28,2.91-1.2-4.66-4.7-7-3.93-10.26-10.17,4.23-9.79,15.3-16,23.17-6.07,1.07,6.84-5.13,12.4-8,16.46l3.47,1.32c1-4.87,4.61-12.31,11.54-12.65,2.18,2.95,6.83,8.34,8.16,12.57,3.89-1,1.32.17,3.76-1.2-3.46-4.74-8.16-7.35-10.17-14.1,1.79-4.28,3.42-5.69,6.24-8.51,9.7-1.88,16.67-.6,19.1,8.51-1.45,5.38-6.15,9.95-9.66,13.63l-5.38,0a10.93,10.93,0,0,0,3.55,1.37c.17,0,3.46.21,4.57.42,2-4.74,5.21-8.37,9.15-12.69l6.49-.34c3.93,9.87,6.54,7,9.57,13,3.38-.38,2,2.56,2.7-1.5l-10-9.91c-3.46-10,18.6-20.13,24.41-1.5-5,7.44-5.94,6.33-8.85,10.82l3.08,2a24.19,24.19,0,0,1,9.66-12.26c3.72,2.78,2.3,3.16,5.25,6.45,3.68,4.1,3.47,1.63,5.56,5.81l3.8-1.15c-1.36-1.71.82-.09-2.69-2.65-1.67-1.24-2.48-1.37-3.67-2.44-5.65-5.12-5.18-8.89.42-12.65,10.82-7.22,12-6.41,21,5.47l4.27.73-2.3-31c-.22,0-.77-.18-1-.22l-1.92-.47c-1.24,7.1-4.62,8-8.85,12.82-9.19.77-15.21-1.62-15-10.9,4-4.78,6.11-4.27,9.32-10.12,3.42-6-1.58-4-1.67-4.06-.81,5.29-1.62,4.65-5.77,8.71-10.77,10.73-9.4.39-21.84-4l-.51-4c-1.92,1-3.21-1.75-1,1.71l-2.13-1.79c-.13-.13-.47-.43-.69-.69-2,6.88-2,4.32-6.24,8.34-9.83,9.36-4.1,9.91-14.7-.64-3.08-3.12-6.71-2.31-8.29-7.7l-1.45,2.82c-.56-2.95-1.5-1.71-2.61-2.73-1.84,5.51-11.8,13.38-13.93,14.36-10.86-8.81-15.82-8.72-15.6-13.89-3.89-.51-2.44.55-2.1,3.42Z" transform="translate(-88.16 -15.23)"/><path class="cls-6" d="M199.92,191.28l-1.45,30,21.5.26c-.22-13.72,4.87-26.54,14.74-30.18-2.82,7.91-12,7.36-12.31,30.14h10.26c-.43-28.85,18-33.55,23.25-43-20.13,1-38.89,7-56,12.78Z" transform="translate(-88.16 -15.23)"/><path class="cls-6" d="M373.57,187.39c.47,5.13.9-.85-1.07,1.63-2.39-2-.81.77-1.15-2.4-.6-5.94-1,1,1.15-1.75,1.15,1.63.86-.08,1.07,2.52Zm.81,34h12.4c-1.33-19.61-9.41-25.77-10.35-29.66,8.55,3.08,12.44,18.25,13.17,29.53h23.29l-.13-27.95c-9.15-4.1-42.95-11.11-53.51-10.42,6.07,9.4,15,18.37,15.13,38.5Z" transform="translate(-88.16 -15.23)"/><path class="cls-13" d="M153,236.37c1.67-8.38,4-21.15,11-23.68,2.82,5.22,5.21,8.21,6.15,13.68-4.82,2.95-12.56,8.42-17.18,10ZM101.92,272l1.67-1.07c-2.61-6-5.34-3.93-9.75-16.75-4-11.62-4.74-30.56,7.48-37.78,6.63-3.85,14.79-1.41,16.76,4.66-5.09,5.51-8.12,3.63-8.72,16a48.54,48.54,0,0,0,4,20.86c11.5,2,59.2-27.4,60.14-31.93,1.28-6.19-21.07-30.64-16.29-49,2.95-11.41,36.5-21.45,43.6-6.53-.9,7.13-6.37,8.5-13.89,9,1.15-4.31,1.07-2.26,2-6.45-7.52,2.69-8.54,21.16-5.17,26.67l1.11-5.09.86-12c31.58-4.36,17-23.29-2-22.69-8,.26-25.13,6.79-28.29,14.15-6.07,14.14,2.74,24.4,6.41,34.66-3.29,5-6.71,7.78-9,14.91-6.5,20.35,3.41,11.8-21.16,25.56-4.06,2.27-10.26,6.5-16.11,5.47-6.33-19.36-3.38-23.59,5.25-31.16l.05-6.24c-4.58-4.18-12.53-8.16-20.86-3.46-19.27,10.82-12.48,49.07,1.88,58.21Z" transform="translate(-88.16 -15.23)"/><path class="cls-14" d="M437.42,225.94c1.54-3.29,2.57-4.06,4.4-7.22,4.11-7,1.5-3.85,5.09-6.37,2.73,3.85,9.23,15.9,10.21,23-5-1.84-5.85-3-10.08-5.09s-5.6-1.32-9.62-4.36ZM406.14,174.4c0,.17-.77-.47,1.79.94-.47-7.74,1-9.49,8.63-11.15,10.13-2.18,33.94-2.4,35.78,13.71,2.69,23.85-18.77,41.2-18.89,50.52,27.61,10.43,47.91,28.85,60,30.22,4.44-4.75,8.55-13.59,9.06-21.54.9-13.38-5.3-11.71-11.24-17.31,2.09-5.13,12.39-7.52,19-5.56,5.47,1.63,7.43,11.07,7.09,17.91-1,19-14.27,30.43-16.71,35l2.82.13c16.41-10.81,25.69-56,3.64-56.24-4.36-.09-9.58.6-12.95,2.09-4.62,2-6,3.89-5.09,9.1,6.92,4.79,11.5,4.15,10.43,14.79-.6,6.16-4.36,13.85-7.31,18.08a49,49,0,0,1-16.67-7.61c-2.09-1.45-4.61-3.76-7.14-5.21-3.63-2.05-4.4-1.58-7.77-4.53-2.57-11.11-6.33-21.28-13-27.82,1.67-6.93,18.12-33.34-.6-44.88-6.58-4.06-16.71-4.79-26.24-4-4.7.39-16.2,3-16.2,9.49s.39,2.44,1.59,3.89Z" transform="translate(-88.16 -15.23)"/><path class="cls-6" d="M410.92,362.88c4.06,2.61,26.67,12.05,32.1,12.86l-.17-9.49c-8.68-8.29-17.65-15.55-19.36-34.53l-12.35-7Z" transform="translate(-88.16 -15.23)"/><path class="cls-8" d="M185.73,329c.43,12.52-5,30.09-12.35,37.1-6.41,6.15-7.18-.43-7.52,11.15,11.07-3,20.94-11.79,30.56-15.21l.25-38.25Z" transform="translate(-88.16 -15.23)"/><path class="cls-6" d="M415.58,427.16c1-19.62,7.1-27.7,27.23-24.75l0-6.2c-4.15-4.23-25.13-13.89-31.84-14.7l-.13,36.93c-.09,6.88-1.24,7.26,4.7,8.72Z" transform="translate(-88.16 -15.23)"/><path class="cls-15" d="M166.41,396l-.47,9.06c8.89-2.77,15.3-2.43,21,2.65,4.75,4.28,5,7.7,5.43,13.17l1.2,5.94c5-2.27,3-10.05,3-22V380.49C185.82,383.65,175,392,166.41,396Z" transform="translate(-88.16 -15.23)"/><path class="cls-4" d="M335.36,375.49l-29.36.12c.26,4.75.85,2.7,1.54,8.08,15.9,3.17,5.85.26,15.13,6.33l.55,10c13.51,5.56-2,6.63,11,6.5,2.91-4.92,1.79-25.47,1.11-31.07Z" transform="translate(-88.16 -15.23)"/><path class="cls-16" d="M264.33,397.07c.51,4.53,1.15,2.31-2.74,2.73.73-3.2-1-2.86,2.74-2.73Zm-10.52,3.12c-.55-3.59-1.19-2.09,2.36-2.39-1.16,3.8-.05,1.36-2.36,2.39Zm-9.4-1.54c1.07-.73-.43-2.78,3,0-3.55,3.46-2,.94-3,0Zm-7.09,7.14,35.26,0,.17-14.75-35.73.39Z" transform="translate(-88.16 -15.23)"/><path class="cls-6" d="M190.39,460.71l-.17,26.41,17-3.33.08-29.83c-6.07,1.23-11.71,4.35-16.88,6.75Z" transform="translate(-88.16 -15.23)"/><polygon class="cls-6" points="149.16 418.94 184.54 418.94 184.54 405.39 148.94 405.77 149.16 418.94"/><path class="cls-4" d="M300.36,384.33c1.24-4.48,2.05-4.91,1.88-8.89l-26.24.09.21,29.32,7.48-.09c3.89-5.34,3.59-7.09,3.67-14.74.26-.17.6-.43.77-.56l4.19-4.61Z" transform="translate(-88.16 -15.23)"/><polygon class="cls-8" points="149.2 373.08 184.5 372.99 184.46 360.08 148.98 360.38 149.2 373.08"/><polygon class="cls-15" points="250.57 418.89 283.65 418.51 283.53 404.79 250.53 405.26 250.57 418.89"/><path class="cls-10" d="M364.85,398.44c.56,5.25.86-.77-1,1.41-2.82-2.35-1.88-1.24,0-3.46,1.45,1.75.72-.6,1,2.05Zm-11.2.21c6.41-3.25,3.29,0,3.29,0-.3.26-.64.77-.85.81-6.58,2.44-.47.9-2.44-.81Zm-8.72,0h3.51c-.34.26-.73.73-.9.77Zm-5.59,6.67h31.84V391.47l-31.89-.21Z" transform="translate(-88.16 -15.23)"/><path class="cls-6" d="M403.14,484.43c4.88,1.28,9.28,2.13,14,1.45l.17-27.14c-5.68-1.92-7.77-4.14-14.61-5.38Z" transform="translate(-88.16 -15.23)"/><polygon class="cls-4" points="184.41 390.51 149.16 390.56 149.28 402.52 184.54 402.18 184.41 390.51"/><path class="cls-15" d="M284.8,356l.13-.51,5.38,0c3.51-3.68,8.21-8.25,9.66-13.63-2.43-9.11-9.4-10.39-19.1-8.51-2.82,2.82-4.45,4.23-6.24,8.51,2,6.75,6.71,9.36,10.17,14.1Z" transform="translate(-88.16 -15.23)"/><path class="cls-7" d="M115.34,547.25l8.72,1.67c4-11.92,14.62-24.4,25.51-30.17,6.93-3.59,6.84-3,8.38-11.33-13.46,2-39.92,25.86-42.61,39.83Z" transform="translate(-88.16 -15.23)"/><path class="cls-7" d="M357.16,541.23c6.71,11.88,10.72,17,24.44,23.38,6.16,2.82,29.79,11.66,37.19,9.87l-.09-4.62a172.48,172.48,0,0,1-34.79-11.15c-17-7.78-21.67-18-26.75-17.48Z" transform="translate(-88.16 -15.23)"/><polygon class="cls-15" points="250.32 372.44 283.74 371.84 283.53 360.3 250.45 360.64 250.32 372.44"/><path class="cls-7" d="M188.85,577.3c7.65-1,58.3-21.28,62-32.23-10-.29-10.48,3.17-17.44,6.93-5.56,3-10.47,4.7-15.82,7.52-5.59,3-9.31,5.51-15.42,8.08-7.14,3-14.28,2.35-13.34,9.7Z" transform="translate(-88.16 -15.23)"/><path class="cls-16" d="M339.21,328.56c1.66,1.84,1.54-3.8.94,1.28-.26,2.44.51.22-.94,1.84-1.54-2-2.57-.86,0-3.12Zm-16.12,1c2.87,3.08-1.79.69,4.15,3.42,7.61,3.51,6.71,7,12,9.79l16.37-13.21a6.57,6.57,0,0,0-2.53-1.66,14.24,14.24,0,0,0-2.77-.81c-10.77-3.38-4.41-7-11.07-10.52-4.45,2-1.33-.17-4.11,4.06-4.87,7.4-7.52,5.26-12,8.93Z" transform="translate(-88.16 -15.23)"/><path class="cls-4" d="M290.1,328.35c1.75,1.53-1.71.47,3.93,3.33,8.68,4.4,5,3.76,9.4,10.09l5.05,0c2.35-6.54,6-8.72,12-11.07-2.31-8.63-3.08-2.82-7.48-7-3-2.86-1.28-5.9-7.1-5.85-6.83,0-5,3.93-6.79,6.11-3,3.85-5-.39-9,4.32Z" transform="translate(-88.16 -15.23)"/><path class="cls-15" d="M195.26,261.93l.17,32.4c3.21-.43,9.36-4.92,11.67-6.37l.21-30.26Z" transform="translate(-88.16 -15.23)"/><path class="cls-6" d="M179.36,302.87l0-31.54c-4.61,1.28-7.69,3.51-12,4.79l0,7.82.52,23.68Z" transform="translate(-88.16 -15.23)"/><path class="cls-15" d="M356.47,345.91c-4.7-3.59-.08-3.12,0-3.25,4.49,7.14,1,2,0,3.25ZM353.82,356c6.71-1,14.32-6.75,15.09-12.27-9.06-11.88-10.21-12.69-21-5.47-5.6,3.76-6.07,7.53-.42,12.65,1.19,1.07,2,1.2,3.67,2.44,3.51,2.56,1.33.94,2.69,2.65Z" transform="translate(-88.16 -15.23)"/><path class="cls-8" d="M414.85,292.36c4.88,2.82,7.91,6.41,13.6,8.21l-.47-27.7-13.17-7.31Z" transform="translate(-88.16 -15.23)"/><path class="cls-16" d="M320.74,343.13c1.24-1.07-.38-3.67,3.29,0-3.5,2.82-.85,1.71-3.29,0Zm.22,12.65,5.51-.59c2.91-4.49,3.89-3.38,8.85-10.82-5.81-18.63-27.87-8.5-24.41,1.5Z" transform="translate(-88.16 -15.23)"/><path class="cls-4" d="M410.92,377.71c.81.47,31.8,13.63,31.89,13.63l0-12.14a107,107,0,0,1-16.37-6.06c-4.1-1.8-10.13-5.77-15.22-6Z" transform="translate(-88.16 -15.23)"/><path class="cls-7" d="M321.56,500.33c-1.67,3.76.64,7.48,3.54,12.35,2,3.29,5.56,8.08,7.57,11,3.93,5.73,13.2,14.71,20.09,16.37l5.12-4.23c-12.09-9.78-20.21-12-28.89-30.64-.25-.6-.85-2.05-1.11-2.48s-.81-1.32-1-1.62a4.72,4.72,0,0,0-.6-.69c-.13-.17-.47-.51-.68-.72Z" transform="translate(-88.16 -15.23)"/><path class="cls-16" d="M271.34,328.47c3.37,4.75.55,1.71,0,3-2.31-3.3-2.74,4.7-1-1.59Zm-1.24,13.68c4.1-1.75,1.75,0,4.31-4.62,4.71-8.67,8.42-4.4,12.83-9.53-3.81-2.65-4.92-3.07-11.12-3.12-.68-5.3-1-6.71-6-8-7.78,4-3,7-7,9.19-4.53,2.39-6.92-1.5-8.42,6,6.15,2.35,8.29-.08,12.65,6.5Z" transform="translate(-88.16 -15.23)"/><polygon class="cls-11" points="283.61 391.07 250.66 390.86 251.09 401.75 283.27 401.71 283.61 391.07"/><path class="cls-10" d="M254.07,314.67c1.54,3.12,2,2.14-1.24,3.25-2.05-3,.43-2.65,1.24-3.25Zm-12.74,4.53c13.13,8.93,9.62,7.69,20.86,4.66,2.39-6.71,3.72-5.81,5.9-10.81-5.73-2.18-8.85-3.85-13.21-8.55a24.58,24.58,0,0,0-7.69,5.85,45.15,45.15,0,0,0-3.33,4.15c-2.78,3.59-1.76-.51-2.53,4.7Z" transform="translate(-88.16 -15.23)"/><path class="cls-16" d="M253.52,342.53c4.87-.12,2.47-1.06,3.16,3.3-4-1-2.91.85-3.16-3.3ZM253,355.78l4.91.22c2.87-4.06,9.07-9.62,8-16.46-7.87-10-18.94-3.72-23.17,6.07,3.29,6.24,5.6,5.47,10.26,10.17Z" transform="translate(-88.16 -15.23)"/><path class="cls-10" d="M286,316c1.15-.89-.3-3.84,3.42,0-3.89,3.94-2.44.82-3.42,0Zm-9.83-.55c1.54,7.73,1.36,6.15,8.12,8.67,7,2.65,4.57.26,12.78-.68l4.23-7.56c-1.37-5.05-7.61-9.62-12.7-11.67-4.14,3.63-7.9,8.33-12.43,11.24Z" transform="translate(-88.16 -15.23)"/><path class="cls-8" d="M153.72,313.81c5-1.36,7.27-2.39,10.81-5.21l.09-30c-4.75,1.84-6.2,3.12-11,4.49Z" transform="translate(-88.16 -15.23)"/><path class="cls-4" d="M166.37,381.21l-.21,10.26c5.25-.68,24.1-12.44,29.87-15l.47-10.09c-7.65.81-21.41,10.94-30.13,14.87Z" transform="translate(-88.16 -15.23)"/><polygon class="cls-8" points="104.32 281.4 104.07 248.36 93.85 253.88 93.98 285.59 104.32 281.4"/><path class="cls-7" d="M248,535.63l-.13,6c9.15-.86,18.72-8.25,24.23-15.22,3.42-4.36,13.55-17.74,14.49-24.49l-4.91-.47c-4.66,16.71-20.77,25.3-33.68,34.15Z" transform="translate(-88.16 -15.23)"/><path class="cls-7" d="M491.44,539.3,490,537.94c-.21-.26-.89-1.24-1.11-1.54-7.14-10.34-27.39-28.68-36-28.25l.47,7c12.13,6.71,24.61,11.37,33.93,28.94,3,5.55.51,3.85,5.51,5.6,2.44-6.71-.6-4.45-1.41-10.35Z" transform="translate(-88.16 -15.23)"/><path class="cls-16" d="M356.47,313.86c3.47,3.8,1,2.05,0,3.29-.94-1.07-4.18-.26,0-3.29Zm11.46-1c-3.81-.38-4.49-.85-7.48-3.29-1.33-1.07-1.71-1.67-3.29-2.91-3.59-2.77.13-.94-3.72-2-3.21,5.85-5.34,5.34-9.32,10.12-.25,9.28,5.77,11.67,15,10.9,4.23-4.83,7.61-5.72,8.85-12.82Z" transform="translate(-88.16 -15.23)"/><path class="cls-10" d="M321.51,316c.3-.21.64-.72.82-.81s.72-.3.85-.3c6.11-1.79-.94-1.07,1.71,1.11-7,4-2.05.86-3.38,0ZM311,316c7.05,12.87,19.7,13.51,23.89,0-2.27-3.67-10.39-9.1-14.66-11.41-2.35,3.59-6.88,6.88-9.23,11.41Z" transform="translate(-88.16 -15.23)"/><path class="cls-4" d="M310.74,462c-10.6-2.23-16.58,1.84-15.68,12.18,4.78,5,14.53,9,19.06.38,1.79-7,.21-9.06-3.38-12.56Z" transform="translate(-88.16 -15.23)"/><polygon class="cls-8" points="356.87 293.37 366.91 298.24 366.87 269.48 356.52 267.47 356.87 293.37"/><path class="cls-6" d="M431.31,302.79l10.56,3.67-.22-25a37.57,37.57,0,0,0-10.34-5.68Z" transform="translate(-88.16 -15.23)"/><polygon class="cls-8" points="345.45 475.35 357.29 477.53 356.95 456.37 345.11 451.84 345.45 475.35"/><polygon class="cls-8" points="332.08 471.72 338.62 473.34 342.38 473.81 341.91 449.11 331.86 445.77 332.08 471.72"/><path class="cls-8" d="M177.53,466.31l-.69,24.14c10.17-1.88,10.56.3,10.47-9.06,0-6.15.09-12.35-.13-18.55Z" transform="translate(-88.16 -15.23)"/><path class="cls-4" d="M286.51,300.61l-29.53.47c-.22,5.17,4.74,5.08,15.6,13.89,2.13-1,12.09-8.85,13.93-14.36Z" transform="translate(-88.16 -15.23)"/><path class="cls-10" d="M319.8,300.52H290.57c1.58,5.39,5.21,4.58,8.29,7.7,10.6,10.55,4.87,10,14.7.64,4.23-4,4.23-1.46,6.24-8.34Z" transform="translate(-88.16 -15.23)"/><path class="cls-4" d="M351.77,300.57l-28.12.72.51,4c12.44,4.36,11.07,14.7,21.84,4,4.15-4.06,5-3.42,5.77-8.71Z" transform="translate(-88.16 -15.23)"/><path class="cls-8" d="M163.59,472.67l.69,20.09,9.78-1.37.35-23.29c-5.22,1.24-7.48,1.84-10.82,4.57Z" transform="translate(-88.16 -15.23)"/><polygon class="cls-15" points="315.28 271.49 323.32 275.5 323.57 247.72 315.67 242.47 315.28 271.49"/><path class="cls-14" d="M310.74,462c3.59,3.5,5.17,5.6,3.38,12.56-4.53,8.64-14.28,4.66-19.06-.38-.9-10.34,5.08-14.41,15.68-12.18Zm-18.63,13.76c10.77,10.85,30,8.55,25.68-8.76-1.83-7.14-9.14-9.7-16.71-7.74-8.16,2.14-10,6.28-9,16.5Z" transform="translate(-88.16 -15.23)"/><path class="cls-15" d="M153,236.37c4.62-1.58,12.36-7.05,17.18-10-.94-5.47-3.33-8.46-6.15-13.68-7.05,2.53-9.36,15.3-11,23.68Z" transform="translate(-88.16 -15.23)"/><path class="cls-16" d="M437.42,225.94c4,3,5.51,2.31,9.62,4.36s5,3.25,10.08,5.09c-1-7.14-7.48-19.19-10.21-23-3.59,2.52-1-.6-5.09,6.37-1.83,3.16-2.86,3.93-4.4,7.22Z" transform="translate(-88.16 -15.23)"/><path class="cls-16" d="M293.05,357.32l25.21,0c-3-6-5.64-3.12-9.57-13l-6.49.34c-3.94,4.32-7.14,7.95-9.15,12.69Z" transform="translate(-88.16 -15.23)"/><path class="cls-7" d="M268.69,257.1l-34.62-.68c5.3,10.38,27.65,9.74,34.62.68Z" transform="translate(-88.16 -15.23)"/><path class="cls-4" d="M238,343.77l3.25-.85c1.75-3.8,2-4.1,4.74-6.63,4.06-3.84,3.8-1.66,6-5.47-1.06-2.9-.51-1.92-2.73-3.8l-11.71-5.9Z" transform="translate(-88.16 -15.23)"/><path class="cls-7" d="M373.78,256.84l-34.15.26c12.61,12.27,29.58,7.35,34.15-.26Z" transform="translate(-88.16 -15.23)"/><path class="cls-7" d="M358,329.58c2.4,3.42,4.4,2.95,7.35,5.9,3.08,3.12,1.71,4.36,6.07,6.46v-26.2c-4,2.05-1-.81-3.93,3.84-5,8.08-5.21,4.75-9.49,10Z" transform="translate(-88.16 -15.23)"/><path class="cls-14" d="M268.52,466.9l3.84-3.67c8.68-.51,13.89,6.07,9.53,11.33-3.8,4.61-14.48,3.24-13.37-7.66Zm13.55,12.57c2.9-3.76,7.13-7.35,2.94-14.23-2.13-3.55-7.86-6.37-14.06-3.89-7.69,3.08-10.77,19.32,11.12,18.12Z" transform="translate(-88.16 -15.23)"/><path class="cls-7" d="M261.34,357.32l19.7-.08c-1.33-4.23-6-9.62-8.16-12.57-6.93.34-10.52,7.78-11.54,12.65Z" transform="translate(-88.16 -15.23)"/><path class="cls-7" d="M268.52,466.9c-1.11,10.9,9.57,12.27,13.37,7.66,4.36-5.26-.85-11.84-9.53-11.33Z" transform="translate(-88.16 -15.23)"/><path class="cls-17" d="M327.24,474.13c-2.18-10.56,5.17-13,12.95-8.42l.21,7c-4.57,5.3-8.12,4.79-13.16,1.46Zm1.41,5c22.57,1.15,15.51-16,9.23-17.74-8-2.26-22.39,3.25-9.23,17.74Z" transform="translate(-88.16 -15.23)"/><path class="cls-4" d="M327.24,474.13c5,3.33,8.59,3.84,13.16-1.46l-.21-7c-7.78-4.57-15.13-2.14-12.95,8.42Z" transform="translate(-88.16 -15.23)"/><path class="cls-10" d="M236.59,316l2.82,0a59.46,59.46,0,0,0,6.46-6.88c3.2-3.59,5.34-3.12,7-7.78H237.19Z" transform="translate(-88.16 -15.23)"/><path class="cls-7" d="M329.55,357.19H350c-2.09-4.18-1.88-1.71-5.56-5.81-2.95-3.29-1.53-3.67-5.25-6.45a24.19,24.19,0,0,0-9.66,12.26Z" transform="translate(-88.16 -15.23)"/><path class="cls-18" d="M425.67,227.23c7.18-2.36,13.5-28.55,14.36-36.59-3.21,2.18-2.27-2.31-5.39,9Z" transform="translate(-88.16 -15.23)"/><path class="cls-16" d="M371.94,311.93l.05-10.25-16-.56c1.63,5.73,9.28,11.54,15.94,10.81Z" transform="translate(-88.16 -15.23)"/><path class="cls-7" d="M301.94,257.19l-27.27-.77c2.31,5.21,7.1,6.36,13.93,6.32,7.44,0,9.62-1.84,13.34-5.55Z" transform="translate(-88.16 -15.23)"/><path class="cls-7" d="M332.54,257.27l-25.3-.73c2.22,4.83,6.2,6.16,12.18,5.94,7.44-.21,8.8-1.7,13.12-5.21Z" transform="translate(-88.16 -15.23)"/><path class="cls-7" d="M210.48,264.15c6.71.13,15.17-2.09,18-7.65l-17.95,0Z" transform="translate(-88.16 -15.23)"/><path class="cls-7" d="M400.62,258c-4.23-2.91-15-1.58-20.94-1.2,2.35,4,4.7,4.58,10,5.13,5.82.6,10.18,1.8,10.9-3.93Z" transform="translate(-88.16 -15.23)"/><path class="cls-10" d="M250.05,357c-2.52-3.59-2.9-2.48-5.55-5.47-1.41-1.62-2.82-3.55-4.36-5.73l-2.87-.08-.17,10.77Z" transform="translate(-88.16 -15.23)"/><path class="cls-19" d="M339.29,391.26l31.89.21v13.85H339.34Zm-.47,14.83,32.95.21.13-16.07-33.76.39Z" transform="translate(-88.16 -15.23)"/><path class="cls-20" d="M361.43,356.55l10.43,0,.08-9.57c-3.37,1.07-2.3,1.36-5.17,4.06s-3.5,2.35-5.34,5.55Z" transform="translate(-88.16 -15.23)"/><path class="cls-21" d="M359.29,108.75l4.53-1.36,1.29,3.63c2.77-1.54-1.07-.51,4.31-1.41l1.41-3.46-4.36.51a15.46,15.46,0,0,0-.38-3.8c-.09-.26-.38-.43-.47-1s-.34-.51-.51-.76c-3.59,1-3.51-.13-5.82,7.6Z" transform="translate(-88.16 -15.23)"/><path class="cls-22" d="M232.1,282.19c4.7-1.71,3.38,1.11,4.32-4.23-5.51.17-3.08-1.46-4.32,4.23Z" transform="translate(-88.16 -15.23)"/><path class="cls-23" d="M412,553.28c.39-.56,4.49,1.24,0-3.8-6.07,4.87,0,3.8,0,3.8Z" transform="translate(-88.16 -15.23)"/><path class="cls-24" d="M299.72,87.34c4.4-5.43.3-3.38,0-3.93-.17.26-4.62.21,0,3.93Z" transform="translate(-88.16 -15.23)"/><path class="cls-22" d="M270.1,282c3.25-2.18,3.08-1,1.24-4.14-3,1.66-3.72.55-1.24,4.14Z" transform="translate(-88.16 -15.23)"/><path class="cls-25" d="M256.68,345.83c-.69-4.36,1.71-3.42-3.16-3.3.25,4.15-.86,2.31,3.16,3.3Z" transform="translate(-88.16 -15.23)"/><path class="cls-24" d="M307.11,87.17c.43-.64,4.27,1.54,0-3.93-3.89,4.49-.85,3,0,3.93Z" transform="translate(-88.16 -15.23)"/><path class="cls-23" d="M198.55,550.8c3.29-2.39,3.68-1.75,0-4.1-1.71,2.31-1.41-3.81-1,1.54.21,2.56-.68.68,1,2.56Z" transform="translate(-88.16 -15.23)"/><path class="cls-26" d="M320.7,114.35c3.08-1.66,3.59-1.54,0-3.72-1.37,2.23-2,1.16,0,3.72Z" transform="translate(-88.16 -15.23)"/><path class="cls-14" d="M356.47,345.91c1-1.28,4.49,3.89,0-3.25-.08.13-4.7-.34,0,3.25Z" transform="translate(-88.16 -15.23)"/><path class="cls-27" d="M334.25,184.87c3.12-1.28,2.65-.55,1.24-3.46-1.54.85-4-.17-1.24,3.46Z" transform="translate(-88.16 -15.23)"/><path class="cls-28" d="M375.79,280.22c1.33,1.07-3,4.92,3.55,0-1.63-1.07,4.53-4.53-3.55,0Z" transform="translate(-88.16 -15.23)"/><path class="cls-24" d="M261.59,399.8c3.89-.42,3.25,1.8,2.74-2.73-3.76-.13-2-.47-2.74,2.73Z" transform="translate(-88.16 -15.23)"/><path class="cls-23" d="M286,316c1,.82-.47,3.94,3.42,0-3.72-3.84-2.27-.89-3.42,0Z" transform="translate(-88.16 -15.23)"/><path class="cls-23" d="M356.47,317.15c1-1.24,3.47.51,0-3.29-4.18,3-.94,2.22,0,3.29Z" transform="translate(-88.16 -15.23)"/><path class="cls-29" d="M337.45,115.38h3.38c-.81-2,1.88-4.45-2.18-2-.17.13-.47.73-.6.85s-.3.86-.6,1.16Z" transform="translate(-88.16 -15.23)"/><path class="cls-30" d="M372.5,189c2-2.48,1.54,3.5,1.07-1.63-.21-2.6.08-.89-1.07-2.52-2.14,2.74-1.75-4.19-1.15,1.75.34,3.17-1.24.43,1.15,2.4Z" transform="translate(-88.16 -15.23)"/><path class="cls-31" d="M336.47,281.76c5.64-1.54,1.33,1.37,3.51-3.5-3.34,1-1.11-1.07-2.61,1.11-.17.21-.68,2.05-.9,2.39Z" transform="translate(-88.16 -15.23)"/><path class="cls-24" d="M252.83,317.92c3.25-1.11,2.78-.13,1.24-3.25-.81.6-3.29.21-1.24,3.25Z" transform="translate(-88.16 -15.23)"/><path class="cls-29" d="M353.65,398.65c2,1.71-4.14,3.25,2.44.81.21,0,.55-.55.85-.81,0,0,3.12-3.25-3.29,0Z" transform="translate(-88.16 -15.23)"/><path class="cls-23" d="M320.74,343.13c2.44,1.71-.21,2.82,3.29,0-3.67-3.67-2-1.07-3.29,0Z" transform="translate(-88.16 -15.23)"/><path class="cls-32" d="M321.51,316c1.33.86-3.59,4,3.38,0-2.65-2.18,4.4-2.9-1.71-1.11-.13,0-.68.26-.85.3s-.52.6-.82.81Z" transform="translate(-88.16 -15.23)"/><path class="cls-23" d="M363.87,399.85c1.84-2.18,1.54,3.84,1-1.41-.26-2.65.47-.3-1-2.05-1.88,2.22-2.82,1.11,0,3.46Z" transform="translate(-88.16 -15.23)"/><path class="cls-24" d="M275.83,180.73c-6.33.59-.65,6.15,0,0Z" transform="translate(-88.16 -15.23)"/><path class="cls-29" d="M310.14,85.29c1,.73-2.22,4.87,2.65,0-4.35-3.51-1.45-.51-2.65,0Z" transform="translate(-88.16 -15.23)"/><path class="cls-24" d="M244.41,398.65c1.07.94-.51,3.46,3,0-3.47-2.78-2-.73-3,0Z" transform="translate(-88.16 -15.23)"/><path class="cls-24" d="M253.81,400.19c2.31-1,1.2,1.41,2.36-2.39-3.55.3-2.91-1.2-2.36,2.39Z" transform="translate(-88.16 -15.23)"/><path class="cls-27" d="M340.15,329.84c.6-5.08.72.56-.94-1.28-2.57,2.26-1.54,1.11,0,3.12,1.45-1.62.68.6.94-1.84Z" transform="translate(-88.16 -15.23)"/><path class="cls-29" d="M291.08,113.28v-3.42c-.94,1.24-4.74,1.16,0,3.42Z" transform="translate(-88.16 -15.23)"/><path class="cls-29" d="M271.34,115.68c.17-.3.64-1.07.64-.82v-1.53c0-.13-.47-.43-.64-.73-.81,1.2-3.42.73,0,3.08Z" transform="translate(-88.16 -15.23)"/><path class="cls-33" d="M271.34,328.47l-1,1.41c-1.75,6.29-1.32-1.71,1,1.59.55-1.29,3.37,1.75,0-3Z" transform="translate(-88.16 -15.23)"/><path class="cls-23" d="M344.93,398.65l2.61.77c.17,0,.56-.51.9-.77Z" transform="translate(-88.16 -15.23)"/></svg>