<svg id="Camada_1" data-name="Camada 1" xmlns="http://www.w3.org/2000/svg" viewBox="0 0 546.29 547.73"><defs><style>.cls-1{fill:#fdfdfd;}.cls-1,.cls-10,.cls-11,.cls-12,.cls-13,.cls-14,.cls-15,.cls-16,.cls-17,.cls-18,.cls-19,.cls-2,.cls-20,.cls-21,.cls-22,.cls-23,.cls-24,.cls-25,.cls-26,.cls-27,.cls-28,.cls-29,.cls-3,.cls-30,.cls-31,.cls-32,.cls-33,.cls-34,.cls-35,.cls-36,.cls-37,.cls-38,.cls-39,.cls-4,.cls-40,.cls-41,.cls-42,.cls-43,.cls-44,.cls-45,.cls-46,.cls-47,.cls-48,.cls-49,.cls-5,.cls-50,.cls-51,.cls-52,.cls-53,.cls-54,.cls-55,.cls-56,.cls-57,.cls-58,.cls-59,.cls-6,.cls-60,.cls-7,.cls-8,.cls-9{fill-rule:evenodd;}.cls-2{fill:#605d72;}.cls-3{fill:#ec1c22;}.cls-4{fill:#69647a;}.cls-5{fill:#fafafa;}.cls-6{fill:#774558;}.cls-7{fill:#684557;}.cls-8{fill:#58556a;}.cls-9{fill:#777586;}.cls-10{fill:#872437;}.cls-11{fill:#e4222a;}.cls-12{fill:#763448;}.cls-13{fill:#615a6b;}.cls-14{fill:#282447;}.cls-15{fill:#f6f5f8;}.cls-16{fill:#221846;}.cls-17{fill:#714e69;}.cls-18{fill:#982437;}.cls-19{fill:#762843;}.cls-20{fill:#7b798b;}.cls-21{fill:#763953;}.cls-22{fill:#6c697b;}.cls-23{fill:#683854;}.cls-24{fill:#853548;}.cls-25{fill:#672843;}.cls-26{fill:#500e2e;}.cls-27{fill:#26124a;}.cls-28{fill:#912531;}.cls-29{fill:#b83547;}.cls-30{fill:#772537;}.cls-31{fill:#d9232a;}.cls-32{fill:#b82636;}.cls-33{fill:#f2edf5;}.cls-34{fill:#545169;}.cls-35{fill:#f4f2f8;}.cls-36{fill:#5c596b;}.cls-37{fill:#646179;}.cls-38{fill:#5c5a71;}.cls-39{fill:#646173;}.cls-40{fill:#e5e4f2;}.cls-41{fill:#83818c;}.cls-42{fill:#73727c;}.cls-43{fill:#696774;}.cls-44{fill:#dddbeb;}.cls-45{fill:#585765;}.cls-46{fill:#a90914;}.cls-47{fill:#b4b2c2;}.cls-48{fill:#747183;}.cls-49{fill:#f2f1f9;}.cls-50{fill:#8c8a9a;}.cls-51{fill:#514b59;}.cls-52{fill:#433a55;}.cls-53{fill:#383648;}.cls-54{fill:#2a2637;}.cls-55{fill:#484559;}.cls-56{fill:#161239;}.cls-57{fill:#726a7a;}.cls-58{fill:#545164;}.cls-59{fill:#64626d;}.cls-60{fill:#160b45;}</style></defs><path class="cls-1" d="M346.62,484.33c-1.38,5.44.94,3.48-4.81,4.55-2.85-5.75-.54-6.82,4.81-4.55Zm-79.68-1.56c-.22,5.62,2.9,4.37-4.37,4.33.8-5.84-.93-3.61,4.37-4.33Zm96.13-.22c-.45-5.35-1.43-5.93,4.76-4.63-.13,4.59-.4,4.45-4.76,4.63ZM233.92,455.86c2.14-4.86,1.33-4.59,5.75-1.52-2.23,4.5-1.21,5-5.75,1.52Zm170.86,21.39c-9.41,21.52-38.95,28.61-60.08,27.67-9.8-.44-62.12-13.63-71.57-17.73,9.41-4.55,31.07,13.32,70.19,8.11,19.7-2.63,43-10.34,59.1-21.8,4.63-5.34,9.93-7,14.61-14.43,3.48-5.49,7.36-14,13.37-15.6-2.36,10-18.45,27.63-25.62,33.78Zm30.7-43.05c.8,6.19,1.12,4.14-3.74,5.88-2.45-5.17-3.17-6.95,3.74-5.88ZM211.15,420.87c-3.79-5-2.63-3.69,1.47-5.57,3.56,6.11-.76,4.24-1.47,5.57Zm60.51-29c-5.12-2.54-5.61-1.7-1.91-6.51,4.81,2.23,4.36,0,1.91,6.51Zm-34.13-26.43c-2.05,3.12,1.91,3.12-4.73,2.67.45-6.15.54-4.5,4.73-2.67Zm52,.27c8.2-4.32,29.32,6.15,23.39,15.24-5.83-2.76-4-6-9.8-9.67-4.1-2.5-10.52-3.48-13.59-5.57Zm-73.84,29.19c-5.8-9.32-.67-29.91,11.81-30.44-2,5.26-6.07,5.62-8.61,11.9-4.1,10,1,11.41-3.2,18.54Zm-15-4.46c-3.74-7.89,3.83-24.78,13.06-26.16-1.2,5.93-4.32,5.8-7.53,11.68l-4.77,13.28c-.18.31-.49.8-.76,1.2Zm164.76-24.29c-6.2,3.88-11.19,7.4-17.78,10.61-7.22,23.08-21.75,6.55-7.85,54,4.9,16.62,10.74,43,32.44,37.48,13.91-3.52,34.68-17.21,42.92-29,4.95-7.08,8.69-14.88,13.59-22.37,2.41-3.65,4.46-7.53,6.78-11.32,4-6.59,3.65-10.6,5.52-13.54,8.34,3.83-4,19.56-7.4,25.13-4.5,7.4-10.56,18.58-15.37,25.13-9.94,13.46-33.69,28.35-50.14,31.11-6.9,1.16-10.51-.18-17.33,2.23-23.8,8.42-61,13.23-84.36,1.51-5.44-2.76-23.49-10.87-24.87-14.88,14.71.09,15.82,11.94,49.51,17.29,15.56,2.45,45.19-.76,58-10.38-.13-7.49-8.15-21.26-11-30.75-4.15-14.22-5.22-21.84-7.76-35.83-7.79-5.44-20.81-12.52-30.17-12.44-8.69.85-16.66.49-21.83-6.28,5.26-13.9,24.2-5.57,30.75,3.79l20.81,9c3.16-3.48,6-7.62,8.78-11.36,2.94-4,6-10.3,8.33-13.06-.76-13.41,9.14-18.72,21.26-17.51,9,0,4-2.59,10.83,1.73-.63,9.45,0,3-3.17,5.49l-2.8.22-4.37-1c-1.52,6.2.09,2.28-3.34,5.08Zm-141-7.88c-1.69,4.23,2.18,2.58-4.32,2.94.26-5.22-.36-5.26,4.32-2.94Zm219.3-10.39c2.94,4.55,2.41,3.39-1.65,6.11-3-3.79-3.07-3.7,1.65-6.11Zm-165.42,6.69c-4.82-6.46-.85-3.43,0-4.86,2.1,4.59,2.9.09,0,4.86Zm57.35,20.14c-1.29-2.5-2.32-2.9-1.42-8.87a45.61,45.61,0,0,1,2.18-6.77c2.76-6.87,4-8.38,10.34-8.69-2.5,5.61-4.1,3.79-6.86,10.47-2.54,6.11-.9,8.33-4.24,13.86Zm-52.45-27.5c-2.5-5.48-1.56-2.4,1.11-8.55,1.83-4.28,1.43-5.66,3.52-9.63,4.37,6.51.41,14.08-4.63,18.18ZM350.63,334c-3.52-4.72-2.36-1.38.05-5.08,3.38,7,1.65,2.19-.05,5.08ZM220.46,349.3c5.7-4,14.26-6.19,20.9-10.34,8-5,10.21-11.49,14.48-14.08,1,10.7-14.12,19-23.21,23.18-12.62,5.74-9.9,2.49-12.17,1.24ZM190,328.72c-3.61-5.75-1.07-3,0-5,1.69,3.7,4.05-.67,0,5Zm206.91-8c-2.27,4.41-1.64,3.79-5.7,1.47,2-2.32-.27-7.18,5.7-1.47Zm-61.58,4.9c4.23,3.92,5.48,1.69,7.71,7.13-7.31.67-16-7.53-16.05-14.48,5.8,2.14,4.41,3.74,8.34,7.35Zm-46-9.31c4.37,2,5.13.89,1.2,5.25-4.59-1.87-3.52-1.56-1.2-5.25ZM259,321.27c-4.68-7-1.47-2.36-.05-4.72,1.56,3.25,3.66-.67.05,4.72Zm163.9,13.19c-5.08-2.27-4.59-5.92-9.93-9.89-5.17-3.79-7.31-2.81-11.41-7.13,8.24-.58,22.73,5.88,21.34,17ZM185.3,323.72c-4.28,2.14-.54,3.08-7.35.54-6-2.19-10.66-5.62-12-11.41,7,1.34,3.7,2.41,9.67,5.79,5.08,2.86,4.77.89,9.67,5.08Zm136.77-11.54L321,309.91c-1.29-6.37-1.16,1.47,1.16-2.54,1.83,4.05,3.57-.31,0,4.81ZM409,308.66c9.63-5.21,23.8,1.47,25.14,12.52-7.36-2.31-5.26-5.7-10.7-8.55-5.26-2.72-9.36-.54-14.44-4ZM287.8,306c4.94,5.8,1.73,2.68.13,5.44-2.58-3.17-3.52-.89-.13-5.44Zm115.46-1.65c2.72,5.84.49,4-3.21,4.68.18-5.52-1.07-3.16,3.21-4.68Zm-240.73,3.39c3.38-2.72-5.53-2.09,3.25-3.3-1.29,4.28,1.92,1.7-3.25,3.3Zm42.73,32.35c5.08-7.88,36.23,4.33,46.31-34.18l3.43-8.38c9.62,22.82-33.2,53.93-49.74,42.56Zm110.83-40.59c2.59,4.05,2.72.71.05,4.9-5-4.59-2.14-2.05-.05-4.9Zm38.6-1.61c4.28-3.39-2.9-2.58,12.61-1.07,16.44,1.56,26.38-5.84,31.33-3.12-5.13,8.74-36.1,9-43.94,4.19Zm-6.95-5.66c1.91,4.15,1.87,2.54-1.48,4.73-3.56-4.59-1.42-3.44,1.48-4.73Zm-60.08-2.41c3.08,4.77,4.28,0-.13,6-5.17-5-2.85-1.78.13-6Zm20.9-2c-5.57-2.76-3-1.69-1.51-5.48,4.77,2.59,4.86.8,1.51,5.48Zm93-7.35c-1.61,18.81-59,10.56-64.62-6.82,6,1.3,8.69,5.31,14.88,8.29,27.77,13.28,47.78-1.16,49.74-1.47ZM224.51,320c-6.5,5.44-29.27,3.48-36.36-3.25-5.53-5.22-12.21-20.1-17.38-25.89-5.57,3.43-6.24,6.68-9.22,11.76-6.24-10.65,3.69-10.34,7.39-16.62.63-1,4-38,33.16-43.59,9.89-4.27,25.49.9,33.69,7.05,19.12,14.21,13.55,15.06,20.63,24.42-1.51,4.45.09,1.6-5.12,4.54.22,15.15-.36,14.35-8.42,26-4.42,6.37-10.57,15.19-18.37,15.55Zm36.59-59.36c1.83,4,6.51,2.76-1.82,5.71-4-5.26-.63-3.75,1.82-5.71Zm154.24-.09c-4.77,4.46-3.83,4.77-5.39-1.42,4.27-2.28,2.85-1.92,5.39,1.42Zm1.2-10.38c-.4-3.57,0-.54.27-2.45.09-.4,1.11-3.48,1.38-5.17.76-5.08-.44-6,1.69-10.47,4.51,5.83,2.68,16-1.56,21.56Zm-100.31-1.52c-3.3-4.1-2.41-1.6,0-5.21l1.3,2.49c1,5.08,1.24-1.47-1.34,2.72Zm-36.68-3.16c-4.77,4.46-2.54,2.14-5.3.18,1.07-1.25,2.18-8.6,5.3-.18ZM292,237.36c4.55,2.63,3-1.74,3.25,5.08-5.7-.54-5.17,0-3.25-5.08Zm-130.4,26.2c-3.11-7.57,7-19.74,13.51-23.93,9.4-6.06,20.54-7.62,31.46-8.42,22.86-1.74,50.76,19.29,51.78,26.11-8.37.76-25.18-24.06-51.82-22.19-40.87,2.85-36.06,19.65-44.93,28.43ZM418.24,222c3.65,5.3,1.73,2.76-1.47,4.77-3-4.73-1.83-3.3,1.47-4.77Zm-234.06-4.15c3.44,5.08,3.84.54,0,6.06-4.76-5.39-2.71-2,0-6.06Zm211.68,50.18c-4.23,6-23.39,7.85-31.46,7.22-9.62-.76-21.3-8.06-24.55-15.19-5.26-2.77-4.37-4.1-8.6-7.94-3.48,4.68-1.88,5.93-6.06,8.47-.05-3.79,4.1-34.58,5.12-39.88,2.5-12.79,9.67-18.5,20.54-23.18,12.62-5.48,24.69-3.79,36.06,2.94l28.34,16.76c-4.32,2.5-3.79,1.78-9.27.89,8.11,15.2,8.56,44.12-10.12,49.91ZM166.05,218.11a7.06,7.06,0,0,1-.81-1.3c-1.87-8-1.07-.58.76-3.87,2.23,4.68,2.94.35.05,5.17Zm10.74-5.93c-2.94-4-2.32-1.25,0-5,4.15,7.4,1.61,2.54,0,5Zm-11.68-9.54c-4.32-.8-2.36.94-3.16-3.07,7.88,1.69-6-4.32,2.31.58,4.33,2.54-.13-1.65.85,2.49Zm153,34.18c-3.7-4.14-2.81-7.84-.54-15.24,12.08-39,66-45.94,79.68-31.5-4.14,2.54-20.77-3.21-28.39-2.54-47.46,4.32-48.62,45.63-50.75,49.28Zm-125.81-17c11.36-13.81,75.05,17.47,96.53,1.3,10.83-8.16,16.93-19.52,28.47-28.66,5.22-4.14,31.47-18,37.21-18.22-1.2,8.06-28,15.73-35.07,22-32.93,29.23-23.48,41.13-76.6,30-7.62-1.61-16.49-3.3-24.16-4.59-6.24-1.07-23.08.53-26.38-1.79Zm171.44-50.09c.62,6.51,1.43,2.32-2.67,4.77-3.12-4.54-1.79-4.5,2.67-4.77Zm-.89-14.17c2.54,4.73,2.36,4.68-2.72,5.31-2.59-6.47-.31-4.19,2.72-5.31Zm-176,53.3c1.92-8,44.34-3.21,52.54-1.83,15.73,2.68,33,11.37,47.51.09,12.07-9.44,14.92-18.94,30.48-29.63,7-4.81,29.9-18.67,37.3-19.88-.58,7.8-23.67,15.38-35.3,23.44-13.19,9.18-20,22.55-29.77,28.84-18.67,12.07-27.8,6-47.1,1.42-17-4.05-47.1,0-55.66-2.45ZM376.84,155.4c-2.23,3.3-.23,3.84-4.82,1.52,2.1-1.87-1.56-4.59,4.82-1.52ZM169.75,197.16c37.38-11.32,86.45,12.66,111.58-4.54,11.32-7.76,19.92-18.81,34-27.54,8-5,33.38-19,41.49-20.46-4.1,8.16-31.28,18.81-40.6,24.38-13,7.75-23.93,22-34.71,28.38-21.88,12.93-54.19-.17-82.36-.08-8.55,0-22.81,3.74-29.36-.14Zm197.33-56.42c-.27,6.69,1.42,2.54-2.81,4.41-3.08-4.36-.71-4,2.81-4.41Zm-54.33-16.13L291.14,138.2c-2.1,5.08-9.36,12.3-13.91,15.87-22.28,17.69-1.15,14.79-42.64,10.11-26-2.94-68.14-3.38-91.05,6.33l-7.31,8.29c-3.87,9-4.9,7.76-6.95,19.34-1.51,8.56-.27,15.33-.36,23.84,1,23.85,5.17,36-5.88,58.87s4.55,30,14.44,45.86c3.79.85,19.12,21.17,23.4,26.16,7.53,8.69,15.82,19.92,18.27,31.28,4.72,4.37.22,9.41-2.54,14.71-3.17,6.06-4.68,10.29-4.64,18,.09,15.28,8.25,18.05,15.07,29.59l2.22,2.9,6.51,3.83c1.29-6.11.58-10.88,1.87-16.89,2.59-12,5-10.16,7.8-11-3.34,17.51-2.85-5-5.35,32.22,7.31,7.08,17.65,11.63,23.18,20.85,2.27.8,39.84,27.5,40.42,28.34,24.51,5.93,31.86,21.17,63.1,20.33,21.93-.63,45.32-13.51,66-18.85l21-12.53c6.47-10,7.58-3.56,23.13-30.3,11.41-19.56,24.29-54.24,29.64-75.4,6.42-25.27-10.56-30-12.75-37.35,10.25-.67,11.9,12.21,16.76,15.69,4.41-6.11,2.72-23.4,1.87-31.06-3.61-7.09-5.44-9.09-10.25-15.47-5.17-6.82-6.86-7.93-13.1-12.92l2.45-21.21,3.74-30,.81-18.81c.26-16.09.75-25.76-5.58-40.73l-13.68-18.41C433.25,177.37,414,156,412.4,151.84l-3.92-10.47c-9.41-8.51-4.5-17.74-22.46-24.29-31.2-17.69-47.91-.62-73.27,7.53Z" transform="translate(-47.04 -19.27)"/><path class="cls-1" d="M229.11,109.59c-.23-.4-.72-.93-.81-1.2-1.91-8-1.6.58.81-4,.22.49.75,1.07.84,1.38,1.65,6.77.89,1.2-.84,3.83Zm-16.76-5.26c-3.17,2.19-1.12,3.12-5.13,0,1.21-1.33,1.7-7.71,5.13,0ZM257.72,97c4.85,2.36,4.67,3.08,1.38,7.26-4.46-2.89-3.75-3.34-1.38-7.26ZM277,82.05c-.13,6.82,1.74,2.63-2.85,4.46-3.12-4.32-.49-3.92,2.85-4.46ZM140.2,77.91c17.29-4.64,40.42,16.58,51.16,28.25,11.27,12.26,25.36,35.61,26.29,52.36l12,.67c-.49-7.08-4.77-20.14-7.44-26.83-2-5-10.56-16.93-9.63-20.58,18.45,7.08,14.35,56.95,32.76,47.81,7.35-11.49-9.32-35.74-8.65-41.62,16.09,2.18,6.82,49.16,24.91,44.25,17.29-4.72-16.49-33-4.1-51.47,1.83,2.85,2.28,19.07,5.48,27.32,1.56,4.1,11,22.5,15.56,9.09,1.42-4.28-17.78-42.07-5.57-54.23,2.89,5.66-3.44,9.18,2.89,32.44,4.1,15,11.23,26.16,12.39,1.6-3.07-21.79-2.09-36,2.72-57.08,1.92-8.38,12.88-40.87,21.75-40.65l.35-4.27c-34.09-4.37-67.47-.81-99.37,12.92-13.37,5.75-67.16,30.35-73.49,40Z" transform="translate(-47.04 -19.27)"/><path class="cls-2" d="M521.62,391.6c6.38-8.38-.13-17.12,11.77-14.31.94,7.17-1.92,27.76-5.48,33.74-8.34,1.38-12.21,0-18.63-5.4-1.2-8.6,2.45-28.61,7.18-36.14,14.79,7.13-1.65,13.33,5.16,22.11ZM535,372.74c-6.11.45-13.86-4-17.52-8.91.09-5.66,9-32.49,12.84-35.16l4.72,1.47c.72,8.91-6,13.46-3.12,19.3,7.18-6.2,4.64-12.93,8.16-19l7-.63c.89,8.74-7.58,35.48-12.08,43Zm14.13-85.38L548.1,324.7c-7.27,2.68-10.61,1.88-17.87-.17l.66-29.15,8.38-1.87c2.1,7.58.09,12.92,3.83,17.74,7.18-9.59-7.17-20.06,6.07-23.89Zm-10.79-34.05,7.71-4.36C550,264.81,556,289,531.38,290.57c-2.76-3.92-6-27.94-5.92-33.83l8.38-1.11c2.85,6.28,1.69,11.68,6.32,15.6,3-5.8-2.09-10-1.78-17.92Zm-16.31-38.77c2.94,1.69,20.63,27.54,21.12,30.88-6,5.13-11.85,7.4-19.78,6.47-2.94-4.73-3-9.09-5.66-14-2-3.78-5.88-6.9-7-10.92,9.76-9.18,8.78,9.72,17.78,9.45-.14-10.16-16.27-14.44-6.42-21.88Zm-32.49-20.9,28.52,17c-2.31,7.18-8.64,15.51-16.71,12-3.25-1.43-17.91-10.07-20.54-12.17ZM475.37,190l-.23-5.93c5.49.85,6,1.39,10.25,4.77.32,6.42-1.69,9.94-6.1,15.15l-3.21-7.48c-1.47,8.33,3.12,11.05-7.44,13.86l-3.57-5.35,1.83,19.7c-1.38,8.15,1,2.72-3.43,5.3-3.75-1.74-3.57,3.61-4.37-13-.27-5.71-1.11-10-1.42-15.07l5.65.81-2.71-5.31-10.08.63c6.33,15,5.84,24.64,5.58,40.73,2.85-4.41,1-6.6,5.74-6.24,3.93.27,4.24,2.41,5.08,6.6l.05-3.79,4.28,3.7-.94-13.51c5.57,4.15,29.68,42.12,14.53,49.25-7.89,3.7-6.82-1-7.44-2.19L474,275.28l-3.26-4.14L484.68,304c4.77,12.61,3.39,9,1.25,10.25l.85,4.24c4.36,8,7.13,45.81-1.65,47.5,1.38,5.48,1.65,3.48,2.14,9.36,7-9.67,9.27-39.8,7.53-51.61-2.36-15.68-13.06-30.39-15.6-42.06,5.12-4,11.41-.76,14.26-12.3,5.17-20.82-24.78-43.86-22.06-56.51,7.71-1.65,20.28,8.2,27.27,12.39,10.92,6.59,14.18,9.89,18.45,22a173.5,173.5,0,0,1,8.78,71.62c-1.91,20.09-13.77,40-17.56,62.83-7.53,45.28-2.13,39.66-4.27,76.47,1.07-.89,2.67-2.22,3.56-2.89.36-.23,1.52-1,1.87-1.25a18,18,0,0,0,3-2.54c-6.15,0-4.15,0-5.08-7.44l.93-33.52,7.71,3.26c1,7.4-1.42,11,1.7,17.47,3.61-5,2.18-4,2.18-14.84l7.89-1,.49,28.38-5.26,2.95,10,1.11c-3.92-20.5,1.83-63,9.41-82.76,11.4-29.68,10-50.89,11-81.86,1.25-41.71-5.39-37.43-26-67.2-10-14.49-13.06-10.79-26.38-20.06-11.46-8-14.67-12.65-28.79-17.42-1,7.66-2.23,6.77,3.12,11.45Z" transform="translate(-47.04 -19.27)"/><path class="cls-3" d="M165.29,113.2c3.88-4.14,5-2.94,5.3,3.21-4.81-.36-2.63,2.23-5.3-3.21ZM114,110c2.45,2.37,19.61,6.06,24.78,7.8,7.62,2.63,39.75,21.08,44.38,28.26,3.57,5.39,9.63,20.9,19.7,9.09-.18-6.73-24.33-35-24.51-37.44,9.63.09,25.85,33.92,31.55,35.83,7.18-11.67-28-52-37.34-60.07-7-6.06-27.14-14.79-36-11.1-6,2.45-22,21.57-22.51,27.63Z" transform="translate(-47.04 -19.27)"/><path class="cls-4" d="M149.78,453c-1.47,5.21-1,4.55-6.24,6.46-3.39-6.73-2.09-5.21,3.12-8.69ZM101,461.69c-1.65-4.45-.4-7.57,1.87-11.72,6-1.82,10.38.09,18.36-2.8,4.41-1.61,9.09-5.31,13.55-5.44l4.41,20.9c-7.76,6.95-34.32,15.91-42.16,9.49.8-9,9.18-4.05,19.52-5.43,5.75-.81,15.64-2.59,16-8.87-3-.05-9,3.16-14.4,3.87-5.61.72-11.72,1.39-17.15,0ZM80,449l3.7-5.74,14.44,5.34-5.79,23.53c-5-.26-20.77-10.47-23.44-14.53l6.77-4.94c4.86,2.4,11.77,9.53,16.53,11.5.4-5.62-7.26-7.49-12.21-15.16Zm60.7-.66c-2.9-4.51-2-4.86-1.69-10.52l5.66-4.73c.66,3,1.51,6.56,1.2,9.36-.85,7.4-4.32,4.86-5.17,5.89Zm-90-26.65,11.36,0c.85,6.73-1.11,13.64,4.82,15.95,1.78-8.69-3.84-10,1.42-16.57,6.46,1.24,3.35,1.42,6.42,8.78,2,4.81,4.32,6,5.93,10.87-19.7,31.42-34.32-2.32-29.95-19.07Zm14.48-18.41c5.4-7.66-.49-11.9,9.36-12.17.67,2-2.54,21.44-3.52,25.23-6.33,1.87-13,1.69-19.34.67-.71-6,.58-11.59,2.41-17.56,2.31-7.67,2.72-11.68,9.93-11.5,3.44,8.56-4.9,8.25,1.16,15.33Zm11.06-33.11c6-1.38,4.23-6.33,10.24-10.61l5.49,3.7c-.67,5.44-10.83,20.86-15,24.51L62.3,384c.36-6.82,10.7-27.36,15.29-32l5.61,4.45c-3.74,6-7.49,6.38-7,13.73ZM79,347.57c1.78-4.86,9.36-26,11.81-28.3,11.18,8-4.19,15.15,1.42,23.84,5.35-5.53,2.86-11.85,7.76-15.95,9.31,3.47,6.46,8.73,3.34,16.44-2.14,5.26-4.41,12-8.07,16-4.54-1.07-13.54-8.38-16.26-12.07ZM161.81,452.2l-9.18,4.5L149.78,453c-1.92-7.31-2.23-2.85-2.36-12.52-.09-7.22-1.92-8.38.18-14.62-16.09,7.67-18.76,20.19-43,18.63C85.12,443.25,74.82,430.9,76.07,411c2-31.11,33-49,36.19-89l3.3-1c-.72-5.53-4.64-10.43-9.1-11.9,4.37,7.62,2.5,7.76,1.74,16.85-6-.72-12.92-7.22-17.38-11.5l2-10.87,5,.71c-6.37-7.22-3.39,1.47-6.86-7-3.3,7.26-5.71,25.13-9.85,36.09s-9.72,19.92-14.75,30.26c-11.1,22.91-22,44.92-18.59,71.26,2.23,17,33.74,39.93,47.91,42.16,19,3,55.08-10.83,66.22-24.87Z" transform="translate(-47.04 -19.27)"/><path class="cls-3" d="M313.42,120.07c2.81-5.58,2.72-37.13,29.5-67,4.1-4.55,14.13-11.41,16.45-14.62-4.15-3.75-31-11.59-37.71-12-9.18,12-14.61,5.39-26.24,43.71-3.61,11.9-8.47,50.14-.4,59.9l4-2c1.82-10.07-.27-43.89,9.31-47.5.8,10.38-5.35,26.42-3.56,41.4Z" transform="translate(-47.04 -19.27)"/><path class="cls-5" d="M341.72,106.79c-2.67-4.82-.94-9.19,1.65-17,1.74-5.21,4-9.62,9.67-10.11-.27,5.08-3.34,4.36-5.93,11.72-1.92,5.43-3,11.32-5.39,15.42ZM357,71.89c1.74,2.9,4.55-.13,0,5.48-3.93-4.81-1.12-3.25,0-5.48Zm-37.3,44.88c3.74.26,17.34-6.11,22.28-7.76,10.79-3.56,16.76.85,20.1-9.89,5.57-18,21.3-28.43,25-36.94L364.22,42c-19.56,3.52-49.2,56.51-44.56,74.78Z" transform="translate(-47.04 -19.27)"/><path class="cls-6" d="M379,108.48l-3-.58-.27-4.15c-3.07,6.78-18.49,3-4.14-16.13,5.88-7.84,9.67-18.22,19.92-19.25,5.66,6.95,16.84,23.71,16.75,32-4.68,3.25-10.42,3.92-14.79,6.46-4.55,2.63-10.43,7.75-14.49,1.65Zm-59.31,8.29C315,98.5,344.66,45.51,364.22,42L387,62.18c-3.7,8.51-19.43,18.94-25,36.94-3.34,10.74-9.31,6.33-20.1,9.89-4.94,1.65-18.54,8-22.28,7.76ZM134.54,74.25c2,6.29-2,2.72,5.66,3.66,6.33-9.67,60.12-34.27,73.49-40C245.59,24.16,279,20.6,313.06,25l-.35,4.27,9-2.8c6.69.44,33.56,8.28,37.71,12-2.32,3.21-12.35,10.07-16.45,14.62-26.78,29.85-26.69,61.4-29.5,67l-.67,4.54c25.36-8.15,42.07-25.22,73.27-7.53,1-3.83-.09-1.34,5-4.55L408.39,105l4.81-4.86-.53-4.86c-33.16-51.42-6-15.19-45.77-56.5-13.51-14-63.24-20.28-82.22-19.39C228.08,22,182.76,47.16,134.54,74.25Z" transform="translate(-47.04 -19.27)"/><path class="cls-5" d="M131.51,138.25c3.07,4.5,2.23.31,0,4.63-2.36-3.87-3.25-.09,0-4.63Zm-11.63,10.07c7.13.53,20,9.85,23.39,15.6,5.8.66,12-1.79,17.83-3.3C155,148,146,148.68,136.1,143c5.48-3.3,16,2,21,6.32,11.06,9.5,3.52,10.21,20.1,10.16l7.27-1.11c-6.51-15.06-16-18.85-29.15-26.74-17-10.16-19.65-9.31-37.34-15.55l-6.11-.4c-4.77,6.86-8,22.55-7.89,30.84,6.55-.09,11-2.1,15.87,1.78Z" transform="translate(-47.04 -19.27)"/><path class="cls-5" d="M337,251.4c-.63-12-.45-17.7,9.4-25.27,38.23-29.41,56.55,14.53,45.05,37.57,2.1,1.56-1.47.8,3.88,1.69,9.89-12.35,16.22-19.61,10.43-37.43-4-12.35-12.84-20.86-24.56-26.25a37.22,37.22,0,0,0-39.7,6c-8.87,7.71-10.34,29.59-10.39,41.36Z" transform="translate(-47.04 -19.27)"/><path class="cls-7" d="M454.38,462.32c-9.41-6-3.48-16.85-.05-24.56,3-6.77,5.66-19.34,8.87-24.55,18.72,2.67-4.37,46.12-8.82,49.11Zm17.82-50.05C462.49,405.19,468,396.54,471,387c2.41-7.66,3.66-23.48,6.91-28.74,2.94,6.95,5.08,22.06,2.9,29.28-1.52,4.9-6.86,21.12-8.65,24.77Zm-58.38,83.38c5.89-1.42,2-.13,10,0-1.34-7,5.52-11.18,10.07-18.31,4-6.11,7.26-13.77,11.36-19.26,3.21,3,4.77,7.85,6.29,12.84l-18.19,25.45c-4.1,6-3.12,6.72-9.58,6.28l.63,7.49c13.36-7.05,35.25-44.57,41.8-59,5.39-11.94,8.33-26,10.6-38.95,4.82-27.67,11.86-27.09,10.48-36.85-.49-5.88-.76-3.88-2.14-9.36l-8.34-27.14-4.32-1.6c.85,7.66,2.54,24.95-1.87,31.06-4.86-3.48-6.51-16.36-16.76-15.69C456,359.91,473,364.68,466.59,390c-5.35,21.16-18.23,55.84-29.64,75.4-15.55,26.74-16.66,20.28-23.13,30.3Z" transform="translate(-47.04 -19.27)"/><path class="cls-8" d="M309.19,387.63c-7-.09-5.93-2.14-8.92,2.49,9.36-.08,22.38,7,30.17,12.44,2.54,14,3.61,21.61,7.76,35.83,2.81,9.49,10.83,23.26,11,30.75-12.79,9.62-42.42,12.83-58,10.38-33.69-5.35-34.8-17.2-49.51-17.29,1.38,4,19.43,12.12,24.87,14.88,23.31,11.72,60.56,6.91,84.36-1.51,6.82-2.41,10.43-1.07,17.33-2.23,16.45-2.76,40.2-17.65,50.14-31.11,4.81-6.55,10.87-17.73,15.37-25.13,3.39-5.57,15.74-21.3,7.4-25.13-1.87,2.94-1.51,6.95-5.52,13.54-2.32,3.79-4.37,7.67-6.78,11.32-4.9,7.49-8.64,15.29-13.59,22.37-8.24,11.81-29,25.5-42.92,29-21.7,5.48-27.54-20.86-32.44-37.48-13.9-47.42.63-30.89,7.85-54l-.63-4.59c-2.36,2.76-5.39,9.05-8.33,13.06-2.81,3.74-5.62,7.88-8.78,11.36Z" transform="translate(-47.04 -19.27)"/><path class="cls-3" d="M210,277.38c5.84-3.66,15-2,18.27,5.17s0,15.95-4.9,18.67c-14.75,8.29-28.07-14.66-13.37-23.84Zm-11.63-7.13c.8,10.2-10.78,11.05-5.57,27.09,8.15,25.18,30.13,22.28,41.44,8.91,8.43-9.93,8.78-12.16,8.34-25.71-.54-7.08-10.21-14.48-16.89-16.67-12.66-4.1-18.05,2.5-27.32,6.38Z" transform="translate(-47.04 -19.27)"/><path class="cls-9" d="M217.65,158.52a4.82,4.82,0,0,0,1.29.94c.41.18.85.58,1.34.8,6.24,2.77-.8,1.56,8.2,1-11.41-4.41-43,2.89-51.25-1.79-16.58.05-9-.66-20.1-10.16-5-4.36-15.55-9.62-21-6.32,9.94,5.66,18.89,5,25,17.6-5.79,1.51-12,4-17.83,3.3,1.39,4.81,1.34,2.05.27,6.59,22.91-9.71,65.07-9.27,91.05-6.33,41.49,4.68,20.36,7.58,42.64-10.11,4.55-3.57,11.81-10.79,13.91-15.87-1.74-6.77,1.6-4.1-2.9-11.23-1.16,24.56-8.29,13.42-12.39-1.6-6.33-23.26,0-26.78-2.89-32.44-12.21,12.16,7,49.95,5.57,54.23-4.55,13.41-14-5-15.56-9.09-3.2-8.25-3.65-24.47-5.48-27.32-12.39,18.5,21.39,46.75,4.1,51.47-18.09,4.91-8.82-42.07-24.91-44.25-.67,5.88,16,30.13,8.65,41.62-18.41,9.14-14.31-40.73-32.76-47.81-.93,3.65,7.62,15.59,9.63,20.58,2.67,6.69,7,19.75,7.44,26.83Z" transform="translate(-47.04 -19.27)"/><path class="cls-10" d="M114,110c.49-6.06,16.53-25.18,22.51-27.63,8.91-3.69,29,5,36,11.1,9.36,8.07,44.52,48.4,37.34,60.07-5.7-1.91-21.92-35.74-31.55-35.83.18,2.45,24.33,30.71,24.51,37.44-10.07,11.81-16.13-3.7-19.7-9.09-4.63-7.18-36.76-25.63-44.38-28.26-5.17-1.74-22.33-5.43-24.78-7.8Zm-6.19,1.65.93,3.66c5.44-2.5,5.35-3.43,9.23.8,17.69,6.24,20.36,5.39,37.34,15.55,13.19,7.89,22.64,11.68,29.15,26.74l-7.27,1.11c8.2,4.68,39.84-2.62,51.25,1.79-9,.53-2,1.74-8.2-1-.49-.22-.93-.62-1.34-.8a4.82,4.82,0,0,1-1.29-.94c-.93-16.75-15-40.1-26.29-52.36-10.74-11.67-33.87-32.89-51.16-28.25-7.67-.94-3.65,2.63-5.66-3.66-.4,4.37-24.6,25.49-26.69,37.39Z" transform="translate(-47.04 -19.27)"/><path class="cls-5" d="M194.17,312.89c-9.94-14.75-10.34-35.51,4.94-46.34,7.94-5.88,17.38-11.05,27.63-6.73,9.94,4.23,13.91,10.87,20.24,16,2.4-17.83-13.73-22.82-25.36-30.13-40.82-5.08-54,32.13-44.12,48.58,2.32,3.83,11.81,17.87,14.08,20.36,5.88.85.8.54,2.59-1.74Z" transform="translate(-47.04 -19.27)"/><path class="cls-11" d="M373.89,258.3c-5.66,9.54-24.19,1-21-15.19,2.41-12.39,21.21-13.91,29.19-2,.8,7.08.31,16.31-8.16,17.15Zm15.47-2.18c9.13-36.28-29.9-47.68-46.13-21-7.57,12.38.76,29.54,13.86,34.44,12.62,4.68,28.75.63,32.27-13.41Z" transform="translate(-47.04 -19.27)"/><path class="cls-12" d="M113.42,294.62c-2.94-4.81-2.45-8.2-1.92-14.61.67-7.76.89-8.16,8.29-7.58.8,6.55-3.25,16.85-6.37,22.19Zm13.86-50.89a63.29,63.29,0,0,1-1.16,18.5c-1.87,7.08-5,5.88-12,5.7l1.07-22.46ZM109.36,261.6c2.14,6.51.62,6.91-.58,9.32-4.9-2.63-2.4-.32-4.81-6.82-2.85-7.67-7.58-12.21-6.64-22.82Zm3.3-38.68c4.54-4.14,5.7-5.57,12.34-4,.81,6.42,2,13.9,0,20.32l-7,1.6c-3.52-4.36-5-11.85-5.35-17.91Zm1.87-5.79L108,221.94l1.21,5.61c.8,9.67,4,17.34,2.54,27.46-4.41-2.63-5.35-7.58-8.6-12.62C99.69,237,97.6,236,93.5,231.79c-2.77,2.32-2.37-2.27-2.14,5.12-.14,10.92,11.41,30.71,12.74,47.24l-5.3-4.54c1.07,6,4.37,8.73,7.75,13.59.94,1.42,3.93,5.43,4.28,6.1,2.41,4,.49.8,1.47,2.94l2.23,4.91c.22-5.49-1.92-1.83,1.74-4.91,3.07,4.06,4.45,8.52,7.53,12.79,3.12,4.42,7.09,6.64,8.91,11.23l-7.17.18c4.86,7.62,8.24,1.74,11.94.27-9.89-15.82-25.58-22.86-14.44-45.86s6.91-35,5.88-58.87l-4-7.53-5.26,1.12Z" transform="translate(-47.04 -19.27)"/><path class="cls-13" d="M408.39,105l4.77.18c1.69,7.08,0,9.13.71,11.85s1.83,1.65,3,10.16c-3.43,1.78-10.25,4.86-12.79.45-4.36-7.58,3-3.26,5-11.37l-8.78,3.88c-5.26-2.36-6.86-2.81-9.31-7.58-5.08,3.21-4,.72-5,4.55,18,6.55,13.05,15.78,22.46,24.29-2-19.43,17.2-12,13.23,11.41-5.35.22-3.21-.72-5.88-1.12-4.68-.67,3.79,2.9-3.43.18,1.6,4.14,20.85,25.53,24.46,27.85l3.35-4.23-5.13-.54-14.35-17.6c6.78.13,8,4.28,12.79,9.23,1.38-3.44,1.38-9.1.45-14-6.15-1.65-1.79.27-8.47-13.28-3.3-6.64-4.81-9.18-4.37-17,9.23-1.25,11.14-.89,18.1,5l-.18,4.59c5.26-4,1.51-2.72,4.94-3.39-7.13-12.79-14.3-7.35-24.64-11.14L418,108.84c16.62-11.9,35-7.58,38.81,14,2.68,15-2.4,50.27,3.7,60.43,0-7.62-2.27-6.24,2.32-9.76-1.34-18,2-41.84-3.88-58.51-2.27-6.51-9.89-14.35-16.53-15.6-9.8-1.87-17.69,2.5-25,5l-4.76-9.23.53,4.86Z" transform="translate(-47.04 -19.27)"/><path class="cls-5" d="M97.06,276.62l1.74,3,5.3,4.54c-1.33-16.53-12.88-36.32-12.74-47.24-10.34-11,5.12-21.34,9.49-24.46l-3.21-8.2c-19.16-1-34.36,15.15-27,34.45,5.08,13.28,22.69,29.1,26.43,37.92Z" transform="translate(-47.04 -19.27)"/><path class="cls-11" d="M476.79,338.83,485.13,366c8.78-1.69,6-39.53,1.65-47.5-7.89-4.42-13-24.74-30.35-27.19l-3.84,15.29c7.22,4.41,23.62,22.86,24.2,32.26Z" transform="translate(-47.04 -19.27)"/><path class="cls-3" d="M98.49,188.43c6.06,0,7-2.05,15-2.77,4.9-.4,12.79-.22,15.46-3.47-2.85-8-3.11-2.63-9.22-8.6,7.66-4.82,8,4.77,17.11-.72,10.39-10.56-23.44-27.94-33.55-19.38-5.4,9.22-5.89,23.84-4.77,34.94Z" transform="translate(-47.04 -19.27)"/><path class="cls-3" d="M375.72,103.75c2.94-5.39,5.57-11.72,12.35-8.15-3.35,6.86-5.44,1.74-9.1,12.88,4.06,6.1,9.94,1,14.49-1.65,4.37-2.54,10.11-3.21,14.79-6.46.09-8.29-11.09-25.05-16.75-32-10.25,1-14,11.41-19.92,19.25-14.35,19.08,1.07,22.91,4.14,16.13Z" transform="translate(-47.04 -19.27)"/><path class="cls-14" d="M404.78,477.25c1.56-6.38,1.47-2.23-2.36-3.75-16.14,11.46-39.4,19.17-59.1,21.8-39.12,5.21-60.78-12.66-70.19-8.11,9.45,4.1,61.77,17.29,71.57,17.73,21.13.94,50.67-6.15,60.08-27.67Z" transform="translate(-47.04 -19.27)"/><path class="cls-15" d="M444,128.44c8.43,8.56,9.67,35.16,11.37,49.38.76,6.91,2.85,9.94,4.45,16.22,3.48,1.07.32.49,1.83-1.11l-1.16-9.63c-6.1-10.16-1-45.45-3.7-60.43-3.83-21.61-22.19-25.93-38.81-14l1.38,8.46c10.34,3.79,17.51-1.65,24.64,11.14Z" transform="translate(-47.04 -19.27)"/><path class="cls-4" d="M92.52,281.52c.26-.44.62-1.74.8-1.38L94.83,278c3.26-3.26-2.67-.36,2.23-1.34C93.32,267.8,75.71,252,70.63,238.7c-7.35-19.3,7.85-35.43,27-34.45l3.21,8.2c-4.37,3.12-19.83,13.41-9.49,24.46-.23-7.39-.63-2.8,2.14-5.12-1.47-7.71,1.2-11.1,7.84-14.84,5.26,3.52,4,6,7.89,10.6L108,221.94l6.51-4.81-5.35,1.42L97.64,190c5.21,3.16,21.3-2.1,29.64-1.34a150.94,150.94,0,0,1-.85,15.86c-.89,8.92-2,5.71-6.82,11.06l5.26-1.12,4,7.53c.09-8.51-1.15-15.28.36-23.84,2.05-11.58,3.08-10.29,6.95-19.34l-4.94,4.55-2.37-1.16c-2.67,3.25-10.56,3.07-15.46,3.47-8,.72-8.91,2.77-15,2.77-6.51-.94-3.75-.27-4.24-9-4.41,8.12.54,14.22.94,20.68-19.7,5.08-36.41,13.91-28.74,38.42,4.41,14.17,25.49,31.5,26.07,43Z" transform="translate(-47.04 -19.27)"/><path class="cls-16" d="M206.69,487.36c-1.69,14.22-10.07,21-23.26,25.09a141.64,141.64,0,0,1-19.3,4.55c-6.82.93-17.78-1.2-22.24,1.87,6.6,7.4,38.68-1.47,47.64-5.17,10.61-4.41,9.14-10.16,21.17-7.93,6.86,1.25,14.88,5.88,21.52,5.66l4.19,2.09,1.34-10-6.59-8.82c-5.8-3.08-3.53-3.52-6.56-5.89s-.35-.44-3.25-1.38c-1.74-.58.49,1.61-3.7-1.42L211,482.28c-5.31-.8,3.34-.58-4.28,5.08Z" transform="translate(-47.04 -19.27)"/><path class="cls-17" d="M265.38,515.88c.45-5.43-2.36-1.29,1.11-5l40,18,1.56,8.87c-7.67-.44-16.94-3.52-25.23-5-13.63-2.36-13.36-3.43-16.22-14.92-2.22,7.13,2.1,2.18-4.19,5.25-1.38.67-3.25.27-4.76.32,8.82,10,17.69,12.47,31.73,15.19,12.92,2.5,22.77,5.71,36.58,6.6-2.89-1.7-.44.18-2.18-4.06-8.78.05-14.44-1.51-11.94-11.58,6.77-1.34,12.25-.05,19.52-.85,5.12-.54,9.8-2.41,13.45-.49l4.19,2.32.4-5c12.44-2.81,23.76-6.86,35.79-9.63,1,9.54,1.47,8-1.87,16.54,9.85-2.32-.05-12.26,9.53-24.24-20.72,5.34-44.11,18.22-66,18.85-31.24.84-38.59-14.4-63.1-20.33L262,510.89Z" transform="translate(-47.04 -19.27)"/><path class="cls-3" d="M513.16,482.37c6.41-.71,23.13-2.4,26.29-7.53.4-7.53,2.94-15.69-3.52-21.08-5.26-4.37-12.75-3.61-18.23-.76-21.52,11.1-7.31,24-4.54,29.37Z" transform="translate(-47.04 -19.27)"/><path class="cls-18" d="M312.71,29.24C303.84,29,292.88,61.51,291,69.89c-4.81,21.12-5.79,35.29-2.72,57.08,4.5,7.13,1.16,4.46,2.9,11.23l21.61-13.59.67-4.54-8.64,1.87c-1.79-15,4.36-31,3.56-41.4C298.76,84.15,300.85,118,299,128l-4,2c-8.07-9.76-3.21-48,.4-59.9,11.63-38.32,17.06-31.68,26.24-43.71Z" transform="translate(-47.04 -19.27)"/><path class="cls-4" d="M339.85,260.09,337,251.4l-5.89-2.32c.05-11.77,1.52-33.65,10.39-41.36a37.22,37.22,0,0,1,39.7-6c11.72,5.39,20.59,13.9,24.56,26.25,5.79,17.82-.54,25.08-10.43,37.43,2.41,1.51,3.16-.58.53,2.67,18.68-5.79,18.23-34.71,10.12-49.91,5.48.89,4.95,1.61,9.27-.89L386.91,200.5c-11.37-6.73-23.44-8.42-36.06-2.94-10.87,4.68-18,10.39-20.54,23.18-1,5.3-5.17,36.09-5.12,39.88,4.18-2.54,2.58-3.79,6.06-8.47,4.23,3.84,3.34,5.17,8.6,7.94Z" transform="translate(-47.04 -19.27)"/><path class="cls-19" d="M149.11,346.1c-2,4.63-3.61,6.28-8.64,7.62-3.52-5.31-8.16-16.05-7.76-22.51,6.11-1.16,5.84,1.2,9.58,5.7,3,3.7,4.86,4.68,6.82,9.19Zm-23.57-19.66.62.49-.62,2.85c.67,8.52,2.76,32.18,10.69,36,.72-4.73,3.48-4.59,4.86-.63.67-6.28,3.65-9.44,8.33-12.07l4.15-3.12c20.05,20.68,5.26,15.82,5.57,34-1.74,6.47-2.18,3.7-1.34,10.39,4.73-5.17,5.17-16.27,10-22.24,4.37,2.32,7.4,10.56,8.16,15.6l4,3.12c.58-5.66,1.56-1.12-.76-6.69-2.45-11.36-10.74-22.59-18.27-31.28-4.28-5-19.61-25.31-23.4-26.16-3.7,1.47-7.08,7.35-11.94-.27Z" transform="translate(-47.04 -19.27)"/><path class="cls-20" d="M186.77,208.88c8.56,2.45,38.64-1.6,55.66,2.45,19.3,4.59,28.43,10.65,47.1-1.42,9.76-6.29,16.58-19.66,29.77-28.84,11.63-8.06,34.72-15.64,35.3-23.44-7.4,1.21-30.31,15.07-37.3,19.88-15.56,10.69-18.41,20.19-30.48,29.63-14.49,11.28-31.78,2.59-47.51-.09-8.2-1.38-50.62-6.19-52.54,1.83Z" transform="translate(-47.04 -19.27)"/><path class="cls-21" d="M220.77,479.88l.8,5.21-3.92.94c4.19,3,2,.84,3.7,1.42,2.9.94.27-1,3.25,1.38s.76,2.81,6.56,5.89l-2.46-5.53c8.43-.4,12.93,6.24,19,11.14C256,507,261.82,506,261.06,519.41c-12.26.62-15.78-9.76-23.31-15.87l-1.34,10-4.19-2.09c3.12,33.47-54.72,29.81-54.05,55.57,5.21-1.6,9.45-10.92,15.64-14.35,6-3.3,13-6,19.25-9.22,23.4-12.17,19.3-23.31,26.43-30.84,4.95,3.25,12,11.45,18.14,10.83,1.51,0,3.38.35,4.76-.32,6.29-3.07,2,1.88,4.19-5.25l-1.2-2-3.43-5,1.74-4.19c-.58-.84-38.15-27.54-40.42-28.34l-3.43-1.47Z" transform="translate(-47.04 -19.27)"/><path class="cls-5" d="M528.31,357.15c2.9,5.75,4.28,3.07-1.92,5.92-3.92-5.48-.71-4.1,1.92-5.92ZM535,372.74c4.5-7.48,13-34.22,12.08-43l-7,.63c-3.52,6.1-1,12.83-8.16,19-2.85-5.84,3.84-10.39,3.12-19.3l-4.72-1.47c-3.88,2.67-12.75,29.5-12.84,35.16,3.66,4.95,11.41,9.36,17.52,8.91Z" transform="translate(-47.04 -19.27)"/><path class="cls-22" d="M169.75,197.16c6.55,3.88,20.81.18,29.36.14,28.17-.09,60.48,13,82.36.08,10.78-6.37,21.75-20.63,34.71-28.38,9.32-5.57,36.5-16.22,40.6-24.38-8.11,1.47-33.51,15.42-41.49,20.46-14,8.73-22.64,19.78-34,27.54-25.13,17.2-74.2-6.78-111.58,4.54Z" transform="translate(-47.04 -19.27)"/><path class="cls-5" d="M101,461.69c5.43,1.39,11.54.72,17.15,0,5.4-.71,11.37-3.92,14.4-3.87-.36,6.28-10.25,8.06-16,8.87-10.34,1.38-18.72-3.57-19.52,5.43,7.84,6.42,34.4-2.54,42.16-9.49l-4.41-20.9c-4.46.13-9.14,3.83-13.55,5.44-8,2.89-12.34,1-18.36,2.8-2.27,4.15-3.52,7.27-1.87,11.72Z" transform="translate(-47.04 -19.27)"/><path class="cls-12" d="M389.36,256.12c-3.52,14-19.65,18.09-32.27,13.41-13.1-4.9-21.43-22.06-13.86-34.44,16.23-26.65,55.26-15.25,46.13,21ZM337,251.4l2.85,8.69c3.25,7.13,14.93,14.43,24.55,15.19,8.07.63,27.23-1.2,31.46-7.22,2.63-3.25,1.88-1.16-.53-2.67-5.35-.89-1.78-.13-3.88-1.69,11.5-23-6.82-67-45.05-37.57-9.85,7.57-10,13.23-9.4,25.27Z" transform="translate(-47.04 -19.27)"/><path class="cls-23" d="M202.1,242.39c2.09.63,6.19.05,9,.05,7.17,0,7.35-1.47,10.56,3.25C233.25,253,249.38,258,247,275.82c-6.33-5.13-10.3-11.77-20.24-16-10.25-4.32-19.69.85-27.63,6.73-1.42,2.54-.49.49-.71,3.7,9.27-3.88,14.66-10.48,27.32-6.38,6.68,2.19,16.35,9.59,16.89,16.67,7.48,9.09.35,19.92-6.33,27.81-10.83,12.7-13.28,10.38-29.19,8.07-8.56-.58-3.79-.63-6.68,2.49,11.23,6,13.63-.58,24.1,1.07,7.8-.36,14-9.18,18.37-15.55,8.06-11.68,8.64-10.88,8.42-26,5.21-2.94,3.61-.09,5.12-4.54-7.08-9.36-1.51-10.21-20.63-24.42-8.2-6.15-23.8-11.32-33.69-7.05Z" transform="translate(-47.04 -19.27)"/><path class="cls-24" d="M449.43,174.83c-6.33-1.47-11.54-9-12.08-16.22-.84-12.07,1.3-14.66,4.24-24.69,6.68,10.43,9.36,28.39,7.84,40.91Zm-10.38-43c-4.82,4.5-5.89,14.35-5.08,20.72.93,4.9.93,10.56-.45,14,3.83,5.39,4.15,2.36,6.69,8.91l-3.35,4.23,13.68,18.41,10.08-.63,3.16-1-2.14-3.56c-1.51,1.6,1.65,2.18-1.83,1.11-1.6-6.28-3.69-9.31-4.45-16.22-1.7-14.22-2.94-40.82-11.37-49.38-3.43.67.32-.62-4.94,3.39Z" transform="translate(-47.04 -19.27)"/><path class="cls-22" d="M192.25,219.84c3.3,2.32,20.14.72,26.38,1.79,7.67,1.29,16.54,3,24.16,4.59,53.12,11.14,43.67-.76,76.6-30,7-6.24,33.87-13.91,35.07-22-5.74.26-32,14.08-37.21,18.22-11.54,9.14-17.64,20.5-28.47,28.66-21.48,16.17-85.17-15.11-96.53-1.3Z" transform="translate(-47.04 -19.27)"/><path class="cls-25" d="M390.65,524.22c-3.34-14.89-.18-10.47,10.12-16.89,5.83-3.61,12.61-9.63,19.29-9.18l1.56,10.56Zm23.17-28.57-21,12.53c-9.58,12,.32,21.92-9.53,24.24-2.23-.4-21.71,5.08-28.75,5.79L349,530.55l-4.19-2.32,1.39,2.58,2.05,6.42-2.46,1.2c-3.47,2.32.36,1-4.85,2.19,0,0-5,.35-5.08.4-4.1.13-7.94,0-12.08.13,1.74,4.24-.71,2.36,2.18,4.06,11.32,0,50.32-4.59,59.76-9.14,6.47-3.12,13.64-9.62,20.1-13.32,4.86-2.85,17.65-7.71,18.59-12.61l-.63-7.49.05-7c-8-.13-4.1-1.42-10,0Z" transform="translate(-47.04 -19.27)"/><path class="cls-5" d="M520.47,397.25c2.27,4.15,2.36,2.63-1.47,4.64-3.17-3.92-1.61-3,1.47-4.64Zm1.15-5.65c-6.81-8.78,9.63-15-5.16-22.11-4.73,7.53-8.38,27.54-7.18,36.14,6.42,5.35,10.29,6.78,18.63,5.4,3.56-6,6.42-26.57,5.48-33.74-11.9-2.81-5.39,5.93-11.77,14.31Z" transform="translate(-47.04 -19.27)"/><path class="cls-11" d="M157.8,394.36l-.35,19.74c2.18,6.73,0,17.42,10,22.82l4.64,1.07c-.89-9.54-6.24-14.4-4.46-27,1.2-8.47,6.77-15.51,8.29-23.31-.76-5-3.79-13.28-8.16-15.6-4.81,6-5.25,17.07-10,22.24Z" transform="translate(-47.04 -19.27)"/><path class="cls-26" d="M373.89,258.3m0,0,0,0c8.47-.84,9-10.07,8.16-17.15-8-12-26.78-10.43-29.19,2-3.16,16.17,15.37,24.73,21,15.19Z" transform="translate(-47.04 -19.27)"/><path class="cls-5" d="M67.11,446.41c-2.63-4.68-2.09-1,.09-5.26.18.45.76,1,.81,1.29,1.69,7.36.84,1.07-.9,4Zm-.26-8.74c-5.93-2.31-4-9.22-4.82-15.95l-11.36,0c-4.37,16.75,10.25,50.49,30,19.07-1.61-4.86-3.92-6.06-5.93-10.87-3.07-7.36,0-7.54-6.42-8.78-5.26,6.55.36,7.88-1.42,16.57Z" transform="translate(-47.04 -19.27)"/><path class="cls-15" d="M542.12,276.57c1.65,6.07,1.12,2-.53,5.66-7.35-2.09-5.08-5.66.53-5.66Zm-2-5.34c-4.63-3.92-3.47-9.32-6.32-15.6l-8.38,1.11c-.05,5.89,3.16,29.91,5.92,33.83C556,289,550,264.81,546.09,249l-7.71,4.36c-.31,7.89,4.81,12.12,1.78,17.92Z" transform="translate(-47.04 -19.27)"/><path class="cls-8" d="M115.82,335.18c-.22,8.91,2,24.42,4.24,33.24,4,15.47,13.23,10.3,22.72,8.47,3.93,8.42,8.16,34.05,10.25,44.74l-3.38,3.52,5.7-.93-1.92-13.28,4,3.16.35-19.74c-.84-6.69-.4-3.92,1.34-10.39-4,4.42-5.3,13.28-6,20,1-9.31-7.93-31-10.12-42.91,3.25-3.61,4.15-3.39,6.37-8-4.68,2.63-7.66,5.79-8.33,12.07-1.38-4-4.14-4.1-4.86.63,4.33,5.57,2.19.4,4.37,6.06-11.23,11.32-16.53-1.92-18.32-11.68-2.4-13.28-3.34-19.69-2-33.87l5.31,3.52.62-2.85-6.59-7.08Z" transform="translate(-47.04 -19.27)"/><path class="cls-15" d="M517.44,439.19c5.48-6.95-1.52-2.09,3.69-3.43-.17.49-.22,1.25-.35,1.51-3.39,5.22,0,1.39-3.34,1.92Zm-5,12.3,10.56-4.72,5.26-2.95-.49-28.38-7.89,1c0,10.83,1.43,9.8-2.18,14.84-3.12-6.51-.72-10.07-1.7-17.47l-7.71-3.26-.93,33.52c.93,7.48-1.07,7.48,5.08,7.44Z" transform="translate(-47.04 -19.27)"/><path class="cls-27" d="M501.26,463c-4.23,9.4-2.1,14.53,3.92,21.66,4.14,4.9,3.79,3.65,8,7.09,4,3.29,2.72,4.27,5.75,6.72,6.15,0,2.22-1.29,10.25-3.07,5.7-1.11,12.61-5.57,14.57-10.92,1.83-3.83,1.65-2.18,1.38-5.88-5.48-5.26-.45-3.12-5.66-3.79-3.16,5.13-19.88,6.82-26.29,7.53l-5-.84c-5.4-8.47-4.28-10.7-4.28-20.24Z" transform="translate(-47.04 -19.27)"/><path class="cls-4" d="M224.51,320c-10.47-1.65-12.87,4.95-24.1-1.07,2.89-3.12-1.88-3.07,6.68-2.49-3.12,1.51-8.65-1.74-12.92-3.53-1.79,2.28,3.29,2.59-2.59,1.74-2.27-2.49-11.76-16.53-14.08-20.36-9.85-16.45,3.3-53.66,44.12-48.58-3.21-4.72-3.39-3.25-10.56-3.25-2.77,0-6.87.58-9-.05C172.91,248,169.57,285,168.94,286c-3.7,6.28-13.63,6-7.39,16.62,3-5.08,3.65-8.33,9.22-11.76,5.17,5.79,11.85,20.67,17.38,25.89,7.09,6.73,29.86,8.69,36.36,3.25Z" transform="translate(-47.04 -19.27)"/><path class="cls-15" d="M89.44,345.07c2,3.25,2.5-2.67.85,3.74-.09.27-.63.76-.85,1.16-2.23-3.56-3.25-.35,0-4.9ZM79,347.57c2.72,3.69,11.72,11,16.26,12.07,3.66-4.05,5.93-10.78,8.07-16,3.12-7.71,6-13-3.34-16.44-4.9,4.1-2.41,10.42-7.76,15.95-5.61-8.69,9.76-15.82-1.42-23.84-2.45,2.31-10,23.44-11.81,28.3Z" transform="translate(-47.04 -19.27)"/><path class="cls-27" d="M210,277.38c-14.7,9.18-1.38,32.13,13.37,23.84,4.9-2.72,8.25-11.41,4.9-18.67s-12.43-8.83-18.27-5.17Z" transform="translate(-47.04 -19.27)"/><path class="cls-16" d="M149.65,425.15l-2.05.67c-2.1,6.24-.27,7.4-.18,14.62.13,9.67.44,5.21,2.36,12.52l2.85,3.74,9.18-4.5,5.89-3.52,1.33-7.4-1.56-4.36c-10-5.4-7.84-16.09-10-22.82l-4-3.16,1.92,13.28Z" transform="translate(-47.04 -19.27)"/><path class="cls-15" d="M104.77,206.52c3.79-2.32,1.2-.94,4.9-1.16,2.41-.09.72.85,3.84-.22,6.32-2.19,3.61-4.28,9.89-.27-7.53,4.72-12,5.3-18.63,1.65Zm9.76,10.61,5.08-1.56c4.81-5.35,5.93-2.14,6.82-11.06a150.94,150.94,0,0,0,.85-15.86c-8.34-.76-24.43,4.5-29.64,1.34l11.54,28.56Z" transform="translate(-47.04 -19.27)"/><path class="cls-15" d="M456.12,286.87c9.58.85,30.43,17.78,29.81,27.36,2.14-1.2,3.52,2.36-1.25-10.25l-13.95-32.84c-6.68-6.6,2.9-7-10.6-8.47-3.84,6.06-4.46,16.36-4,24.2Z" transform="translate(-47.04 -19.27)"/><path class="cls-15" d="M529.6,239.45l3.52.94c0,4,.4,4.23-4.68,4.1Zm-6.19,12.44c7.93.93,13.77-1.34,19.78-6.47-.49-3.34-18.18-29.19-21.12-30.88-9.85,7.44,6.28,11.72,6.42,21.88-9,.27-8-18.63-17.78-9.45,1.16,4,5,7.14,7,10.92,2.67,4.91,2.72,9.27,5.66,14Z" transform="translate(-47.04 -19.27)"/><path class="cls-5" d="M149.42,353.05c-2.22,4.63-3.12,4.41-6.37,8,2.19,11.94,11.1,33.6,10.12,42.91.67-6.73,2-15.59,6-20-.31-18.22,14.48-13.36-5.57-34Z" transform="translate(-47.04 -19.27)"/><path class="cls-5" d="M265.38,515.88l1.2,2c2.86,11.49,2.59,12.56,16.22,14.92,8.29,1.43,17.56,4.51,25.23,5l-1.56-8.87-40-18c-3.47,3.74-.66-.4-1.11,5Z" transform="translate(-47.04 -19.27)"/><path class="cls-15" d="M508.52,213.87c4.41,5.8,2.36,1.7-.13,5.53-1.69-2.81-4.41-.89.13-5.53ZM489,205.32c1.38-1.16-2.23-3.43,5.35-1.61.8.23,9.36,3.48,8.91,9.94Zm-8.11,5.21c2.63,2.1,17.29,10.74,20.54,12.17,8.07,3.47,14.4-4.86,16.71-12l-28.52-17Z" transform="translate(-47.04 -19.27)"/><path class="cls-15" d="M74.51,374.53c2.1,5.08,1.74,3.92-3.07,4.63.13-6.73-1.52-2.67,3.07-4.63Zm1.7-4.37c-.5-7.35,3.25-7.75,7-13.73L77.59,352C73,356.66,62.66,377.2,62.3,384L77,387.76c4.15-3.65,14.31-19.07,15-24.51l-5.49-3.7c-6,4.28-4.27,9.23-10.24,10.61Z" transform="translate(-47.04 -19.27)"/><path class="cls-11" d="M454.38,462.32c4.45-3,27.54-46.44,8.82-49.11-3.21,5.21-5.88,17.78-8.87,24.55-3.43,7.71-9.36,18.59.05,24.56Z" transform="translate(-47.04 -19.27)"/><path class="cls-15" d="M541.68,317c3.74,4.95,3.47,1-.14,5.88-2.54-4-4.59-.76.14-5.88Zm-11.45,7.49c7.26,2.05,10.6,2.85,17.87.17l1.07-37.34c-13.24,3.83,1.11,14.3-6.07,23.89-3.74-4.82-1.73-10.16-3.83-17.74l-8.38,1.87Z" transform="translate(-47.04 -19.27)"/><path class="cls-5" d="M349,530.55l5.57,7.66c7-.71,26.52-6.19,28.75-5.79,3.34-8.56,2.89-7,1.87-16.54-12,2.77-23.35,6.82-35.79,9.63Z" transform="translate(-47.04 -19.27)"/><path class="cls-15" d="M63.91,410.76c-3.08-3.83-2.19-1.61,0-4.77,2.27,4.32,2.45.13,0,4.77Zm1.24-7.49c-6.06-7.08,2.28-6.77-1.16-15.33-7.21-.18-7.62,3.83-9.93,11.5-1.83,6-3.12,11.59-2.41,17.56,6.37,1,13,1.2,19.34-.67,1-3.79,4.19-23.18,3.52-25.23-9.85.27-4,4.51-9.36,12.17Z" transform="translate(-47.04 -19.27)"/><path class="cls-16" d="M92.52,281.52,90.87,297.3c3.47,8.51.49-.18,6.86,7l8.73,4.81c4.46,1.47,8.38,6.37,9.1,11.9l.26,14.13,3.75-15.33-5-12.7-2.23-4.91c-1-2.14.94,1.07-1.47-2.94-.35-.67-3.34-4.68-4.28-6.1-3.38-4.86-6.68-7.62-7.75-13.59l-1.74-3c-4.9,1,1-1.92-2.23,1.34l-1.51,2.18c-.18-.36-.54.94-.8,1.38Z" transform="translate(-47.04 -19.27)"/><path class="cls-5" d="M423.81,495.65l-.05,7c6.46.44,5.48-.31,9.58-6.28l18.19-25.45c-1.52-5-3.08-9.85-6.29-12.84-4.1,5.49-7.4,13.15-11.36,19.26-4.55,7.13-11.41,11.32-10.07,18.31Z" transform="translate(-47.04 -19.27)"/><path class="cls-28" d="M95.41,159.06l-1.16,20.36c.49,8.74-2.27,8.07,4.24,9-1.12-11.1-.63-25.72,4.77-34.94,10.11-8.56,43.94,8.82,33.55,19.38-9.13,5.49-9.45-4.1-17.11.72,6.11,6,6.37.58,9.22,8.6l2.37,1.16,4.94-4.55,7.31-8.29c1.07-4.54,1.12-1.78-.27-6.59-3.38-5.75-16.26-15.07-23.39-15.6-6.82.44-14.17-.27-20.28,2.14Z" transform="translate(-47.04 -19.27)"/><path class="cls-8" d="M161.63,263.56c8.87-8.78,4.06-25.58,44.93-28.43,26.64-1.87,43.45,22.95,51.82,22.19-1-6.82-28.92-27.85-51.78-26.11-10.92.8-22.06,2.36-31.46,8.42-6.55,4.19-16.62,16.36-13.51,23.93Z" transform="translate(-47.04 -19.27)"/><path class="cls-29" d="M175.94,387.72c-1.52,7.8-7.09,14.84-8.29,23.31-1.78,12.56,3.57,17.42,4.46,27l-4.64-1.07,1.56,4.36c7.31,6.2,5,11.77,15.29,14.49,2.14-6.87-.89,1.69.67-4.46,1.24-4.86-.94-1.6,2-4.9-6.82-11.54-15-14.31-15.07-29.59,0-7.67,1.47-11.9,4.64-18,2.76-5.3,7.26-10.34,2.54-14.71,2.32,5.57,1.34,1,.76,6.69Z" transform="translate(-47.04 -19.27)"/><path class="cls-22" d="M318.06,236.82c2.13-3.65,3.29-45,50.75-49.28,7.62-.67,24.25,5.08,28.39,2.54-13.64-14.44-67.6-7.45-79.68,31.5-2.27,7.4-3.16,11.1.54,15.24Z" transform="translate(-47.04 -19.27)"/><path class="cls-29" d="M194.17,312.89c4.27,1.79,9.8,5,12.92,3.53,15.91,2.31,18.36,4.63,29.19-8.07,6.68-7.89,13.81-18.72,6.33-27.81.44,13.55.09,15.78-8.34,25.71C223,319.62,201,322.52,192.83,297.34c-5.21-16,6.37-16.89,5.57-27.09.22-3.21-.71-1.16.71-3.7-15.28,10.83-14.88,31.59-4.94,46.34Z" transform="translate(-47.04 -19.27)"/><path class="cls-30" d="M472.47,337.23l4.32,1.6c-.58-9.4-17-27.85-24.2-32.26l3.84-15.29c17.33,2.45,22.46,22.77,30.35,27.19l-.85-4.24c.62-9.58-20.23-26.51-29.81-27.36l-4.55.76-2.45,21.21c6.24,5,7.93,6.1,13.1,12.92,4.81,6.38,6.64,8.38,10.25,15.47Z" transform="translate(-47.04 -19.27)"/><path class="cls-15" d="M136.23,365.75c-7.93-3.79-10-27.45-10.69-36l-5.31-3.52c-1.29,14.18-.35,20.59,2,33.87,1.79,9.76,7.09,23,18.32,11.68-2.18-5.66,0-.49-4.37-6.06Z" transform="translate(-47.04 -19.27)"/><path class="cls-15" d="M68.9,457.59c2.67,4.06,18.4,14.27,23.44,14.53l5.79-23.53-14.44-5.34L80,449c5,7.67,12.61,9.54,12.21,15.16-4.76-2-11.67-9.1-16.53-11.5Z" transform="translate(-47.04 -19.27)"/><path class="cls-16" d="M460.48,183.3l1.16,9.63,2.14,3.56-3.16,1,2.71,5.31,1.74,2.27,3.57,5.35c10.56-2.81,6-5.53,7.44-13.86l-.71-6.51c-5.35-4.68-4.15-3.79-3.12-11.45l-9.45-5c-4.59,3.52-2.36,2.14-2.32,9.76Z" transform="translate(-47.04 -19.27)"/><path class="cls-23" d="M477.15,268.29c-6.42.17-7-11.23-6.19-16.49,7.57,1.51,8.6,9.49,6.19,16.49Zm-10.21-29.1c3.93,17.55,5.57,22.32-11.63,18.45l-3.74,30,4.55-.76c-.45-7.84.17-18.14,4-24.2,13.5,1.43,3.92,1.87,10.6,8.47l3.26,4.14,3.43-2.63c13.28-2.49-3.84-27.23-6.15-33.55L467,235.4Z" transform="translate(-47.04 -19.27)"/><path class="cls-15" d="M472.2,412.27c1.79-3.65,7.13-19.87,8.65-24.77,2.18-7.22,0-22.33-2.9-29.28-3.25,5.26-4.5,21.08-6.91,28.74-3,9.58-8.55,18.23,1.16,25.31Z" transform="translate(-47.04 -19.27)"/><path class="cls-11" d="M390.65,524.22l31-15.51-1.56-10.56c-6.68-.45-13.46,5.57-19.29,9.18-10.3,6.42-13.46,2-10.12,16.89Z" transform="translate(-47.04 -19.27)"/><path class="cls-15" d="M471.27,239.1c2.31,6.32,19.43,31.06,6.15,33.55.62,1.21-.45,5.89,7.44,2.19,15.15-7.13-9-45.1-14.53-49.25Z" transform="translate(-47.04 -19.27)"/><path class="cls-31" d="M231.16,494.72l6.59,8.82c7.53,6.11,11.05,16.49,23.31,15.87C261.82,506,256,507,247.69,500.33c-6.06-4.9-10.56-11.54-19-11.14Z" transform="translate(-47.04 -19.27)"/><path class="cls-15" d="M100.05,226.26c5.21,5.66,1.73,2.85.13,5.44-1.29-2.18-4.59-.85-.13-5.44Zm-6.55,5.53c4.1,4.19,6.19,5.17,9.67,10.6,3.25,5,4.19,10,8.6,12.62,1.51-10.12-1.74-17.79-2.54-27.46-3.92-4.59-2.63-7.08-7.89-10.6-6.64,3.74-9.31,7.13-7.84,14.84Z" transform="translate(-47.04 -19.27)"/><path class="cls-15" d="M391,112.53c2.45,4.77,4.05,5.22,9.31,7.58l8.78-3.88c-2,8.11-9.4,3.79-5,11.37,2.54,4.41,9.36,1.33,12.79-.45-1.15-8.51-2.31-7.49-3-10.16s1-4.77-.71-11.85l-4.77-.18Z" transform="translate(-47.04 -19.27)"/><path class="cls-11" d="M449.43,174.83c1.52-12.52-1.16-30.48-7.84-40.91-2.94,10-5.08,12.62-4.24,24.69.54,7.27,5.75,14.75,12.08,16.22Z" transform="translate(-47.04 -19.27)"/><path class="cls-10" d="M512.49,451.49a18,18,0,0,1-3,2.54c-.35.27-1.51,1-1.87,1.25-.89.67-2.49,2-3.56,2.89L501.26,463l2.63-1.74c0,9.54-1.12,11.77,4.28,20.24l5,.84c-2.77-5.35-17-18.27,4.54-29.37,5.48-2.85,13-3.61,18.23.76,6.46,5.39,3.92,13.55,3.52,21.08,5.21.67.18-1.47,5.66,3.79C542,468.51,548.9,450.29,533,447.88l-10-1.11Z" transform="translate(-47.04 -19.27)"/><path class="cls-2" d="M205.26,340.12c16.54,11.37,59.36-19.74,49.74-42.56l-3.43,8.38c-10.08,38.51-41.23,26.3-46.31,34.18Z" transform="translate(-47.04 -19.27)"/><path class="cls-32" d="M456.12,238.83l-.81,18.81c17.2,3.87,15.56-.9,11.63-18.45-.84-4.19-1.15-6.33-5.08-6.6-4.76-.36-2.89,1.83-5.74,6.24Z" transform="translate(-47.04 -19.27)"/><path class="cls-33" d="M432.14,134.24c-5.26-4.46-4-6.82,2.18-8.16.09,5.53.45,4.06-2.18,8.16ZM434,152.55c-.81-6.37.26-16.22,5.08-20.72l.18-4.59c-7-5.88-8.87-6.24-18.1-5-.44,7.84,1.07,10.38,4.37,17,6.68,13.55,2.32,11.63,8.47,13.28Z" transform="translate(-47.04 -19.27)"/><path class="cls-9" d="M189.26,449.31l.94,6.68a6.58,6.58,0,0,0,.22,1.07c2.1-4.72,10.07,6.28,14.62,9.45,6.82,4.72,9,9.67,15.73,13.37l-.93-3,3.43,1.47c-5.53-9.22-15.87-13.77-23.18-20.85,2.5-37.22,2-14.71,5.35-32.22-2.76.8-5.21-1-7.8,11-1.29,6-.58,10.78-1.87,16.89Z" transform="translate(-47.04 -19.27)"/><path class="cls-16" d="M347.11,372.21l.63,4.59c6.59-3.21,11.58-6.73,17.78-10.61,2.31-6,2.85-4.59,2.85-11.49-12.12-1.21-22,4.1-21.26,17.51Z" transform="translate(-47.04 -19.27)"/><path class="cls-16" d="M300.27,390.12c3-4.63,2-2.58,8.92-2.49-6.55-9.36-25.49-17.69-30.75-3.79,5.17,6.77,13.14,7.13,21.83,6.28Z" transform="translate(-47.04 -19.27)"/><path class="cls-23" d="M167.7,448.68c7.53,1.29,4.9,4.15,11.36,9.18,3.43,2.68,6.91,4.41,10.65,7.44,7,5.57,17.6,11.9,17,22.06,7.62-5.66-1-5.88,4.28-5.08-5.8-9.76-16.54-16.13-20.55-25.22a6.58,6.58,0,0,1-.22-1.07l-.94-6.68-2.22-2.9c-3,3.3-.81,0-2,4.9-1.56,6.15,1.47-2.41-.67,4.46-10.25-2.72-8-8.29-15.29-14.49Z" transform="translate(-47.04 -19.27)"/><path class="cls-5" d="M115.15,245.47l-1.07,22.46c7.09.18,10.17,1.38,12-5.7a63.29,63.29,0,0,0,1.16-18.5Z" transform="translate(-47.04 -19.27)"/><path class="cls-8" d="M148.67,533.93c7.31,9.67,58.6-3.16,60.38-17.29-2,.05-20.41,11.05-26.38,13-8.38,2.72-30.66,2.14-34,4.32Z" transform="translate(-47.04 -19.27)"/><path class="cls-5" d="M106.46,309.15l-8.73-4.81-5-.71-2,10.87c4.46,4.28,11.37,10.78,17.38,11.5.76-9.09,2.63-9.23-1.74-16.85Z" transform="translate(-47.04 -19.27)"/><path class="cls-22" d="M401.57,280.54c-2,.31-22,14.75-49.74,1.47-6.19-3-8.91-7-14.88-8.29,5.62,17.38,63,25.63,64.62,6.82Z" transform="translate(-47.04 -19.27)"/><path class="cls-34" d="M518.91,498.5c4.76,7.67,14.88,12.3,20.36,19.61,7.4,9.85,8.65,21.3,12.84,26.16,4.81-6-3.57-20.5-8-26.47-5.93-8-12.48-11.63-19.17-18.27,4.55-3.16,1.79-.94,4.24-4.1-8,1.78-4.1,3.07-10.25,3.07Z" transform="translate(-47.04 -19.27)"/><path class="cls-32" d="M408.48,141.37l3.92,10.47c7.22,2.72-1.25-.85,3.43-.18,2.67.4.53,1.34,5.88,1.12,4-23.45-15.19-30.84-13.23-11.41Z" transform="translate(-47.04 -19.27)"/><path class="cls-11" d="M112.66,222.92c.36,6.06,1.83,13.55,5.35,17.91l7-1.6c2-6.42.81-13.9,0-20.32-6.64-1.56-7.8-.13-12.34,4Z" transform="translate(-47.04 -19.27)"/><path class="cls-35" d="M211,482.28l6.68,3.75,3.92-.94-.8-5.21c-6.73-3.7-8.91-8.65-15.73-13.37-4.55-3.17-12.52-14.17-14.62-9.45,4,9.09,14.75,15.46,20.55,25.22Z" transform="translate(-47.04 -19.27)"/><path class="cls-36" d="M543.73,484.51c9,.09,34.89,26.25,49.6,17.87-2-4.5-7.49-2.36-13.59-3.92-15.38-4-26.74-17.11-34.63-19.83.27,3.7.45,2.05-1.38,5.88Z" transform="translate(-47.04 -19.27)"/><path class="cls-22" d="M95.41,159.06l4.19-8.6c6.11-2.41,13.46-1.7,20.28-2.14-4.86-3.88-9.32-1.87-15.87-1.78-.09-8.29,3.12-24,7.89-30.84l6.11.4c-3.88-4.23-3.79-3.3-9.23-.8l-.93-3.66a6.12,6.12,0,0,0-.58,1.07c-.14.27-.4.76-.54,1.12s-.27.8-.4,1.24Z" transform="translate(-47.04 -19.27)"/><path class="cls-32" d="M323.76,541.15c4.14-.13,8,0,12.08-.13,0,0,5.08-.4,5.08-.4,5.21-1.21,1.38.13,4.85-2.19-5.88.14-11.63.9-17.55.63-7.49-.36-10.48,0-14.58-5.44l32.54-2.81-1.39-2.58c-3.65-1.92-8.33-.05-13.45.49-7.27.8-12.75-.49-19.52.85-2.5,10.07,3.16,11.63,11.94,11.58Z" transform="translate(-47.04 -19.27)"/><path class="cls-31" d="M140.47,353.72c5-1.34,6.68-3,8.64-7.62-2-4.51-3.79-5.49-6.82-9.19-3.74-4.5-3.47-6.86-9.58-5.7-.4,6.46,4.24,17.2,7.76,22.51Z" transform="translate(-47.04 -19.27)"/><path class="cls-3" d="M345.77,538.43l2.46-1.2-2.05-6.42-32.54,2.81c4.1,5.48,7.09,5.08,14.58,5.44,5.92.27,11.67-.49,17.55-.63Z" transform="translate(-47.04 -19.27)"/><path class="cls-15" d="M465.07,205.05l-1.74-2.27-5.65-.81c.31,5.08,1.15,9.36,1.42,15.07.8,16.62.62,11.27,4.37,13,4.41-2.58,2,2.85,3.43-5.3Z" transform="translate(-47.04 -19.27)"/><path class="cls-37" d="M354.69,297.92c7.84,4.81,38.81,4.55,43.94-4.19-4.95-2.72-14.89,4.68-31.33,3.12-15.51-1.51-8.33-2.32-12.61,1.07Z" transform="translate(-47.04 -19.27)"/><path class="cls-38" d="M571.05,507.46c-14.13-4.63-23.85-12.12-27.95-12.74-2.05,5,.09,3.25,5.4,6.64,9.13,5.79,21.61,12.39,32.31,11.85-2.14-5.66,4.72-.93-9.76-5.75Z" transform="translate(-47.04 -19.27)"/><path class="cls-39" d="M220.46,349.3c2.27,1.25-.45,4.5,12.17-1.24,9.09-4.15,24.24-12.48,23.21-23.18-4.27,2.59-6.46,9.05-14.48,14.08-6.64,4.15-15.2,6.38-20.9,10.34Z" transform="translate(-47.04 -19.27)"/><path class="cls-2" d="M211.81,530.9c-6.9-3.65-8.64,1.79-22.77,7.94-5.93,2.54-17.2,6.41-17.47,13.41Z" transform="translate(-47.04 -19.27)"/><path class="cls-22" d="M402.42,473.5c3.83,1.52,3.92-2.63,2.36,3.75C412,471.1,428,453.49,430.4,443.47c-6,1.56-9.89,10.11-13.37,15.6-4.68,7.44-10,9.09-14.61,14.43Z" transform="translate(-47.04 -19.27)"/><path class="cls-40" d="M114.53,307.15l5,12.7,6.59,7.08-.62-.49,7.17-.18c-1.82-4.59-5.79-6.81-8.91-11.23-3.08-4.27-4.46-8.73-7.53-12.79-3.66,3.08-1.52-.58-1.74,4.91Z" transform="translate(-47.04 -19.27)"/><path class="cls-8" d="M543.1,508.09c1.7,3.29,9.81,10.6,13.37,15.42,4.33,5.79,5.93,13.5,13.11,12.92-2.1-7.58-18.32-27.59-26.48-28.34Z" transform="translate(-47.04 -19.27)"/><path class="cls-35" d="M475.37,190l.71,6.51,3.21,7.48c4.41-5.21,6.42-8.73,6.1-15.15-4.27-3.38-4.76-3.92-10.25-4.77Z" transform="translate(-47.04 -19.27)"/><path class="cls-32" d="M108.78,270.92c1.2-2.41,2.72-2.81.58-9.32l-12-20.32c-.94,10.61,3.79,15.15,6.64,22.82,2.41,6.5-.09,4.19,4.81,6.82Z" transform="translate(-47.04 -19.27)"/><path class="cls-31" d="M113.42,294.62c3.12-5.34,7.17-15.64,6.37-22.19-7.4-.58-7.62-.18-8.29,7.58-.53,6.41-1,9.8,1.92,14.61Z" transform="translate(-47.04 -19.27)"/><path class="cls-9" d="M215.74,394.94c4.18-7.13-.9-8.56,3.2-18.54,2.54-6.28,6.64-6.64,8.61-11.9-12.48.53-17.61,21.12-11.81,30.44Z" transform="translate(-47.04 -19.27)"/><path class="cls-41" d="M289.58,365.75c3.07,2.09,9.49,3.07,13.59,5.57,5.84,3.65,4,6.91,9.8,9.67,5.93-9.09-15.19-19.56-23.39-15.24Z" transform="translate(-47.04 -19.27)"/><path class="cls-41" d="M341.72,106.79c2.41-4.1,3.47-10,5.39-15.42,2.59-7.36,5.66-6.64,5.93-11.72-5.66.49-7.93,4.9-9.67,10.11-2.59,7.84-4.32,12.21-1.65,17Z" transform="translate(-47.04 -19.27)"/><path class="cls-20" d="M409,308.66c5.08,3.43,9.18,1.25,14.44,4,5.44,2.85,3.34,6.24,10.7,8.55-1.34-11.05-15.51-17.73-25.14-12.52Z" transform="translate(-47.04 -19.27)"/><path class="cls-41" d="M200.76,390.48c.27-.4.58-.89.76-1.2L206.29,376c3.21-5.88,6.33-5.75,7.53-11.68-9.23,1.38-16.8,18.27-13.06,26.16Z" transform="translate(-47.04 -19.27)"/><path class="cls-42" d="M335.79,374.75c3.34-5.53,1.7-7.75,4.24-13.86,2.76-6.68,4.36-4.86,6.86-10.47-6.33.31-7.58,1.82-10.34,8.69a45.61,45.61,0,0,0-2.18,6.77c-.9,6,.13,6.37,1.42,8.87Z" transform="translate(-47.04 -19.27)"/><path class="cls-43" d="M422.91,334.46c1.39-11.14-13.1-17.6-21.34-17,4.1,4.32,6.24,3.34,11.41,7.13,5.34,4,4.85,7.62,9.93,9.89Z" transform="translate(-47.04 -19.27)"/><path class="cls-32" d="M477.15,268.29c2.41-7,1.38-15-6.19-16.49-.81,5.26-.23,16.66,6.19,16.49Z" transform="translate(-47.04 -19.27)"/><path class="cls-44" d="M440.21,175.46c-2.54-6.55-2.86-3.52-6.69-8.91-4.81-5-6-9.1-12.79-9.23l14.35,17.6Z" transform="translate(-47.04 -19.27)"/><path class="cls-45" d="M185.3,323.72c-4.9-4.19-4.59-2.22-9.67-5.08-6-3.38-2.68-4.45-9.67-5.79,1.33,5.79,6,9.22,12,11.41,6.81,2.54,3.07,1.6,7.35-.54Z" transform="translate(-47.04 -19.27)"/><path class="cls-15" d="M140.69,448.33c.85-1,4.32,1.51,5.17-5.89.31-2.8-.54-6.37-1.2-9.36L139,437.81c-.32,5.66-1.21,6,1.69,10.52Z" transform="translate(-47.04 -19.27)"/><path class="cls-46" d="M375.72,103.75l.27,4.15,3,.58c3.66-11.14,5.75-6,9.1-12.88-6.78-3.57-9.41,2.76-12.35,8.15Z" transform="translate(-47.04 -19.27)"/><path class="cls-22" d="M418.32,253.62c4.24-5.57,6.07-15.73,1.56-21.56-2.13,4.45-.93,5.39-1.69,10.47-.27,1.69-1.29,4.77-1.38,5.17-.27,1.91-.67-1.12-.27,2.45Z" transform="translate(-47.04 -19.27)"/><path class="cls-43" d="M343.06,332.77c-2.23-5.44-3.48-3.21-7.71-7.13-3.93-3.61-2.54-5.21-8.34-7.35.09,6.95,8.74,15.15,16.05,14.48Z" transform="translate(-47.04 -19.27)"/><path class="cls-43" d="M283.34,347.25c5-4.1,9-11.67,4.63-18.18-2.09,4-1.69,5.35-3.52,9.63-2.67,6.15-3.61,3.07-1.11,8.55Z" transform="translate(-47.04 -19.27)"/><path class="cls-47" d="M365.52,366.19c3.43-2.8,1.82,1.12,3.34-5.08l4.37,1c-.05-7.49-1.88-1.61,1.64-6.24,1.88,2.72,2.63-2.27,1.16,6,3.21-2.5,2.54,4,3.17-5.49-6.87-4.32-1.79-1.73-10.83-1.73,0,6.9-.54,5.48-2.85,11.49Z" transform="translate(-47.04 -19.27)"/><path class="cls-48" d="M489,205.32l14.26,8.33c.45-6.46-8.11-9.71-8.91-9.94-7.58-1.82-4,.45-5.35,1.61Z" transform="translate(-47.04 -19.27)"/><path class="cls-41" d="M104.77,206.52c6.6,3.65,11.1,3.07,18.63-1.65-6.28-4-3.57-1.92-9.89.27-3.12,1.07-1.43.13-3.84.22-3.7.22-1.11-1.16-4.9,1.16Z" transform="translate(-47.04 -19.27)"/><path class="cls-49" d="M149.78,453l-3.12-2.23c-5.21,3.48-6.51,2-3.12,8.69,5.22-1.91,4.77-1.25,6.24-6.46Z" transform="translate(-47.04 -19.27)"/><path class="cls-50" d="M432.14,134.24c2.63-4.1,2.27-2.63,2.18-8.16-6.19,1.34-7.44,3.7-2.18,8.16Z" transform="translate(-47.04 -19.27)"/><path class="cls-14" d="M431.74,440.08c4.86-1.74,4.54.31,3.74-5.88-6.91-1.07-6.19.71-3.74,5.88Z" transform="translate(-47.04 -19.27)"/><path class="cls-51" d="M341.81,488.88c5.75-1.07,3.43.89,4.81-4.55-5.35-2.27-7.66-1.2-4.81,4.55Z" transform="translate(-47.04 -19.27)"/><path class="cls-13" d="M259.1,104.24c3.29-4.18,3.47-4.9-1.38-7.26-2.37,3.92-3.08,4.37,1.38,7.26Z" transform="translate(-47.04 -19.27)"/><path class="cls-52" d="M271.66,391.91c2.45-6.51,2.9-4.28-1.91-6.51-3.7,4.81-3.21,4,1.91,6.51Z" transform="translate(-47.04 -19.27)"/><path class="cls-53" d="M541.59,282.23c1.65-3.69,2.18.41.53-5.66-5.61,0-7.88,3.57-.53,5.66Z" transform="translate(-47.04 -19.27)"/><path class="cls-2" d="M363.07,482.55c4.36-.18,4.63,0,4.76-4.63-6.19-1.3-5.21-.72-4.76,4.63Z" transform="translate(-47.04 -19.27)"/><path class="cls-46" d="M170.59,116.41c-.27-6.15-1.42-7.35-5.3-3.21,2.67,5.44.49,2.85,5.3,3.21Z" transform="translate(-47.04 -19.27)"/><path class="cls-54" d="M526.39,363.07c6.2-2.85,4.82-.17,1.92-5.92-2.63,1.82-5.84.44-1.92,5.92Z" transform="translate(-47.04 -19.27)"/><path class="cls-55" d="M259.28,266.33c8.33-2.95,3.65-1.7,1.82-5.71-2.45,2-5.79.45-1.82,5.71Z" transform="translate(-47.04 -19.27)"/><path class="cls-55" d="M360.08,160.89c5.08-.63,5.26-.58,2.72-5.31-3,1.12-5.31-1.16-2.72,5.31Z" transform="translate(-47.04 -19.27)"/><path class="cls-52" d="M239.67,454.34c-4.42-3.07-3.61-3.34-5.75,1.52,4.54,3.43,3.52,3,5.75-1.52Z" transform="translate(-47.04 -19.27)"/><path class="cls-51" d="M442.21,354c4.06-2.72,4.59-1.56,1.65-6.11-4.72,2.41-4.68,2.32-1.65,6.11Z" transform="translate(-47.04 -19.27)"/><path class="cls-45" d="M391.23,322.21c4.06,2.32,3.43,2.94,5.7-1.47-6-5.71-3.69-.85-5.7,1.47Z" transform="translate(-47.04 -19.27)"/><path class="cls-45" d="M274.25,245.65c2.76,2,.53,4.28,5.3-.18-3.12-8.42-4.23-1.07-5.3.18Z" transform="translate(-47.04 -19.27)"/><path class="cls-36" d="M410,259.11c1.56,6.19.62,5.88,5.39,1.42-2.54-3.34-1.12-3.7-5.39-1.42Z" transform="translate(-47.04 -19.27)"/><path class="cls-53" d="M262.57,487.1c7.27,0,4.15,1.29,4.37-4.33-5.3.72-3.57-1.51-4.37,4.33Z" transform="translate(-47.04 -19.27)"/><path class="cls-41" d="M290.51,321.58c3.93-4.36,3.17-3.25-1.2-5.25-2.32,3.69-3.39,3.38,1.2,5.25Z" transform="translate(-47.04 -19.27)"/><path class="cls-22" d="M528.44,244.49c5.08.13,4.64-.09,4.68-4.1l-3.52-.94Z" transform="translate(-47.04 -19.27)"/><path class="cls-36" d="M211.15,420.87c.71-1.33,5,.54,1.47-5.57-4.1,1.88-5.26.54-1.47,5.57Z" transform="translate(-47.04 -19.27)"/><path class="cls-53" d="M308.56,287.89c3.35-4.68,3.26-2.89-1.51-5.48-1.52,3.79-4.06,2.72,1.51,5.48Z" transform="translate(-47.04 -19.27)"/><path class="cls-55" d="M221.75,521.77c2.41-3.7,3.12,2.72,2.54-5.39-5.66.75-5.61,1.2-2.54,5.39Z" transform="translate(-47.04 -19.27)"/><path class="cls-56" d="M373.23,362.14l2.8-.22c1.47-8.29.72-3.3-1.16-6-3.52,4.63-1.69-1.25-1.64,6.24Z" transform="translate(-47.04 -19.27)"/><path class="cls-53" d="M295.28,242.44c-.22-6.82,1.3-2.45-3.25-5.08-1.92,5.08-2.45,4.54,3.25,5.08Z" transform="translate(-47.04 -19.27)"/><path class="cls-20" d="M207.22,104.33c4,3.12,2,2.19,5.13,0-3.43-7.71-3.92-1.33-5.13,0Z" transform="translate(-47.04 -19.27)"/><path class="cls-43" d="M361,174.52c4.1-2.45,3.29,1.74,2.67-4.77-4.46.27-5.79.23-2.67,4.77Z" transform="translate(-47.04 -19.27)"/><path class="cls-53" d="M287.53,295.87c4.41-6,3.21-1.25.13-6-3,4.24-5.3,1-.13,6Z" transform="translate(-47.04 -19.27)"/><path class="cls-45" d="M400.05,309.06c3.7-.67,5.93,1.16,3.21-4.68-4.28,1.52-3-.84-3.21,4.68Z" transform="translate(-47.04 -19.27)"/><path class="cls-53" d="M184.18,223.94c3.84-5.52,3.44-1,0-6.06-2.71,4.1-4.76.67,0,6.06Z" transform="translate(-47.04 -19.27)"/><path class="cls-51" d="M232.8,368.15c6.64.45,2.68.45,4.73-2.67-4.19-1.83-4.28-3.48-4.73,2.67Z" transform="translate(-47.04 -19.27)"/><path class="cls-53" d="M71.44,379.16c4.81-.71,5.17.45,3.07-4.63-4.59,2-2.94-2.1-3.07,4.63Z" transform="translate(-47.04 -19.27)"/><path class="cls-54" d="M541.54,322.92c3.61-4.9,3.88-.93.14-5.88-4.73,5.12-2.68,1.87-.14,5.88Z" transform="translate(-47.04 -19.27)"/><path class="cls-45" d="M220.24,361.25c6.5-.36,2.63,1.29,4.32-2.94-4.68-2.32-4.06-2.28-4.32,2.94Z" transform="translate(-47.04 -19.27)"/><path class="cls-57" d="M416.77,226.8c3.2-2,5.12.53,1.47-4.77-3.3,1.47-4.46,0-1.47,4.77Z" transform="translate(-47.04 -19.27)"/><path class="cls-42" d="M274.16,86.51c4.59-1.83,2.72,2.36,2.85-4.46-3.34.54-6,.14-2.85,4.46Z" transform="translate(-47.04 -19.27)"/><path class="cls-45" d="M100.18,231.7c1.6-2.59,5.08.22-.13-5.44-4.46,4.59-1.16,3.26.13,5.44Z" transform="translate(-47.04 -19.27)"/><path class="cls-45" d="M364.27,145.15c4.23-1.87,2.54,2.28,2.81-4.41-3.52.4-5.89,0-2.81,4.41Z" transform="translate(-47.04 -19.27)"/><path class="cls-53" d="M508.39,219.4c2.49-3.83,4.54.27.13-5.53-4.54,4.64-1.82,2.72-.13,5.53Z" transform="translate(-47.04 -19.27)"/><path class="cls-51" d="M287.93,311.47c1.6-2.76,4.81.36-.13-5.44-3.39,4.55-2.45,2.27.13,5.44Z" transform="translate(-47.04 -19.27)"/><path class="cls-41" d="M346.26,297c3.35-2.19,3.39-.58,1.48-4.73-2.9,1.29-5,.14-1.48,4.73Z" transform="translate(-47.04 -19.27)"/><path class="cls-53" d="M519,401.89c3.83-2,3.74-.49,1.47-4.64-3.08,1.61-4.64.72-1.47,4.64Z" transform="translate(-47.04 -19.27)"/><path class="cls-13" d="M356.92,77.37c4.59-5.61,1.78-2.58,0-5.48-1.16,2.23-4,.67,0,5.48Z" transform="translate(-47.04 -19.27)"/><path class="cls-55" d="M372,156.92c4.59,2.32,2.59,1.78,4.82-1.52-6.38-3.07-2.72-.35-4.82,1.52Z" transform="translate(-47.04 -19.27)"/><path class="cls-51" d="M316.14,304.43c2.67-4.19,2.54-.85-.05-4.9-2.09,2.85-4.94.31.05,4.9Z" transform="translate(-47.04 -19.27)"/><path class="cls-53" d="M538.38,503.85c3.3-4.86,2.41-1,0-4.54-4.77,4-2.14,1.82,0,4.54Z" transform="translate(-47.04 -19.27)"/><path class="cls-55" d="M278.44,354.61c2.94-4.77,2.14-.27,0-4.86-.89,1.43-4.86-1.6,0,4.86Z" transform="translate(-47.04 -19.27)"/><path class="cls-54" d="M176.79,212.18c1.65-2.41,4.19,2.45,0-5-2.36,3.7-3,.94,0,5Z" transform="translate(-47.04 -19.27)"/><path class="cls-54" d="M190,328.72c4.1-5.62,1.74-1.25,0-5-1.12,1.91-3.66-.8,0,5Z" transform="translate(-47.04 -19.27)"/><path class="cls-53" d="M350.63,334c1.7-2.89,3.43,1.92.05-5.08-2.41,3.7-3.57.36-.05,5.08Z" transform="translate(-47.04 -19.27)"/><path class="cls-58" d="M259,321.27c3.61-5.39,1.51-1.47-.05-4.72-1.42,2.36-4.63-2.27.05,4.72Z" transform="translate(-47.04 -19.27)"/><path class="cls-53" d="M316.23,248.63c2.58-4.19,2.32,2.36,1.34-2.72l-1.3-2.49c-2.45,3.61-3.34,1.11,0,5.21Z" transform="translate(-47.04 -19.27)"/><path class="cls-51" d="M67.11,446.41c1.74-2.9,2.59,3.39.9-4-.05-.31-.63-.84-.81-1.29-2.18,4.23-2.72.58-.09,5.26Z" transform="translate(-47.04 -19.27)"/><path class="cls-53" d="M89.44,345.07c-3.25,4.55-2.23,1.34,0,4.9.22-.4.76-.89.85-1.16,1.65-6.41,1.11-.49-.85-3.74Z" transform="translate(-47.04 -19.27)"/><path class="cls-45" d="M166.05,218.11c2.89-4.82,2.18-.49-.05-5.17-1.83,3.29-2.63-4.1-.76,3.87a7.06,7.06,0,0,0,.81,1.3Z" transform="translate(-47.04 -19.27)"/><path class="cls-59" d="M229.11,109.59c1.73-2.63,2.49,2.94.84-3.83-.09-.31-.62-.89-.84-1.38-2.41,4.59-2.72-4-.81,4,.09.27.58.8.81,1.2Z" transform="translate(-47.04 -19.27)"/><path class="cls-51" d="M63.91,410.76c2.4-4.64,2.22-.45,0-4.77-2.14,3.16-3,.94,0,4.77Z" transform="translate(-47.04 -19.27)"/><path class="cls-9" d="M131.51,138.25c-3.21,4.54-2.32.76,0,4.63,2.19-4.32,3-.13,0-4.63Z" transform="translate(-47.04 -19.27)"/><path class="cls-45" d="M322.07,312.18c3.61-5.12,1.87-.76,0-4.81-2.32,4-2.45-3.83-1.16,2.54Z" transform="translate(-47.04 -19.27)"/><path class="cls-53" d="M162.53,307.77c5.17-1.6,2,1,3.25-3.3-8.78,1.21.13.58-3.25,3.3Z" transform="translate(-47.04 -19.27)"/><path class="cls-56" d="M517.44,439.19c3.29-.53-.05,3.3,3.34-1.92.13-.26.18-1,.35-1.51-5.21,1.34,1.79-3.52-3.69,3.43Z" transform="translate(-47.04 -19.27)"/><path class="cls-59" d="M165.11,202.64c-1-4.14,3.48.05-.85-2.49-8.33-4.9,5.57,1.11-2.31-.58.8,4-1.16,2.27,3.16,3.07Z" transform="translate(-47.04 -19.27)"/><path class="cls-60" d="M116.59,300.92" transform="translate(-47.04 -19.27)"/><path class="cls-60" d="M-344-109.44" transform="translate(-47.04 -19.27)"/></svg>